<?xml version="1.0" encoding="utf-8"?>
<!-- Generator: Adobe Illustrator 17.1.0, SVG Export Plug-In . SVG Version: 6.00 Build 0)  -->
<!DOCTYPE svg PUBLIC "-//W3C//DTD SVG 1.1//EN" "http://www.w3.org/Graphics/SVG/1.1/DTD/svg11.dtd">
<svg version="1.1" id="Layer_1" xmlns="http://www.w3.org/2000/svg" xmlns:xlink="http://www.w3.org/1999/xlink" x="0px" y="0px"
	 viewBox="0 875.3 1224 224.7" enable-background="new 0 875.3 1224 224.7" xml:space="preserve">
<g>
	<g>
		<path fill="#3C3B3C" d="M742.4,962.7c-4.4-6.5-6.9-14.3-6.9-22.8v-0.5c0-21.4,15.3-38.6,38.2-38.6h0.5c22.3,0,37.6,17.4,37.6,38.6
			v0.5c0,6.5-1.5,12.9-4,18.3l-7.4-6.9L783,971c14.9,2.5,30.7,4.4,46.6,5.9l0,0c7.4-10.4,11.4-22.8,11.4-35.7v-0.5
			c0-35.7-27.7-64.9-66.9-64.9c-39.2,0-67.4,29.2-67.4,65.5l0,0c0,4,0.5,7.4,1,10.9C718.6,956.3,730,959.7,742.4,962.7z"/>
		<path fill="#3C3B3C" d="M935.7,976.7c9-0.5,17.4-1.5,25.8-2.5c2.5-6.9,4-15.3,4-25.2V878h-27.7v72.3c0,13.9-5,23.3-13.4,27.3
			C928.3,977.6,932.3,977.1,935.7,976.7z"/>
		<path fill="#3C3B3C" d="M1013,965.7V878h-27.7v93.2C994.7,969.6,1003.7,967.7,1013,965.7z"/>
		<path fill="#3C3B3C" d="M1062.1,953.8v-30.2l18.3,24.3c9-3,17.8-5.9,26.3-9.4l-46.6-60.9h-25.8v83.8
			C1044.3,958.8,1053.2,956.3,1062.1,953.8z"/>
		<path fill="#3C3B3C" d="M900,978.6c-10.4-4-16.4-13.9-16.4-29.2V878h-27.7v72.3c0,11.4,1.9,20.8,5.5,28.8
			C873.8,979.1,886.6,979.1,900,978.6z"/>
		<path fill="#3C3B3C" d="M1034.8,973.6v30.7h27.3v-35.2C1053.2,970.6,1044.3,972.1,1034.8,973.6z"/>
		<path fill="#3C3B3C" d="M985.3,980.1v23.8h27.7v-27.3C1003.7,978.1,994.7,979.1,985.3,980.1z"/>
		<path fill="#3C3B3C" d="M956,983c-31.3,2.5-61.5,3.5-91.2,3c9.4,13.4,24.8,20.3,45.1,20.3c21.8,0,38.2-8,47.6-23.3
			C957.1,983,956.5,983,956,983z"/>
		<path fill="#3C3B3C" d="M767.7,978.6h-0.5c-19.3-2.5-37.6-5.9-55-9.9c10.4,22.3,32.7,37.6,60.9,37.6c13.9,0,27.3-4,37.6-10.9
			l19.8,17.8l17.8-20.3l-9.4-8C814.3,983.6,790.4,981.6,767.7,978.6z"/>
		<path fill="#3C3B3C" d="M1119.6,955.8L1119.6,955.8c-9,2.5-18.3,5-27.7,6.9l31.7,41.6h23.8v-56.5
			C1137.9,950.3,1129,953.4,1119.6,955.8L1119.6,955.8z"/>
		<path fill="#3C3B3C" d="M1119.6,878v56c9.4-4,18.9-8.4,27.3-12.4V878L1119.6,878L1119.6,878z"/>
		<path fill="#3C3B3C" d="M306.1,916.1c9.9-0.5,19.3-1,29.2-1.5c6.5-8,16.4-13.4,27.3-13.4c14.9,0,23.3,4.4,33.2,12.9l17.4-21.4
			c-13.4-11.4-26.8-17.4-49.6-17.4c-28.8,0-52.1,16.8-61.5,40.7C303.2,916.1,304.7,916.1,306.1,916.1z"/>
		<path fill="#3C3B3C" d="M464.8,917.7c6.5-9.9,17.8-16.4,31.3-16.4c17.4,0,30.2,10.4,35.7,25.2c10.9,1.9,21.4,4,31.3,5.9
			c-4-32.2-30.2-57-66.4-57c-29.2,0-52.5,16.4-62.5,40.1C444.5,916.1,454.9,917.1,464.8,917.7z"/>
		<path fill="#3C3B3C" d="M245.7,921.1V878h-27.7v47.1C226.8,923.6,236.2,922.6,245.7,921.1z"/>
		<path fill="#3C3B3C" d="M663,955.8L663,955.8L663,955.8l-59-77.9h-25.8v58.5c9.4,2.5,18.9,5,27.3,8V924l60.9,80.3h23.8v-40.7
			C680.9,961.2,672,958.3,663,955.8L663,955.8z"/>
		<path fill="#3C3B3C" d="M578.3,1004.4h27.3v-37.2c-9-4.4-17.8-8.4-27.3-11.9V1004.4z"/>
		<path fill="#3C3B3C" d="M663,878v56c8.4,4.4,17.8,8.4,27.3,12.4V878H663z"/>
		<path fill="#3C3B3C" d="M534.7,941L534.7,941v0.5c0,21.8-15.3,39.2-38.2,39.2c-22.3,0-38.2-17.8-38.2-39.7v-0.5
			c0-5,1-9.9,2.5-14.3c-9.4-1-19.3-2.5-29.2-3c-1.5,5.5-2.5,11.4-2.5,17.8v0.5c0,35.7,27.7,64.9,66.9,64.9c35.7,0,62.5-24.8,66.9-57
			C554,946.3,544.1,943.4,534.7,941z"/>
		<path fill="#3C3B3C" d="M362.6,955.3h27.7v17.8c-6.9,5-15.9,7.4-26.3,7.4c-22.3,0-38.2-16.8-38.2-40.1v-0.5
			c0-6.5,1.5-12.9,4.4-18.3c-5.5,0.5-10.4,0.5-15.9,1c-5.5,0.5-10.4,1-15.3,1.5c-1.5,5.5-1.9,10.9-1.9,16.4v1
			c0,37.2,27.3,64.9,66.4,64.9c23.3,0,41.1-9,54-19.8v-55h-55L362.6,955.3L362.6,955.3L362.6,955.3z"/>
		<path fill="#3C3B3C" d="M245.7,932c-9.4,1.5-18.9,3.5-27.7,5.5v66.9h78.8v-26.3h-51V932z"/>
		<path fill="#3C3B3C" d="M86.1,982l-9.4,22.3h28.3l10.9-26.3h55l10.9,26.3H211l-25.2-59C149,954.8,115.3,967.2,86.1,982z"/>
		<path fill="#3C3B3C" d="M130.2,941.4l12.9-31.3l10.4,25.8c8.4-1.9,16.8-3.5,25.8-5l-22.8-54h-25.8L100,949.4
			C109.4,946.9,119.7,943.9,130.2,941.4z"/>
	</g>
	<g>
		<path fill="#3C3B3C" d="M644.7,1062.4L644.7,1062.4c0-21.4,15.9-38.2,38.2-38.2c13.4,0,21.8,5,28.8,11.4l-8.4,9.4
			c-5.9-5.5-12.4-9-20.8-9c-13.9,0-24.3,11.4-24.3,25.8l0,0c0,14.3,10.4,26.3,24.3,26.3c9,0,14.9-3.5,21.4-9.4l8.4,8.4
			c-8,8-16.4,12.9-29.8,12.9C661.1,1100.1,644.7,1083.7,644.7,1062.4z"/>
		<path fill="#3C3B3C" d="M719.1,1062.4L719.1,1062.4c0-20.8,15.9-38.2,38.6-38.2c22.8,0,38.6,17.4,38.6,37.6l0,0
			c0,20.8-15.9,38.2-38.6,38.2C735,1100.1,719.1,1083.2,719.1,1062.4z M782.5,1062.4L782.5,1062.4c0-14.3-10.4-26.3-25.2-26.3
			s-24.8,11.9-24.8,25.8l0,0c0,14.3,10.4,26.3,25.2,26.3C772.5,1088.2,782.5,1076.8,782.5,1062.4z"/>
		<path fill="#3C3B3C" d="M809.8,1025.2h12.9v61.9h38.6v11.9h-51.6L809.8,1025.2L809.8,1025.2z"/>
		<path fill="#3C3B3C" d="M874.8,1025.2h12.9v61.9h38.6v11.9h-51.6L874.8,1025.2L874.8,1025.2z"/>
		<path fill="#3C3B3C" d="M939.7,1025.2h54.6v11.4h-41.1v19.3h37.2v11.4h-37.2v19.9h42.2v11.4h-55v-73.3H939.7z"/>
		<path fill="#3C3B3C" d="M1006.1,1062.4L1006.1,1062.4c0-20.8,15.9-38.2,38.2-38.2c12.9,0,20.8,3.5,28.3,9.9l-8.4,9.9
			c-5.5-5-11.4-8-20.8-8c-13.4,0-23.8,11.9-23.8,25.8l0,0c0,15.3,9.9,26.3,25.2,26.3c6.9,0,13.4-1.9,17.8-5.5v-13.9h-18.9v-11.4
			h31.3v30.7c-7.4,6.5-17.8,11.4-30.7,11.4C1021.5,1100.1,1006.1,1083.7,1006.1,1062.4z"/>
		<path fill="#3C3B3C" d="M1091.9,1025.2h54.6v11.4h-41.6v19.3h37.2v11.4h-37.2v19.9h42.2v11.4h-55L1091.9,1025.2L1091.9,1025.2z"/>
	</g>
</g>
</svg>
