<?xml version="1.0" encoding="utf-8"?>
<!-- Generator: Adobe Illustrator 17.1.0, SVG Export Plug-In . SVG Version: 6.00 Build 0)  -->
<!DOCTYPE svg PUBLIC "-//W3C//DTD SVG 1.1//EN" "http://www.w3.org/Graphics/SVG/1.1/DTD/svg11.dtd">
<svg version="1.1" id="Layer_1" xmlns="http://www.w3.org/2000/svg" xmlns:xlink="http://www.w3.org/1999/xlink" x="0px" y="0px"
	 viewBox="0 703.8 792 647" enable-background="new 0 703.8 792 647" xml:space="preserve">
<g>
	<polygon fill="#FFFFFF" points="91.3,1007.5 91.6,1006.4 92.1,1005.4 90.6,1005.3 90.5,1003.9 91.1,1002.6 91.7,1001.4 92,1000.1 
		92.9,999.1 93.4,997.9 94.3,996.8 94.9,995.6 95.5,994.5 95.9,993.2 96.3,991.9 96.7,990.6 96.9,989.3 97.3,988.1 98.1,987 
		98.3,985.6 99.1,984.5 99.3,983.2 99.9,982 100.5,980.8 101,979.6 101.5,978.4 101.5,977.1 102.1,975.9 102.6,974.7 103.2,973.6 
		103.4,972.3 104,971.1 104.3,969.9 104.8,968.7 105.2,967.5 105.3,966.1 105.7,964.9 106.5,963.8 106.8,962.6 107.3,961.4 
		107.4,960 107.9,958.9 108.3,957.6 108.6,956.4 109,955.1 109.6,954 109.8,952.7 110.2,951.5 108.6,952.2 107.7,953.5 108,952 
		108.7,950.9 109.2,949.7 109.7,948.5 110.5,947.4 110.9,946.3 111.3,945.1 111.5,943.8 111.6,942.6 112.1,941.5 112.5,940.3 
		112.9,939.1 113,937.9 113.2,936.6 114.1,935.5 114.2,934.1 114.7,932.8 115.5,931.6 115.9,930.3 116.6,929.1 116.8,927.7 
		117.4,926.5 117.5,925 117.8,923.6 118.3,922.3 118.7,920.9 119,919.5 119.4,918.3 119.9,917.1 120,915.8 120.2,914.5 120.2,913.2 
		120.7,912 120.9,910.7 121.2,909.5 121.6,908.2 121.7,906.9 121.6,905.6 122.1,904.4 122.2,903.1 122.1,901.8 122.4,900.5 
		122.4,899.3 122.7,898 122.5,896.7 122.8,895.4 122.8,894.2 122.5,892.9 122.8,891.6 122.5,890.3 122.7,889 122.3,887.7 
		122.3,886.4 122.2,885.1 122.2,883.7 122.1,882.4 122,881.1 121.9,879.8 121.6,878.5 121.5,877.2 120.9,876 120.6,874.7 
		120.5,873.4 120.4,872.1 119.8,870.9 119.4,869.6 119.3,868.3 118.9,867.1 118.5,865.8 117.9,864.6 117.5,863.4 117.1,862.1 
		116.8,860.9 116.3,859.7 116,858.4 115.5,857.2 114.9,856 114.5,854.7 113.9,853.5 113.4,852.4 113,851.1 112.1,850.1 111.7,848.8 
		110.9,847.7 110.5,846.5 110,845.3 109.3,844.2 108.9,842.9 108,841.9 107.2,840.8 106.7,839.6 105.9,838.6 105.3,837.4 
		104.9,836.1 103.9,835.2 103.4,833.9 102.5,833 101.9,831.8 101.3,830.6 100.4,829.7 99.5,828.7 99,827.4 98.3,826.3 97.4,825.4 
		96.6,824.3 95.9,823.2 94.9,822.3 94.3,821.1 93.5,820.1 92.8,819 91.7,818.1 91,817 90.3,815.9 89.4,815 88.3,814.2 87.7,812.9 
		86.7,812.1 86,811 85.1,810 84.2,809.1 83.2,808.3 82.3,807.3 81.4,806.4 80.7,805.2 79.6,804.4 78.6,803.6 78,802.4 77,801.5 
		76,800.6 75.1,799.7 74,799 73.3,797.8 72.1,797.2 71.2,796.2 70.3,795.3 69.2,794.6 68.2,793.7 67.4,792.6 66.5,791.7 65.4,790.9 
		64.4,790.2 63.4,789.3 62.3,790 61.4,791 60.5,791.9 59.4,792.7 58.3,793.4 57.5,794.5 56.5,795.3 55.4,796 54.5,796.9 53.6,798 
		52.7,798.9 51.6,799.7 50.9,800.7 49.8,801.5 49.1,802.6 48,803.4 47,804.3 46.1,805.2 45.4,806.4 44.3,807.1 43.4,808.1 
		42.6,809.2 41.8,810.2 40.8,811 39.9,812 39.3,813.2 38.4,814.1 37.4,815 36.6,816 35.7,817 35,818.1 34.1,819.1 33.5,820.2 
		32.7,821.2 31.9,822.3 30.9,823.2 30.1,824.2 29.6,825.4 28.6,826.4 28,827.5 27.3,828.6 26.5,829.6 25.6,830.6 24.9,831.7 
		24.1,832.8 23.3,833.8 22.8,835.1 22.1,836.2 21.6,837.4 20.8,838.4 20.1,839.5 19.2,840.6 18.9,841.9 18.2,843 17.6,844.1 
		16.8,845.2 16.3,846.4 15.8,847.6 15.3,848.8 14.7,850 13.9,851.1 13.5,852.3 13,853.6 12.3,854.7 11.9,855.9 11.5,857.2 
		10.9,858.4 10.4,859.5 10,860.8 9.6,862.1 9.1,863.3 8.8,864.5 8.5,865.8 8.1,867.1 7.7,868.3 7.2,869.5 6.7,870.8 6.6,872.1 
		6.5,873.4 5.9,874.6 5.7,875.9 5.4,877.2 5.3,878.5 5.1,879.8 4.9,881.1 4.9,882.4 4.5,883.7 4.6,885 4.4,886.3 4,887.6 4.2,888.9 
		4.1,890.3 4.2,891.6 4.3,892.9 3.9,894.2 4,895.5 4.3,896.8 4.5,898.1 4.3,899.4 4.3,900.7 4.4,902 4.7,903.3 4.9,904.6 5,905.8 
		5.4,907.1 5.6,908.4 5.6,909.7 5.8,911 6,912.3 6.2,913.5 6.5,914.8 6.9,916 7.2,917.3 7.3,918.6 7.7,919.9 8,921.1 8.1,922.4 
		8.4,923.7 8.7,925 9.3,926.2 9.4,927.5 9.7,928.8 10.1,930 10.4,931.3 10.9,932.5 11.3,933.7 11.6,935 11.7,936.3 12.1,937.5 
		12.8,938.7 12.9,940 13.2,941.3 13.8,942.4 14,943.7 14.6,944.9 14.9,946.2 15.1,947.5 15.7,948.7 16,949.9 16.6,951.1 16.7,952.5 
		17.1,953.7 17.7,954.8 18,956.1 18.4,957.4 18.9,958.6 19.2,959.8 19.6,961.1 20.1,962.3 20.5,963.5 20.8,964.8 21.2,966 
		21.7,967.3 22.2,968.5 22.6,969.7 22.7,971 23.3,972.2 23.6,973.5 24,974.7 24.6,975.9 25,977.1 25.4,978.4 25.7,979.7 26.3,980.9 
		26.8,982.1 27,983.4 27.5,984.6 28.2,985.7 28.7,987 28.7,988.3 29.4,989.5 29.8,990.7 30.2,992 30.8,993.2 31,994.5 31.5,995.7 
		31.8,996.9 32.3,998.2 32.7,999.4 33.4,999.4 34.5,999 35.6,998.4 36.2,997.4 36.6,996.3 37,995.1 37.6,994.1 38,992.9 38.5,993.5 
		38.2,994.6 37.7,995.8 37.3,996.9 36.6,998 36.1,999.1 35.8,1000.3 35.2,1001.4 34.5,1002.5 34,1003.6 34.1,1003.3 32.8,1003.9 
		31.5,1004 30.3,1004.4 29,1004.9 27.8,1005.3 26.6,1005.7 25.4,1006.3 24.3,1007 23.2,1007.8 22.2,1008.5 21.1,1009.3 20,1010 
		19,1010.8 18.3,1011.9 17.2,1012.7 16.3,1013.6 15.4,1014.6 14.6,1015.7 13.9,1016.8 13,1017.7 12.2,1018.7 11.5,1019.9 
		10.7,1020.9 10.2,1022.1 9.3,1023.1 8.7,1024.2 8.2,1025.4 7.6,1026.6 6.9,1027.7 6.8,1029.1 6.2,1030.3 5.7,1031.4 5.1,1032.6 
		4.7,1033.9 4.5,1035.2 4.1,1036.4 3.6,1037.6 3.3,1038.9 3,1040.1 2.6,1041.4 2.5,1042.7 2.2,1044 2.1,1045.3 1.9,1046.6 2,1047.9 
		1.6,1049.2 1.8,1050.5 1.8,1051.8 1.7,1053.1 1.6,1054.4 2.1,1055.7 1.8,1057 2.2,1058.3 2.2,1059.7 2.7,1060.9 3,1062.2 
		3.1,1063.5 3.7,1064.7 4,1066 4.4,1067.3 4.8,1068.5 5.4,1069.7 5.6,1071 6.4,1072.1 7,1073.3 7.6,1074.5 8.1,1075.7 8.7,1076.9 
		9.2,1078.1 10.1,1079.1 10.8,1080.3 11.5,1081.4 12.4,1082.4 13.1,1083.5 14,1084.4 14.9,1085.4 15.7,1086.4 16.5,1087.5 
		17.5,1088.3 18.4,1089.3 19.5,1090.1 20.6,1090.8 21.6,1091.7 22.6,1092.5 23.8,1093 24.9,1093.8 26,1094.5 27.4,1094.7 
		28.6,1095.2 28,1094.1 27.6,1092.8 27.2,1091.6 26.9,1090.3 26.3,1089.2 26.1,1087.9 25.5,1086.7 25.4,1085.4 25.1,1084.1 
		24.8,1082.9 24.6,1081.6 24.2,1080.4 24,1079.1 24.1,1077.8 23.6,1076.5 24,1075.2 23.6,1073.9 23.4,1072.6 23.8,1071.3 23.5,1070 
		23.6,1068.7 24.1,1067.4 24.2,1066.1 24.4,1064.8 24.4,1063.5 24.9,1062.3 25.2,1061 25.6,1059.8 26.3,1058.6 26.6,1057.3 
		27.1,1056.1 27.8,1055 28.4,1053.9 29.2,1052.8 29.9,1051.7 30.5,1050.6 31.6,1049.8 32.5,1048.9 33.3,1047.8 34.4,1047.1 
		35.5,1046.3 36.7,1045.8 37.9,1045.2 39,1044.6 40.3,1044.2 41.5,1043.7 42.8,1043.7 44.1,1043.6 45.4,1043.1 46.7,1043.2 
		47.9,1043.3 48.3,1044.5 48.7,1045.7 49.2,1046.8 49.7,1048 50.2,1049.2 50.9,1050.3 51.2,1051.6 51.9,1052.6 52.5,1053.8 
		52.7,1055.1 53.6,1056.1 53.7,1057.4 54.2,1058.6 54.9,1059.7 54.1,1060.8 53.8,1062 53.3,1063.2 52.6,1064.2 52.1,1065.4 
		51.6,1066.5 51.1,1067.7 50.3,1068.7 49.9,1069.9 49.3,1071 49,1072.3 48.1,1073.3 47.8,1074.6 46.6,1074.8 45.5,1075.4 
		44.4,1075.9 43.1,1076.1 41.9,1076.4 41.7,1077.9 41.3,1079.2 40.9,1080.5 40.6,1081.8 40.4,1083.1 40.2,1084.5 41.4,1084.4 
		42.7,1084 43.9,1083.8 45.2,1083.5 46.4,1083.2 47.9,1083.1 47.1,1084.6 46.4,1085.9 45.8,1087.2 45.4,1088.5 45.2,1089.8 
		45,1091.1 44.8,1092.4 45.1,1093.8 44.7,1095.1 45.2,1096.4 45.3,1097.7 45.2,1099.1 45.8,1100.3 45.9,1101.7 46.2,1103 47,1104.1 
		47.5,1105.3 48,1106.6 48.6,1107.7 49,1109 49.8,1110.1 50.5,1111.2 51.2,1112.2 51,1110.9 50.8,1109.5 50.8,1108 50.6,1106.6 
		50.3,1105.2 50.3,1103.8 50.7,1105 51.2,1106.1 51.4,1105.1 51.1,1104 51.2,1102.9 51,1101.5 50.9,1100.3 51.4,1101.2 51.8,1102.4 
		52,1103.7 52.5,1104.8 52.5,1105.1 53.1,1106.4 53.7,1107.6 54.6,1108.6 55.6,1109.6 56.5,1110.6 57.2,1111.9 58.1,1112.9 
		59.3,1113.6 60.3,1114.5 61.3,1115.4 62.3,1116.4 63.5,1117.2 64.6,1116.2 65.7,1115.4 66.7,1114.4 66.8,1114.2 67.4,1113.1 
		67.7,1111.8 68.4,1110.7 69.4,1110.2 69.6,1111.2 69,1112.4 70,1111.5 70.5,1110.2 70.9,1108.9 71.4,1107.6 72.4,1106.6 
		73.3,1105.9 73.3,1106.8 73.8,1105.8 74.5,1104.8 75.3,1103.8 75.6,1102.4 76,1103.7 76,1105 76.2,1106.2 76,1107.4 76,1108.6 
		76.3,1109.9 76,1111.1 76,1112.3 76.8,1111.1 77.6,1110 78.2,1108.7 78.8,1107.5 79.5,1106.3 79.8,1104.8 79.8,1103.3 80.4,1102 
		80.2,1103 80.5,1104.2 80.9,1102.9 81.4,1101.7 81.8,1100.4 81.9,1099 82.1,1097.7 82.5,1096.4 82.3,1095.1 82.5,1093.8 
		82.6,1092.4 82.3,1091.1 82.3,1089.8 81.9,1088.5 81.6,1087.2 80.9,1085.8 80.3,1084.4 79.5,1083.1 80.8,1083.3 82.1,1082.8 
		83.4,1082.9 84.7,1082.6 84.3,1081.3 83.7,1080.2 83.2,1079 82.8,1077.8 82.3,1076.6 81.2,1076.6 80,1076.8 78.9,1076.6 
		78.3,1075.4 77.6,1074.3 77.1,1073 76.6,1071.7 75.8,1070.7 75.4,1069.3 74.7,1068.2 74.1,1067 73.3,1065.8 72.8,1064.6 
		72.5,1063.2 71.5,1062.2 72.1,1060.8 72.5,1059.6 73.1,1058.3 73.8,1057.2 73.9,1055.8 74.7,1054.7 75,1053.3 75.6,1052.2 
		76.1,1050.9 76.3,1049.6 77,1048.4 77.2,1047 77.7,1045.8 78.3,1044.6 78.6,1043.2 80.2,1043.2 81.5,1043.4 82.8,1043.7 
		84.1,1043.6 85.4,1043.8 86.6,1044.2 87.9,1044.5 89.1,1045.2 90.1,1045.9 91.4,1046.3 92.5,1047.2 93.6,1047.9 94.5,1048.8 
		95.3,1049.8 96.2,1050.8 97,1051.8 97.7,1052.9 98.7,1053.8 99.3,1055 99.8,1056.2 100.5,1057.3 100.8,1058.6 101.2,1059.9 
		101.7,1061.1 102.2,1062.3 102.2,1063.6 102.7,1064.9 102.6,1066.2 102.8,1067.5 102.9,1068.8 103,1070.1 103.3,1071.4 
		103.1,1072.7 103,1074 102.9,1075.3 103,1076.6 102.7,1077.8 102.7,1079.1 102.7,1080.4 102.4,1081.7 102.2,1083 101.8,1084.2 
		101.5,1085.5 101.3,1086.8 100.6,1087.9 100.6,1089.3 100.2,1090.5 99.8,1091.7 99.1,1092.8 98.8,1094.1 98.2,1095.3 99.5,1094.8 
		100.6,1094.2 101.8,1093.6 103,1093 104,1092.3 105.2,1091.7 106.2,1090.8 107.3,1090.1 108.1,1089 109,1088.1 109.9,1087.2 
		110.7,1086.1 111.4,1085.1 112.4,1084.1 113.1,1083.1 113.8,1081.9 114.5,1080.8 115.2,1079.7 115.7,1078.5 116.2,1077.3 
		117,1076.2 117.4,1075 117.9,1073.8 118.7,1072.7 119,1071.4 119.3,1070.1 119.6,1068.9 120.2,1067.7 120.5,1066.4 120.7,1065.1 
		121,1063.9 121.7,1062.7 121.8,1061.4 121.8,1060 122.4,1058.8 122.4,1057.5 122.6,1056.2 122.4,1054.9 122.7,1053.6 122.9,1052.3 
		122.6,1051 122.7,1049.6 122.7,1048.3 122.7,1047 122.3,1045.8 122.2,1044.5 122.2,1043.1 122.2,1041.8 122,1040.5 121.5,1039.3 
		121.4,1038 120.9,1036.7 120.5,1035.5 120,1034.3 119.6,1033 119.2,1031.8 118.9,1030.5 118.1,1029.4 117.9,1028.1 117.3,1026.9 
		116.7,1025.8 115.9,1024.7 115.3,1023.5 114.5,1022.5 113.7,1021.4 113.1,1020.2 112.3,1019.2 111.4,1018.3 110.6,1017.3 
		109.6,1016.4 108.9,1015.2 108,1014.3 106.8,1013.6 106,1012.6 104.7,1012.1 103.7,1011.2 102.7,1010.4 101.4,1010.1 100.3,1009.4 
		99.1,1008.7 97.9,1008.4 96.6,1008.2 95.3,1007.9 94,1007.4 92.7,1007.6 	"/>
</g>
<g enable-background="new    ">
	<path fill="#FFFFFF" d="M5.2,1193.2c1.3-3.8,3.3-7.2,5.8-10c2.5-2.9,5.6-5.1,9.2-6.7c3.7-1.6,7.7-2.4,12.3-2.4
		c4.6,0,8.7,0.8,12.4,2.4c3.6,1.6,6.7,3.8,9.2,6.7c2.5,2.9,4.4,6.2,5.8,10c1.3,3.8,2,8,2,12.4c0,4.3-0.7,8.4-2,12.1
		c-1.3,3.7-3.3,7-5.8,9.9c-2.5,2.8-5.5,5-9.2,6.6c-3.6,1.5-7.7,2.4-12.4,2.4c-4.6,0-8.7-0.8-12.3-2.4c-3.7-1.6-6.8-3.7-9.2-6.6
		c-2.5-2.8-4.4-6-5.8-9.9c-1.3-3.7-2-7.8-2-12.1C3.2,1201.1,3.8,1197.1,5.2,1193.2z M17.2,1212.9c0.6,2.4,1.5,4.5,2.8,6.4
		c1.3,1.9,2.9,3.4,5.1,4.6c2,1.1,4.6,1.7,7.5,1.7c2.9,0,5.5-0.6,7.5-1.7s3.7-2.7,5.1-4.6c1.3-1.9,2.2-4,2.8-6.4
		c0.6-2.4,0.9-4.8,0.9-7.3c0-2.6-0.3-5.1-0.9-7.6s-1.5-4.6-2.8-6.6c-1.3-2-2.9-3.4-5.1-4.6c-2-1.1-4.6-1.7-7.5-1.7s-5.5,0.6-7.5,1.7
		s-3.7,2.7-5.1,4.6c-1.3,2-2.2,4.1-2.8,6.6c-0.6,2.4-0.9,5-0.9,7.6C16.3,1208.1,16.6,1210.6,17.2,1212.9z"/>
	<path fill="#FFFFFF" d="M62.5,1186.5v-11h48.9v11H93.5v48.6h-13v-48.6H62.5z"/>
	<path fill="#FFFFFF" d="M118.1,1186.5v-11H167v11H149v48.6h-13.1v-48.6H118.1z"/>
	<path fill="#FFFFFF" d="M194.7,1175.5l22.3,59.7h-13.6L199,1222h-22.3l-4.6,13.3h-13.2l22.6-59.7H194.7z M195.5,1212.1l-7.5-21.9
		h-0.2l-7.7,21.9H195.5z"/>
	<path fill="#FFFFFF" d="M262.9,1235.2l-10.1-40.7h-0.2l-9.9,40.7h-13.3l-15.8-59.7h13.1l9.5,40.7h0.2l10.3-40.7h12.3l10.2,41.1h0.2
		l9.8-41.1h12.9l-16.1,59.7H262.9z"/>
	<path fill="#FFFFFF" d="M324.6,1175.5l22.3,59.7h-13.6l-4.5-13.3h-22.3l-4.6,13.3h-13.2l22.6-59.7H324.6z M325.4,1212.1l-7.5-21.9
		h-0.2l-7.7,21.9H325.4z"/>
	<path fill="#FFFFFF" d="M371.5,1189.9c0.9-2.9,2.2-5.4,4-7.5c1.8-2.1,4-3.8,6.8-5.1c2.7-1.2,5.8-1.8,9.3-1.8c2.7,0,5.2,0.4,7.7,1.2
		c2.4,0.8,4.6,2,6.4,3.6c1.9,1.5,3.3,3.5,4.4,5.8c1.1,2.3,1.6,4.9,1.6,7.7c0,2.9-0.5,5.5-1.4,7.6c-1,2.1-2.2,4-3.7,5.6
		s-3.3,3.1-5.3,4.5c-2,1.3-4,2.7-5.9,4c-2,1.3-4,2.7-5.9,4.2c-1.9,1.5-3.6,3.3-5.1,5.3H412v10.2H369c0-3.4,0.5-6.4,1.5-8.9
		c1-2.5,2.3-4.7,4-6.8c1.7-2,3.7-3.8,5.9-5.5c2.3-1.7,4.6-3.3,7.2-5.1c1.3-0.9,2.6-1.8,4.1-2.7c1.5-0.9,2.8-2,4-3
		c1.2-1.1,2.2-2.4,3-3.7c0.8-1.4,1.2-3,1.2-4.7c0-2.9-0.8-5.1-2.4-6.7c-1.6-1.6-3.7-2.4-6.3-2.4c-1.7,0-3.2,0.4-4.4,1.2
		c-1.2,0.8-2.2,1.9-2.9,3.2c-0.7,1.3-1.2,2.8-1.5,4.3c-0.3,1.6-0.5,3.2-0.5,4.7h-11.4C370.3,1195.8,370.6,1192.7,371.5,1189.9z"/>
	<path fill="#FFFFFF" d="M418.5,1191.3c1.1-3.9,2.7-7,4.6-9.3c2-2.4,4.2-4,6.8-5.1c2.6-1,5.3-1.5,8.2-1.5s5.7,0.5,8.3,1.5
		s4.9,2.7,6.8,5.1c2,2.4,3.5,5.5,4.6,9.3c1.1,3.9,1.7,8.6,1.7,14.3c0,5.9-0.6,10.8-1.7,14.7c-1.1,3.9-2.7,7.1-4.6,9.4
		c-2,2.4-4.2,4-6.8,5.1c-2.6,1-5.4,1.5-8.3,1.5c-2.9,0-5.6-0.5-8.2-1.5c-2.6-1-4.9-2.7-6.8-5.1c-2-2.4-3.5-5.5-4.6-9.4
		c-1.1-3.9-1.7-8.8-1.7-14.7C416.8,1200,417.3,1195.3,418.5,1191.3z M428.8,1211.7c0.1,2.4,0.5,4.6,1.1,6.8c0.6,2.2,1.5,4.1,2.8,5.6
		c1.3,1.5,3.1,2.4,5.5,2.4c2.4,0,4.3-0.8,5.6-2.4c1.3-1.5,2.3-3.4,2.9-5.6c0.6-2.2,0.9-4.5,1.1-6.8c0.1-2.4,0.2-4.4,0.2-6
		c0-1,0-2.2-0.1-3.7c0-1.4-0.2-2.9-0.3-4.4c-0.2-1.5-0.5-3-0.8-4.5s-0.9-2.8-1.6-4c-0.7-1.1-1.6-2.1-2.8-2.9
		c-1.1-0.7-2.4-1.1-4.1-1.1s-2.9,0.3-4.1,1.1c-1.1,0.7-2,1.7-2.7,2.9c-0.7,1.1-1.2,2.5-1.6,4s-0.7,2.9-0.8,4.5
		c-0.2,1.5-0.2,2.9-0.3,4.4c0,1.4-0.1,2.6-0.1,3.7C428.6,1207.4,428.7,1209.4,428.8,1211.7z"/>
	<path fill="#FFFFFF" d="M478.8,1235.2v-38H464v-9c2,0.1,4.1-0.1,5.9-0.5c2-0.3,3.7-1,5.2-2c1.5-0.9,2.9-2.1,3.9-3.7
		c1.1-1.5,1.8-3.3,2.1-5.6h9.5v58.5h-11.9V1235.2z"/>
	<path fill="#FFFFFF" d="M498.8,1221.7v-10.8l25.4-34.1h10.6v35.2h7.7v9.8h-7.7v13.5h-11.3v-13.5L498.8,1221.7L498.8,1221.7z
		 M523.4,1191.6l-15.2,20.3h15.4v-20.3H523.4z"/>
</g>
<g>
	<g>
		<path fill="#3B3B3C" d="M18.5,1307.6c-0.1-0.6-0.3-1.1-0.6-1.5c-0.2-0.5-0.6-0.8-1-1.2c-0.4-0.4-0.8-0.6-1.3-0.7
			c-0.5-0.2-1.1-0.2-1.8-0.2c-1,0-1.9,0.2-2.6,0.6c-0.7,0.3-1.3,1-1.8,1.7c-0.5,0.7-0.8,1.5-1,2.3c-0.2,0.8-0.3,1.8-0.3,2.6
			s0.1,1.8,0.3,2.6c0.2,0.8,0.6,1.7,1,2.3c0.5,0.7,1.1,1.2,1.8,1.7c0.7,0.3,1.5,0.6,2.6,0.6c0.7,0,1.5-0.1,1.9-0.3
			c0.6-0.2,1.1-0.6,1.5-1.1c0.3-0.5,0.7-1,1-1.5c0.2-0.6,0.3-1.2,0.5-1.9h3.3c-0.1,1.1-0.3,2.1-0.7,3.1c-0.3,1-1,1.7-1.7,2.4
			c-0.7,0.7-1.5,1.2-2.5,1.5c-1,0.3-2,0.6-3.1,0.6c-1.5,0-2.6-0.2-3.8-0.7c-1.1-0.5-2-1.2-2.9-2.1c-0.7-0.8-1.3-1.9-1.8-3.1
			c-0.3-1.2-0.6-2.5-0.6-3.8c0-1.3,0.2-2.6,0.6-3.8c0.3-1.2,1-2.3,1.8-3.1c0.7-0.8,1.7-1.5,2.9-2.1c1.1-0.5,2.4-0.8,3.8-0.8
			c1.1,0,2,0.1,3,0.5c1,0.2,1.8,0.7,2.5,1.3c0.7,0.6,1.3,1.2,1.7,2c0.5,0.8,0.7,1.7,0.8,2.8h-3.3L18.5,1307.6L18.5,1307.6z"/>
		<path fill="#3B3B3C" d="M30.1,1320.7c-1.1,0-2-0.2-2.9-0.6c-0.8-0.3-1.5-0.8-2.1-1.5c-0.6-0.6-1.1-1.5-1.3-2.3
			c-0.3-0.8-0.5-1.8-0.5-2.9s0.1-2,0.5-2.9c0.3-0.8,0.7-1.7,1.3-2.3c0.6-0.6,1.3-1.1,2.1-1.5c0.8-0.3,1.8-0.6,2.9-0.6s2,0.2,2.9,0.6
			c0.8,0.3,1.5,0.8,2.1,1.5c0.6,0.6,1.1,1.5,1.3,2.3c0.3,0.8,0.5,1.8,0.5,2.9s-0.1,2-0.5,2.9c-0.3,0.8-0.7,1.7-1.3,2.3
			c-0.6,0.6-1.3,1.1-2.1,1.5C32.3,1320.6,31.2,1320.7,30.1,1320.7z M30.1,1318.3c0.7,0,1.2-0.1,1.8-0.5c0.5-0.2,0.8-0.6,1.2-1.1
			c0.3-0.5,0.6-1,0.7-1.5c0.1-0.6,0.2-1.2,0.2-1.8s-0.1-1.2-0.2-1.8c-0.1-0.6-0.3-1.1-0.7-1.5c-0.3-0.5-0.7-0.8-1.2-1.1
			s-1.1-0.5-1.8-0.5s-1.2,0.1-1.8,0.5c-0.5,0.2-0.8,0.6-1.2,1.1c-0.3,0.5-0.6,1-0.7,1.5c-0.1,0.6-0.2,1.2-0.2,1.8s0.1,1.2,0.2,1.8
			c0.1,0.6,0.3,1.1,0.7,1.5c0.3,0.5,0.7,0.8,1.2,1.1C28.9,1318.2,29.5,1318.3,30.1,1318.3z"/>
		<path fill="#3B3B3C" d="M38.9,1306.7h2.9v2l0,0c0.5-0.7,1.1-1.3,1.8-1.8c0.7-0.5,1.5-0.6,2.4-0.6c1.5,0,2.6,0.3,3.5,1.2
			c0.8,0.7,1.3,1.9,1.3,3.5v9.3h-3v-8.6c0-1.1-0.2-1.8-0.7-2.3c-0.5-0.5-1.1-0.7-2-0.7c-0.5,0-1,0.1-1.3,0.2
			c-0.3,0.2-0.7,0.5-1.1,0.7c-0.3,0.2-0.5,0.7-0.7,1.2c-0.1,0.5-0.2,1-0.2,1.5v8h-3v-13.6L38.9,1306.7L38.9,1306.7z"/>
		<path fill="#3B3B3C" d="M53.5,1306.7h2.9v2l0,0c0.5-0.7,1.1-1.3,1.8-1.8c0.7-0.5,1.5-0.6,2.4-0.6c1.5,0,2.6,0.3,3.5,1.2
			c0.8,0.7,1.3,1.9,1.3,3.5v9.3h-3v-8.6c0-1.1-0.2-1.8-0.7-2.3s-1.1-0.7-2-0.7c-0.5,0-1,0.1-1.3,0.2c-0.3,0.2-0.7,0.5-1.1,0.7
			s-0.5,0.7-0.7,1.2c-0.1,0.5-0.2,1-0.2,1.5v8h-3v-13.6L53.5,1306.7L53.5,1306.7z"/>
		<path fill="#3B3B3C" d="M70.5,1314.4c0,0.5,0.1,1.1,0.2,1.5c0.1,0.5,0.3,1,0.7,1.3c0.2,0.3,0.7,0.7,1.1,0.8c0.5,0.2,1,0.3,1.7,0.3
			c0.8,0,1.5-0.2,2.1-0.6c0.5-0.3,1-1,1.2-1.7h2.9c-0.1,0.7-0.5,1.5-0.8,2c-0.3,0.6-0.8,1.1-1.5,1.5c-0.6,0.3-1.2,0.7-1.8,0.8
			c-0.7,0.2-1.5,0.3-2.1,0.3c-1.1,0-2-0.1-2.9-0.5c-0.8-0.3-1.5-0.8-2-1.5c-0.6-0.6-1-1.5-1.3-2.3s-0.5-1.8-0.5-2.9
			c0-1,0.1-1.9,0.5-2.8c0.3-0.8,0.7-1.7,1.3-2.3c0.6-0.7,1.3-1.2,2-1.5c0.8-0.3,1.7-0.6,2.8-0.6c1.1,0,2,0.2,2.9,0.7
			c0.8,0.5,1.5,1.1,2.1,1.8s1,1.5,1.2,2.5c0.2,1,0.3,1.9,0.2,3H70.5V1314.4z M77.4,1312.3c0-0.5-0.1-1-0.3-1.3
			c-0.1-0.5-0.3-0.8-0.7-1.2c-0.2-0.3-0.6-0.6-1.1-0.8c-0.3-0.2-0.8-0.3-1.5-0.3c-0.5,0-1,0.1-1.5,0.2c-0.5,0.2-0.8,0.5-1.1,0.7
			c-0.3,0.3-0.6,0.7-0.7,1.2c-0.2,0.5-0.2,1-0.3,1.5L77.4,1312.3L77.4,1312.3z"/>
		<path fill="#3B3B3C" d="M91.3,1311.4c-0.1-0.8-0.5-1.5-1-1.9c-0.6-0.5-1.2-0.6-2-0.6c-0.3,0-0.8,0.1-1.2,0.2
			c-0.5,0.1-0.8,0.3-1.2,0.7c-0.3,0.3-0.7,0.8-1,1.5c-0.2,0.6-0.3,1.5-0.3,2.5c0,0.6,0.1,1.1,0.2,1.7c0.1,0.6,0.3,1.1,0.6,1.5
			c0.2,0.5,0.7,0.8,1.1,1.1c0.5,0.2,1,0.3,1.7,0.3c0.8,0,1.5-0.2,2.1-0.8c0.6-0.6,1-1.3,1.1-2.3h2.9c-0.2,1.8-1,3.1-2,4.1
			c-1.1,1-2.5,1.5-4.2,1.5c-1.1,0-2-0.2-2.9-0.6c-0.8-0.3-1.5-0.8-2-1.5c-0.6-0.6-1-1.3-1.3-2.3c-0.2-0.8-0.5-1.8-0.5-2.8
			c0-1,0.1-1.9,0.5-2.9c0.2-0.8,0.7-1.7,1.3-2.3c0.6-0.6,1.3-1.2,2-1.5c0.8-0.3,1.8-0.6,3-0.6c0.8,0,1.5,0.1,2.3,0.3s1.3,0.5,1.9,1
			c0.6,0.3,1,1,1.3,1.5c0.3,0.6,0.6,1.3,0.6,2.1h-3v-0.3H91.3z"/>
		<path fill="#3B3B3C" d="M94.8,1306.7h2.3v-4.1h3v4.1h2.8v2.3h-2.8v7.3c0,0.3,0,0.6,0,0.8c0,0.2,0.1,0.5,0.2,0.6
			c0.2,0.1,0.2,0.2,0.5,0.3c0.2,0.1,0.5,0.1,0.8,0.1c0.2,0,0.5,0,0.6,0c0.1,0,0.5,0,0.6-0.1v2.3c-0.3,0-0.7,0.1-1,0.1
			c-0.3,0-0.6,0-1,0c-0.8,0-1.5-0.1-1.9-0.2c-0.5-0.1-0.8-0.3-1.1-0.6c-0.2-0.2-0.5-0.6-0.6-1.1c-0.1-0.5-0.1-1-0.1-1.5v-8H95v-2.3
			L94.8,1306.7L94.8,1306.7z"/>
		<path fill="#3B3B3C" d="M122.6,1317.4c0,0.3,0,0.6,0.1,0.8c0.1,0.1,0.2,0.2,0.6,0.2c0.1,0,0.2,0,0.3,0c0.1,0,0.2,0,0.5,0v2
			c-0.1,0-0.2,0.1-0.3,0.1c-0.1,0-0.3,0.1-0.5,0.1c-0.1,0-0.3,0.1-0.5,0.1c-0.1,0-0.3,0-0.5,0c-0.6,0-1.1-0.1-1.5-0.3
			c-0.3-0.2-0.7-0.7-0.8-1.3c-0.6,0.6-1.3,1-2.1,1.3c-0.8,0.2-1.7,0.3-2.5,0.3c-0.6,0-1.2-0.1-1.8-0.2c-0.6-0.2-1.1-0.3-1.5-0.7
			c-0.5-0.3-0.7-0.7-1.1-1.2c-0.2-0.5-0.3-1.1-0.3-1.8c0-0.8,0.1-1.5,0.5-2c0.3-0.5,0.7-1,1.2-1.2c0.5-0.2,1.1-0.5,1.7-0.6
			c0.6-0.1,1.2-0.2,1.9-0.3c0.6-0.1,1.1-0.2,1.5-0.2c0.5,0,1-0.1,1.3-0.2c0.3-0.1,0.7-0.2,0.8-0.5c0.2-0.2,0.3-0.6,0.3-1
			c0-0.3-0.1-0.7-0.2-1c-0.2-0.2-0.3-0.5-0.7-0.6c-0.2-0.1-0.6-0.2-1-0.2c-0.4,0-0.6-0.1-1-0.1c-0.8,0-1.5,0.1-2,0.5
			c-0.6,0.3-0.8,0.8-1,1.7h-3c0-0.8,0.2-1.5,0.6-2.1c0.3-0.6,0.8-1.1,1.5-1.5c0.7-0.4,1.2-0.6,1.9-0.7c0.7-0.1,1.5-0.2,2.1-0.2
			s1.3,0.1,1.9,0.2c0.6,0.1,1.2,0.3,1.8,0.7c0.5,0.3,1,0.7,1.2,1.2c0.3,0.5,0.5,1.1,0.5,1.8v7L122.6,1317.4L122.6,1317.4z
			 M119.7,1313.6c-0.5,0.2-1.1,0.5-1.7,0.6c-0.7,0.1-1.3,0.1-2,0.2c-0.3,0-0.6,0.1-1,0.2c-0.2,0.1-0.6,0.2-0.8,0.3
			c-0.2,0.1-0.3,0.3-0.6,0.6c-0.1,0.2-0.2,0.6-0.2,1c0,0.3,0.1,0.6,0.2,0.8c0.2,0.2,0.5,0.3,0.7,0.6c0.2,0.1,0.6,0.2,0.8,0.2
			c0.3,0,0.6,0.1,0.8,0.1c0.3,0,0.7,0,1.1-0.1c0.3-0.1,0.7-0.2,1.1-0.5c0.3-0.2,0.6-0.5,0.8-0.8s0.3-0.7,0.3-1.2v-2.1L119.7,1313.6
			L119.7,1313.6z"/>
		<path fill="#3B3B3C" d="M125.3,1306.7h2.9v2l0,0c0.5-0.7,1.1-1.3,1.8-1.8c0.7-0.5,1.5-0.6,2.4-0.6c1.5,0,2.6,0.3,3.5,1.2
			c0.8,0.7,1.3,1.9,1.3,3.5v9.3h-3v-8.6c0-1.1-0.2-1.8-0.7-2.3c-0.5-0.5-1.1-0.7-2-0.7c-0.5,0-1,0.1-1.3,0.2
			c-0.3,0.2-0.7,0.5-1.1,0.7c-0.3,0.2-0.5,0.7-0.7,1.2c-0.1,0.5-0.2,1-0.2,1.5v8h-3v-13.6L125.3,1306.7L125.3,1306.7z"/>
		<path fill="#3B3B3C" d="M152.6,1320.3h-2.9v-1.8l0,0c-0.3,0.8-1,1.3-1.8,1.7c-0.7,0.3-1.5,0.5-2.4,0.5c-1.1,0-2-0.2-2.8-0.6
			c-0.8-0.3-1.5-0.8-2-1.5c-0.5-0.6-1-1.5-1.2-2.3s-0.3-1.8-0.3-2.9c0-1.2,0.1-2.3,0.5-3.3c0.3-0.8,0.7-1.7,1.3-2.1
			c0.6-0.6,1.2-1,1.9-1.3c0.7-0.3,1.5-0.3,2.1-0.3c0.5,0,0.8,0,1.3,0.1c0.5,0.1,0.8,0.2,1.3,0.3c0.3,0.1,0.7,0.3,1.1,0.7
			c0.3,0.2,0.6,0.6,0.8,1l0,0v-6.9h3L152.6,1320.3L152.6,1320.3z M142.3,1313.8c0,0.6,0.1,1.2,0.2,1.7c0.1,0.6,0.3,1.1,0.7,1.5
			c0.3,0.5,0.7,0.8,1.2,1.1c0.5,0.2,1.1,0.3,1.7,0.3c0.7,0,1.2-0.1,1.7-0.5c0.5-0.2,0.8-0.6,1.2-1.1c0.3-0.5,0.5-1,0.7-1.5
			c0.1-0.6,0.2-1.2,0.2-1.8c0-1.5-0.3-2.6-1-3.5c-0.7-0.8-1.5-1.3-2.8-1.3c-0.7,0-1.3,0.1-1.8,0.5c-0.5,0.2-0.8,0.7-1.2,1.1
			c-0.3,0.3-0.5,1-0.6,1.5C142.3,1312.5,142.3,1313.1,142.3,1313.8z"/>
		<path fill="#3B3B3C" d="M179,1320.3h-2.1l-0.5-2.1c-0.8,1-1.8,1.7-2.6,2s-1.9,0.6-3,0.6c-1.5,0-2.6-0.2-3.8-0.7
			c-1.1-0.5-2-1.2-2.9-2.1c-0.7-0.8-1.3-1.9-1.8-3.1c-0.3-1.2-0.6-2.5-0.6-3.8c0-1.3,0.2-2.6,0.6-3.8c0.3-1.2,1-2.3,1.8-3.1
			c0.7-0.8,1.7-1.5,2.9-2.1c1.1-0.5,2.4-0.8,3.8-0.8c1.1,0,2,0.1,2.9,0.3c1,0.2,1.8,0.7,2.5,1.2c0.7,0.5,1.3,1.2,1.8,2
			s0.7,1.8,0.8,2.8h-3.3c-0.1-0.6-0.2-1.2-0.6-1.7c-0.2-0.5-0.6-0.8-1.1-1.2c-0.5-0.3-1-0.6-1.5-0.7c-0.6-0.1-1.1-0.2-1.7-0.2
			c-1,0-1.9,0.2-2.6,0.6c-0.7,0.3-1.3,1-1.8,1.7c-0.5,0.7-0.8,1.5-1,2.3c-0.2,0.8-0.3,1.8-0.3,2.6s0.1,1.8,0.3,2.6
			c0.2,0.8,0.6,1.7,1,2.3c0.5,0.7,1.1,1.2,1.8,1.7c0.7,0.3,1.5,0.6,2.6,0.6c0.8,0,1.5-0.1,2.3-0.3c0.6-0.2,1.2-0.6,1.7-1.1
			s0.8-1,1-1.7c0.2-0.6,0.3-1.3,0.3-2.1h-5.1v-2.5h8L179,1320.3L179,1320.3z"/>
		<path fill="#3B3B3C" d="M183.9,1314.4c0,0.5,0.1,1.1,0.2,1.5c0.1,0.5,0.3,1,0.7,1.3c0.2,0.3,0.7,0.7,1.1,0.8
			c0.5,0.2,1,0.3,1.7,0.3c0.8,0,1.5-0.2,2.1-0.6c0.5-0.3,1-1,1.2-1.7h2.9c-0.1,0.7-0.5,1.5-0.8,2c-0.3,0.6-0.8,1.1-1.5,1.5
			c-0.6,0.3-1.2,0.7-1.8,0.8c-0.7,0.2-1.5,0.3-2.1,0.3c-1.1,0-2-0.1-2.9-0.5c-0.8-0.3-1.5-0.8-2-1.5c-0.6-0.6-1-1.5-1.3-2.3
			c-0.3-0.8-0.5-1.8-0.5-2.9c0-1,0.1-1.9,0.5-2.8c0.3-0.8,0.7-1.7,1.3-2.3c0.6-0.7,1.3-1.2,2-1.5c0.8-0.3,1.7-0.6,2.8-0.6
			c1.1,0,2,0.2,2.9,0.7c0.8,0.5,1.5,1.1,2.1,1.8s1,1.5,1.2,2.5c0.2,1,0.3,1.9,0.2,3h-10L183.9,1314.4L183.9,1314.4z M191,1312.3
			c0-0.5-0.1-1-0.3-1.3c-0.1-0.5-0.3-0.8-0.7-1.2c-0.2-0.3-0.6-0.6-1.1-0.8c-0.3-0.2-0.8-0.3-1.5-0.3c-0.5,0-1,0.1-1.5,0.2
			c-0.5,0.2-0.8,0.5-1.1,0.7c-0.3,0.3-0.6,0.7-0.7,1.2c-0.2,0.5-0.2,1-0.3,1.5L191,1312.3L191,1312.3L191,1312.3z"/>
		<path fill="#3B3B3C" d="M194.3,1306.7h2.3v-4.1h3v4.1h2.8v2.3h-2.8v7.3c0,0.3,0,0.6,0,0.8c0,0.2,0.1,0.5,0.2,0.6
			c0.1,0.1,0.2,0.2,0.5,0.3c0.2,0.1,0.5,0.1,0.8,0.1c0.2,0,0.5,0,0.6,0s0.5,0,0.6-0.1v2.3c-0.3,0-0.7,0.1-1,0.1c-0.3,0-0.6,0-1,0
			c-0.8,0-1.5-0.1-1.9-0.2c-0.5-0.1-0.8-0.3-1.1-0.6c-0.2-0.2-0.5-0.6-0.6-1.1c-0.1-0.5-0.1-1-0.1-1.5v-8h-2.3v-2.3L194.3,1306.7
			L194.3,1306.7z"/>
		<path fill="#3B3B3C" d="M211.2,1301.6h12.9v2.9h-9.7v4.9h8.5v2.6h-8.5v8.4H211v-18.7H211.2z"/>
		<path fill="#3B3B3C" d="M228.1,1314.4c0,0.5,0.1,1.1,0.2,1.5c0.1,0.5,0.3,1,0.7,1.3c0.2,0.3,0.7,0.7,1.1,0.8
			c0.5,0.2,1,0.3,1.7,0.3c0.8,0,1.5-0.2,2.1-0.6c0.5-0.3,1-1,1.2-1.7h2.9c-0.1,0.7-0.5,1.5-0.8,2c-0.3,0.6-0.8,1.1-1.5,1.5
			c-0.6,0.3-1.2,0.7-1.8,0.8c-0.7,0.2-1.5,0.3-2.1,0.3c-1.1,0-2-0.1-2.9-0.5c-0.8-0.3-1.5-0.8-2-1.5c-0.6-0.6-1-1.5-1.3-2.3
			c-0.3-0.8-0.5-1.8-0.5-2.9c0-1,0.1-1.9,0.5-2.8c0.3-0.8,0.7-1.7,1.3-2.3c0.6-0.7,1.3-1.2,2-1.5c0.8-0.3,1.7-0.6,2.8-0.6
			s2,0.2,2.9,0.7c0.8,0.5,1.5,1.1,2.1,1.8c0.6,0.7,1,1.5,1.2,2.5c0.2,1,0.3,1.9,0.2,3h-10.1V1314.4z M235.1,1312.3
			c0-0.5-0.1-1-0.3-1.3c-0.1-0.5-0.3-0.8-0.7-1.2c-0.2-0.3-0.6-0.6-1.1-0.8c-0.3-0.2-0.8-0.3-1.5-0.3c-0.5,0-1,0.1-1.5,0.2
			c-0.5,0.2-0.8,0.5-1.1,0.7c-0.3,0.3-0.6,0.7-0.7,1.2c-0.2,0.5-0.2,1-0.3,1.5L235.1,1312.3L235.1,1312.3L235.1,1312.3z"/>
		<path fill="#3B3B3C" d="M242.2,1314.4c0,0.5,0.1,1.1,0.2,1.5c0.1,0.5,0.3,1,0.7,1.3c0.2,0.3,0.7,0.7,1.1,0.8
			c0.5,0.2,1,0.3,1.7,0.3c0.8,0,1.5-0.2,2.1-0.6c0.5-0.3,1-1,1.2-1.7h2.9c-0.1,0.7-0.5,1.5-0.8,2c-0.3,0.6-0.8,1.1-1.5,1.5
			c-0.6,0.3-1.2,0.7-1.8,0.8c-0.7,0.2-1.5,0.3-2.1,0.3c-1.1,0-2-0.1-2.9-0.5c-0.8-0.3-1.5-0.8-2-1.5c-0.6-0.6-1-1.5-1.3-2.3
			c-0.3-0.8-0.5-1.8-0.5-2.9c0-1,0.1-1.9,0.5-2.8c0.3-0.8,0.7-1.7,1.3-2.3c0.6-0.7,1.3-1.2,2-1.5c0.8-0.3,1.7-0.6,2.8-0.6
			s2,0.2,2.9,0.7c0.8,0.5,1.5,1.1,2.1,1.8c0.6,0.7,1,1.5,1.2,2.5c0.2,1,0.3,1.9,0.2,3h-10L242.2,1314.4L242.2,1314.4z M249.2,1312.3
			c0-0.5-0.1-1-0.3-1.3c-0.1-0.5-0.3-0.8-0.7-1.2c-0.2-0.3-0.6-0.6-1.1-0.8c-0.3-0.2-0.8-0.3-1.5-0.3c-0.5,0-1,0.1-1.5,0.2
			c-0.5,0.2-0.8,0.5-1.1,0.7c-0.3,0.3-0.6,0.7-0.7,1.2c-0.2,0.5-0.2,1-0.3,1.5L249.2,1312.3L249.2,1312.3L249.2,1312.3z"/>
		<path fill="#3B3B3C" d="M266.7,1320.3h-2.9v-1.8l0,0c-0.3,0.8-1,1.3-1.8,1.7c-0.7,0.3-1.5,0.5-2.4,0.5c-1.1,0-2-0.2-2.8-0.6
			c-0.8-0.3-1.5-0.8-2-1.5c-0.5-0.6-1-1.5-1.2-2.3s-0.3-1.8-0.3-2.9c0-1.2,0.1-2.3,0.5-3.3c0.3-0.8,0.7-1.7,1.3-2.1
			c0.6-0.6,1.2-1,1.9-1.3c0.7-0.3,1.5-0.3,2.1-0.3c0.5,0,0.8,0,1.3,0.1c0.5,0.1,0.8,0.2,1.3,0.3c0.3,0.1,0.7,0.3,1.1,0.7
			c0.3,0.2,0.6,0.6,0.8,1l0,0v-6.9h3L266.7,1320.3L266.7,1320.3z M256.3,1313.8c0,0.6,0.1,1.2,0.2,1.7c0.1,0.6,0.3,1.1,0.7,1.5
			c0.3,0.5,0.7,0.8,1.2,1.1c0.5,0.2,1.1,0.3,1.7,0.3c0.7,0,1.2-0.1,1.7-0.5c0.5-0.2,0.8-0.6,1.2-1.1c0.3-0.5,0.5-1,0.7-1.5
			c0.1-0.6,0.2-1.2,0.2-1.8c0-1.5-0.3-2.6-1-3.5c-0.7-0.8-1.5-1.3-2.8-1.3c-0.7,0-1.3,0.1-1.8,0.5c-0.5,0.2-0.8,0.7-1.2,1.1
			c-0.3,0.3-0.5,1-0.6,1.5C256.3,1312.5,256.3,1313.1,256.3,1313.8z"/>
		<path fill="#3B3B3C" d="M269.5,1301.6h3v6.9l0,0c0.2-0.3,0.5-0.6,0.7-0.8c0.2-0.2,0.6-0.5,1-0.7c0.3-0.2,0.7-0.3,1.1-0.5
			c0.3-0.1,0.8-0.1,1.2-0.1c1.1,0,2,0.2,2.8,0.6c0.8,0.3,1.5,0.8,2,1.5c0.5,0.6,1,1.5,1.2,2.3c0.2,0.8,0.3,1.8,0.3,2.9
			c0,1-0.1,1.8-0.3,2.6c-0.2,0.8-0.6,1.7-1.1,2.3c-0.5,0.6-1.1,1.2-1.8,1.5c-0.7,0.3-1.5,0.6-2.6,0.6c-0.5,0-1,0-1.5-0.1
			c-0.5-0.1-1-0.2-1.3-0.3c-0.3-0.1-0.8-0.3-1.2-0.7c-0.3-0.3-0.6-0.6-0.8-1.1l0,0v1.9h-2.9L269.5,1301.6L269.5,1301.6L269.5,1301.6
			z M280,1313.6c0-0.6-0.1-1.2-0.2-1.8c-0.1-0.6-0.3-1.1-0.7-1.5c-0.3-0.5-0.7-0.8-1.2-1.1s-1.1-0.3-1.7-0.3c-1.3,0-2.3,0.5-2.9,1.3
			c-0.6,0.8-1,2-1,3.5c0,0.7,0.1,1.3,0.2,1.9c0.1,0.6,0.3,1.1,0.7,1.5c0.3,0.5,0.7,0.7,1.2,1c0.5,0.2,1,0.3,1.7,0.3
			c0.7,0,1.3-0.1,1.8-0.5c0.5-0.2,0.8-0.6,1.2-1.1c0.3-0.5,0.5-1,0.7-1.5C280,1314.7,280,1314.1,280,1313.6z"/>
		<path fill="#3B3B3C" d="M296.3,1317.4c0,0.3,0,0.6,0.1,0.8c0.1,0.1,0.2,0.2,0.6,0.2c0.1,0,0.2,0,0.3,0c0.1,0,0.2,0,0.5,0v2
			c-0.1,0-0.2,0.1-0.3,0.1s-0.3,0.1-0.5,0.1c-0.2,0-0.3,0.1-0.5,0.1c-0.2,0-0.3,0-0.5,0c-0.6,0-1.1-0.1-1.5-0.3
			c-0.3-0.2-0.7-0.7-0.8-1.3c-0.6,0.6-1.3,1-2.1,1.3c-0.8,0.2-1.7,0.3-2.5,0.3c-0.6,0-1.2-0.1-1.8-0.2c-0.6-0.1-1.1-0.3-1.5-0.7
			c-0.5-0.3-0.7-0.7-1.1-1.2c-0.2-0.5-0.3-1.1-0.3-1.8c0-0.8,0.1-1.5,0.5-2c0.3-0.5,0.7-1,1.2-1.2c0.5-0.2,1.1-0.5,1.7-0.6
			c0.6-0.1,1.2-0.2,1.9-0.3c0.6-0.1,1.1-0.2,1.5-0.2s1-0.1,1.3-0.2c0.3-0.2,0.7-0.2,0.8-0.5c0.2-0.2,0.3-0.6,0.3-1
			c0-0.3-0.1-0.7-0.2-1c-0.2-0.2-0.3-0.5-0.7-0.6c-0.2-0.1-0.6-0.2-1-0.2s-0.6-0.1-1-0.1c-0.8,0-1.5,0.1-2,0.5
			c-0.6,0.3-0.8,0.8-1,1.7h-3c0-0.8,0.2-1.5,0.6-2.1c0.3-0.6,0.8-1.1,1.5-1.5c0.6-0.3,1.2-0.6,1.9-0.7c0.7-0.1,1.5-0.2,2.1-0.2
			c0.7,0,1.3,0.1,1.9,0.2c0.6,0.1,1.2,0.3,1.8,0.7c0.5,0.3,1,0.7,1.2,1.2c0.3,0.5,0.5,1.1,0.5,1.8L296.3,1317.4L296.3,1317.4z
			 M293.3,1313.6c-0.5,0.2-1.1,0.5-1.7,0.6c-0.7,0.1-1.3,0.1-2,0.2c-0.3,0-0.6,0.1-1,0.2c-0.2,0.1-0.6,0.2-0.8,0.3
			c-0.2,0.1-0.3,0.3-0.6,0.6c-0.1,0.2-0.2,0.6-0.2,1c0,0.3,0.1,0.6,0.2,0.8c0.2,0.2,0.5,0.3,0.7,0.6c0.2,0.1,0.6,0.2,0.8,0.2
			c0.3,0,0.6,0.1,0.8,0.1c0.3,0,0.7,0,1.1-0.1c0.3-0.1,0.7-0.2,1.1-0.5c0.3-0.2,0.6-0.5,0.8-0.8s0.3-0.7,0.3-1.2v-2.1L293.3,1313.6
			L293.3,1313.6z"/>
		<path fill="#3B3B3C" d="M308.2,1311.4c-0.1-0.8-0.5-1.5-1-1.9c-0.6-0.5-1.2-0.6-2-0.6c-0.3,0-0.8,0.1-1.2,0.2
			c-0.5,0.1-0.8,0.3-1.2,0.7c-0.3,0.3-0.7,0.8-1,1.5c-0.2,0.6-0.3,1.5-0.3,2.5c0,0.6,0.1,1.1,0.2,1.7c0.1,0.6,0.3,1.1,0.6,1.5
			s0.7,0.8,1.1,1.1c0.5,0.2,1,0.3,1.7,0.3c0.8,0,1.5-0.2,2.1-0.8s1-1.3,1.1-2.3h3c-0.2,1.8-1,3.1-2,4.1c-1.1,1-2.5,1.5-4.2,1.5
			c-1.1,0-2-0.2-2.9-0.6c-0.8-0.3-1.5-0.8-2-1.5c-0.6-0.6-1-1.3-1.3-2.3c-0.2-0.8-0.5-1.8-0.5-2.8c0-1,0.1-1.9,0.5-2.9
			c0.2-0.8,0.7-1.7,1.3-2.3c0.6-0.6,1.3-1.2,2-1.5c0.8-0.3,1.8-0.6,3-0.6c0.8,0,1.5,0.1,2.3,0.3s1.3,0.5,1.9,1c0.6,0.3,1,1,1.3,1.5
			c0.3,0.6,0.6,1.3,0.6,2.1h-3.1L308.2,1311.4L308.2,1311.4z"/>
		<path fill="#3B3B3C" d="M313.3,1301.6h3v10.6l5.4-5.5h3.7l-5.2,5.1l5.7,8.6h-3.7l-4.2-6.6l-1.9,1.8v4.9h-3v-18.9H313.3z"/>
		<path fill="#3B3B3C" d="M11.7,1350.6c-1.1,0-2-0.2-2.9-0.6c-0.8-0.3-1.5-0.8-2.1-1.5c-0.6-0.6-1.1-1.5-1.3-2.3
			c-0.3-0.8-0.5-1.8-0.5-2.9c0-1.1,0.1-2,0.5-2.9s0.7-1.7,1.3-2.3c0.6-0.6,1.3-1.1,2.1-1.5c0.8-0.3,1.8-0.6,2.9-0.6s2,0.2,2.9,0.6
			c0.8,0.3,1.5,0.8,2.1,1.5c0.6,0.6,1.1,1.5,1.3,2.3c0.3,0.8,0.5,1.8,0.5,2.9c0,1.1-0.1,2-0.5,2.9c-0.3,0.8-0.7,1.7-1.3,2.3
			c-0.6,0.6-1.3,1.1-2.1,1.5C13.8,1350.5,12.8,1350.6,11.7,1350.6z M11.7,1348.2c0.7,0,1.2-0.1,1.8-0.5c0.5-0.2,0.8-0.6,1.2-1.1
			c0.3-0.5,0.6-1,0.7-1.5c0.1-0.6,0.2-1.2,0.2-1.8s-0.1-1.2-0.2-1.8c-0.2-0.6-0.3-1.1-0.7-1.5c-0.3-0.5-0.7-0.8-1.2-1.1
			c-0.5-0.2-1.1-0.5-1.8-0.5s-1.2,0.1-1.8,0.5c-0.5,0.2-0.8,0.6-1.2,1.1c-0.4,0.5-0.6,1-0.7,1.5c-0.1,0.6-0.2,1.2-0.2,1.8
			s0.1,1.2,0.2,1.8c0.1,0.6,0.3,1.1,0.7,1.5c0.3,0.5,0.7,0.8,1.2,1.1C10.4,1348,11,1348.2,11.7,1348.2z"/>
		<path fill="#3B3B3C" d="M20.5,1336.6h2.9v2l0,0c0.5-0.7,1.1-1.3,1.8-1.8c0.7-0.5,1.5-0.6,2.4-0.6c1.5,0,2.6,0.3,3.5,1.2
			c0.8,0.7,1.3,1.9,1.3,3.5v9.3h-3v-8.6c0-1.1-0.2-1.8-0.7-2.3c-0.5-0.5-1.1-0.7-2-0.7c-0.5,0-1,0.1-1.3,0.2
			c-0.3,0.2-0.7,0.5-1.1,0.7c-0.3,0.2-0.5,0.7-0.7,1.2c-0.1,0.5-0.2,1-0.2,1.5v8h-3v-13.6L20.5,1336.6L20.5,1336.6z"/>
		<path fill="#3B3B3C" d="M47.2,1342.9l-7-11.3H44l5.1,8.4l4.9-8.4h3.7l-7.1,11.3v7.4h-3.3C47.2,1350.3,47.2,1342.9,47.2,1342.9z"/>
		<path fill="#3B3B3C" d="M62.3,1350.6c-1.1,0-2-0.2-2.9-0.6c-0.8-0.3-1.5-0.8-2.1-1.5c-0.6-0.6-1.1-1.5-1.3-2.3
			c-0.3-0.8-0.5-1.8-0.5-2.9c0-1.1,0.1-2,0.5-2.9c0.3-0.8,0.7-1.7,1.3-2.3c0.6-0.6,1.3-1.1,2.1-1.5c0.8-0.3,1.8-0.6,2.9-0.6
			c1.1,0,2,0.2,2.9,0.6c0.8,0.3,1.5,0.8,2.1,1.5c0.6,0.7,1.1,1.5,1.3,2.3c0.3,0.8,0.5,1.8,0.5,2.9c0,1.1-0.1,2-0.5,2.9
			c-0.3,0.8-0.7,1.7-1.3,2.3c-0.6,0.6-1.3,1.1-2.1,1.5C64.3,1350.5,63.3,1350.6,62.3,1350.6z M62.3,1348.2c0.7,0,1.2-0.1,1.8-0.5
			c0.5-0.2,0.8-0.6,1.2-1.1c0.4-0.5,0.6-1,0.7-1.5c0.1-0.6,0.2-1.2,0.2-1.8s-0.1-1.2-0.2-1.8c-0.1-0.6-0.3-1.1-0.7-1.5
			c-0.3-0.5-0.7-0.8-1.2-1.1c-0.5-0.2-1.1-0.5-1.8-0.5c-0.7,0-1.2,0.1-1.8,0.5c-0.5,0.2-0.8,0.6-1.2,1.1c-0.3,0.5-0.6,1-0.7,1.5
			c-0.2,0.6-0.2,1.2-0.2,1.8s0.1,1.2,0.2,1.8c0.1,0.6,0.3,1.1,0.7,1.5c0.3,0.5,0.7,0.8,1.2,1.1C60.9,1348,61.5,1348.2,62.3,1348.2z"
			/>
		<path fill="#3B3B3C" d="M82.9,1350.2H80v-1.9l0,0c-0.3,0.7-1,1.2-1.7,1.7c-0.7,0.3-1.5,0.6-2.3,0.6c-1.8,0-3.1-0.5-3.8-1.3
			c-0.8-0.8-1.2-2.3-1.2-4.1v-8.6h3v8.3c0,1.2,0.2,2,0.7,2.5c0.5,0.5,1.1,0.7,1.9,0.7c0.6,0,1.2-0.1,1.5-0.2
			c0.5-0.2,0.7-0.5,1.1-0.7c0.2-0.3,0.5-0.7,0.6-1.2s0.1-1,0.1-1.5v-7.9h3V1350.2L82.9,1350.2L82.9,1350.2z"/>
		<path fill="#3B3B3C" d="M85.6,1336.6h2.9v2.6l0,0c0.1-0.3,0.2-0.7,0.5-1.1c0.2-0.3,0.6-0.7,1-1c0.3-0.2,0.7-0.5,1.2-0.7
			c0.5-0.1,0.8-0.2,1.3-0.2c0.3,0,0.6,0,0.7,0c0.2,0,0.2,0,0.3,0v2.9c-0.2,0-0.5-0.1-0.6-0.1c-0.2,0-0.5,0-0.6,0
			c-0.5,0-1,0.1-1.5,0.3c-0.5,0.2-0.8,0.5-1.2,0.8c-0.3,0.3-0.6,0.8-0.8,1.5c-0.2,0.7-0.2,1.2-0.2,2v6.4h-3V1336.6L85.6,1336.6z"/>
		<path fill="#3B3B3C" d="M114.2,1337.4c-0.1-0.6-0.3-1.1-0.6-1.5s-0.6-0.8-1-1.2c-0.4-0.4-0.8-0.6-1.3-0.7
			c-0.5-0.2-1.1-0.2-1.8-0.2c-1,0-1.9,0.2-2.6,0.6c-0.7,0.3-1.3,1-1.8,1.7c-0.5,0.7-0.8,1.5-1,2.3c-0.2,0.8-0.3,1.8-0.3,2.6
			s0.1,1.8,0.3,2.6s0.6,1.7,1,2.3c0.5,0.7,1.1,1.2,1.8,1.7c0.7,0.3,1.5,0.6,2.6,0.6c0.7,0,1.5-0.1,1.9-0.3c0.6-0.2,1.1-0.6,1.5-1.1
			c0.3-0.5,0.7-1,1-1.5c0.2-0.6,0.3-1.2,0.5-1.9h3.3c-0.1,1.1-0.3,2.1-0.7,3.1c-0.4,1-1,1.7-1.7,2.4c-0.7,0.7-1.5,1.2-2.5,1.5
			c-1,0.3-2,0.6-3.1,0.6c-1.5,0-2.6-0.2-3.8-0.7c-1.1-0.5-2-1.2-2.9-2.1c-0.7-0.8-1.3-1.9-1.8-3.1c-0.3-1.2-0.6-2.5-0.6-3.8
			s0.2-2.6,0.6-3.8c0.3-1.2,1-2.3,1.8-3.1c0.7-0.8,1.7-1.5,2.9-2.1c1.1-0.5,2.4-0.8,3.8-0.8c1.1,0,2,0.1,3,0.5
			c1,0.2,1.8,0.7,2.5,1.3c0.7,0.6,1.3,1.2,1.7,2c0.5,0.8,0.7,1.7,0.8,2.8h-3.3L114.2,1337.4L114.2,1337.4L114.2,1337.4z"/>
		<path fill="#3B3B3C" d="M119.5,1336.6h2.9v2.6l0,0c0.1-0.3,0.2-0.7,0.5-1.1c0.2-0.3,0.6-0.7,1-1c0.3-0.2,0.7-0.5,1.2-0.7
			c0.5-0.1,0.8-0.2,1.3-0.2c0.3,0,0.6,0,0.7,0c0.1,0,0.2,0,0.3,0v2.9c-0.2,0-0.5-0.1-0.6-0.1c-0.2,0-0.5,0-0.6,0
			c-0.5,0-1,0.1-1.5,0.3c-0.5,0.2-0.8,0.5-1.2,0.8c-0.4,0.3-0.6,0.8-0.8,1.5c-0.2,0.7-0.2,1.2-0.2,2v6.4h-3V1336.6L119.5,1336.6z"/>
		<path fill="#3B3B3C" d="M130,1344.3c0,0.5,0.1,1.1,0.2,1.5c0.1,0.5,0.3,1,0.7,1.3c0.2,0.3,0.7,0.7,1.1,0.8c0.5,0.2,1,0.3,1.7,0.3
			c0.8,0,1.5-0.2,2.1-0.6c0.5-0.3,1-1,1.2-1.7h2.9c-0.1,0.7-0.5,1.5-0.8,2c-0.3,0.6-0.8,1.1-1.5,1.5c-0.6,0.3-1.2,0.7-1.8,0.8
			c-0.7,0.2-1.5,0.3-2.1,0.3c-1.1,0-2-0.1-2.9-0.5c-0.8-0.3-1.5-0.8-2-1.5c-0.6-0.6-1-1.5-1.3-2.3c-0.3-0.8-0.5-1.8-0.5-2.9
			c0-1,0.1-1.9,0.5-2.8c0.3-0.8,0.7-1.7,1.3-2.3c0.6-0.7,1.3-1.2,2-1.5c0.8-0.3,1.7-0.6,2.8-0.6s2,0.2,2.9,0.7
			c0.8,0.5,1.5,1.1,2.1,1.8c0.6,0.7,1,1.5,1.2,2.5s0.3,1.9,0.2,3h-10L130,1344.3L130,1344.3z M137.1,1342.3c0-0.5-0.1-1-0.3-1.3
			c-0.1-0.5-0.3-0.8-0.7-1.2c-0.2-0.3-0.6-0.6-1.1-0.8c-0.3-0.2-0.8-0.3-1.5-0.3c-0.5,0-1,0.1-1.5,0.2c-0.5,0.2-0.8,0.5-1.1,0.7
			c-0.3,0.3-0.6,0.7-0.7,1.2c-0.2,0.5-0.2,1-0.3,1.5L137.1,1342.3L137.1,1342.3L137.1,1342.3z"/>
		<path fill="#3B3B3C" d="M153.3,1347.2c0,0.3,0,0.6,0.1,0.8c0.1,0.1,0.2,0.2,0.6,0.2c0.1,0,0.2,0,0.3,0s0.2,0,0.5,0v2
			c-0.1,0-0.2,0.1-0.3,0.1c-0.1,0-0.3,0.1-0.5,0.1c-0.1,0-0.3,0.1-0.5,0.1c-0.1,0-0.3,0-0.5,0c-0.6,0-1.1-0.1-1.5-0.3
			c-0.3-0.2-0.7-0.7-0.8-1.3c-0.6,0.6-1.3,1-2.1,1.3c-0.8,0.2-1.7,0.3-2.5,0.3c-0.6,0-1.2-0.1-1.8-0.2c-0.6-0.1-1.1-0.3-1.5-0.7
			c-0.5-0.3-0.7-0.7-1.1-1.2c-0.2-0.5-0.3-1.1-0.3-1.8c0-0.8,0.1-1.5,0.5-2c0.4-0.5,0.7-1,1.2-1.2s1.1-0.5,1.7-0.6s1.2-0.2,1.9-0.3
			c0.6-0.1,1.1-0.2,1.5-0.2c0.5,0,1-0.1,1.3-0.2c0.3-0.1,0.7-0.2,0.8-0.5c0.2-0.2,0.3-0.6,0.3-1c0-0.3-0.1-0.7-0.2-1
			c-0.2-0.2-0.3-0.5-0.7-0.6c-0.2-0.1-0.6-0.2-1-0.2s-0.6-0.1-1-0.1c-0.8,0-1.5,0.1-2,0.5c-0.6,0.3-0.8,0.8-1,1.7h-2.9
			c0-0.8,0.2-1.5,0.6-2.1s0.8-1.1,1.5-1.5c0.6-0.3,1.2-0.6,1.9-0.7c0.7-0.1,1.5-0.2,2.1-0.2s1.3,0.1,1.9,0.2s1.2,0.3,1.8,0.7
			c0.5,0.3,1,0.7,1.2,1.2c0.3,0.5,0.5,1.1,0.5,1.8L153.3,1347.2L153.3,1347.2z M150.3,1343.4c-0.5,0.2-1.1,0.5-1.7,0.6
			c-0.7,0.1-1.3,0.1-2,0.2c-0.3,0-0.6,0.1-1,0.2c-0.2,0.1-0.6,0.2-0.8,0.3s-0.3,0.3-0.6,0.6c-0.1,0.2-0.2,0.6-0.2,1
			c0,0.3,0.1,0.6,0.2,0.8c0.2,0.2,0.5,0.3,0.7,0.6c0.2,0.1,0.6,0.2,0.8,0.2c0.3,0,0.6,0.1,0.8,0.1c0.3,0,0.7,0,1.1-0.1
			c0.3-0.1,0.7-0.2,1.1-0.5c0.3-0.2,0.6-0.5,0.8-0.8s0.3-0.7,0.3-1.2v-2.1L150.3,1343.4L150.3,1343.4z"/>
		<path fill="#3B3B3C" d="M154.6,1336.6h2.3v-4.1h3v4.1h2.8v2.3h-2.8v7.3c0,0.3,0,0.6,0,0.8s0.1,0.5,0.2,0.6
			c0.1,0.1,0.2,0.2,0.5,0.3c0.2,0.1,0.5,0.1,0.8,0.1c0.2,0,0.5,0,0.6,0c0.1,0,0.5,0,0.6-0.1v2.3c-0.3,0-0.7,0.1-1,0.1
			c-0.3,0-0.6,0-1,0c-0.8,0-1.5-0.1-1.9-0.2c-0.5-0.1-0.8-0.3-1.1-0.6c-0.2-0.2-0.5-0.6-0.6-1.1c-0.1-0.5-0.1-1-0.1-1.5v-8h-2.3
			v-2.3L154.6,1336.6L154.6,1336.6z"/>
		<path fill="#3B3B3C" d="M164.3,1331.5h3v2.9h-3V1331.5z M164.3,1336.6h3v13.6h-3V1336.6z"/>
		<path fill="#3B3B3C" d="M168.7,1336.6h3.3l3.5,10.4l0,0l3.3-10.4h3.1l-4.9,13.6h-3.4L168.7,1336.6z"/>
		<path fill="#3B3B3C" d="M185.4,1344.3c0,0.5,0.1,1.1,0.2,1.5c0.1,0.5,0.3,1,0.7,1.3c0.2,0.3,0.7,0.7,1.1,0.8
			c0.5,0.2,1,0.3,1.7,0.3c0.8,0,1.5-0.2,2.1-0.6c0.5-0.3,1-1,1.2-1.7h2.9c-0.1,0.7-0.5,1.5-0.8,2c-0.3,0.6-0.8,1.1-1.5,1.5
			c-0.6,0.3-1.2,0.7-1.8,0.8c-0.7,0.2-1.5,0.3-2.1,0.3c-1.1,0-2-0.1-2.9-0.5c-0.8-0.3-1.5-0.8-2-1.5c-0.6-0.6-1-1.5-1.3-2.3
			c-0.3-0.8-0.5-1.8-0.5-2.9c0-1,0.1-1.9,0.5-2.8c0.3-0.8,0.7-1.7,1.3-2.3c0.6-0.7,1.3-1.2,2-1.5c0.8-0.3,1.7-0.6,2.8-0.6
			c1.1,0,2,0.2,2.9,0.7s1.5,1.1,2.1,1.8c0.6,0.7,1,1.5,1.2,2.5s0.3,1.9,0.2,3h-10L185.4,1344.3L185.4,1344.3z M192.4,1342.3
			c0-0.5-0.1-1-0.3-1.3c-0.1-0.5-0.3-0.8-0.7-1.2c-0.2-0.3-0.6-0.6-1.1-0.8c-0.3-0.2-0.8-0.3-1.5-0.3c-0.5,0-1,0.1-1.5,0.2
			c-0.5,0.2-0.8,0.5-1.1,0.7c-0.3,0.3-0.6,0.7-0.7,1.2c-0.2,0.5-0.2,1-0.3,1.5L192.4,1342.3L192.4,1342.3L192.4,1342.3z"/>
		<path fill="#3B3B3C" d="M202.6,1331.5h3.3l3.3,14.3l0,0l3.8-14.3h3.3l3.7,14.3l0,0l3.5-14.3h3.3l-5.1,18.7h-3.3l-3.7-14.3l0,0
			l-3.8,14.3h-3.3L202.6,1331.5z"/>
		<path fill="#3B3B3C" d="M234,1350.6c-1.1,0-2-0.2-2.9-0.6c-0.8-0.3-1.5-0.8-2.1-1.5c-0.6-0.6-1.1-1.5-1.3-2.3
			c-0.3-0.8-0.5-1.8-0.5-2.9c0-1.1,0.1-2,0.5-2.9c0.3-0.8,0.7-1.7,1.3-2.3c0.6-0.6,1.3-1.1,2.1-1.5c0.8-0.3,1.8-0.6,2.9-0.6
			s2,0.2,2.9,0.6c0.8,0.3,1.5,0.8,2.1,1.5c0.6,0.7,1.1,1.5,1.3,2.3c0.3,0.8,0.5,1.8,0.5,2.9c0,1.1-0.1,2-0.5,2.9
			c-0.3,0.8-0.7,1.7-1.3,2.3c-0.6,0.6-1.3,1.1-2.1,1.5C236.1,1350.5,235.1,1350.6,234,1350.6z M234,1348.2c0.7,0,1.2-0.1,1.8-0.5
			c0.5-0.2,0.8-0.6,1.2-1.1c0.4-0.5,0.6-1,0.7-1.5c0.1-0.6,0.2-1.2,0.2-1.8s-0.1-1.2-0.2-1.8c-0.2-0.6-0.3-1.1-0.7-1.5
			c-0.3-0.5-0.7-0.8-1.2-1.1c-0.5-0.2-1.1-0.5-1.8-0.5s-1.2,0.1-1.8,0.5c-0.5,0.2-0.8,0.6-1.2,1.1c-0.4,0.5-0.6,1-0.7,1.5
			c-0.1,0.6-0.2,1.2-0.2,1.8s0.1,1.2,0.2,1.8c0.1,0.6,0.3,1.1,0.7,1.5c0.3,0.5,0.7,0.8,1.2,1.1C232.6,1348,233.3,1348.2,234,1348.2z
			"/>
		<path fill="#3B3B3C" d="M242.8,1336.6h2.9v2.6l0,0c0.1-0.3,0.2-0.7,0.5-1.1c0.2-0.3,0.6-0.7,1-1c0.3-0.2,0.7-0.5,1.2-0.7
			c0.5-0.1,0.8-0.2,1.3-0.2c0.3,0,0.6,0,0.7,0c0.1,0,0.2,0,0.3,0v2.9c-0.2,0-0.5-0.1-0.6-0.1c-0.2,0-0.5,0-0.6,0
			c-0.5,0-1,0.1-1.5,0.3c-0.5,0.2-0.8,0.5-1.2,0.8c-0.4,0.3-0.6,0.8-0.8,1.5c-0.2,0.6-0.2,1.2-0.2,2v6.4h-3V1336.6L242.8,1336.6z"/>
		<path fill="#3B3B3C" d="M251.5,1331.5h3v10.6l5.4-5.5h3.7l-5.2,5.1l5.7,8.6h-3.7l-4.2-6.6l-1.8,1.8v4.9h-3L251.5,1331.5
			L251.5,1331.5z"/>
	</g>
</g>
<rect x="5.9" y="1268" fill="#3B3B3C" width="20.5" height="1.5"/>
<rect x="5.9" y="1141.2" fill="#3B3B3C" width="20.5" height="1.5"/>
<g>
	<path fill="#3B3B3C" d="M183.3,942.7h-30.9V789.1h45.1c19.1,0,28.5,9.5,28.5,28.5v43.3c0,19.1-9.5,28.5-28.5,28.5h-14.2V942.7z
		 M189.8,815.4h-6.6v47.7h6.6c3.7,0,5.5-1.8,5.5-5.5v-36.7C195.3,817.2,193.5,815.4,189.8,815.4z"/>
	<path fill="#3B3B3C" d="M281,944h-19.7c-19.1,0-28.5-9.5-28.5-28.5v-99.2c0-19.1,9.5-28.5,28.5-28.5H281c19.1,0,28.5,9.5,28.5,28.5
		v99.2C309.5,934.6,300.2,944,281,944z M273.4,814.1H269c-3.7,0-5.5,1.8-5.5,5.5v92.6c0,3.7,1.8,5.5,5.5,5.5h4.4
		c3.7,0,5.5-1.8,5.5-5.5v-92.6C278.9,815.9,277.1,814.1,273.4,814.1z"/>
	<path fill="#3B3B3C" d="M392.1,889.8v52.9h-30.7V890c0-3.7-1.8-5.5-5.5-5.5h-7.7v58.2h-30.8V789.1h45.9c19.1,0,28.5,9.5,28.5,28.5
		v29.7c0,13.1-4.8,19.7-13.1,22.8C388.2,872.7,392.1,878.7,392.1,889.8z M355.7,815.9h-7.4v42.5h7.4c3.7,0,5.5-1.8,5.5-5.5v-31.5
		C361.2,817.7,359.4,815.9,355.7,815.9z"/>
	<path fill="#3B3B3C" d="M415.4,942.7V816.5h-18.7v-27.5h68.1v27.5h-18.7v126.1H415.4z"/>
	<path fill="#3B3B3C" d="M527.1,789.1v27.5h-25.2v35.9H526v27.5h-24.1v62.7h-30.7V789.1H527.1z"/>
	<path fill="#3B3B3C" d="M581.8,944h-19.7c-19.1,0-28.5-9.5-28.5-28.5v-99.2c0-19.1,9.5-28.5,28.5-28.5h19.7
		c19.1,0,28.5,9.5,28.5,28.5v99.2C610.2,934.6,600.8,944,581.8,944z M574,814.1h-4.4c-3.7,0-5.5,1.8-5.5,5.5v92.6
		c0,3.7,1.8,5.5,5.5,5.5h4.4c3.7,0,5.5-1.8,5.5-5.5v-92.6C579.5,815.9,577.7,814.1,574,814.1z"/>
	<path fill="#3B3B3C" d="M648.9,789.1v126.1H671v27.5h-52.9V789.1H648.9z"/>
	<path fill="#3B3B3C" d="M708.4,942.7h-30.7V789.1h30.7V942.7z"/>
	<path fill="#3B3B3C" d="M763.5,944h-19.7c-19.1,0-28.5-9.5-28.5-28.5v-99.2c0-19.1,9.5-28.5,28.5-28.5h19.7
		c19.1,0,28.5,9.5,28.5,28.5v99.2C792,934.6,782.5,944,763.5,944z M755.8,814.1h-4.4c-3.7,0-5.5,1.8-5.5,5.5v92.6
		c0,3.7,1.8,5.5,5.5,5.5h4.4c3.7,0,5.5-1.8,5.5-5.5v-92.6C761.3,815.9,759.5,814.1,755.8,814.1z"/>
	<path fill="#3B3B3C" d="M227.1,1054.6v52.9h-30.7v-52.6c0-3.7-1.8-5.5-5.5-5.5h-7.7v58.2h-30.9V953.9h45.9
		c19.1,0,28.5,9.5,28.5,28.5v29.7c0,13.1-4.8,19.7-13.1,22.8C223.1,1037.5,227.1,1043.5,227.1,1054.6z M190.6,980.6h-7.4v42.5h7.4
		c3.7,0,5.5-1.8,5.5-5.5v-31.6C196.1,982.4,194.3,980.6,190.6,980.6z"/>
	<path fill="#3B3B3C" d="M291.5,953.9v27.5h-26.2v34.4h25.2v27.5h-25.2v36.9H292v27.5h-57.4V953.9H291.5z"/>
	<path fill="#3B3B3C" d="M318.4,1107.5l-20.7-153.6h31.2l10.8,109l11.2-109h28.5l-20.7,153.6H318.4z"/>
	<path fill="#3B3B3C" d="M416,1107.5h-30.7V953.9H416V1107.5z"/>
	<path fill="#3B3B3C" d="M481.2,953.9v27.5h-26.4v34.4H480v27.5h-25.2v36.9h26.7v27.5h-57.4V953.9H481.2z"/>
	<path fill="#3B3B3C" d="M565.3,953.9l8.7,81.7l7.9-81.7h27.2l-18.7,153.6h-33.8l-8.1-70l-7.7,70h-33.8l-18.7-153.6h31.2l7.9,82.3
		l8.7-82.3H565.3L565.3,953.9z"/>
	<path fill="#3B3B3C" d="M687.1,1052v28.3c0,19.1-9.5,28.5-28.5,28.5h-17.1c-19.1,0-28.5-9.5-28.5-28.5v-32.8h30.1v29.8
		c0,3.7,1.8,5.5,5.5,5.5h2.9c3.7,0,5.5-1.8,5.5-5.5v-18.4c0-4.8-1.5-7.3-5.2-9.9l-26.4-19.6c-9.5-6.8-12.3-13.1-12.3-24.1V981
		c0-19.1,9.5-28.5,28.5-28.5h16.7c19.1,0,28.5,9.5,28.5,28.5v28h-30.1v-25.2c0-3.7-1.8-5.5-5.5-5.5h-2.4c-3.7,0-5.5,1.8-5.5,5.5
		v14.4c0,4.8,1.5,7.3,5.2,9.9l26.4,19.6C684.3,1034.7,687.1,1040.6,687.1,1052z"/>
</g>
<g>
	<path fill="#FFFFFF" d="M27.4,720.5c2.1,0,4.2,0.2,5.9,0.6c1.8,0.3,3.3,1.1,4.6,1.9s2.3,2,3,3.5c0.7,1.5,1.1,3.3,1.1,5.4
		c0,2.3-0.5,4.2-1.5,5.7c-1.1,1.5-2.6,2.8-4.6,3.8c2.9,0.8,4.9,2.3,6.4,4.3c1.5,2,2,4.6,2,7.3c0,2.3-0.5,4.3-1.3,5.9
		c-0.8,1.7-2.1,3.1-3.6,4.2c-1.5,1.1-3.3,1.9-5.2,2.4c-1.9,0.5-3.9,0.7-5.9,0.7H5.9v-45.7L27.4,720.5L27.4,720.5z M26.1,739
		c1.8,0,3.3-0.5,4.4-1.3c1.2-0.8,1.7-2.3,1.7-4.2c0-1.1-0.2-1.9-0.6-2.6c-0.3-0.7-1-1.2-1.5-1.5c-0.6-0.3-1.5-0.6-2.3-0.8
		c-0.8-0.1-1.7-0.2-2.6-0.2h-9.5V739L26.1,739z M26.6,758.5c1,0,1.9-0.1,2.9-0.2c1-0.2,1.7-0.5,2.4-1c0.7-0.5,1.2-1.1,1.7-1.8
		c0.3-0.7,0.6-1.8,0.6-3c0-2.4-0.7-4.1-2-5.1c-1.3-1-3.1-1.5-5.2-1.5h-11v12.5L26.6,758.5L26.6,758.5z"/>
	<path fill="#FFFFFF" d="M57.1,758.3c1.3,1.3,3.3,2,5.9,2c1.8,0,3.5-0.5,4.8-1.5c1.3-1,2.1-1.9,2.4-3h8c-1.3,3.9-3.3,6.8-5.9,8.6
		c-2.6,1.7-5.9,2.6-9.5,2.6c-2.6,0-5.1-0.5-7-1.3c-2.1-0.8-3.8-2-5.4-3.6c-1.5-1.5-2.5-3.3-3.3-5.5c-0.8-2.1-1.2-4.6-1.2-7
		s0.3-4.8,1.2-6.9c0.8-2.1,1.9-3.9,3.5-5.5c1.5-1.5,3.3-2.8,5.4-3.7c2-0.9,4.4-1.3,6.9-1.3c2.8,0,5.2,0.5,7.4,1.7
		c2.1,1.1,3.8,2.5,5.1,4.4c1.3,1.8,2.3,3.9,2.9,6.4c0.6,2.4,0.8,4.8,0.6,7.4h-24C54.8,754.6,55.8,757,57.1,758.3z M67.6,741
		c-1.1-1.2-2.9-1.8-5.1-1.8c-1.5,0-2.6,0.2-3.6,0.7c-1,0.5-1.7,1.1-2.3,1.8c-0.6,0.7-1,1.5-1.2,2.4c-0.2,0.8-0.3,1.5-0.3,2.1h14.8
		C69.4,743.9,68.7,742.1,67.6,741z"/>
	<path fill="#FFFFFF" d="M88.9,720.5v17.2h0.2c1.2-1.9,2.6-3.3,4.4-4.2s3.6-1.3,5.2-1.3c2.4,0,4.4,0.3,5.9,1
		c1.5,0.7,2.8,1.7,3.7,2.9c0.8,1.2,1.5,2.6,1.9,4.3c0.3,1.7,0.6,3.6,0.6,5.6v20.3h-9v-18.7c0-2.8-0.5-4.8-1.3-6.1
		c-0.8-1.3-2.4-2-4.6-2c-2.5,0-4.3,0.7-5.4,2.3c-1.1,1.5-1.7,3.9-1.7,7.3v17.4h-9v-45.7L88.9,720.5L88.9,720.5z"/>
	<path fill="#FFFFFF" d="M115.1,738c1-1.5,2.1-2.5,3.6-3.3c1.5-0.8,3.1-1.5,4.9-1.8s3.6-0.6,5.5-0.6c1.7,0,3.3,0.1,5.1,0.3
		c1.7,0.2,3.3,0.7,4.6,1.5c1.5,0.7,2.5,1.7,3.5,2.9c1,1.2,1.3,2.9,1.3,4.9v17.3c0,1.5,0.1,2.9,0.2,4.3c0.1,1.5,0.6,2.4,1.1,3.1h-9.3
		c-0.2-0.3-0.5-1.1-0.6-1.5c-0.1-0.5-0.2-1.1-0.2-1.7c-1.5,1.5-3.1,2.5-5.1,3.1c-1.9,0.6-3.9,1-5.9,1c-1.5,0-3-0.2-4.4-0.6
		c-1.3-0.3-2.5-1-3.6-1.8c-1.1-0.8-1.8-1.8-2.4-3.1c-0.6-1.2-0.8-2.8-0.8-4.4c0-1.9,0.3-3.5,1-4.6c0.7-1.1,1.5-2.1,2.5-2.9
		c1.1-0.7,2.3-1.3,3.6-1.7c1.3-0.3,2.8-0.7,4.1-0.8c1.3-0.2,2.8-0.3,4.1-0.5c1.3-0.1,2.5-0.3,3.6-0.6c1.1-0.2,1.8-0.6,2.4-1.1
		c0.6-0.5,0.8-1.2,0.8-2.1s-0.1-1.8-0.5-2.4s-0.7-1.1-1.3-1.3c-0.5-0.3-1.2-0.5-1.8-0.6c-0.7-0.1-1.5-0.1-2.3-0.1
		c-1.8,0-3.3,0.3-4.2,1.2c-1.1,0.8-1.7,2-1.8,3.8h-9C113.6,741.2,114.1,739.4,115.1,738z M132.9,750.9c-0.6,0.2-1.2,0.3-1.8,0.5
		c-0.7,0.1-1.3,0.2-2,0.3c-0.7,0.1-1.5,0.2-2.1,0.3c-0.7,0.1-1.3,0.3-2,0.5c-0.7,0.2-1.2,0.5-1.7,0.8c-0.5,0.3-0.8,0.8-1.2,1.5
		c-0.2,0.6-0.5,1.3-0.5,2.1s0.1,1.5,0.5,2c0.3,0.6,0.7,1,1.2,1.3s1.1,0.6,1.8,0.7c0.7,0.1,1.5,0.2,2.1,0.2c1.8,0,3.1-0.2,4.2-0.8
		c1-0.6,1.7-1.3,2.1-2.1c0.5-0.8,0.7-1.7,0.8-2.5c0.1-0.8,0.1-1.5,0.1-2v-3.3C134,750.4,133.5,750.8,132.9,750.9z"/>
	<path fill="#FFFFFF" d="M155.1,733.2v4.6h0.2c1.2-1.9,2.6-3.3,4.4-4.2s3.7-1.3,5.6-1.3c2.4,0,4.4,0.3,5.9,1
		c1.5,0.7,2.8,1.5,3.7,2.8s1.5,2.6,1.9,4.3c0.3,1.7,0.6,3.6,0.6,5.6v20.3h-9v-18.7c0-2.8-0.5-4.8-1.3-6.1c-0.8-1.3-2.4-2.1-4.6-2.1
		c-2.5,0-4.3,1-5.4,2.4c-1.1,1.4-1.7,3.9-1.7,7.3v17.4h-9v-33.1L155.1,733.2L155.1,733.2z"/>
	<path fill="#FFFFFF" d="M195.6,739c-1.5,0-2.6,0.3-3.6,1c-1,0.7-1.8,1.5-2.4,2.5c-0.6,1.1-1.1,2.1-1.3,3.5
		c-0.2,1.3-0.3,2.5-0.3,3.7s0.1,2.4,0.3,3.7c0.2,1.2,0.7,2.4,1.2,3.3c0.6,1,1.3,1.8,2.4,2.5c1,0.6,2.1,1,3.6,1
		c2.1,0,3.8-0.6,5.1-1.8c1.2-1.2,1.9-2.9,2.1-4.9h8.8c-0.6,4.4-2.3,7.7-5.1,10c-2.9,2.3-6.4,3.5-10.8,3.5c-2.5,0-4.8-0.5-6.8-1.3
		c-2-0.8-3.8-2-5.2-3.5c-1.5-1.5-2.6-3.3-3.5-5.4c-0.8-2-1.2-4.3-1.2-6.8s0.3-4.9,1.1-7.2c0.7-2.1,1.8-4.1,3.3-5.7
		c1.5-1.5,3.3-2.9,5.4-3.7c2.1-1,4.6-1.3,7.2-1.3c1.9,0,3.8,0.2,5.7,0.7c1.8,0.5,3.5,1.3,4.9,2.4c1.5,1.1,2.6,2.4,3.5,3.9
		c0.9,1.5,1.5,3.5,1.5,5.5h-9C201.8,741,199.5,739,195.6,739z"/>
	<rect x="52.8" y="723.4" fill="#FFFFFF" width="18.5" height="4.6"/>
	<path fill="#FFFFFF" d="M224.3,758.3c1.3,1.3,3.5,2,5.9,2c1.8,0,3.5-0.5,4.8-1.5c1.3-1,2.1-1.9,2.4-3h8c-1.3,3.9-3.3,6.8-5.9,8.6
		c-2.6,1.7-5.9,2.6-9.5,2.6c-2.6,0-5.1-0.5-7-1.3c-2.1-0.8-3.8-2-5.4-3.6c-1.5-1.5-2.6-3.3-3.3-5.5c-0.8-2.1-1.2-4.6-1.2-7
		s0.3-4.8,1.2-6.9c0.9-2.1,2-3.9,3.5-5.5c1.5-1.5,3.3-2.8,5.4-3.7c2-1,4.4-1.3,6.9-1.3c2.8,0,5.2,0.5,7.3,1.7
		c2.1,1.1,3.8,2.5,5.1,4.4c1.3,1.8,2.3,3.9,2.9,6.4c0.6,2.4,0.8,4.8,0.6,7.4h-24C222,754.6,222.9,757,224.3,758.3z M234.8,741
		c-1.1-1.2-3-1.8-5.1-1.8c-1.5,0-2.6,0.2-3.6,0.7c-1,0.5-1.8,1.1-2.4,1.8c-0.6,0.7-1,1.5-1.2,2.4s-0.3,1.5-0.3,2.1h14.9
		C236.7,743.9,235.9,742.1,234.8,741z"/>
</g>
<g>
	<path fill="#00B8E6" d="M82.3,865.6c0.1-0.2,0.2-0.5,0.2-0.7c0-0.2,0-0.4-0.1-0.6c-0.1-0.2-0.1-0.5-0.1-0.7c0-0.5,0.1-0.8,0.4-1.1
		l0.5-0.1c0.4-0.1,0.5-0.1,0.8-0.1c0.3,0,0.5,0,0.8,0.1c0.5-0.5,1-0.9,1.7-1.2c0.7-0.4,1.5-0.5,2.4-0.7c1.1-0.2,2.2-0.4,3.3-0.5
		s2-0.2,2.7-0.4c0.2-0.1,0.9-0.2,2.1-0.4c1.2-0.2,2.6-0.5,4.1-0.6c1.5-0.2,2.9-0.5,4.2-0.6s2.1-0.4,2.4-0.4c0.5-0.1,0.8-0.1,0.8,0
		s-0.3,0.3-0.8,0.5c-0.2,0.1-0.5,0.3-0.8,0.5c-0.4,0.2-0.7,0.4-1.1,0.5c0.4-0.1,0.5-0.1,0.5-0.2c0.2-0.1,0.4-0.2,0.6-0.2
		c0.2-0.1,0.5-0.2,0.8-0.4c0,0.5,0.1,0.7,0.2,0.8c0.2,0.1,0.2,0.2,0.2,0.4c0,0.1-0.1,0.2-0.1,0.4l0.4,0.3v1.5l0.1,0.1
		c-0.1,0-0.3,0-0.5,0c-0.3,0-0.5,0-0.6,0c-0.1,0.1-0.1,0.1-0.1,0.2l0.4,1.1l-1.1,0.2c-0.4-0.2-0.5-0.3-0.5-0.3l-0.2-0.1
		c-0.1-0.1-0.1-0.1-0.2-0.2c-0.1-0.1-0.3-0.1-0.5-0.3l-0.4,0.5c0.3,0.1,0.5,0.1,0.5,0.2c0.1,0.1,0.1,0.1,0.1,0.2
		c-0.1,0.1-0.1,0.2-0.2,0.4c-0.1,0.2-0.1,0.5-0.1,0.7c-0.5,0.1-0.8,0.2-1.1,0.4c-0.4,0.2-0.5,0.4-0.7,0.5c-0.2,0.2-0.5,0.4-0.7,0.5
		s-0.6,0.4-1.1,0.4c0-0.2-0.1-0.4-0.4-0.3s-0.5,0.2-0.8,0.4c-0.4,0.2-0.5,0.3-0.7,0.4c0-0.2-0.2-0.3-0.5-0.3c-0.4,0-0.6-0.1-1-0.2
		c0.2,0.7,0.4,1.6,0.5,2.6c0.1,1,0.1,2,0.1,3.1c0,1.5-0.1,2.9-0.1,4.3c-0.1,1.4-0.1,2.5-0.1,3.4c0,0.7,0.1,1.5,0.2,2
		c0.1,0.5,0.2,1.2,0.2,1.7c-0.1,0.5-0.1,0.8-0.1,1.2c0,0.4-0.1,0.8-0.1,1.2c0,1.4,0.1,2.6,0.2,4c0.1,1.4,0.2,2.7,0.2,4.2
		c0,1.2-0.1,2.4-0.2,3.5c-0.1,1.1-0.4,2.3-0.7,3.3c-0.5-0.1-1-0.3-1.3-0.5c-0.3-0.4-0.5-0.7-1-1.2c0,0.2-0.1,0.4-0.2,0.5
		c-0.1,0.1-0.1,0.1-0.1,0.1c0,0.1-0.1,0.1-0.1,0.1c-0.2,0.1-0.5,0.2-0.8,0.4c-0.4,0.2-0.7,0.4-1.1,0.5c-0.2,0.2-0.4,0.5-0.5,0.7
		c-0.2,0.2-0.2,0.5-0.2,0.5l-1.1,0.2c0-0.2-0.1-0.5-0.2-0.7c-0.1-0.4-0.2-0.7-0.2-1.1l2.3-5l-0.4-0.3c-0.4,0.9-0.5,1.6-0.9,2.2
		c-0.4,0.5-0.7,0.9-1.4,1c-0.1,0-0.4,0-0.7,0c-0.2-0.7-0.3-1.5-0.4-2.4c-0.1-0.8-0.2-1.6-0.2-2.5c0-0.7,0.1-1.5,0.2-2.1
		c0.1-0.2,0.2-0.5,0.2-0.8c0-0.4-0.1-0.7-0.1-1.1c0-0.4-0.1-0.6-0.1-0.8c0.2-0.4,0.3-0.8,0.4-1.5c0.1-0.6,0.2-1.4,0.3-2.2
		c0.1-0.8,0.1-1.6,0.1-2.5s0.1-1.6,0.1-2.3v-2c0-0.4,0.1-0.8,0.2-1.2c0.2-0.5,0.4-1,0.5-1.6c0-1.5-0.1-2.9-0.2-4.3
		c-0.1-1.4-0.2-2.7-0.2-4.4c-0.2,0.1-0.4,0.1-0.5,0.1c-0.2,0-0.4,0.1-0.5,0.1c-0.7,0.2-1.4,0.4-2,0.5s-1.2,0.5-1.8,0.7
		c-0.5,0.3-1.2,0.5-1.8,0.7s-1.4,0.5-2.1,0.5v-3.5h-0.1V865.6z"/>
	<path fill="#00B8E6" d="M14.2,912.4c0.1,0,0.1,0,0.2,0.1s0.1,0.1,0.2,0.2c0.2-0.4,0.4-0.7,0.5-1c0.1-0.4,0.3-0.5,0.5-0.5
		c0.1,0,0.2,0,0.2,0.1v-0.7l-0.8-0.3c-0.1-0.1-0.1-0.1-0.1-0.1c0-0.1-0.1-0.1-0.1-0.1c-0.1-0.1-0.2-0.3-0.2-0.5l-0.4,0.1
		c0.2-0.5,0.4-0.9,0.4-1.5c0.1-0.5,0.2-1,0.4-1.5c0-0.5,0.1-1,0.1-1.6c0.1-0.6,0.1-1.4,0.2-2.1c0.1-0.7,0.2-1.5,0.2-2.2
		c0.1-0.7,0.1-1.4,0.1-2c0-0.9-0.1-1.5-0.2-1.8c0.1-0.7,0.1-1.4,0.2-2.1c0.1-0.7,0.1-1.5,0.1-2.3c0-2.1-0.1-4.2-0.2-6.4
		c-0.2-2.1-0.2-4.2-0.2-6.2c0-0.7,0-1.5,0.1-2.1c0.1-0.7,0.1-1.4,0.2-2c0.2-0.1,0.4-0.2,0.4-0.4c0.1-0.2,0.2-0.4,0.4-0.5l6-0.5
		c0,1.8,0.1,3.5,0.1,5.2s0.1,3.3,0.2,4.9c0.1,1.6,0.2,3.3,0.4,4.9c0.2,1.6,0.3,3.4,0.5,5.2c0.1,0.1,0.1,0.5,0.1,1
		c0,0.5-0.1,1.1-0.1,1.6c-0.1,0.5-0.1,1.2-0.2,1.8c-0.1,0.5-0.1,1.1-0.2,1.6c-0.1,0.5-0.1,1-0.1,1.3c0.5,0.5,0.6,0.8,0.6,1.2
		c0,0.2,0,0.4-0.1,0.5l-0.5,1.8l-0.4,0.1l0.8,4.5c0.2-0.2,0.4-0.5,0.5-0.6c0.2-0.2,0.5-0.4,0.8-0.5c0.8-0.2,1.7-0.5,2.6-0.8
		c0.9-0.4,1.8-0.7,2.7-0.8c0.7-0.2,1.3-0.2,1.7-0.1c0,0.2,0.1,0.4,0.2,0.5c0.1,0.2,0.2,0.4,0.2,0.5c0.3-0.2,0.5-0.4,0.7-0.5
		c0.2-0.2,0.5-0.4,0.6-0.5c0.4-0.3,0.7-0.5,1-0.7c0.4-0.2,0.5-0.4,0.6-0.4l1.9,1.1v0.5l-0.4,0.5c0.4,0.1,0.7,0.4,0.9,0.5
		c0.3,0.2,0.5,0.4,0.9,0.3c-0.2,0.5-0.3,1-0.4,1.5c0,0.5-0.1,1-0.1,1.5v0.8c-0.2,0.1-0.4,0.2-0.4,0.3c-0.1,0.2-0.2,0.3-0.4,0.3
		c-0.2,0.1-0.3,0.1-0.4,0c-0.1-0.1-0.2-0.1-0.4,0s-0.3,0.1-0.4,0.3c-0.5-0.1-1.2-0.1-1.8,0.1c-1,0.2-2,0.5-2.9,1
		c-1,0.5-1.9,0.7-2.9,1c-0.5,0.1-0.7,0.2-1,0.2v-1.4l-0.2,0.3c-0.1,0.2-0.3,0.2-0.5,0.3l-0.4,0.5l-1.1,0.2c0-0.2,0-0.4-0.1-0.4
		c-0.1-0.1-0.2-0.2-0.4-0.4c-0.2,0.1-0.5,0.2-0.8,0.4c-0.4,0.2-0.7,0.4-1.1,0.5c-0.5,0.3-0.7,0.5-0.8,0.7c-0.1,0.2-0.4,0.4-0.7,0.4
		c-0.1-0.1-0.2-0.1-0.2-0.2c-0.1-0.1-0.1-0.1-0.2-0.2l-0.1-0.1v0.1c-0.5,0.1-0.7,0.2-1,0.4c-0.3,0.2-0.5,0.4-0.7,0.5
		c-0.2,0.2-0.5,0.3-0.7,0.4c-0.3,0.1-0.5,0-0.9-0.2v-0.4c0-0.2-0.1-0.4-0.2-0.4c-0.1-0.1-0.1-0.1-0.2,0v-0.5l-0.4,0.1
		c0,0.9-0.5,1.5-1.2,1.6c-0.4,0.1-0.6,0.1-1,0.1c-0.1,0.1-0.2,0.1-0.2,0.1c-0.1,0-0.1-0.1-0.1-0.4c0-0.2,0-0.4,0.1-0.5
		c0-0.2,0.1-0.4,0.1-0.5c0-0.3-0.1-0.5-0.1-0.7c-0.1-0.3-0.2-0.4-0.5-0.5c0-0.2,0.1-0.5,0.2-0.8c0.1-0.4,0.2-0.7,0.2-1.2v-1.2
		l-0.4,0.1c0-0.2,0-0.4-0.1-0.4c-0.1-0.1-0.2-0.1-0.4,0C14,912.5,14.1,912.4,14.2,912.4z"/>
	<path fill="#00B8E6" d="M62,934.2c-0.2,0.1-0.2,0.2-0.3,0.3c-0.1,0.1-0.1,0.1-0.1,0.2c-0.1,1.1-0.2,2.1-0.2,2.7
		c-0.1,0.6-0.1,1.1-0.2,1.5c-0.1,0.3-0.1,0.5-0.2,0.6c-0.1,0.2-0.2,0.2-0.2,0.4c0.1,0,0.2,0,0.2,0c0.2,0,0.2,0.1,0.2,0.3v3.9
		l-0.7,0.2c-0.3,0.6-0.5,1.1-0.7,1.5c-0.2,0.4-0.3,0.7-0.5,1c-0.2,0.3-0.3,0.6-0.5,1s-0.5,0.8-0.8,1.5c-0.3,0.2-0.7,0.5-1.1,0.8
		s-0.9,0.7-1.4,1c-0.5,0.4-1,0.6-1.5,0.9c-0.5,0.3-1,0.5-1.4,0.5c-0.5,0.1-0.8,0.1-1.1-0.1c-0.2,0.2-0.4,0.5-0.5,0.8
		c-0.2,0.4-0.4,0.8-0.5,1.1c-0.4-0.1-0.6-0.2-0.8-0.4c-0.2-0.2-0.5-0.2-0.8-0.4c0,0.2-0.2,0.4-0.6,0.7c-0.4,0.3-0.7,0.5-0.8,0.7
		c-0.5-0.6-1-0.8-1.5-0.8c-0.5,0-0.9,0-1.4,0.1c-0.4,0.1-0.8-0.1-1.1-0.3c-0.4-0.2-0.6-0.8-0.9-1.8l-0.4-0.3v1.1
		c-1,0.1-1.9-0.2-2.6-0.6c-0.7-0.5-1.2-1.2-1.5-2.4c-0.2,0.1-0.5-0.1-0.6-0.5c-0.2-0.4-0.3-0.9-0.4-1.6c-0.1-0.7-0.2-1.5-0.2-2.3
		c-0.1-0.8-0.1-1.8-0.1-2.7c0-1.5,0.1-3.1,0.1-4.5c0.1-1.5,0.1-2.4,0.1-2.9c0.3-0.6,0.5-1,0.5-1.2c0.1-0.3,0.2-0.6,0.2-1V932
		c-0.4-0.1-0.6-0.2-0.8-0.4c-0.2-0.2-0.4-0.3-0.6-0.4c0-0.4,0.1-0.7,0.2-1c0.2-0.3,0.3-0.6,0.5-1c0.1-0.9,0.3-2,0.8-3.2
		s0.9-2.4,1.5-3.7c0.6-1.2,1.2-2.4,2-3.4c0.7-1.1,1.4-1.9,1.9-2.4c0.2,0.2,0.3,0.2,0.4,0.3c0.2,0.1,0.3,0.1,0.5,0.1
		c0.2-0.1,0.4-0.2,0.6-0.3c0-0.5,0.1-0.8,0.1-1c0.1-0.2,0.2-0.4,0.3-0.5c0.2-0.1,0.3-0.2,0.5-0.3c0.2-0.2,0.5-0.2,0.8-0.4v1.1
		c0.2-0.1,0.3-0.1,0.4,0c0.1,0.1,0.2,0.1,0.4,0.3c0.2-0.8,0.4-1.3,0.6-1.6c0.2-0.3,0.6-0.6,1.1-0.9v1.1l0.7,0.2
		c0.4-0.3,0.5-0.5,0.6-0.5c0.1-0.2,0.1-0.5,0.1-1l1-0.2c0,0.4,0.1,0.6,0.1,0.7c0.1,0.1,0.3,0.2,0.7,0.3c0.3-0.4,0.6-0.6,1-0.7
		s0.8,0,1.1,0.2c0.4,0.2,0.8,0.5,1.1,0.9c0.4,0.4,0.7,0.7,0.9,1.1c0.3,0.4,0.5,0.7,0.7,0.9c0.4,0.2,0.8,0.4,1.1,0.5s0.5,0.4,0.8,0.6
		c0.2,0.2,0.4,0.5,0.6,0.8c0.2,0.3,0.4,0.6,0.7,1c0.3-0.1,0.5,0.1,0.5,0.3c0.1,0.3,0.2,0.6,0.2,1c0,0.4,0,0.8-0.1,1.2
		s-0.1,0.9-0.1,1.4c0,0.6,0.1,1.1,0.2,1.6c0.2,0.5,0.5,0.8,1,0.9c-0.1,0.5-0.2,0.9-0.2,1.2c0,0.4,0.1,0.8,0.2,1.1
		c0.1,0.4,0.2,0.8,0.4,1.2v5.3h0V934.2z"/>
	<path fill="#00B8E6" d="M48.7,910.4c-0.2-0.1-0.4-0.1-0.5-0.3c-0.1-0.2-0.3-0.4-0.4-0.5c-0.1-0.2-0.3-0.5-0.5-0.7
		c0,0.2-0.1,0.4-0.2,0.5c-0.1,0.1-0.2,0.2-0.2,0.5l-2.3,0.5c0,0.2-0.1,0.5-0.2,0.8s-0.2,0.6-0.2,0.8l-1.1,0.2c0-0.5-0.1-0.8-0.2-1.1
		c-0.1-0.4-0.2-0.7-0.2-1.1c0.4-0.6,0.7-1.4,1.1-2.2c0.4-0.8,0.5-1.6,0.8-2.4v-0.5c-0.4,1-0.7,1.8-1.1,2.3s-1,0.8-1.9,1
		c-0.2-1.1-0.4-2.3-0.5-3.5c-0.2-1.3-0.2-2.5-0.2-3.6c0.4-0.2,0.5-0.5,0.5-1.2c0-0.4-0.1-0.7-0.2-1.1c-0.1-0.4-0.2-0.6-0.4-0.8
		c0.2-0.2,0.3-0.5,0.5-1c0.1-0.5,0.2-1.1,0.4-1.7c0.1-0.6,0.1-1.4,0.2-2.1c0.1-0.7,0.1-1.4,0.1-2.1c0-0.7,0-1.4-0.1-2
		c-0.1-0.5-0.1-1-0.2-1.3c0.2-0.6,0.4-1.1,0.5-1.6c0.2-0.5,0.4-0.8,0.5-1.3c0-2.3-0.1-4.6-0.4-6.8c-0.3-2.3-0.4-4.6-0.4-6.8
		c0.7-0.4,1.5-0.7,2.4-1.1c0.8-0.4,1.6-0.7,2.4-1.1c0.5,0.4,0.8,0.7,1.2,1.2c0.4,0.5,0.7,0.8,1.1,1.1c0,0.5-0.1,1.1-0.2,1.5
		c-0.1,0.5-0.2,1-0.2,1.5c0.5,0.6,1,1.6,1.1,2.9c0.2,1.3,0.3,2.6,0.3,4.1c0,1.5-0.1,2.9-0.2,4.3c-0.1,1.4-0.2,2.5-0.2,3.4
		c0,0.5,0,1.2,0.1,1.7c0,0.5,0.1,1.3,0.4,2c-0.1,0.3-0.1,0.5-0.1,0.8c0,0.3,0,0.5,0,0.8c0,1.4,0.1,2.8,0.2,4.3
		c0.1,1.5,0.2,2.9,0.2,4.4c0,1.2-0.1,2.5-0.2,3.6c-0.1,1.2-0.4,2.4-0.8,3.5C49.2,910.4,48.9,910.4,48.7,910.4z"/>
	<path fill="#00B8E6" d="M87.5,909.7c-0.4,0.3-0.6,0.5-0.7,0.7c-0.1,0.2-0.3,0.4-0.7,0.7c0.1,0.1,0.1,0.1,0.1,0.1
		c0,0.1,0.1,0.1,0.1,0.1c0.2,0.1,0.2,0.3,0.2,0.5l-0.4,0.1l-1.7,1.8l-2.4-0.8c0,0.2-0.1,0.4-0.2,0.6c-0.1,0.2-0.2,0.4-0.2,0.6
		c-0.8,0.4-1.5,0.6-2.2,0.8c-0.8,0.2-1.5,0.3-2.3,0.3s-1.5,0.1-2.4,0.1c-0.4,0.1-0.7,0.1-0.8-0.2c-0.2-0.2-0.3-0.5-0.4-0.8
		c-0.1-0.3-0.2-0.7-0.2-1.1c-0.1-0.4-0.2-0.8-0.2-1.1c0.2,0.9,0.3,1.9,0.4,3c0.1,1.1,0.1,2.2,0.1,3.3c0,1,0,2.1-0.1,3.1
		c0,1-0.1,2-0.1,2.9c0.5-0.1,0.9-0.2,1.4-0.2s0.8-0.1,1.3-0.2c0.4-0.1,0.8-0.2,1.1-0.4c0.1,0.1,0.3,0.1,0.6,0.1
		c0.5-0.1,1-0.3,1.7-0.6c0.7-0.3,1.1-0.5,1.5-0.6c0.2-0.1,0.4-0.2,0.5-0.4c0.2-0.2,0.4-0.4,0.5-0.6v0.8l0.4-0.1v0.7l0.3-0.2
		c0-0.3,0.1-0.5,0.3-0.8c0.2-0.2,0.4-0.4,0.6-0.4c0.4-0.1,0.5,0.1,0.5,0.5c0,0.2,0,0.3-0.1,0.4c0,0.2,0.1,0.4,0.2,0.5
		c0.2,0.2,0.3,0.3,0.5,0.5v0.3l0.4-0.1v0.4l0.4-0.1c0.1,0.4,0.2,0.7,0.2,0.9c0,0.3-0.1,0.6-0.1,0.9c-0.1,0.3-0.1,0.6-0.1,1l-0.7,0.2
		c0,0.2,0.1,0.3,0.2,0.4c0.1,0.1,0.2,0.3,0.2,0.6c0,0.1-0.1,0.1-0.3,0.2c-0.2,0.1-0.4,0.2-0.6,0.4c-0.2,0.2-0.6,0.3-1.2,0.6
		l-1.7-0.4v0.4c-0.1,0.2-0.2,0.3-0.4,0.4c-0.2,0.2-0.3,0.2-0.4,0.3c-0.2,0.1-0.5-0.2-0.6-0.8c-0.4,0.1-0.8,0.3-1.4,0.7
		c-0.6,0.4-1,0.6-1.4,0.7c-0.8,0-1.6,0-2.2,0c-0.6-0.1-1.2,0.1-2,0.2c0,0.8,0.1,1.8,0.1,2.7c0.1,1,0.1,2.1,0.1,3.2
		c0,1.4-0.1,2.6-0.2,3.9c-0.2,1.2-0.5,2.3-1,3.1c0,0.4,0.1,0.8,0.2,1.2c0.2,0.5,0.2,1,0.2,1.5c-0.4,0.5-0.7,0.9-1,1.4
		c-0.4,0.5-0.7,1-1,1.6c-0.8,0-1.7,0-2.4,0c-0.7,0-1.5-0.1-2.1-0.1c0-1.7,0.1-3.4,0.2-5c0.2-1.7,0.2-3.4,0.2-5c0-0.5,0-0.9-0.1-1.4
		c0-0.5-0.1-0.9-0.1-1.4c0-0.5-0.1-1-0.2-1.3c-0.2-0.4-0.3-0.7-0.5-1c0-0.3,0-0.7,0.1-1.4c0-0.6,0.1-1.3,0.1-2c0-0.6,0-1.2-0.1-1.8
		c0-0.6-0.1-1.1-0.1-1.7c-0.1-0.5-0.2-1-0.2-1.4c-0.1-0.4-0.2-0.7-0.4-0.8c0.1-0.2,0.2-0.5,0.2-0.9c0.1-0.4,0.2-0.7,0.2-1
		c0-0.2-0.1-0.4-0.1-0.6c-0.1-0.2-0.2-0.3-0.3-0.4c0-0.9,0.1-1.8,0.2-2.7c0.1-0.9,0.2-1.8,0.2-2.7c0-0.2,0.1-0.3,0.2-0.4
		c0.1-0.1,0.1-0.1,0.2-0.1v-1.1l0.4-0.1c0-0.3-0.1-0.6-0.2-0.9c-0.2-0.3-0.2-0.6-0.2-0.8c0-0.2,0.1-0.3,0.1-0.4
		c0.2-0.1,0.3-0.4,0.3-0.7c0-0.3-0.1-0.5-0.1-0.8c-0.1-0.3-0.1-0.5-0.1-0.7c0-0.2,0.1-0.3,0.1-0.4c0.1,0,0.1,0,0.1,0H66
		c0.4-0.2,0.7-0.3,1-0.4c0.4-0.1,0.8-0.1,1,0.1c0.3,0.2,0.4,0.5,0.4,0.8l0.4-0.5c0.7-0.2,1.2-0.2,1.7-0.3c0.5-0.1,0.9-0.1,1.5,0
		c0.2-0.2,0.3-0.4,0.3-0.6c0-0.2,0.1-0.4,0.1-0.5c0.4-0.1,0.7-0.1,0.9,0.1c0.2,0.1,0.5,0.2,0.9,0.3c0.4,0.1,0.7,0.2,1,0.1
		c0.3-0.1,0.5-0.1,0.7-0.1c0.1-0.1,0.1-0.1,0.1-0.2c0-0.1,0.1-0.1,0.1-0.2c0.1-0.1,0.1-0.2,0.1-0.3c0.1-0.1,0.1-0.2,0.1-0.3
		c0.2-0.1,0.4-0.1,0.5-0.1s0.4,0.1,0.5,0.2c0.2,0.1,0.3,0.1,0.5,0.2c0.2,0,0.2,0,0.3,0.1c0.1,0.1,0.2,0.1,0.3,0v-0.8
		c0.4-0.2,0.8-0.4,1.3-0.5c0.8-0.2,1.6-0.3,2.4-0.2c0.8,0,1.6-0.1,2.4-0.2c0.8-0.2,1.4-0.4,1.9-0.8c0.2,0.2,0.3,0.2,0.4,0.2
		c0.1,0,0.2-0.2,0.4-0.4c0.2,0.2,0.4,0.2,0.5,0.2s0.4,0,0.5-0.1v3.6h-0.6V909.7z"/>
	<path fill="#00B8E6" d="M79.2,867.6c-0.5,0.3-0.7,0.5-0.8,0.7c-0.1,0.2-0.4,0.5-0.7,0.7c0.1,0.1,0.1,0.1,0.1,0.1
		c0,0.1,0.1,0.1,0.1,0.1c0.2,0.1,0.2,0.4,0.2,0.5l-0.4,0.1l-1.8,1.8l-2.6-1c0,0.2-0.1,0.4-0.2,0.5c-0.1,0.2-0.2,0.5-0.2,0.5
		c-0.8,0.4-1.6,0.6-2.4,0.8c-0.8,0.2-1.7,0.3-2.5,0.2c-0.8,0-1.7,0-2.6,0c-0.5,0.1-0.7,0-0.9-0.2c-0.2-0.2-0.4-0.5-0.5-0.8
		c-0.1-0.4-0.2-0.7-0.3-1.2c-0.1-0.5-0.2-0.8-0.3-1.2c0.2,1,0.4,2,0.4,3.2c0.1,1.2,0.1,2.4,0.1,3.5c0,1.1,0,2.3-0.1,3.3
		c0,1.1-0.1,2.2-0.1,3.1c0.5-0.1,1-0.2,1.5-0.2c0.5-0.1,0.9-0.1,1.4-0.2c0.5-0.1,0.8-0.2,1.2-0.5c0.1,0.1,0.4,0.1,0.6,0.1
		c0.5-0.1,1.1-0.4,1.8-0.6c0.7-0.4,1.3-0.5,1.7-0.5c0.2-0.1,0.4-0.2,0.5-0.4c0.2-0.2,0.4-0.5,0.5-0.6v0.8l0.4-0.1v0.7l0.4-0.1
		c0-0.4,0.1-0.5,0.4-0.8c0.2-0.2,0.5-0.4,0.7-0.5c0.4-0.1,0.5,0.1,0.5,0.5c0,0.2,0,0.4-0.1,0.5c0,0.2,0.1,0.4,0.2,0.5
		c0.2,0.2,0.4,0.4,0.5,0.5v0.4l0.4-0.1v0.4l0.4-0.1c0.1,0.4,0.2,0.7,0.2,1c0,0.4-0.1,0.7-0.1,1c-0.1,0.4-0.1,0.6-0.1,1.1l-0.8,0.2
		c0,0.2,0.1,0.4,0.2,0.4c0.1,0.1,0.2,0.4,0.2,0.7c0,0.1-0.1,0.1-0.3,0.2s-0.5,0.2-0.7,0.4c-0.2,0.1-0.6,0.4-1.3,0.6l-1.8-0.5v0.4
		c-0.1,0.2-0.3,0.3-0.4,0.5c-0.2,0.2-0.4,0.3-0.5,0.3c-0.3,0.1-0.5-0.2-0.7-0.8c-0.4,0.1-0.8,0.4-1.5,0.7s-1.1,0.6-1.5,0.7
		c-1,0-1.7,0-2.4-0.1s-1.4,0-2.1,0.2c0,0.8,0.1,1.8,0.1,3c0.1,1.1,0.1,2.3,0.1,3.5c0,1.5-0.1,2.8-0.3,4.2c-0.2,1.4-0.5,2.5-1.1,3.3
		c0,0.4,0.1,0.8,0.2,1.4c0.1,0.5,0.2,1.1,0.2,1.6c-0.4,0.5-0.7,0.9-1.1,1.4c-0.4,0.5-0.7,1.1-1.1,1.7c-1,0-1.8,0-2.5-0.1
		c-0.7-0.1-1.5-0.1-2.3-0.1c0-1.8,0.1-3.6,0.2-5.5c0.2-1.8,0.2-3.6,0.2-5.5c0-0.5,0-1-0.1-1.5c0-0.5-0.1-1-0.1-1.5
		c0-0.5-0.1-1.1-0.2-1.5c-0.2-0.4-0.4-0.7-0.5-1.1c0-0.4,0-0.8,0.1-1.5c0-0.6,0.1-1.4,0.1-2.2c0-0.6,0-1.3-0.1-1.9
		c0-0.6-0.1-1.2-0.1-1.8c-0.1-0.5-0.2-1.1-0.3-1.5c-0.1-0.5-0.3-0.7-0.4-0.9c0.1-0.3,0.2-0.5,0.3-1c0.1-0.5,0.2-0.8,0.2-1.1
		c0-0.2-0.1-0.5-0.1-0.6s-0.2-0.4-0.4-0.4c0-1,0.1-1.9,0.2-2.9c0.1-1,0.2-1.9,0.2-2.9c0-0.2,0.1-0.3,0.2-0.4
		c0.1-0.1,0.1-0.1,0.2-0.1v-1.2l0.4-0.1c0-0.4-0.1-0.6-0.3-1c-0.2-0.4-0.3-0.6-0.3-0.9c0-0.2,0.1-0.3,0.1-0.4
		c0.2-0.1,0.3-0.4,0.3-0.7c0-0.3-0.1-0.5-0.1-0.8c-0.1-0.4-0.1-0.5-0.1-0.7s0.1-0.4,0.1-0.4h0.1h0.1c0.4-0.2,0.7-0.4,1.1-0.4
		c0.5-0.1,0.8-0.1,1.1,0.1c0.3,0.2,0.5,0.5,0.5,0.9l0.4-0.5c0.7-0.2,1.4-0.3,1.8-0.4s1-0.1,1.5,0.1c0.2-0.2,0.3-0.5,0.4-0.6
		c0-0.2,0.1-0.4,0.1-0.5c0.5-0.1,0.7-0.1,1,0.1c0.3,0.2,0.5,0.2,1,0.4c0.4,0.1,0.7,0.2,1.1,0.2c0.4-0.1,0.5-0.1,0.8-0.1
		c0.1-0.1,0.1-0.1,0.1-0.1c0-0.1,0.1-0.1,0.1-0.1c0.1-0.1,0.1-0.2,0.1-0.3c0.1-0.1,0.1-0.2,0.1-0.4c0.2-0.1,0.4-0.1,0.5-0.1
		c0.2,0,0.4,0.1,0.5,0.2c0.2,0.1,0.4,0.1,0.5,0.1c0.2,0,0.3,0,0.4,0.1c0.1,0.1,0.1,0.1,0.3,0v-0.8c0.5-0.2,0.9-0.4,1.4-0.5
		c0.8-0.2,1.7-0.2,2.6-0.2c0.8,0,1.7-0.1,2.6-0.2c0.8-0.2,1.5-0.5,2-0.8c0.2,0.2,0.4,0.2,0.4,0.2c0.1,0,0.2-0.2,0.4-0.4
		c0.2,0.2,0.4,0.2,0.5,0.2c0.2,0,0.4,0,0.5-0.1L79.2,867.6L79.2,867.6z"/>
	<path fill="#00B8E6" d="M102.7,924.5c-0.8,0-1.6,0-2.2,0c-0.6-0.1-1.2,0.1-2,0.2c0,0.8,0.1,1.8,0.1,2.7c0.1,1,0.1,2.1,0.1,3.1
		c0,1.4-0.1,2.6-0.2,3.8c-0.2,1.2-0.5,2.2-1,3.1c0,0.4,0.1,0.8,0.2,1.2c0.2,0.5,0.2,0.9,0.2,1.5c-0.4,0.5-0.7,0.8-1,1.3
		c-0.4,0.5-0.7,1-1,1.5c-0.8,0-1.7,0.1-2.4,0c-0.7,0-1.5-0.1-2.1-0.1c0-1.7,0.1-3.4,0.2-5c0.2-1.7,0.2-3.3,0.2-5
		c0-0.5,0-0.9-0.1-1.4c0-0.5-0.1-0.9-0.1-1.4c0-0.5-0.1-0.9-0.2-1.3c-0.2-0.4-0.3-0.7-0.5-1c0-0.3,0-0.7,0.1-1.4
		c0-0.6,0.1-1.2,0.1-2c0-0.6,0-1.2-0.1-1.8c0-0.6-0.1-1.1-0.1-1.7c-0.1-0.5-0.2-1-0.2-1.4c-0.1-0.4-0.2-0.7-0.4-0.8
		c0.1-0.2,0.2-0.5,0.2-0.9c0.1-0.4,0.2-0.7,0.2-1c0-0.2-0.1-0.4-0.1-0.6c-0.1-0.2-0.2-0.3-0.3-0.3c0-0.9,0.1-1.8,0.2-2.6
		c0.1-0.9,0.2-1.8,0.2-2.6c0-0.2,0.1-0.3,0.2-0.4c0.1-0.1,0.1-0.1,0.2-0.1v-1.1l0.4-0.1c0-0.3-0.1-0.6-0.2-0.8
		c-0.2-0.3-0.2-0.6-0.2-0.8c0-0.2,0.1-0.3,0.1-0.4c0.2-0.1,0.3-0.3,0.3-0.7c0-0.2-0.1-0.5-0.1-0.8c-0.1-0.3-0.1-0.5-0.1-0.7
		c0-0.2,0.1-0.3,0.1-0.4c0.1,0,0.1,0,0.1,0h0.1c0.4-0.2,0.7-0.3,1-0.4c0.4-0.1,0.8-0.1,1,0.1c0.3,0.2,0.4,0.5,0.4,0.8l0.4-0.5
		c0.7-0.2,1.2-0.2,1.7-0.3c0.5-0.1,0.9-0.1,1.5,0c0.2-0.2,0.3-0.4,0.3-0.6c0-0.2,0.1-0.4,0.1-0.5c0.4-0.1,0.7-0.1,0.9,0.1
		c0.2,0.1,0.5,0.2,0.9,0.3c0.4,0.1,0.7,0.2,1,0.1c0.3-0.1,0.5-0.1,0.7-0.1c0.1-0.1,0.1-0.1,0.1-0.2s0.1-0.1,0.1-0.2
		c0.1-0.1,0.1-0.2,0.1-0.3c0.1-0.1,0.1-0.2,0.1-0.3c0.2-0.1,0.4-0.1,0.5-0.1s0.4,0.1,0.5,0.2c0.2,0.1,0.3,0.1,0.5,0.1s0.2,0,0.3,0.1
		c0.1,0.1,0.2,0.1,0.3,0v-0.7c0.4-0.2,0.8-0.3,1.3-0.5c0.8-0.2,1.6-0.3,2.4-0.2c0.8,0,1.6-0.1,2.4-0.2c0.8-0.2,1.4-0.4,1.9-0.8
		c0.2,0.2,0.3,0.2,0.4,0.2s0.2-0.2,0.4-0.4c0.2,0.2,0.4,0.2,0.5,0.2c0.2,0,0.4,0,0.5-0.1v3.4c-0.4,0.3-0.6,0.5-0.7,0.7
		c-0.1,0.2-0.3,0.4-0.7,0.7c0.1,0.1,0.1,0.1,0.1,0.1c0,0.1,0.1,0.1,0.1,0.1c0.2,0.1,0.2,0.3,0.2,0.5l-0.4,0.1l-1.7,1.7l-2.4-0.8
		c0,0.2-0.1,0.4-0.2,0.6c-0.2,0.2-0.2,0.4-0.2,0.6c-0.8,0.4-1.5,0.6-2.2,0.8c-0.8,0.2-1.5,0.3-2.3,0.3s-1.5,0.1-2.4,0.1
		c-0.4,0.1-0.7,0.1-0.8-0.2c-0.2-0.2-0.3-0.5-0.4-0.8c-0.1-0.3-0.2-0.7-0.2-1.1c-0.1-0.4-0.2-0.8-0.2-1.1c0.2,0.9,0.3,1.8,0.4,2.9
		c0.1,1.1,0.1,2.1,0.1,3.3c0,1,0,2-0.1,3.1c0,1-0.1,2-0.1,2.9c0.5-0.1,0.9-0.2,1.4-0.2c0.5-0.1,0.8-0.1,1.3-0.2
		c0.4-0.1,0.8-0.2,1.1-0.4c0.1,0.1,0.3,0.1,0.6,0.1c0.5-0.1,1-0.3,1.7-0.6c0.7-0.3,1.1-0.5,1.5-0.6c0.2-0.1,0.4-0.2,0.5-0.4
		c0.2-0.2,0.4-0.4,0.5-0.6v0.7l0.4-0.1v0.7l0.3-0.1c0-0.3,0.1-0.5,0.3-0.8c0.2-0.2,0.4-0.4,0.6-0.4c0.4-0.1,0.5,0.1,0.5,0.5
		c0,0.2,0,0.3-0.1,0.4c0,0.2,0.1,0.3,0.2,0.5c0.2,0.2,0.3,0.3,0.5,0.4v0.3l0.4-0.1v0.4l0.4-0.1c0.1,0.4,0.2,0.7,0.2,0.9
		c0,0.3-0.1,0.6-0.1,0.9c-0.1,0.3-0.1,0.6-0.1,0.9l-0.7,0.2c0,0.2,0.1,0.3,0.2,0.4c0.2,0.1,0.2,0.3,0.2,0.6c0,0.1-0.1,0.1-0.3,0.2
		c-0.2,0.1-0.4,0.2-0.6,0.4s-0.6,0.3-1.2,0.6l-1.7-0.4v0.4c-0.1,0.2-0.2,0.3-0.4,0.4c-0.2,0.2-0.3,0.2-0.4,0.3
		c-0.2,0.1-0.5-0.2-0.6-0.8c-0.4,0.1-0.8,0.3-1.4,0.7C103.6,924.3,103,924.5,102.7,924.5z"/>
	<path fill="#FFFFFF" d="M55.1,926.5c-0.2-0.8-0.4-1.6-0.5-2.3c-0.2-0.7-0.4-1.4-0.5-2.1l-0.5-0.4c-0.1,0-0.2-0.1-0.2-0.1l-0.1-0.1
		l-2.1-1c-0.8-0.3-1.7-0.3-2.4-0.2c-0.6,0.2-1.1,0.4-1.7,0.7c-0.5,0.4-1.1,0.8-1.8,1.4c0,1.5-0.2,3.1-0.4,4.6
		c-0.3,1.5-0.6,3.1-0.9,4.7c0,0.5,0.1,1.1,0.2,1.8c0.1,0.6,0.2,1.2,0.2,1.8c0.2-0.1,0.3-0.1,0.3,0c0.1,0.1,0.1,0.2,0.1,0.3
		c-0.4,1.1-0.7,2.1-0.8,3.1c-0.2,0.9-0.2,1.9-0.2,2.8c0,0.7,0.1,1.5,0.1,2.2c0.1,0.8,0.2,1.5,0.3,2.4l0.3-0.1
		c0.2,0.3,0.3,0.7,0.3,1.1c0.1,0.5,0.1,0.8,0.1,1.2l0.7-0.2v-0.7l0.4-0.1v-1.1l1-0.2c0,0.2,0.1,0.3,0.2,0.3c0.1,0.1,0.2,0.2,0.2,0.3
		l0.4-0.1c0,0.4,0,0.7,0.1,0.9c0.1,0.2,0.2,0.5,0.3,0.8l0.1-0.1c0.2-0.1,0.2,0,0.3,0.1c0.1,0.1,0.2,0.3,0.3,0.6l0.4-0.5
		c0.2-0.3,0.5-0.5,0.8-0.5l0.8-0.2l0.4-0.8l0.3-0.1v-0.7l0.7-0.2c0-0.4,0.1-0.7,0.3-1.1s0.5-0.7,0.7-1.1l0.8-1
		c0.3-0.4,0.5-0.7,0.6-1c0-0.2,0.2-0.4,0.4-0.4c0-0.5-0.1-1.1-0.2-1.6c-0.2-0.5-0.2-1.1-0.2-1.9c0.2-0.6,0.3-1.1,0.4-1.7
		s0.2-1.1,0.4-1.7c-0.2-0.9-0.3-1.8-0.3-2.7c0-0.9,0.1-1.9,0.2-2.7C55,928.2,55.1,927.4,55.1,926.5z"/>
</g>
<g>
	<g>
		<g>
			<polygon fill="#00B8E6" points="73.2,1008.5 71.5,1007.8 70.1,1008.6 68.5,1008.2 67.1,1008.5 65.6,1008.4 64.2,1008.3 
				62.7,1007.7 61,1007.4 59.4,1006.8 58,1005.9 56.9,1004.6 55.5,1003.7 54.6,1002.2 53.9,1000.7 53.2,999.2 52.7,997.6 52.4,996 
				52.5,994.3 52.7,992.6 52.7,990.8 52.9,989.1 53.4,987.5 53.7,985.8 54.5,984.3 55.1,982.6 56.3,981.4 57.7,980.4 58.1,979.1 
				56.9,978.6 55.5,979.4 54.1,980.1 52.7,980.9 51.6,982.1 50.2,983 49.3,984.3 48.3,985.6 47.8,987.1 46.9,988.5 46.4,990 
				46,991.6 45.8,993.2 45.6,994.8 45.7,996.5 45.9,998.1 46.3,999.7 47.2,1001.1 47.5,1002.8 48.5,1004.1 49.2,1005.6 50.6,1006.6 
				51.6,1007.9 52.9,1008.8 54.2,1009.8 55.6,1010.6 57.2,1011.1 58.7,1011.6 60.2,1012.4 61.8,1012.5 63.5,1012.5 65.1,1012.6 
				66.6,1012.1 68.2,1011.8 69.7,1011.3 71.2,1010.9 72.5,1009.9 			"/>
		</g>
		<g>
			<polygon fill="#00B8E6" points="78.6,999 78.9,997.7 79.1,996.2 78.9,994.4 78.4,992.4 77.7,990.1 77.5,988.9 76.7,987.9 
				76.3,986.6 75.4,985.7 74.8,984.5 73.8,983.6 72.7,982.9 71.8,982.1 69.9,980.6 68.8,980.2 67.8,979.7 66.1,979 64.7,978.8 
				63.5,978.6 63.4,978.5 63.2,978 63.5,977.5 64.8,977.2 66.4,977.3 68.5,977.6 69.7,978 70.7,978.8 72,979.2 73.3,979.7 
				74.6,980.5 75.6,981.7 76.7,982.7 77.9,983.7 78.8,985 79.6,986.3 79.8,987.9 80.3,989.3 81,990.6 80.8,992 81.2,993.2 
				81.2,994.5 80.9,996.6 80.2,998 80,999.3 79,999.8 			"/>
		</g>
	</g>
</g>
</svg>
