<?xml version="1.0" encoding="utf-8"?>
<!-- Generator: Adobe Illustrator 17.1.0, SVG Export Plug-In . SVG Version: 6.00 Build 0)  -->
<!DOCTYPE svg PUBLIC "-//W3C//DTD SVG 1.1//EN" "http://www.w3.org/Graphics/SVG/1.1/DTD/svg11.dtd">
<svg version="1.1" id="Layer_1" xmlns="http://www.w3.org/2000/svg" xmlns:xlink="http://www.w3.org/1999/xlink" x="0px" y="0px"
	 viewBox="0 0 1224 792" enable-background="new 0 0 1224 792" xml:space="preserve">
<g>
	<g enable-background="new    ">
		<path fill="#FFFFFF" d="M176,732.5c1.8-5.1,4.6-9.9,7.9-13.7c3.3-4.1,7.6-6.9,12.5-9.2c5.1-2.3,10.4-3.3,16.8-3.3
			c6.4,0,11.9,1,17,3.3c4.8,2.3,9.2,5.1,12.5,9.2c3.3,4.1,6.1,8.4,7.9,13.7c1.8,5.1,2.8,10.9,2.8,17c0,5.8-1,11.4-2.8,16.5
			c-1.8,5.1-4.6,9.7-7.9,13.5s-7.6,6.9-12.5,8.9c-4.8,2-10.4,3.3-17,3.3c-6.4,0-11.9-1-16.8-3.3c-5.1-2.3-9.4-5.1-12.5-8.9
			c-3.3-3.8-6.1-8.1-7.9-13.5c-1.8-5.1-2.8-10.7-2.8-16.5C173.2,743.5,173.9,737.9,176,732.5z M192.2,759.5c0.8,3.3,2,6.1,3.8,8.6
			c1.8,2.5,4.1,4.6,6.9,6.4c2.8,1.5,6.4,2.3,10.2,2.3c4.1,0,7.6-0.8,10.2-2.3c2.8-1.5,5.1-3.8,6.9-6.4c1.8-2.5,3.1-5.6,3.8-8.6
			c0.8-3.3,1.3-6.6,1.3-9.9c0-3.6-0.5-6.9-1.3-10.4c-0.8-3.6-2-6.4-3.8-8.9c-1.8-2.8-4.1-4.6-6.9-6.4c-2.8-1.5-6.4-2.3-10.2-2.3
			s-7.6,0.8-10.2,2.3c-2.8,1.5-5.1,3.8-6.9,6.4c-1.8,2.8-3.1,5.6-3.8,8.9s-1.3,6.9-1.3,10.4C191,753.1,191.5,756.4,192.2,759.5z"/>
		<path fill="#FFFFFF" d="M254.3,723.4v-15h66.8v15h-24.4v66.3h-17.8v-66.3H254.3z"/>
		<path fill="#FFFFFF" d="M330,723.4v-15h66.8v15h-24.7v66.3h-17.8v-66.3H330z"/>
		<path fill="#FFFFFF" d="M434.7,708.4l30.5,81.6h-18.6l-6.1-18h-30.5l-6.4,18h-18l30.8-81.6H434.7L434.7,708.4z M435.7,758.4
			l-10.2-30h-0.3l-10.4,30H435.7z"/>
		<path fill="#FFFFFF" d="M528,790l-13.7-55.7h-0.5L500.3,790h-18l-21.6-81.6h17.8l13,55.7h0.3l14-55.7h16.8l14,56.2h0.3l13.5-56.2
			h17.5L545.5,790H528z"/>
		<path fill="#FFFFFF" d="M612.1,708.4l30.5,81.6h-18.6l-6.1-18h-30.5l-6.4,18h-18l30.8-81.6H612.1z M613.4,758.4l-10.2-30h-0.5
			l-10.4,30H613.4z"/>
		<path fill="#FFFFFF" d="M676.2,728.2c1.3-4.1,3.1-7.4,5.6-10.2s5.6-5.1,9.4-6.9c3.8-1.5,7.9-2.5,12.7-2.5c3.8,0,7.1,0.5,10.4,1.5
			c3.3,1,6.4,2.8,8.6,4.8c2.5,2,4.6,4.8,6.1,7.9c1.5,3.1,2.3,6.6,2.3,10.4c0,4.1-0.8,7.6-2,10.4c-1.3,2.8-3.1,5.6-5.1,7.6
			c-2,2.3-4.6,4.3-7.1,6.1c-2.8,1.8-5.6,3.8-8.1,5.6c-2.8,1.8-5.6,3.8-8.1,5.8c-2.5,2-4.8,4.6-6.9,7.1h37.6v14h-58.7
			c0-4.6,0.8-8.6,2-12.2c1.3-3.3,3.1-6.4,5.6-9.4c2.3-2.8,5.1-5.1,8.1-7.6c3.1-2.3,6.4-4.6,9.9-6.9c1.8-1.3,3.6-2.5,5.6-3.8
			c2-1.3,3.8-2.8,5.6-4.1c1.5-1.5,3.1-3.3,4.1-5.1c1-2,1.5-4.1,1.5-6.4c0-4.1-1-6.9-3.3-9.2c-2.3-2.3-5.1-3.3-8.6-3.3
			c-2.3,0-4.3,0.5-6.1,1.5c-1.5,1-3.1,2.5-4.1,4.3c-1,1.8-1.5,3.8-2,5.8c-0.5,2.3-0.8,4.3-0.8,6.4h-15.5
			C674.7,736.1,675.2,732,676.2,728.2z"/>
		<path fill="#FFFFFF" d="M740.5,730c1.5-5.3,3.8-9.7,6.4-12.7c2.8-3.3,5.8-5.6,9.4-6.9s7.1-2,11.2-2c4.1,0,7.9,0.8,11.4,2
			s6.6,3.8,9.4,6.9c2.8,3.3,4.8,7.6,6.4,12.7c1.5,5.3,2.3,11.7,2.3,19.6c0,8.1-0.8,14.7-2.3,20.1c-1.5,5.3-3.8,9.7-6.4,13
			c-2.8,3.3-5.8,5.6-9.4,6.9c-3.6,1.3-7.4,2-11.4,2s-7.6-0.8-11.2-2s-6.6-3.8-9.4-6.9c-2.8-3.3-4.8-7.6-6.4-13
			c-1.5-5.3-2.3-11.9-2.3-20.1C738.2,741.9,739,735.6,740.5,730z M754.7,757.9c0.3,3.3,0.8,6.4,1.5,9.4c0.8,3.1,2,5.6,3.8,7.6
			c1.8,2,4.3,3.3,7.6,3.3c3.3,0,5.8-1,7.6-3.3c1.8-2,3.1-4.6,4.1-7.6c0.8-3.1,1.3-6.1,1.5-9.4c0.3-3.3,0.3-6.1,0.3-8.1
			c0-1.3,0-3.1-0.3-5.1c0-2-0.3-4.1-0.5-6.1c-0.3-2-0.8-4.1-1-6.1c-0.3-2-1.3-3.8-2.3-5.6c-1-1.5-2.3-2.8-3.8-4.1
			c-1.5-1-3.3-1.5-5.6-1.5s-4.1,0.5-5.6,1.5c-1.5,1-2.8,2.3-3.8,4.1c-1,1.5-1.5,3.3-2.3,5.6c-0.8,2.3-1,4.1-1,6.1
			c-0.3,2-0.3,4.1-0.5,6.1c0,2-0.3,3.6-0.3,5.1C754.2,752.1,754.5,754.9,754.7,757.9z"/>
		<path fill="#FFFFFF" d="M822.8,790v-51.9h-20.3v-12.2c2.8,0.3,5.6-0.3,8.1-0.8c2.8-0.5,5.1-1.3,7.1-2.8c2-1.3,4.1-2.8,5.3-5.1
			c1.5-2,2.5-4.6,2.8-7.6h13v79.8h-16.3L822.8,790L822.8,790z"/>
		<path fill="#FFFFFF" d="M850.3,771.7v-14.7l34.8-46.5h14.5v48H910v13.5h-10.4v18.6h-15.5v-18.6L850.3,771.7L850.3,771.7z
			 M883.8,730.5L863,758.2h21.1v-27.7H883.8z"/>
	</g>
	<g>
		<path fill="#00B9E7" d="M219.2,450.4H177V240.7h61.5c26.2,0,38.9,13,38.9,38.9v59.2c0,26.2-13,38.9-38.9,38.9h-19.3
			C219.2,377.7,219.2,450.4,219.2,450.4z M228.1,276.5h-9.2v65.1h8.9c5.1,0,7.6-2.5,7.6-7.6v-50.1
			C235.4,279.1,233.2,276.5,228.1,276.5z"/>
		<path fill="#00B9E7" d="M352.6,452.2h-26.9c-26.2,0-38.9-13-38.9-38.9V277.8c0-26.2,13-38.9,38.9-38.9h26.9
			c26.2,0,38.9,13,38.9,38.9v135.5C391.5,439.5,378.8,452.2,352.6,452.2z M342.2,274.8h-6.1c-5.1,0-7.6,2.5-7.6,7.6V409
			c0,5.1,2.5,7.6,7.6,7.6h6.1c5.1,0,7.6-2.5,7.6-7.6V282.4C349.8,277.3,347.3,274.8,342.2,274.8z"/>
		<path fill="#00B9E7" d="M504.4,378.2v72.2h-41.9v-71.9c0-5.1-2.5-7.6-7.6-7.6h-10.4v79.6h-42.2V240.7H465
			c26.2,0,38.9,13,38.9,38.9v40.7c0,17.8-6.6,26.9-17.8,31.3C499,354.8,504.4,363,504.4,378.2z M454.8,277.3h-10.2v58h10.2
			c5.1,0,7.6-2.5,7.6-7.6v-43C462.2,279.6,459.9,277.3,454.8,277.3z"/>
		<path fill="#00B9E7" d="M536.4,450.4V278.1h-25.7v-37.6h93v37.6h-25.7v172.3L536.4,450.4L536.4,450.4z"/>
		<path fill="#00B9E7" d="M688.9,240.7v37.6h-34.3v49.1h33V365h-33v85.7h-41.9V240.7H688.9z"/>
		<path fill="#00B9E7" d="M763.6,452.2h-26.9c-26.2,0-38.9-13-38.9-38.9V277.8c0-26.2,13-38.9,38.9-38.9h26.9
			c26.2,0,38.9,13,38.9,38.9v135.5C802.5,439.5,789.5,452.2,763.6,452.2z M752.9,274.8h-6.1c-5.1,0-7.6,2.5-7.6,7.6V409
			c0,5.1,2.5,7.6,7.6,7.6h6.1c5.1,0,7.6-2.5,7.6-7.6V282.4C760.6,277.3,758,274.8,752.9,274.8z"/>
		<path fill="#00B9E7" d="M855.4,240.7V413h30.2v37.6h-72.2V240.7H855.4z"/>
		<path fill="#00B9E7" d="M936.7,450.4h-41.9V240.7h41.9V450.4z"/>
		<path fill="#00B9E7" d="M1011.9,452.2H985c-26.2,0-38.9-13-38.9-38.9V277.8c0-26.2,13-38.9,38.9-38.9h26.9
			c26.2,0,38.9,13,38.9,38.9v135.5C1050.8,439.5,1037.9,452.2,1011.9,452.2z M1001.3,274.8h-6.1c-5.1,0-7.6,2.5-7.6,7.6V409
			c0,5.1,2.5,7.6,7.6,7.6h6.1c5.1,0,7.6-2.5,7.6-7.6V282.4C1008.9,277.3,1006.3,274.8,1001.3,274.8z"/>
		<path fill="#00B9E7" d="M278.9,603.4v72.2H237v-71.9c0-5.1-2.5-7.6-7.6-7.6h-10.4v79.6h-42.2V465.6h62.8c26.2,0,38.9,13,38.9,38.9
			v40.7c0,17.8-6.6,26.9-17.8,31.3C273.6,580,278.9,588.2,278.9,603.4z M229.1,502.2h-10.2v58h10.2c5.1,0,7.6-2.5,7.6-7.6v-43.2
			C236.7,504.8,234.2,502.2,229.1,502.2z"/>
		<path fill="#00B9E7" d="M367.1,465.9v37.4h-35.8v47h34.3v37.6h-34.3v50.3h36.6v37.6h-78.5V465.6h77.8V465.9z"/>
		<path fill="#00B9E7" d="M403.7,675.6l-28.2-209.9h42.7l14.7,148.9l15.3-148.9h38.9l-28.2,209.9H403.7z"/>
		<path fill="#00B9E7" d="M537.1,675.6h-41.9V465.6h41.9V675.6z"/>
		<path fill="#00B9E7" d="M626.1,465.9v37.4H590v47h34.3v37.6H590v50.3h36.6v37.6h-78.5V465.6h78V465.9z"/>
		<path fill="#00B9E7" d="M741,465.9l11.9,111.6l10.7-111.6H801l-25.7,209.9H729l-11.2-95.6l-10.4,95.6h-46.3l-25.4-209.9h42.7
			l10.7,112.3l11.9-112.3H741L741,465.9z"/>
		<path fill="#00B9E7" d="M907.5,599.8v38.6c0,26.2-13,38.9-38.9,38.9h-23.4c-26.2,0-38.9-13-38.9-38.9v-44.7h41.2v40.7
			c0,5.1,2.5,7.6,7.6,7.6h4.1c5.1,0,7.6-2.5,7.6-7.6v-25.2c0-6.6-2-9.9-7.1-13.5l-36.1-26.7c-13-9.4-16.8-17.8-16.8-33v-33.3
			c0-26.2,13-38.9,38.9-38.9h22.9c26.2,0,38.9,13,38.9,38.9v38.4h-41.2v-34.3c0-5.1-2.5-7.6-7.6-7.6h-3.3c-5.1,0-7.6,2.5-7.6,7.6
			v19.6c0,6.6,2,9.9,7.1,13.5l36.1,26.7C903.7,576.2,907.5,584.3,907.5,599.8z"/>
	</g>
	<g>
		<path fill="#FFFFFF" d="M206.2,146.9c2.8,0,5.8,0.3,8.1,0.8c2.5,0.5,4.6,1.5,6.4,2.5s3.1,2.8,4.1,4.8c1,2,1.5,4.6,1.5,7.4
			c0,3.1-0.8,5.8-2,7.9c-1.5,2-3.6,3.8-6.4,5.1c4.1,1,6.6,3.1,8.6,5.8c2,2.8,2.8,6.4,2.8,9.9c0,3.1-0.8,5.8-1.8,8.1
			c-1,2.3-2.8,4.3-4.8,5.8c-2,1.5-4.6,2.5-7.1,3.3c-2.5,0.8-5.3,1-8.1,1H177v-62.5H206.2L206.2,146.9z M204.4,172.1
			c2.5,0,4.6-0.8,6.1-1.8c1.5-1,2.3-3.1,2.3-5.8c0-1.5-0.3-2.5-0.8-3.6s-1.3-1.5-2-2s-2-0.8-3.1-1c-1-0.3-2.3-0.3-3.6-0.3h-13v14.5
			H204.4z M205.2,198.8c1.3,0,2.5-0.3,4.1-0.3c1.3-0.3,2.3-0.8,3.3-1.3c1-0.5,1.5-1.5,2.3-2.5c0.5-1,0.8-2.5,0.8-4.1
			c0-3.3-1-5.6-2.8-6.9s-4.3-2-7.1-2h-15v17H205.2L205.2,198.8z"/>
		<path fill="#FFFFFF" d="M246.6,198.5c1.8,1.8,4.6,2.8,8.1,2.8c2.5,0,4.8-0.8,6.6-2s2.8-2.5,3.3-4.1h10.9
			c-1.8,5.3-4.6,9.4-8.1,11.7s-8.1,3.6-13,3.6c-3.6,0-6.9-0.8-9.7-1.8c-2.8-1-5.1-2.8-7.4-4.8c-2-2-3.3-4.6-4.6-7.6
			c-1-2.8-1.5-6.4-1.5-9.7s0.5-6.6,1.5-9.4c1-2.8,2.5-5.3,4.8-7.6c2-2,4.6-3.8,7.4-5.1s6.1-1.8,9.4-1.8c3.8,0,7.1,0.8,10.2,2.3
			c2.8,1.5,5.1,3.3,6.9,6.1c1.8,2.5,3.1,5.3,4.1,8.6c0.8,3.3,1,6.6,0.8,10.2h-32.5C243.6,193.4,245.1,196.7,246.6,198.5z
			 M261.1,174.9c-1.5-1.5-4.1-2.5-6.9-2.5c-2,0-3.6,0.3-4.8,1c-1.3,0.8-2.3,1.5-3.1,2.5c-0.8,1-1.3,2-1.5,3.3c-0.3,1-0.5,2-0.5,2.8
			h20.3C263.7,178.9,262.6,176.4,261.1,174.9z"/>
		<path fill="#FFFFFF" d="M290.1,146.9v23.4h0.3c1.5-2.5,3.6-4.6,6.1-5.8c2.5-1.3,4.8-1.8,7.1-1.8c3.3,0,6.1,0.5,8.1,1.3
			s3.8,2.3,5.1,4.1c1,1.5,2,3.6,2.5,5.8s0.8,4.8,0.8,7.6v27.7h-12.2V184c0-3.8-0.8-6.6-1.8-8.4c-1.3-1.8-3.3-2.8-6.4-2.8
			c-3.3,0-5.8,1-7.4,3.1c-1.5,2-2.3,5.3-2.3,9.9v23.9h-12.2v-62.3L290.1,146.9L290.1,146.9z"/>
		<path fill="#FFFFFF" d="M325.9,170.8c1.3-2,2.8-3.3,4.8-4.6c2-1,4.3-2,6.6-2.5c2.5-0.5,4.8-0.8,7.6-0.8c2.3,0,4.6,0.3,6.9,0.5
			s4.6,1,6.4,2c2,1,3.3,2.3,4.8,4.1c1.3,1.5,1.8,4.1,1.8,6.6v23.6c0,2,0.3,4.1,0.3,5.8c0.3,2,0.8,3.3,1.5,4.3h-12.7
			c-0.3-0.5-0.8-1.5-0.8-2c-0.3-0.8-0.3-1.5-0.3-2.3c-2,2-4.3,3.3-6.9,4.3c-2.5,0.8-5.3,1.3-8.1,1.3c-2,0-4.1-0.3-6.1-0.8
			c-1.8-0.5-3.3-1.3-4.8-2.5s-2.5-2.5-3.3-4.3c-0.8-1.5-1-3.8-1-6.1c0-2.5,0.5-4.8,1.3-6.4c1-1.5,2-2.8,3.3-4.1
			c1.5-1,3.1-1.8,4.8-2.3c1.8-0.5,3.8-1,5.6-1c1.8-0.3,3.8-0.5,5.6-0.8c1.8-0.3,3.3-0.5,4.8-0.8c1.5-0.3,2.5-0.8,3.3-1.5
			c0.8-0.8,1-1.5,1-2.8s-0.3-2.5-0.8-3.3c-0.5-0.8-1-1.5-1.8-1.8c-0.8-0.5-1.5-0.8-2.5-0.8c-1-0.3-2-0.3-3.1-0.3
			c-2.5,0-4.6,0.5-5.8,1.5c-1.5,1-2.3,2.8-2.5,5.1h-12.2C323.9,175.1,324.7,172.8,325.9,170.8z M350.3,188.3
			c-0.8,0.3-1.5,0.5-2.5,0.8c-1,0.3-1.8,0.3-2.8,0.5s-2,0.3-2.8,0.5c-1,0.3-1.8,0.5-2.8,0.8s-1.5,0.8-2.3,1c-0.8,0.5-1,1-1.5,2
			c-0.3,0.8-0.8,1.8-0.8,2.8s0.3,2,0.8,2.8c0.5,0.8,1,1.3,1.5,1.8c0.8,0.5,1.5,0.8,2.5,1s2,0.3,2.8,0.3c2.5,0,4.3-0.3,5.8-1
			c1.3-0.8,2.3-1.8,2.8-2.8c0.8-1,1-2.3,1-3.3c0.3-1,0.3-2,0.3-2.8v-4.6C351.9,187.8,351.1,188.3,350.3,188.3z"/>
		<path fill="#FFFFFF" d="M380.6,164.2v6.4h0.3c1.5-2.5,3.6-4.6,6.1-5.8c2.5-1.3,5.1-1.8,7.6-1.8c3.3,0,6.1,0.5,8.1,1.3
			c2,0.8,3.8,2,5.1,3.8c1.3,1.8,2,3.6,2.5,5.8c0.5,2.3,0.8,4.8,0.8,7.6v27.7h-12.2V184c0-3.8-0.8-6.6-1.8-8.4
			c-1-1.8-3.3-2.8-6.4-2.8c-3.3,0-5.8,1.3-7.4,3.3c-1.5,2-2.3,5.3-2.3,9.9v23.9h-12.2v-45.5L380.6,164.2L380.6,164.2z"/>
		<path fill="#FFFFFF" d="M436,172.1c-2,0-3.6,0.5-4.8,1.3c-1.3,1-2.5,2-3.3,3.3c-0.8,1.5-1.5,2.8-1.8,4.8c-0.3,1.8-0.5,3.3-0.5,5.1
			c0,1.5,0.3,3.3,0.5,5.1c0.3,1.5,1,3.3,1.5,4.6c0.8,1.3,1.8,2.5,3.3,3.3c1.3,0.8,2.8,1.3,4.8,1.3c2.8,0,5.1-0.8,6.9-2.5
			c1.5-1.5,2.5-4.1,2.8-6.6h11.9c-0.8,6.1-3.1,10.4-6.9,13.7c-4.1,3.1-8.6,4.8-14.7,4.8c-3.3,0-6.6-0.8-9.4-1.8
			c-2.8-1-5.1-2.8-7.1-4.8c-2-2-3.6-4.6-4.8-7.4c-1-2.8-1.5-5.8-1.5-9.4s0.5-6.6,1.5-9.9c1-2.8,2.5-5.6,4.6-7.9c2-2,4.6-4.1,7.4-5.1
			c2.8-1.3,6.4-1.8,9.9-1.8c2.5,0,5.1,0.3,7.9,1c2.5,0.8,4.8,1.8,6.6,3.3c2,1.5,3.6,3.3,4.8,5.3c1.3,2,2,4.8,2,7.6h-12.2
			C444.4,174.9,441.3,172.1,436,172.1z"/>
		<rect x="240.8" y="151" fill="#FFFFFF" width="25.2" height="6.4"/>
		<path fill="#FFFFFF" d="M475.1,198.5c1.8,1.8,4.8,2.8,8.1,2.8c2.5,0,4.8-0.8,6.6-2c1.8-1.3,2.8-2.5,3.3-4.1h10.9
			c-1.8,5.3-4.6,9.4-8.1,11.7s-8.1,3.6-13,3.6c-3.6,0-6.9-0.8-9.7-1.8c-2.8-1-5.1-2.8-7.4-4.8c-2-2-3.6-4.6-4.6-7.6
			c-1-2.8-1.5-6.4-1.5-9.7s0.5-6.6,1.5-9.4c1.3-2.8,2.8-5.3,4.8-7.6c2-2,4.6-3.8,7.4-5.1c2.8-1.3,6.1-1.8,9.4-1.8
			c3.8,0,7.1,0.8,9.9,2.3c2.8,1.5,5.1,3.3,6.9,6.1c1.8,2.5,3.1,5.3,4.1,8.6c0.8,3.3,1,6.6,0.8,10.2h-32.8
			C472.1,193.4,473.3,196.7,475.1,198.5z M489.6,174.9c-1.5-1.5-4.1-2.5-6.9-2.5c-2,0-3.6,0.3-4.8,1c-1.3,0.8-2.5,1.5-3.3,2.5
			c-0.8,1-1.3,2-1.5,3.3s-0.5,2-0.5,2.8h20.3C492.2,178.9,491.1,176.4,489.6,174.9z"/>
	</g>
</g>
</svg>
