<?xml version="1.0" encoding="utf-8"?>
<!-- Generator: Adobe Illustrator 17.1.0, SVG Export Plug-In . SVG Version: 6.00 Build 0)  -->
<!DOCTYPE svg PUBLIC "-//W3C//DTD SVG 1.1//EN" "http://www.w3.org/Graphics/SVG/1.1/DTD/svg11.dtd" [
	<!ENTITY ns_flows "http://ns.adobe.com/Flows/1.0/">
	<!ENTITY ns_extend "http://ns.adobe.com/Extensibility/1.0/">
	<!ENTITY ns_ai "http://ns.adobe.com/AdobeIllustrator/10.0/">
	<!ENTITY ns_graphs "http://ns.adobe.com/Graphs/1.0/">
]>
<svg version="1.1" id="Layer_1" xmlns:x="&ns_extend;" xmlns:i="&ns_ai;" xmlns:graph="&ns_graphs;"
	 xmlns="http://www.w3.org/2000/svg" xmlns:xlink="http://www.w3.org/1999/xlink" xmlns:a="http://ns.adobe.com/AdobeSVGViewerExtensions/3.0/"
	 x="0px" y="0px" viewBox="362 0 238 200" enable-background="new 362 0 238 200" xml:space="preserve">
<g>
	<g enable-background="new    ">
		<path fill="#FFFFFF" d="M381.5,149.6c0.5-1.2,1-2.3,1.8-3.2c0.8-0.9,1.8-1.6,2.9-2.1c1.1-0.6,2.5-0.8,3.9-0.8
			c1.5,0,2.7,0.2,3.9,0.8c1.1,0.6,2.1,1.2,2.9,2.1c0.8,0.9,1.4,1.9,1.8,3.2c0.5,1.2,0.7,2.6,0.7,3.9s-0.2,2.7-0.7,3.8
			s-1,2.3-1.8,3.2c-0.8,0.9-1.7,1.6-2.9,2.1c-1.1,0.5-2.5,0.8-3.9,0.8c-1.5,0-2.7-0.2-3.9-0.8c-1.1-0.6-2.1-1.1-2.9-2.1
			c-0.8-0.9-1.4-1.9-1.8-3.2c-0.5-1.1-0.7-2.5-0.7-3.8S381.2,150.9,381.5,149.6z M385.5,155.9c0.2,0.8,0.5,1.5,0.9,2
			c0.5,0.6,0.9,1.1,1.6,1.5c0.7,0.3,1.5,0.6,2.4,0.6s1.7-0.2,2.4-0.6c0.7-0.3,1.1-0.9,1.6-1.5s0.7-1.2,0.9-2s0.3-1.5,0.3-2.4
			c0-0.8-0.1-1.6-0.3-2.4c-0.2-0.8-0.5-1.5-0.9-2.1c-0.5-0.7-0.9-1.1-1.6-1.5s-1.5-0.6-2.4-0.6s-1.7,0.2-2.4,0.6s-1.1,0.9-1.6,1.5
			c-0.5,0.7-0.7,1.2-0.9,2.1c-0.2,0.8-0.3,1.6-0.3,2.4C385.1,154.4,385.1,155.2,385.5,155.9z"/>
		<path fill="#FFFFFF" d="M399.8,147.6v-3.5h15.4v3.5h-5.6v15.3h-4.2v-15.4L399.8,147.6L399.8,147.6z"/>
		<path fill="#FFFFFF" d="M417.3,147.6v-3.5h15.4v3.5H427v15.3h-4.2v-15.4L417.3,147.6L417.3,147.6z"/>
		<path fill="#FFFFFF" d="M441.5,144.1l7.1,18.9h-4.3l-1.4-4.2h-7.1l-1.5,4.2h-4.2l7.1-18.9H441.5L441.5,144.1z M441.8,155.6
			l-2.4-6.9h-0.1l-2.5,6.9H441.8z"/>
		<path fill="#FFFFFF" d="M463.2,162.9l-3.2-12.8l0,0l-3.2,12.8h-4.2l-5-18.9h4.2l3,12.8h0.1l3.3-12.8h3.9l3.3,13h0.1l3-13h4.1
			l-5.1,18.9H463.2L463.2,162.9z"/>
		<path fill="#FFFFFF" d="M482.6,144.1l7.1,18.9h-4.3l-1.5-4.2h-7l-1.5,4.2h-4.2l7.1-18.9C478.4,144.1,482.6,144.1,482.6,144.1z
			 M483.1,155.6l-2.4-6.9h-0.1l-2.5,6.9H483.1z"/>
		<path fill="#FFFFFF" d="M497.5,148.6c0.3-0.9,0.7-1.7,1.2-2.4c0.6-0.7,1.2-1.2,2.1-1.6c0.9-0.3,1.8-0.6,2.9-0.6
			c0.9,0,1.7,0.1,2.5,0.3s1.5,0.7,2,1.1c0.6,0.5,1,1.1,1.4,1.8c0.3,0.8,0.6,1.6,0.6,2.5s-0.1,1.7-0.5,2.4c-0.3,0.7-0.7,1.2-1.1,1.8
			c-0.5,0.6-1,1-1.7,1.5s-1.2,0.9-1.9,1.2c-0.7,0.5-1.2,0.9-1.9,1.4s-1.1,1-1.6,1.7h8.8v3.3h-13.6c0-1.1,0.1-2,0.5-2.8
			c0.3-0.8,0.8-1.5,1.2-2.1c0.6-0.7,1.1-1.2,1.9-1.7c0.8-0.6,1.5-1,2.3-1.6c0.5-0.3,0.8-0.6,1.2-0.9c0.5-0.3,0.9-0.7,1.2-0.9
			c0.3-0.3,0.7-0.8,0.9-1.1c0.2-0.5,0.3-0.9,0.3-1.5c0-0.9-0.2-1.6-0.8-2.1c-0.6-0.6-1.1-0.8-2-0.8c-0.6,0-1,0.1-1.4,0.3
			c-0.3,0.2-0.7,0.6-0.9,1c-0.2,0.5-0.3,0.9-0.5,1.4c-0.1,0.6-0.1,1-0.1,1.5H497C497.1,150.5,497.3,149.5,497.5,148.6z"/>
		<path fill="#FFFFFF" d="M512.4,149.1c0.3-1.2,0.9-2.3,1.5-2.9c0.7-0.8,1.4-1.2,2.1-1.6c0.8-0.3,1.7-0.5,2.6-0.5
			c0.9,0,1.8,0.1,2.6,0.5s1.6,0.9,2.1,1.6c0.7,0.8,1.1,1.7,1.5,2.9c0.3,1.2,0.6,2.7,0.6,4.5c0,1.9-0.2,3.4-0.6,4.6
			c-0.3,1.2-0.9,2.3-1.5,2.9c-0.7,0.8-1.4,1.2-2.1,1.6c-0.8,0.3-1.7,0.5-2.6,0.5c-0.9,0-1.8-0.1-2.6-0.5c-0.8-0.3-1.6-0.9-2.1-1.6
			c-0.7-0.8-1.1-1.7-1.5-2.9c-0.3-1.2-0.6-2.8-0.6-4.6S512.1,150.3,512.4,149.1z M515.6,155.5c0,0.8,0.1,1.5,0.3,2.1
			c0.2,0.6,0.5,1.2,0.9,1.8c0.5,0.5,1,0.8,1.7,0.8s1.4-0.2,1.8-0.8c0.5-0.5,0.8-1.1,0.9-1.8c0.2-0.7,0.3-1.5,0.3-2.1
			c0-0.8,0.1-1.4,0.1-1.9c0-0.3,0-0.7,0-1.1s-0.1-0.9-0.1-1.4c-0.1-0.5-0.1-0.9-0.2-1.5c-0.1-0.5-0.3-0.9-0.6-1.2
			c-0.2-0.3-0.6-0.7-0.9-0.9c-0.3-0.2-0.8-0.3-1.2-0.3c-0.5,0-0.9,0.1-1.2,0.3c-0.3,0.2-0.7,0.6-0.9,0.9c-0.2,0.3-0.3,0.8-0.6,1.2
			c-0.1,0.5-0.2,0.9-0.2,1.5c-0.1,0.5-0.1,0.9-0.1,1.4s0,0.8,0,1.1C515.6,154.1,515.6,154.8,515.6,155.5z"/>
		<path fill="#FFFFFF" d="M531.5,162.9v-12.1h-4.7V148c0.7,0,1.2,0,1.9-0.1c0.7-0.1,1.1-0.3,1.7-0.7c0.5-0.3,0.9-0.7,1.2-1.1
			c0.3-0.5,0.6-1,0.7-1.8h3v18.5L531.5,162.9L531.5,162.9L531.5,162.9z"/>
		<path fill="#FFFFFF" d="M537.8,158.8v-3.4l8-10.8h3.4v11.2h2.5v3h-2.5v4.3h-3.6v-4.3H537.8L537.8,158.8z M545.6,149.2l-4.8,6.4
			h4.8V149.2L545.6,149.2z"/>
	</g>
	<g>
		<g>
			<path fill="#00B8E6" d="M385.7,185.9c0-0.2-0.1-0.3-0.2-0.5c-0.1-0.1-0.2-0.2-0.3-0.3c-0.1-0.1-0.2-0.2-0.5-0.2
				c-0.1-0.1-0.3-0.1-0.6-0.1c-0.3,0-0.6,0.1-0.8,0.2c-0.2,0.1-0.5,0.3-0.6,0.6c-0.1,0.2-0.2,0.5-0.3,0.8c-0.1,0.2-0.1,0.6-0.1,0.8
				s0,0.6,0.1,0.8c0.1,0.2,0.2,0.6,0.3,0.8s0.3,0.3,0.6,0.6c0.2,0.1,0.5,0.2,0.8,0.2c0.2,0,0.5,0,0.6-0.1c0.2-0.1,0.3-0.2,0.5-0.3
				c0.1-0.1,0.2-0.3,0.3-0.5s0.1-0.3,0.1-0.6h1c0,0.3-0.1,0.7-0.2,1c-0.1,0.3-0.3,0.6-0.6,0.8c-0.2,0.2-0.5,0.3-0.8,0.5
				s-0.7,0.2-1,0.2c-0.5,0-0.8-0.1-1.2-0.2c-0.3-0.1-0.7-0.3-0.9-0.7c-0.2-0.2-0.5-0.6-0.6-1c-0.1-0.3-0.2-0.8-0.2-1.2
				c0-0.5,0.1-0.8,0.2-1.2c0.1-0.3,0.3-0.8,0.6-1c0.2-0.2,0.6-0.5,0.9-0.7c0.3-0.1,0.8-0.2,1.2-0.2c0.3,0,0.7,0,0.9,0.1
				c0.3,0.1,0.6,0.2,0.8,0.5c0.2,0.2,0.5,0.3,0.6,0.7c0.1,0.2,0.2,0.6,0.2,0.9h-0.7L385.7,185.9L385.7,185.9z"/>
			<path fill="#00B8E6" d="M389.4,190.1c-0.3,0-0.7-0.1-0.9-0.2c-0.2-0.1-0.5-0.2-0.7-0.5c-0.2-0.2-0.3-0.5-0.5-0.8
				c-0.1-0.2-0.1-0.6-0.1-0.9s0-0.7,0.1-0.9c0.1-0.2,0.2-0.6,0.5-0.8c0.2-0.2,0.5-0.3,0.7-0.5c0.2-0.1,0.6-0.2,0.9-0.2
				s0.7,0.1,0.9,0.2c0.2,0.1,0.5,0.2,0.7,0.5c0.2,0.3,0.3,0.5,0.5,0.8c0.1,0.2,0.1,0.6,0.1,0.9s0,0.7-0.1,0.9
				c-0.1,0.2-0.2,0.6-0.5,0.8c-0.2,0.2-0.5,0.3-0.7,0.5C390.2,190,389.8,190.1,389.4,190.1z M389.4,189.3c0.2,0,0.3,0,0.6-0.1
				c0.1-0.1,0.2-0.2,0.3-0.3c0.1-0.1,0.2-0.3,0.2-0.5s0.1-0.3,0.1-0.6c0-0.2,0-0.3-0.1-0.6c0-0.2-0.1-0.3-0.2-0.5
				c-0.1-0.1-0.2-0.2-0.3-0.3s-0.3-0.1-0.6-0.1c-0.2,0-0.3,0-0.6,0.1c-0.1,0.1-0.2,0.2-0.3,0.3c-0.1,0.1-0.2,0.3-0.2,0.5
				s-0.1,0.3-0.1,0.6c0,0.2,0,0.3,0.1,0.6c0,0.2,0.1,0.3,0.2,0.5c0.1,0.1,0.2,0.2,0.3,0.3C389.1,189.3,389.2,189.3,389.4,189.3z"/>
			<path fill="#00B8E6" d="M392.2,185.6h0.9v0.7l0,0c0.1-0.2,0.3-0.5,0.6-0.6c0.3-0.1,0.5-0.2,0.8-0.2c0.5,0,0.8,0.1,1.1,0.3
				c0.2,0.2,0.5,0.6,0.5,1.1v2.9h-0.9v-2.7c0-0.3-0.1-0.6-0.2-0.8c-0.1-0.1-0.3-0.2-0.7-0.2c-0.1,0-0.3,0-0.5,0.1
				c-0.1,0.1-0.2,0.1-0.3,0.2c-0.1,0.1-0.1,0.2-0.2,0.3c0,0.1-0.1,0.3-0.1,0.5v2.6h-0.9v-4.2H392.2L392.2,185.6z"/>
			<path fill="#00B8E6" d="M397,185.6h0.9v0.7l0,0c0.1-0.2,0.3-0.5,0.6-0.6c0.2-0.1,0.5-0.2,0.8-0.2c0.5,0,0.8,0.1,1.1,0.3
				c0.2,0.2,0.5,0.6,0.5,1.1v2.9H400v-2.7c0-0.3-0.1-0.6-0.2-0.8c-0.1-0.1-0.3-0.2-0.7-0.2c-0.1,0-0.3,0-0.5,0.1
				c-0.1,0.1-0.2,0.1-0.3,0.2c-0.1,0.1-0.1,0.2-0.2,0.3c0,0.1-0.1,0.3-0.1,0.5v2.6h-1V185.6L397,185.6L397,185.6z"/>
			<path fill="#00B8E6" d="M402.2,188.1c0,0.1,0,0.3,0.1,0.5c0,0.1,0.1,0.3,0.2,0.5c0.1,0.1,0.2,0.2,0.3,0.2
				c0.1,0.1,0.3,0.1,0.6,0.1c0.2,0,0.5-0.1,0.7-0.2c0.1-0.1,0.3-0.3,0.3-0.6h0.9c0,0.2-0.1,0.5-0.2,0.7s-0.2,0.3-0.5,0.5
				c-0.2,0.1-0.3,0.2-0.6,0.2c-0.2,0.1-0.5,0.1-0.7,0.1c-0.3,0-0.7,0-0.9-0.1c-0.2-0.1-0.5-0.2-0.7-0.5c-0.2-0.2-0.3-0.5-0.5-0.8
				c-0.1-0.2-0.1-0.6-0.1-0.9s0-0.6,0.1-0.9c0.1-0.2,0.2-0.6,0.5-0.8c0.2-0.2,0.5-0.3,0.7-0.5c0.2-0.1,0.6-0.2,0.9-0.2
				s0.7,0.1,0.9,0.2c0.2,0.1,0.5,0.3,0.7,0.6c0.2,0.2,0.3,0.5,0.3,0.8c0.1,0.3,0.1,0.6,0.1,0.9L402.2,188.1L402.2,188.1z
				 M404.4,187.4c0-0.1,0-0.3-0.1-0.5c0-0.1-0.1-0.2-0.2-0.3c-0.1-0.1-0.2-0.2-0.3-0.2c-0.1-0.1-0.2-0.1-0.5-0.1
				c-0.1,0-0.3,0-0.5,0.1c-0.1,0.1-0.2,0.1-0.3,0.2c-0.1,0.1-0.2,0.2-0.2,0.3c-0.1,0.1-0.1,0.3-0.1,0.5H404.4L404.4,187.4z"/>
			<path fill="#00B8E6" d="M408.8,187.2c0-0.2-0.1-0.5-0.3-0.6s-0.3-0.2-0.7-0.2c-0.1,0-0.2,0-0.3,0.1c-0.1,0-0.2,0.1-0.3,0.2
				c-0.1,0.1-0.2,0.2-0.3,0.5c-0.1,0.2-0.1,0.5-0.1,0.8c0,0.2,0,0.3,0.1,0.6c0,0.2,0.1,0.3,0.2,0.5c0.1,0.1,0.2,0.2,0.3,0.3
				s0.3,0.1,0.6,0.1s0.5-0.1,0.7-0.2c0.2-0.2,0.3-0.5,0.3-0.8h0.9c-0.1,0.6-0.3,1-0.7,1.2c-0.3,0.3-0.8,0.5-1.4,0.5
				c-0.3,0-0.7-0.1-0.9-0.2c-0.2-0.1-0.5-0.2-0.7-0.5c-0.2-0.2-0.3-0.5-0.5-0.8c-0.1-0.2-0.1-0.6-0.1-0.9s0-0.6,0.1-0.9
				c0.1-0.2,0.2-0.6,0.5-0.8c0.2-0.2,0.5-0.3,0.7-0.5c0.2-0.1,0.6-0.2,0.9-0.2c0.2,0,0.5,0,0.8,0.1c0.2,0.1,0.5,0.1,0.6,0.3
				c0.2,0.1,0.3,0.3,0.5,0.5c0.1,0.2,0.2,0.5,0.2,0.7L408.8,187.2V187l0,0V187.2L408.8,187.2z"/>
			<path fill="#00B8E6" d="M409.9,185.6h0.8v-1.2h0.9v1.2h0.9v0.8h-0.9v2.4c0,0.1,0,0.2,0,0.2c0,0.1,0,0.1,0.1,0.2
				c0.1,0,0.1,0.1,0.1,0.1c0.1,0,0.1,0,0.2,0c0.1,0,0.1,0,0.2,0c0,0,0.1,0,0.2,0v0.8c-0.1,0-0.2,0-0.3,0c-0.1,0-0.2,0-0.3,0
				c-0.2,0-0.5,0-0.6-0.1c-0.1,0-0.2-0.1-0.3-0.2c-0.1-0.1-0.1-0.2-0.2-0.3c0-0.1,0-0.3,0-0.5v-2.6H410L409.9,185.6L409.9,185.6
				L409.9,185.6z"/>
			<path fill="#00B8E6" d="M418.7,189c0,0.1,0,0.2,0,0.2s0.1,0.1,0.2,0.1h0.1h0.1v0.7H419h-0.1h-0.1h-0.1c-0.2,0-0.3,0-0.5-0.1
				c-0.1-0.1-0.2-0.2-0.2-0.5c-0.2,0.2-0.5,0.3-0.7,0.5c-0.2,0.1-0.6,0.1-0.8,0.1c-0.2,0-0.3,0-0.6-0.1c-0.2-0.1-0.3-0.1-0.5-0.2
				c-0.1-0.1-0.2-0.2-0.3-0.3s-0.1-0.3-0.1-0.6c0-0.2,0-0.5,0.1-0.7c0.1-0.1,0.2-0.3,0.3-0.3c0.1-0.1,0.3-0.1,0.6-0.2
				c0.2,0,0.3-0.1,0.6-0.1c0.2,0,0.3-0.1,0.5-0.1c0.1,0,0.3,0,0.5-0.1c0.1,0,0.2-0.1,0.2-0.1c0.1-0.1,0.1-0.2,0.1-0.3s0-0.2-0.1-0.3
				s-0.1-0.1-0.2-0.2c-0.1,0-0.2-0.1-0.3-0.1s-0.2,0-0.3,0c-0.2,0-0.5,0-0.7,0.1s-0.2,0.2-0.3,0.6h-1c0-0.2,0.1-0.5,0.2-0.7
				c0.1-0.2,0.2-0.3,0.5-0.5c0.2-0.1,0.3-0.2,0.6-0.2c0.3,0,0.5-0.1,0.7-0.1s0.5,0,0.6,0.1c0.2,0,0.3,0.1,0.6,0.2
				c0.1,0.1,0.3,0.2,0.3,0.3c0.1,0.1,0.1,0.3,0.1,0.6L418.7,189L418.7,189L418.7,189z M417.8,187.8c-0.1,0.1-0.3,0.1-0.6,0.2
				c-0.2,0-0.5,0-0.7,0.1c-0.1,0-0.2,0-0.3,0.1c-0.1,0-0.2,0.1-0.2,0.1c-0.1,0-0.1,0.1-0.2,0.2c0,0.1-0.1,0.2-0.1,0.3s0,0.2,0.1,0.2
				c0.1,0.1,0.1,0.1,0.2,0.2c0.1,0,0.2,0.1,0.2,0.1c0.1,0,0.2,0,0.2,0c0.1,0,0.2,0,0.3,0c0.1,0,0.2-0.1,0.3-0.1
				c0.1-0.1,0.2-0.1,0.2-0.2c0.1-0.1,0.1-0.2,0.1-0.3v-1.1L417.8,187.8L417.8,187.8z"/>
			<path fill="#00B8E6" d="M419.5,185.6h0.9v0.7l0,0c0.1-0.2,0.3-0.5,0.6-0.6s0.5-0.2,0.8-0.2c0.5,0,0.8,0.1,1.1,0.3
				c0.2,0.2,0.5,0.6,0.5,1.1v2.9h-0.9v-2.7c0-0.3-0.1-0.6-0.2-0.8c-0.1-0.1-0.3-0.2-0.7-0.2c-0.1,0-0.3,0-0.5,0.1
				c-0.1,0.1-0.2,0.1-0.3,0.2c-0.1,0.1-0.1,0.2-0.2,0.3c0,0.1-0.1,0.3-0.1,0.5v2.6h-0.9v-4.2H419.5L419.5,185.6z"/>
			<path fill="#00B8E6" d="M428.3,190h-0.9v-0.6l0,0c-0.1,0.2-0.3,0.5-0.6,0.6c-0.2,0.1-0.5,0.1-0.8,0.1c-0.3,0-0.7-0.1-0.9-0.2
				c-0.2-0.1-0.5-0.2-0.7-0.5c-0.1-0.2-0.3-0.5-0.3-0.8c-0.1-0.2-0.1-0.6-0.1-0.9s0-0.8,0.1-1c0.1-0.2,0.2-0.6,0.5-0.7
				c0.2-0.2,0.3-0.3,0.6-0.5c0.2-0.1,0.5-0.1,0.7-0.1c0.1,0,0.2,0,0.5,0c0.1,0,0.2,0.1,0.5,0.1c0.1,0,0.2,0.1,0.3,0.2
				s0.2,0.2,0.2,0.3l0,0v-2h0.9V190L428.3,190z M424.9,187.8c0,0.2,0,0.3,0.1,0.6c0,0.2,0.1,0.3,0.2,0.5c0.1,0.1,0.2,0.2,0.3,0.3
				s0.3,0.1,0.6,0.1c0.2,0,0.3,0,0.6-0.1c0.1-0.1,0.2-0.2,0.3-0.3s0.1-0.3,0.2-0.5c0-0.2,0.1-0.3,0.1-0.6c0-0.5-0.1-0.8-0.3-1.1
				c-0.2-0.2-0.5-0.5-0.9-0.5c-0.2,0-0.5,0-0.6,0.1s-0.2,0.2-0.3,0.3c-0.1,0.1-0.1,0.3-0.2,0.5C424.9,187.5,424.9,187.6,424.9,187.8
				z"/>
			<path fill="#00B8E6" d="M436.5,190h-0.7l-0.1-0.7c-0.2,0.3-0.6,0.6-0.8,0.7c-0.2,0.1-0.6,0.2-0.9,0.2c-0.5,0-0.8-0.1-1.2-0.2
				c-0.3-0.1-0.7-0.3-0.9-0.7c-0.2-0.2-0.5-0.6-0.6-1c-0.1-0.3-0.2-0.8-0.2-1.2s0.1-0.8,0.2-1.2c0.1-0.3,0.3-0.8,0.6-1
				c0.2-0.2,0.6-0.5,0.9-0.7c0.3-0.1,0.8-0.2,1.2-0.2c0.3,0,0.7,0,0.9,0.1c0.3,0.1,0.6,0.2,0.8,0.3c0.2,0.1,0.5,0.3,0.6,0.7
				c0.1,0.2,0.2,0.6,0.2,0.9h-1c0-0.2-0.1-0.3-0.2-0.6c-0.1-0.1-0.2-0.2-0.3-0.3c-0.1-0.1-0.3-0.2-0.5-0.2s-0.3-0.1-0.6-0.1
				c-0.3,0-0.6,0.1-0.8,0.2c-0.2,0.1-0.5,0.3-0.6,0.6c-0.1,0.2-0.2,0.5-0.3,0.8c-0.1,0.2-0.1,0.6-0.1,0.8s0,0.6,0.1,0.8
				s0.2,0.6,0.3,0.8c0.1,0.2,0.3,0.3,0.6,0.6c0.2,0.1,0.5,0.2,0.8,0.2c0.2,0,0.5,0,0.8-0.1c0.2-0.1,0.3-0.2,0.6-0.3
				c0.1-0.1,0.2-0.3,0.3-0.6c0.1-0.2,0.1-0.5,0.1-0.7h-1.6v-0.8h2.6L436.5,190L436.5,190z"/>
			<path fill="#00B8E6" d="M438.1,188.1c0,0.1,0,0.3,0.1,0.5c0,0.1,0.1,0.3,0.2,0.5c0.1,0.1,0.2,0.2,0.3,0.2
				c0.1,0.1,0.3,0.1,0.6,0.1c0.2,0,0.5-0.1,0.7-0.2c0.1-0.1,0.3-0.3,0.3-0.6h0.9c0,0.2-0.1,0.5-0.2,0.7s-0.2,0.3-0.5,0.5
				c-0.2,0.1-0.3,0.2-0.6,0.2c-0.2,0.1-0.5,0.1-0.7,0.1c-0.3,0-0.7,0-0.9-0.1c-0.2-0.1-0.5-0.2-0.7-0.5c-0.2-0.2-0.3-0.5-0.5-0.8
				c-0.1-0.2-0.1-0.6-0.1-0.9s0-0.6,0.1-0.9c0.1-0.2,0.2-0.6,0.5-0.8c0.2-0.2,0.5-0.3,0.7-0.5c0.2-0.1,0.6-0.2,0.9-0.2
				s0.7,0.1,0.9,0.2c0.2,0.1,0.5,0.3,0.7,0.6c0.2,0.2,0.3,0.5,0.3,0.8c0.1,0.3,0.1,0.6,0.1,0.9L438.1,188.1L438.1,188.1L438.1,188.1
				z M440.4,187.4c0-0.1,0-0.3-0.1-0.5c0-0.1-0.1-0.2-0.2-0.3s-0.2-0.2-0.3-0.2c-0.1-0.1-0.2-0.1-0.5-0.1c-0.1,0-0.3,0-0.5,0.1
				s-0.2,0.1-0.3,0.2c-0.1,0.1-0.2,0.2-0.2,0.3c-0.1,0.1-0.1,0.3-0.1,0.5H440.4L440.4,187.4L440.4,187.4z"/>
			<path fill="#00B8E6" d="M441.5,185.6h0.8v-1.2h0.9v1.2h0.9v0.8h-0.9v2.4c0,0.1,0,0.2,0,0.2c0,0.1,0,0.1,0.1,0.2l0.1,0.1
				c0.1,0,0.1,0,0.2,0s0.1,0,0.2,0c0,0,0.1,0,0.2,0v0.8c-0.1,0-0.2,0-0.3,0s-0.2,0-0.3,0c-0.2,0-0.5,0-0.6-0.1
				c-0.1,0-0.2-0.1-0.3-0.2c-0.1-0.1-0.1-0.2-0.2-0.3c0-0.1,0-0.3,0-0.5v-2.6h-0.8L441.5,185.6L441.5,185.6L441.5,185.6z"/>
			<path fill="#00B8E6" d="M446.8,184h4.1v0.9h-3v1.6h2.7v0.8h-2.7v2.7h-1.1V184L446.8,184L446.8,184L446.8,184z"/>
			<path fill="#00B8E6" d="M452.2,188.1c0,0.1,0,0.3,0.1,0.5c0,0.1,0.1,0.3,0.2,0.5c0.1,0.1,0.2,0.2,0.3,0.2
				c0.1,0.1,0.3,0.1,0.6,0.1s0.5-0.1,0.7-0.2c0.1-0.1,0.3-0.3,0.3-0.6h0.9c0,0.2-0.1,0.5-0.2,0.7s-0.2,0.3-0.5,0.5
				c-0.2,0.1-0.3,0.2-0.6,0.2c-0.2,0.1-0.5,0.1-0.7,0.1c-0.3,0-0.7,0-0.9-0.1c-0.2-0.1-0.5-0.2-0.7-0.5c-0.2-0.2-0.3-0.5-0.5-0.8
				c-0.1-0.2-0.1-0.6-0.1-0.9s0-0.6,0.1-0.9c0.1-0.2,0.2-0.6,0.5-0.8c0.2-0.2,0.5-0.3,0.7-0.5c0.2-0.1,0.6-0.2,0.9-0.2
				s0.7,0.1,0.9,0.2c0.2,0.1,0.5,0.3,0.7,0.6c0.2,0.2,0.3,0.5,0.3,0.8c0.1,0.3,0.1,0.6,0.1,0.9L452.2,188.1L452.2,188.1L452.2,188.1
				z M454.4,187.4c0-0.1,0-0.3-0.1-0.5c0-0.1-0.1-0.2-0.2-0.3s-0.2-0.2-0.3-0.2c-0.1-0.1-0.2-0.1-0.5-0.1c-0.1,0-0.3,0-0.5,0.1
				s-0.2,0.1-0.3,0.2c-0.1,0.1-0.2,0.2-0.2,0.3c-0.1,0.1-0.1,0.3-0.1,0.5H454.4L454.4,187.4L454.4,187.4z"/>
			<path fill="#00B8E6" d="M456.6,188.1c0,0.1,0,0.3,0.1,0.5c0,0.1,0.1,0.3,0.2,0.5c0.1,0.1,0.2,0.2,0.3,0.2
				c0.1,0.1,0.3,0.1,0.6,0.1s0.5-0.1,0.7-0.2c0.1-0.1,0.3-0.3,0.3-0.6h0.9c0,0.2-0.1,0.5-0.2,0.7s-0.2,0.3-0.5,0.5
				c-0.2,0.1-0.3,0.2-0.6,0.2c-0.2,0.1-0.5,0.1-0.7,0.1c-0.3,0-0.7,0-0.9-0.1c-0.2-0.1-0.5-0.2-0.7-0.5s-0.3-0.5-0.5-0.8
				c-0.1-0.2-0.1-0.6-0.1-0.9s0-0.6,0.1-0.9c0.1-0.2,0.2-0.6,0.5-0.8c0.2-0.2,0.5-0.3,0.7-0.5c0.2-0.1,0.6-0.2,0.9-0.2
				s0.7,0.1,0.9,0.2c0.2,0.1,0.5,0.3,0.7,0.6c0.2,0.2,0.3,0.5,0.3,0.8c0.1,0.3,0.1,0.6,0.1,0.9L456.6,188.1L456.6,188.1L456.6,188.1
				z M458.8,187.4c0-0.1,0-0.3-0.1-0.5c0-0.1-0.1-0.2-0.2-0.3s-0.2-0.2-0.3-0.2c-0.1-0.1-0.2-0.1-0.5-0.1c-0.1,0-0.3,0-0.5,0.1
				s-0.2,0.1-0.3,0.2s-0.2,0.2-0.2,0.3c-0.1,0.1-0.1,0.3-0.1,0.5H458.8L458.8,187.4L458.8,187.4z"/>
			<path fill="#00B8E6" d="M464.5,190h-0.9v-0.6l0,0c-0.1,0.2-0.3,0.5-0.6,0.6s-0.5,0.1-0.8,0.1s-0.7-0.1-0.9-0.2
				c-0.2-0.1-0.5-0.2-0.7-0.5c-0.1-0.2-0.3-0.5-0.3-0.8c-0.1-0.2-0.1-0.6-0.1-0.9s0-0.8,0.1-1s0.2-0.6,0.5-0.7
				c0.2-0.2,0.3-0.3,0.6-0.5c0.2-0.1,0.5-0.1,0.7-0.1c0.1,0,0.2,0,0.5,0c0.1,0,0.2,0.1,0.5,0.1c0.1,0,0.2,0.1,0.3,0.2
				c0.1,0.1,0.2,0.2,0.2,0.3l0,0v-2h0.9L464.5,190L464.5,190z M461.1,187.8c0,0.2,0,0.3,0.1,0.6c0,0.2,0.1,0.3,0.2,0.5
				c0.1,0.1,0.2,0.2,0.3,0.3c0.1,0.1,0.3,0.1,0.6,0.1s0.3,0,0.6-0.1c0.1-0.1,0.2-0.2,0.3-0.3c0.1-0.1,0.1-0.3,0.2-0.5
				c0-0.2,0.1-0.3,0.1-0.6c0-0.5-0.1-0.8-0.3-1.1c-0.2-0.2-0.5-0.5-0.9-0.5c-0.2,0-0.5,0-0.6,0.1s-0.2,0.2-0.3,0.3
				c-0.1,0.1-0.1,0.3-0.2,0.5C461.1,187.5,461.1,187.6,461.1,187.8z"/>
			<path fill="#00B8E6" d="M465.3,184h0.9v2.1l0,0c0.1-0.1,0.1-0.2,0.2-0.2c0.1-0.1,0.2-0.1,0.3-0.2c0.1-0.1,0.2-0.1,0.3-0.1
				c0.1,0,0.2,0,0.3,0c0.3,0,0.7,0.1,0.9,0.2c0.2,0.1,0.5,0.2,0.7,0.5c0.1,0.2,0.3,0.5,0.3,0.8c0.1,0.2,0.1,0.6,0.1,0.9
				c0,0.3,0,0.6-0.1,0.8s-0.2,0.6-0.3,0.8c-0.1,0.2-0.3,0.3-0.6,0.5c-0.2,0.1-0.5,0.2-0.8,0.2c-0.1,0-0.3,0-0.5,0s-0.3-0.1-0.5-0.1
				s-0.2-0.1-0.3-0.2c-0.1-0.1-0.2-0.2-0.2-0.3l0,0v0.6h-0.9V184H465.3L465.3,184z M468.5,187.8c0-0.2,0-0.3-0.1-0.6
				c0-0.2-0.1-0.3-0.2-0.5c-0.1-0.1-0.2-0.2-0.3-0.3c-0.1-0.1-0.3-0.1-0.6-0.1c-0.5,0-0.8,0.1-0.9,0.5c-0.1,0.3-0.3,0.7-0.3,1.1
				c0,0.2,0,0.5,0.1,0.6c0,0.2,0.1,0.3,0.2,0.5c0.1,0.1,0.2,0.2,0.3,0.3c0.1,0.1,0.3,0.1,0.6,0.1c0.2,0,0.5,0,0.6-0.1
				s0.2-0.2,0.3-0.3s0.1-0.3,0.2-0.5C468.5,188.2,468.5,187.9,468.5,187.8z"/>
			<path fill="#00B8E6" d="M473.7,189c0,0.1,0,0.2,0,0.2s0.1,0.1,0.2,0.1h0.1h0.1v0.7H474h-0.1c-0.1,0-0.1,0-0.1,0
				c-0.1,0-0.1,0-0.1,0c-0.2,0-0.3,0-0.5-0.1c-0.1-0.1-0.2-0.2-0.2-0.5c-0.2,0.2-0.5,0.3-0.7,0.5c-0.2,0.1-0.6,0.1-0.8,0.1
				s-0.3,0-0.6-0.1c-0.2,0-0.3-0.1-0.5-0.2c-0.1-0.1-0.2-0.2-0.3-0.3c-0.1-0.1-0.1-0.3-0.1-0.6c0-0.2,0-0.5,0.1-0.7
				c0.1-0.1,0.2-0.3,0.3-0.3c0.1-0.1,0.3-0.1,0.6-0.2c0.2,0,0.3-0.1,0.6-0.1c0.2,0,0.3-0.1,0.5-0.1s0.3,0,0.5-0.1s0.2-0.1,0.2-0.1
				c0.1-0.1,0.1-0.2,0.1-0.3s0-0.2-0.1-0.3s-0.1-0.1-0.2-0.2c-0.1,0-0.2-0.1-0.3-0.1c-0.1,0-0.2,0-0.3,0c-0.2,0-0.5,0-0.7,0.1
				s-0.2,0.2-0.3,0.6h-1c0-0.2,0.1-0.5,0.2-0.7s0.2-0.3,0.5-0.5c0.2-0.1,0.3-0.2,0.6-0.2s0.5-0.1,0.7-0.1s0.5,0,0.6,0.1
				c0.2,0,0.3,0.1,0.6,0.2c0.1,0.1,0.3,0.2,0.3,0.3c0.1,0.1,0.1,0.3,0.1,0.6L473.7,189L473.7,189z M472.7,187.8
				c-0.1,0.1-0.3,0.1-0.6,0.2c-0.2,0-0.5,0-0.7,0.1c-0.1,0-0.2,0-0.3,0.1c-0.1,0-0.2,0.1-0.2,0.1c-0.1,0-0.1,0.1-0.2,0.2
				c0,0.1-0.1,0.2-0.1,0.3s0,0.2,0.1,0.2c0.1,0.1,0.1,0.1,0.2,0.2c0.1,0,0.2,0.1,0.2,0.1c0.1,0,0.2,0,0.2,0c0.1,0,0.2,0,0.3,0
				s0.2-0.1,0.3-0.1c0.1-0.1,0.2-0.1,0.2-0.2c0.1-0.1,0.1-0.2,0.1-0.3v-1.1L472.7,187.8L472.7,187.8z"/>
			<path fill="#00B8E6" d="M477.4,187.2c0-0.2-0.1-0.5-0.3-0.6c-0.2-0.1-0.3-0.2-0.7-0.2c-0.1,0-0.2,0-0.3,0.1
				c-0.1,0-0.2,0.1-0.3,0.2c-0.1,0.1-0.2,0.2-0.3,0.5c-0.1,0.2-0.1,0.5-0.1,0.8c0,0.2,0,0.3,0.1,0.6c0,0.2,0.1,0.3,0.2,0.5
				c0.1,0.1,0.2,0.2,0.3,0.3c0.1,0.1,0.3,0.1,0.6,0.1s0.5-0.1,0.7-0.2c0.2-0.2,0.3-0.5,0.3-0.8h0.9c-0.1,0.6-0.3,1-0.7,1.2
				c-0.3,0.3-0.8,0.5-1.4,0.5c-0.3,0-0.7-0.1-0.9-0.2c-0.2-0.1-0.5-0.2-0.7-0.5c-0.2-0.2-0.3-0.5-0.5-0.8c-0.1-0.2-0.1-0.6-0.1-0.9
				s0-0.6,0.1-0.9c0.1-0.2,0.2-0.6,0.5-0.8c0.2-0.2,0.5-0.3,0.7-0.5c0.2-0.1,0.6-0.2,0.9-0.2c0.2,0,0.5,0,0.8,0.1
				c0.2,0.1,0.5,0.1,0.6,0.3c0.2,0.1,0.3,0.3,0.5,0.5c0.1,0.2,0.2,0.5,0.2,0.7L477.4,187.2L477.4,187.2L477.4,187.2z"/>
			<path fill="#00B8E6" d="M479.1,184h0.9v3.4l1.7-1.7h1.1l-1.7,1.6l1.8,2.7h-1.1l-1.4-2.1l-0.6,0.6v1.6H479L479.1,184L479.1,184
				L479.1,184z"/>
			<path fill="#00B8E6" d="M383.6,199.5c-0.3,0-0.7-0.1-0.9-0.2c-0.2-0.1-0.5-0.2-0.7-0.5c-0.2-0.2-0.3-0.5-0.5-0.8
				c-0.1-0.2-0.1-0.6-0.1-0.9s0-0.7,0.1-0.9c0.1-0.3,0.2-0.6,0.5-0.8c0.3-0.2,0.5-0.3,0.7-0.5c0.2-0.1,0.6-0.2,0.9-0.2
				s0.7,0.1,0.9,0.2c0.2,0.1,0.5,0.2,0.7,0.5c0.2,0.2,0.3,0.5,0.5,0.8c0.1,0.2,0.1,0.6,0.1,0.9s0,0.7-0.1,0.9
				c-0.1,0.2-0.2,0.6-0.5,0.8c-0.2,0.2-0.5,0.3-0.7,0.5C384.2,199.4,384,199.5,383.6,199.5z M383.6,198.8c0.2,0,0.3,0,0.6-0.1
				c0.1-0.1,0.2-0.2,0.3-0.3c0.1-0.1,0.2-0.3,0.2-0.5s0.1-0.3,0.1-0.6c0-0.2,0-0.3-0.1-0.6s-0.1-0.3-0.2-0.5
				c-0.1-0.1-0.2-0.2-0.3-0.3s-0.3-0.1-0.6-0.1c-0.2,0-0.3,0-0.6,0.1c-0.1,0.1-0.2,0.2-0.3,0.3c-0.1,0.1-0.2,0.3-0.2,0.5
				s-0.1,0.3-0.1,0.6c0,0.2,0,0.3,0.1,0.6c0,0.2,0.1,0.3,0.2,0.5c0.1,0.1,0.2,0.2,0.3,0.3C383.2,198.6,383.5,198.8,383.6,198.8z"/>
			<path fill="#00B8E6" d="M386.4,195h0.9v0.7l0,0c0.1-0.2,0.3-0.5,0.6-0.6c0.2-0.1,0.5-0.2,0.8-0.2c0.5,0,0.8,0.1,1.1,0.3
				c0.2,0.2,0.5,0.6,0.5,1.1v2.9h-1v-2.7c0-0.3-0.1-0.6-0.2-0.8c-0.1-0.1-0.3-0.2-0.7-0.2c-0.1,0-0.3,0-0.5,0.1
				c-0.1,0.1-0.2,0.1-0.3,0.2c-0.1,0.1-0.1,0.2-0.2,0.3c0,0.1-0.1,0.3-0.1,0.5v2.6h-0.9L386.4,195L386.4,195L386.4,195z"/>
			<path fill="#00B8E6" d="M394.8,197.1l-2.3-3.6h1.2l1.6,2.7l1.6-2.7h1.1l-2.3,3.6v2.4h-1L394.8,197.1L394.8,197.1z"/>
			<path fill="#00B8E6" d="M399.6,199.5c-0.3,0-0.7-0.1-0.9-0.2c-0.2-0.1-0.5-0.2-0.7-0.5c-0.2-0.2-0.3-0.5-0.5-0.8
				c-0.1-0.2-0.1-0.6-0.1-0.9s0-0.7,0.1-0.9c0.1-0.2,0.2-0.6,0.5-0.8c0.3-0.2,0.5-0.3,0.7-0.5c0.2-0.1,0.6-0.2,0.9-0.2
				s0.7,0.1,0.9,0.2c0.2,0.1,0.5,0.2,0.7,0.5c0.2,0.2,0.3,0.5,0.5,0.8c0.1,0.2,0.1,0.6,0.1,0.9s0,0.7-0.1,0.9
				c-0.1,0.2-0.2,0.6-0.5,0.8c-0.2,0.2-0.5,0.3-0.7,0.5C400.4,199.4,399.9,199.5,399.6,199.5z M399.6,198.8c0.2,0,0.3,0,0.6-0.1
				c0.1-0.1,0.2-0.2,0.3-0.3c0.1-0.1,0.2-0.3,0.2-0.5s0.1-0.3,0.1-0.6c0-0.2,0-0.3-0.1-0.6c0-0.2-0.1-0.3-0.2-0.5
				c-0.1-0.1-0.2-0.2-0.3-0.3s-0.3-0.1-0.6-0.1c-0.2,0-0.3,0-0.6,0.1c-0.1,0.1-0.2,0.2-0.3,0.3c-0.1,0.1-0.2,0.3-0.2,0.5
				c-0.1,0.2-0.1,0.3-0.1,0.6c0,0.2,0,0.3,0.1,0.6c0,0.2,0.1,0.3,0.2,0.5c0.1,0.1,0.2,0.2,0.3,0.3
				C399.2,198.6,399.3,198.8,399.6,198.8z"/>
			<path fill="#00B8E6" d="M406.1,199.4h-0.9v-0.6l0,0c-0.1,0.2-0.3,0.3-0.6,0.6c-0.2,0.1-0.5,0.2-0.8,0.2c-0.6,0-1-0.1-1.2-0.5
				c-0.2-0.2-0.3-0.8-0.3-1.2v-2.7h0.9v2.6c0,0.3,0.1,0.7,0.2,0.8s0.3,0.2,0.6,0.2c0.2,0,0.3,0,0.5-0.1c0.1-0.1,0.2-0.1,0.3-0.2
				c0.1-0.1,0.1-0.2,0.2-0.3c0-0.1,0-0.3,0-0.5v-2.5h0.9L406.1,199.4L406.1,199.4L406.1,199.4z"/>
			<path fill="#00B8E6" d="M407.1,195h0.9v0.8l0,0c0-0.1,0.1-0.2,0.1-0.3c0.1-0.1,0.2-0.2,0.3-0.3c0.1-0.1,0.2-0.1,0.3-0.2
				c0.1,0,0.2-0.1,0.5-0.1c0.1,0,0.2,0,0.2,0c0.1,0,0.1,0,0.1,0v0.9c-0.1,0-0.1,0-0.2,0s-0.1,0-0.2,0c-0.1,0-0.3,0-0.5,0.1
				c-0.1,0.1-0.2,0.1-0.3,0.2s-0.2,0.2-0.2,0.5c-0.1,0.2-0.1,0.3-0.1,0.7v2h-0.9L407.1,195L407.1,195z"/>
			<path fill="#00B8E6" d="M416.1,195.4c0-0.2-0.1-0.3-0.2-0.5c-0.1-0.1-0.2-0.2-0.3-0.3s-0.2-0.2-0.5-0.2c-0.1-0.1-0.3-0.1-0.6-0.1
				s-0.6,0.1-0.8,0.2c-0.2,0.1-0.5,0.3-0.6,0.6c-0.1,0.2-0.2,0.5-0.3,0.8c-0.1,0.2-0.1,0.6-0.1,0.8s0,0.6,0.1,0.8s0.2,0.6,0.3,0.8
				c0.1,0.2,0.3,0.3,0.6,0.6c0.2,0.1,0.5,0.2,0.8,0.2c0.2,0,0.5,0,0.6-0.1c0.2-0.1,0.3-0.2,0.5-0.3c0.1-0.1,0.2-0.3,0.3-0.5
				c0.1-0.2,0.1-0.3,0.1-0.6h1c0,0.3-0.1,0.7-0.2,1s-0.3,0.6-0.6,0.8c-0.2,0.2-0.5,0.3-0.8,0.5c-0.3,0.2-0.7,0.2-1,0.2
				c-0.5,0-0.8-0.1-1.2-0.2c-0.3-0.1-0.7-0.3-0.9-0.7c-0.2-0.2-0.5-0.6-0.6-1c-0.1-0.3-0.2-0.8-0.2-1.2s0.1-0.8,0.2-1.2
				c0.1-0.3,0.3-0.8,0.6-1c0.2-0.2,0.6-0.5,0.9-0.7c0.3-0.1,0.8-0.2,1.2-0.2c0.3,0,0.7,0,0.9,0.1c0.3,0.1,0.6,0.2,0.8,0.5
				c0.2,0.2,0.5,0.3,0.6,0.7c0.1,0.2,0.2,0.6,0.2,0.9h-1L416.1,195.4L416.1,195.4L416.1,195.4z"/>
			<path fill="#00B8E6" d="M417.8,195h0.9v0.8l0,0c0-0.1,0.1-0.2,0.1-0.3c0.1-0.1,0.2-0.2,0.3-0.3s0.2-0.1,0.3-0.2
				c0.1,0,0.2-0.1,0.5-0.1c0.1,0,0.2,0,0.2,0h0.1v0.9c-0.1,0-0.1,0-0.2,0c-0.1,0-0.1,0-0.2,0s-0.3,0-0.5,0.1
				c-0.1,0.1-0.2,0.1-0.3,0.2c-0.1,0.1-0.2,0.2-0.2,0.5c-0.1,0.2-0.1,0.3-0.1,0.7v2h-0.9L417.8,195L417.8,195z"/>
			<path fill="#00B8E6" d="M421.2,197.5c0,0.1,0,0.3,0.1,0.5c0,0.1,0.1,0.3,0.2,0.5c0.1,0.1,0.2,0.2,0.3,0.2
				c0.1,0.1,0.3,0.1,0.6,0.1c0.2,0,0.5-0.1,0.7-0.2c0.1-0.1,0.3-0.3,0.3-0.6h0.9c0,0.2-0.1,0.5-0.2,0.7s-0.2,0.3-0.5,0.5
				c-0.2,0.1-0.3,0.2-0.6,0.2c-0.2,0.1-0.5,0.1-0.7,0.1c-0.3,0-0.7,0-0.9-0.1c-0.2-0.1-0.5-0.2-0.7-0.5c-0.2-0.2-0.3-0.5-0.5-0.8
				c-0.1-0.2-0.1-0.6-0.1-0.9s0-0.6,0.1-0.9c0.1-0.2,0.2-0.6,0.5-0.8c0.2-0.2,0.5-0.3,0.7-0.5c0.2-0.1,0.6-0.2,0.9-0.2
				s0.7,0.1,0.9,0.2c0.2,0.1,0.5,0.3,0.7,0.6c0.2,0.2,0.3,0.5,0.3,0.8c0.1,0.3,0.1,0.6,0.1,0.9L421.2,197.5L421.2,197.5L421.2,197.5
				z M423.5,196.8c0-0.1,0-0.3-0.1-0.5c0-0.1-0.1-0.2-0.2-0.3c-0.1-0.1-0.2-0.2-0.3-0.2c-0.1-0.1-0.2-0.1-0.5-0.1
				c-0.1,0-0.3,0-0.5,0.1c-0.1,0.1-0.2,0.1-0.3,0.2c-0.1,0.1-0.2,0.2-0.2,0.3c-0.1,0.1-0.1,0.3-0.1,0.5H423.5L423.5,196.8
				L423.5,196.8z"/>
			<path fill="#00B8E6" d="M428.5,198.4c0,0.1,0,0.2,0,0.2s0.1,0.1,0.2,0.1h0.1h0.1v0.7h-0.1h-0.1h-0.2h-0.1c-0.2,0-0.3,0-0.5-0.1
				c-0.1-0.1-0.2-0.2-0.2-0.5c-0.2,0.2-0.5,0.3-0.7,0.5c-0.2,0.1-0.6,0.1-0.8,0.1s-0.3,0-0.6-0.1c-0.2,0-0.3-0.1-0.5-0.2
				c-0.1-0.1-0.2-0.2-0.3-0.3c-0.1-0.1-0.1-0.3-0.1-0.6c0-0.2,0-0.5,0.1-0.7c0.1-0.1,0.2-0.3,0.3-0.3c0.1-0.1,0.3-0.1,0.6-0.2
				c0.2,0,0.3-0.1,0.6-0.1s0.3-0.1,0.5-0.1c0.1,0,0.3,0,0.5-0.1c0.1,0,0.2-0.1,0.2-0.1c0.1-0.1,0.1-0.2,0.1-0.3s0-0.2-0.1-0.3
				s-0.1-0.1-0.2-0.2c-0.1,0-0.2-0.1-0.3-0.1c-0.1,0-0.2,0-0.3,0c-0.2,0-0.5,0-0.7,0.1c-0.2,0.1-0.2,0.2-0.3,0.6h-0.9
				c0-0.2,0.1-0.5,0.2-0.7c0.1-0.2,0.2-0.3,0.5-0.5c0.2-0.1,0.3-0.2,0.6-0.2c0.2,0,0.5-0.1,0.7-0.1s0.5,0,0.6,0.1
				c0.2,0,0.3,0.1,0.6,0.2c0.1,0.1,0.3,0.2,0.3,0.3c0.1,0.1,0.1,0.3,0.1,0.6v2.5L428.5,198.4L428.5,198.4z M427.5,197.3
				c-0.1,0.1-0.3,0.1-0.6,0.2c-0.2,0-0.5,0-0.7,0.1c-0.1,0-0.2,0-0.3,0.1c-0.1,0-0.2,0.1-0.2,0.1c-0.1,0-0.1,0.1-0.2,0.2
				c0,0.1-0.1,0.2-0.1,0.3s0,0.2,0.1,0.2c0.1,0.1,0.1,0.1,0.2,0.2c0.1,0,0.2,0.1,0.2,0.1c0.1,0,0.2,0,0.2,0c0.1,0,0.2,0,0.3,0
				s0.2-0.1,0.3-0.1c0.1-0.1,0.2-0.1,0.2-0.2c0.1-0.1,0.1-0.2,0.1-0.3v-0.7L427.5,197.3L427.5,197.3z"/>
			<path fill="#00B8E6" d="M428.9,195h0.8v-1.2h0.9v1.2h0.9v0.8h-0.9v2.4c0,0.1,0,0.2,0,0.2c0,0.1,0,0.1,0.1,0.2l0.1,0.1
				c0.1,0,0.1,0,0.2,0s0.1,0,0.2,0c0,0,0.1,0,0.2,0v0.8c-0.1,0-0.2,0-0.3,0s-0.2,0-0.3,0c-0.2,0-0.5,0-0.6-0.1
				c-0.1,0-0.2-0.1-0.3-0.2s-0.1-0.2-0.2-0.3c0-0.1,0-0.3,0-0.5v-2.6h-0.8L428.9,195L428.9,195L428.9,195z"/>
			<path fill="#00B8E6" d="M431.9,193.5h0.9v0.9h-0.9V193.5z M431.9,195h0.9v4.3h-0.9V195z"/>
			<path fill="#00B8E6" d="M433.3,195h1l1.1,3.3l0,0l1-3.3h1l-1.6,4.3h-1.1L433.3,195z"/>
			<path fill="#00B8E6" d="M438.7,197.5c0,0.1,0,0.3,0.1,0.5c0,0.1,0.1,0.3,0.2,0.5c0.1,0.1,0.2,0.2,0.3,0.2
				c0.1,0.1,0.3,0.1,0.6,0.1c0.2,0,0.5-0.1,0.7-0.2c0.1-0.1,0.3-0.3,0.3-0.6h0.9c0,0.2-0.1,0.5-0.2,0.7s-0.2,0.3-0.5,0.5
				c-0.2,0.1-0.3,0.2-0.6,0.2c-0.2,0.1-0.5,0.1-0.7,0.1c-0.3,0-0.7,0-0.9-0.1c-0.2-0.1-0.5-0.2-0.7-0.5c-0.2-0.2-0.3-0.5-0.5-0.8
				c-0.1-0.2-0.1-0.6-0.1-0.9s0-0.6,0.1-0.9c0.1-0.2,0.2-0.6,0.5-0.8c0.2-0.2,0.5-0.3,0.7-0.5c0.2-0.1,0.6-0.2,0.9-0.2
				s0.7,0.1,0.9,0.2c0.3,0.1,0.5,0.3,0.7,0.6c0.2,0.2,0.3,0.5,0.3,0.8c0.1,0.3,0.1,0.6,0.1,0.9L438.7,197.5L438.7,197.5L438.7,197.5
				z M440.9,196.8c0-0.1,0-0.3-0.1-0.5c0-0.1-0.1-0.2-0.2-0.3s-0.2-0.2-0.3-0.2c-0.1-0.1-0.2-0.1-0.5-0.1c-0.1,0-0.3,0-0.5,0.1
				s-0.2,0.1-0.3,0.2s-0.2,0.2-0.2,0.3c-0.1,0.1-0.1,0.3-0.1,0.5H440.9L440.9,196.8L440.9,196.8z"/>
			<path fill="#00B8E6" d="M444.1,193.5h1l1,4.5l0,0l1.2-4.5h1l1.1,4.5l0,0l1.1-4.5h1l-1.6,6h-1l-1.1-4.5l0,0l-1.2,4.5h-1
				L444.1,193.5z"/>
			<path fill="#00B8E6" d="M454,199.5c-0.3,0-0.7-0.1-0.9-0.2c-0.2-0.1-0.5-0.2-0.7-0.5c-0.2-0.2-0.3-0.5-0.5-0.8
				c-0.1-0.2-0.1-0.6-0.1-0.9s0-0.7,0.1-0.9s0.2-0.6,0.5-0.8s0.5-0.3,0.7-0.5c0.2-0.1,0.6-0.2,0.9-0.2s0.7,0.1,0.9,0.2
				c0.2,0.1,0.5,0.2,0.7,0.5s0.3,0.5,0.5,0.8c0.1,0.2,0.1,0.6,0.1,0.9s0,0.7-0.1,0.9s-0.2,0.6-0.5,0.8c-0.2,0.2-0.5,0.3-0.7,0.5
				S454.4,199.5,454,199.5z M454,198.8c0.2,0,0.3,0,0.6-0.1c0.1-0.1,0.2-0.2,0.3-0.3s0.2-0.3,0.2-0.5s0.1-0.3,0.1-0.6
				c0-0.2,0-0.3-0.1-0.6s-0.1-0.3-0.2-0.5c-0.1-0.1-0.2-0.2-0.3-0.3c-0.1-0.1-0.3-0.1-0.6-0.1c-0.2,0-0.3,0-0.6,0.1
				c-0.1,0.1-0.2,0.2-0.3,0.3c-0.1,0.1-0.2,0.3-0.2,0.5s-0.1,0.3-0.1,0.6c0,0.2,0,0.3,0.1,0.6c0,0.2,0.1,0.3,0.2,0.5
				c0.1,0.1,0.2,0.2,0.3,0.3C453.5,198.6,453.9,198.8,454,198.8z"/>
			<path fill="#00B8E6" d="M456.7,195h0.9v0.8l0,0c0-0.1,0.1-0.2,0.1-0.3c0.1-0.1,0.2-0.2,0.3-0.3c0.1-0.1,0.2-0.1,0.3-0.2
				c0.1,0,0.2-0.1,0.5-0.1c0.1,0,0.2,0,0.2,0h0.1v0.9c-0.1,0-0.1,0-0.2,0s-0.1,0-0.2,0s-0.3,0-0.5,0.1c-0.1,0.1-0.2,0.1-0.3,0.2
				s-0.2,0.2-0.2,0.5c-0.1,0.2-0.1,0.3-0.1,0.7v2h-0.8L456.7,195L456.7,195z"/>
			<path fill="#00B8E6" d="M459.5,193.5h0.9v3.4l1.7-1.7h1.1l-1.7,1.6l1.8,2.7h-1.1l-1.4-2.1l-0.6,0.6v1.6h-0.9L459.5,193.5
				L459.5,193.5z"/>
		</g>
	</g>
	<rect x="381.8" y="173.4" fill="#00B8E6" width="6.5" height="0.5"/>
	<rect x="381.8" y="133.2" fill="#00B8E6" width="6.5" height="0.5"/>
	<g>
		<path fill="#00B8E6" d="M391.6,70.4h-9.8V21.7h14.3c6.1,0,9,3,9,9v13.7c0,6.1-3,9-9,9h-4.5V70.4z M393.6,30.1h-2.1v15.1h2.1
			c1.1,0,1.7-0.6,1.7-1.7V31.8C395.4,30.6,394.8,30.1,393.6,30.1z"/>
		<path fill="#00B8E6" d="M422.4,70.8h-6.2c-6.1,0-9-3-9-9V30.3c0-6.1,3-9,9-9h6.2c6.1,0,9,3,9,9v31.4
			C431.7,67.8,428.5,70.8,422.4,70.8z M420.1,29.6h-1.4c-1.1,0-1.7,0.6-1.7,1.7v29.3c0,1.1,0.6,1.7,1.7,1.7h1.4
			c1.1,0,1.7-0.6,1.7-1.7V31.3C421.9,30.2,421.3,29.6,420.1,29.6z"/>
		<path fill="#00B8E6" d="M457.7,53.6v16.8H448V53.7c0-1.1-0.6-1.7-1.7-1.7h-2.5v18.4H434V21.7h14.5c6.1,0,9,3,9,9v9.4
			c0,4.2-1.5,6.2-4.2,7.2C456.6,48.2,457.7,50.1,457.7,53.6z M446.1,30.2h-2.4v13.4h2.4c1.1,0,1.7-0.6,1.7-1.7v-10
			C447.9,30.8,447.5,30.2,446.1,30.2z"/>
		<path fill="#00B8E6" d="M465,70.4v-40h-6v-8.7h21.5v8.7h-5.9v39.9L465,70.4L465,70.4z"/>
		<path fill="#00B8E6" d="M500.5,21.7v8.7h-8v11.4h7.7v8.7h-7.7v19.8h-9.7V21.7H500.5z"/>
		<path fill="#00B8E6" d="M517.8,70.8h-6.2c-6.1,0-9-3-9-9V30.3c0-6.1,3-9,9-9h6.2c6.1,0,9,3,9,9v31.4
			C526.8,67.8,523.7,70.8,517.8,70.8z M515.3,29.6h-1.4c-1.1,0-1.7,0.6-1.7,1.7v29.3c0,1.1,0.6,1.7,1.7,1.7h1.4
			c1.1,0,1.7-0.6,1.7-1.7V31.3C517,30.2,516.4,29.6,515.3,29.6z"/>
		<path fill="#00B8E6" d="M538.9,21.7v39.9h7v8.7h-16.8V21.7H538.9z"/>
		<path fill="#00B8E6" d="M557.9,70.4h-9.7V21.7h9.7V70.4z"/>
		<path fill="#00B8E6" d="M575.2,70.8H569c-6.1,0-9-3-9-9V30.3c0-6.1,3-9,9-9h6.2c6.1,0,9,3,9,9v31.4
			C584.2,67.8,581.4,70.8,575.2,70.8z M573,29.6h-1.4c-1.1,0-1.7,0.6-1.7,1.7v29.3c0,1.1,0.6,1.7,1.7,1.7h1.4c1.1,0,1.7-0.6,1.7-1.7
			V31.3C574.7,30.2,574.1,29.6,573,29.6z"/>
		<path fill="#00B8E6" d="M405.4,105.8v16.8h-9.7v-16.7c0-1.1-0.6-1.7-1.7-1.7h-2.5v18.4h-9.8V73.9h14.5c6.1,0,9,3,9,9v9.4
			c0,4.2-1.5,6.2-4.2,7.2C404.3,100.4,405.4,102.3,405.4,105.8z M393.8,82.4h-2.4v13.4h2.4c1.1,0,1.7-0.6,1.7-1.7v-10
			C395.6,82.9,395.1,82.4,393.8,82.4z"/>
		<path fill="#00B8E6" d="M425.8,73.9v8.7h-8.3v10.9h8v8.7h-8v11.7h8.5v8.7h-18.1V73.9H425.8z"/>
		<path fill="#00B8E6" d="M434.4,122.6l-6.6-48.7h9.9l3.4,34.5l3.5-34.5h9l-6.5,48.7C447.1,122.6,434.4,122.6,434.4,122.6z"/>
		<path fill="#00B8E6" d="M465.3,122.6h-9.7V73.9h9.7V122.6z"/>
		<path fill="#00B8E6" d="M485.9,73.9v8.7h-8.3v10.9h8v8.7h-8v11.7h8.5v8.7H468V73.9H485.9z"/>
		<path fill="#00B8E6" d="M512.5,73.9l2.7,25.9l2.5-25.9h8.6l-6,48.7h-10.5l-2.6-22.2l-2.5,22.2H494l-5.9-48.7h9.9l2.5,26l2.7-26
			L512.5,73.9L512.5,73.9z"/>
		<path fill="#00B8E6" d="M551.1,105v8.9c0,6.1-3,9-9,9h-5.4c-6.1,0-9-3-9-9v-10.4h9.6v9.5c0,1.1,0.6,1.7,1.7,1.7h0.9
			c1.1,0,1.7-0.6,1.7-1.7v-5.9c0-1.5-0.5-2.4-1.7-3.2l-8.3-6.2c-3-2.1-3.9-4.2-3.9-7.7v-7.7c0-6.1,3-9,9-9h5.3c6.1,0,9,3,9,9v8.9
			h-9.6v-8c0-1.1-0.6-1.7-1.7-1.7h-0.8c-1.1,0-1.7,0.6-1.7,1.7v4.5c0,1.5,0.5,2.4,1.7,3.2l8.3,6.2C550.2,99.5,551.1,101.4,551.1,105
			z"/>
	</g>
	<g>
		<path fill="#FFFFFF" d="M388.5,0c0.7,0,1.4,0.1,1.9,0.2c0.6,0.1,1,0.3,1.5,0.6c0.5,0.2,0.8,0.7,0.9,1.1c0.2,0.5,0.3,1,0.3,1.7
			c0,0.8-0.1,1.4-0.5,1.8c-0.3,0.5-0.8,0.9-1.5,1.2c0.9,0.2,1.6,0.8,2,1.4c0.5,0.7,0.7,1.5,0.7,2.4c0,0.8-0.1,1.4-0.5,1.9
			c-0.2,0.6-0.7,1-1.1,1.4c-0.5,0.3-1,0.6-1.7,0.8c-0.6,0.1-1.2,0.2-1.9,0.2h-7.1V0H388.5L388.5,0z M388.2,5.9c0.6,0,1-0.1,1.4-0.5
			c0.3-0.2,0.6-0.8,0.6-1.4c0-0.3-0.1-0.6-0.2-0.8c-0.1-0.2-0.3-0.3-0.5-0.5c-0.2-0.1-0.5-0.2-0.8-0.2c-0.2,0-0.6-0.1-0.8-0.1h-3
			v3.4L388.2,5.9L388.2,5.9z M388.3,12.1c0.3,0,0.6,0,0.9-0.1s0.6-0.1,0.8-0.3c0.2-0.1,0.3-0.3,0.6-0.6c0.1-0.2,0.2-0.6,0.2-0.9
			c0-0.8-0.2-1.2-0.7-1.6c-0.5-0.3-1-0.5-1.7-0.5h-3.5V12L388.3,12.1L388.3,12.1z"/>
		<path fill="#FFFFFF" d="M398.1,11.9c0.5,0.5,1,0.7,1.9,0.7c0.6,0,1.1-0.1,1.5-0.5c0.5-0.3,0.7-0.6,0.8-0.9h2.6
			c-0.5,1.2-1,2.1-1.9,2.7c-0.8,0.6-1.9,0.8-3,0.8c-0.8,0-1.6-0.1-2.3-0.5c-0.7-0.2-1.2-0.7-1.7-1.1c-0.5-0.5-0.8-1-1-1.7
			c-0.2-0.7-0.3-1.5-0.3-2.3s0.1-1.5,0.3-2.1c0.2-0.7,0.6-1.2,1.1-1.7s1-0.9,1.7-1.1c0.7-0.3,1.4-0.5,2.1-0.5c0.9,0,1.7,0.1,2.4,0.6
			c0.7,0.3,1.2,0.8,1.6,1.4c0.5,0.6,0.8,1.2,0.9,2c0.2,0.8,0.2,1.5,0.2,2.4h-7.5C397.2,10.8,397.5,11.6,398.1,11.9z M401.3,6.5
			c-0.3-0.3-0.9-0.6-1.6-0.6c-0.5,0-0.8,0.1-1.1,0.2c-0.3,0.1-0.6,0.3-0.8,0.6c-0.2,0.2-0.3,0.5-0.3,0.8c-0.1,0.2-0.1,0.5-0.1,0.7
			h4.7C401.8,7.4,401.6,6.9,401.3,6.5z"/>
		<path fill="#FFFFFF" d="M408,0v5.4h0.1c0.3-0.6,0.8-1,1.4-1.4c0.6-0.3,1.1-0.5,1.7-0.5c0.8,0,1.4,0.1,1.9,0.3s0.9,0.6,1.1,0.9
			c0.2,0.3,0.5,0.8,0.6,1.4c0.1,0.6,0.2,1.1,0.2,1.8v6.4h-2.8V8.6c0-0.9-0.1-1.5-0.5-1.9c-0.3-0.5-0.8-0.7-1.5-0.7
			c-0.8,0-1.4,0.2-1.7,0.8C408.2,7.2,408,8,408,9.1v5.5h-2.8V0.1L408,0L408,0z"/>
		<path fill="#FFFFFF" d="M416.4,5.5c0.3-0.5,0.7-0.8,1.1-1c0.5-0.2,1-0.5,1.6-0.6s1.1-0.2,1.7-0.2c0.6,0,1,0,1.6,0.1
			c0.6,0.1,1,0.2,1.5,0.5s0.8,0.6,1.1,0.9c0.3,0.3,0.5,0.9,0.5,1.6v5.5c0,0.5,0,0.9,0.1,1.4c0,0.5,0.2,0.8,0.3,1H423
			c-0.1-0.1-0.1-0.3-0.2-0.5c0-0.1-0.1-0.3-0.1-0.6c-0.5,0.5-1,0.8-1.6,1c-0.6,0.2-1.2,0.3-1.9,0.3c-0.5,0-0.9-0.1-1.4-0.2
			c-0.5-0.1-0.8-0.3-1.1-0.6c-0.3-0.2-0.6-0.6-0.8-1c-0.2-0.3-0.2-0.9-0.2-1.4c0-0.6,0.1-1.1,0.3-1.5c0.2-0.3,0.5-0.7,0.8-0.9
			c0.3-0.2,0.8-0.5,1.1-0.6c0.5-0.1,0.9-0.2,1.2-0.2c0.5-0.1,0.9-0.1,1.2-0.1c0.5,0,0.8-0.1,1.1-0.2c0.3-0.1,0.6-0.2,0.8-0.3
			c0.2-0.1,0.2-0.3,0.2-0.7c0-0.3,0-0.6-0.1-0.8c-0.1-0.2-0.2-0.3-0.5-0.5c-0.1-0.1-0.3-0.1-0.6-0.2c-0.2,0-0.5,0-0.8,0
			c-0.6,0-1,0.1-1.4,0.3c-0.3,0.2-0.6,0.7-0.6,1.2h-2.8C415.9,6.5,416.1,6,416.4,5.5z M422,9.7c-0.2,0.1-0.3,0.1-0.6,0.1
			c-0.2,0-0.5,0.1-0.7,0.1c-0.2,0-0.5,0.1-0.7,0.1s-0.5,0.1-0.7,0.1c-0.2,0.1-0.3,0.1-0.6,0.2c-0.1,0.1-0.2,0.2-0.3,0.5
			s-0.1,0.5-0.1,0.7s0,0.5,0.1,0.7s0.2,0.3,0.3,0.5c0.1,0.1,0.3,0.2,0.6,0.2c0.2,0,0.5,0.1,0.7,0.1c0.6,0,1-0.1,1.4-0.2
			c0.3-0.2,0.6-0.5,0.7-0.7c0.1-0.2,0.2-0.6,0.2-0.8s0-0.5,0-0.7v-1C422.3,9.5,422.1,9.6,422,9.7z"/>
		<path fill="#FFFFFF" d="M429.1,4.1v1.5h0.1c0.3-0.6,0.8-1,1.4-1.4c0.6-0.3,1.1-0.5,1.8-0.5c0.8,0,1.4,0.1,1.9,0.3s0.9,0.5,1.1,0.9
			c0.2,0.5,0.5,0.8,0.6,1.4s0.2,1.1,0.2,1.8v6.4h-2.9v-6c0-0.9-0.1-1.5-0.5-1.9C432.6,6.2,432,6,431.3,6c-0.8,0-1.4,0.3-1.7,0.8
			C429.3,7.3,429,8,429,9.2v5.5h-2.8V4.1H429.1L429.1,4.1z"/>
		<path fill="#FFFFFF" d="M441.8,5.9c-0.5,0-0.8,0.1-1.1,0.3c-0.3,0.2-0.6,0.5-0.8,0.8c-0.2,0.3-0.3,0.7-0.5,1.1
			c-0.1,0.5-0.1,0.8-0.1,1.1s0,0.8,0.1,1.1s0.2,0.8,0.3,1c0.2,0.3,0.5,0.6,0.8,0.8s0.7,0.3,1.1,0.3c0.7,0,1.2-0.2,1.6-0.6
			c0.3-0.3,0.6-0.9,0.7-1.6h2.8c-0.2,1.4-0.8,2.5-1.6,3.2c-0.9,0.8-2,1.1-3.4,1.1c-0.8,0-1.5-0.1-2.1-0.5c-0.7-0.2-1.2-0.7-1.7-1.1
			c-0.5-0.5-0.8-1-1.1-1.7c-0.2-0.7-0.3-1.4-0.3-2.1c0-0.8,0.1-1.6,0.3-2.3c0.2-0.7,0.6-1.2,1-1.8c0.5-0.5,1-0.9,1.7-1.1
			c0.7-0.3,1.5-0.5,2.3-0.5c0.6,0,1.2,0.1,1.8,0.2c0.6,0.1,1.1,0.5,1.6,0.8c0.5,0.3,0.8,0.8,1.1,1.2c0.3,0.5,0.5,1.1,0.5,1.7H444
			C443.7,6.5,443.2,5.9,441.8,5.9z"/>
		<rect x="396.7" y="0.9" fill="#FFFFFF" width="5.9" height="1.5"/>
		<path fill="#FFFFFF" d="M450.8,11.9c0.5,0.5,1.1,0.7,1.9,0.7c0.6,0,1.1-0.1,1.5-0.5c0.5-0.3,0.7-0.6,0.8-0.9h2.6
			c-0.5,1.2-1,2.1-1.9,2.7c-0.8,0.6-1.9,0.8-3,0.8c-0.8,0-1.6-0.1-2.3-0.5c-0.7-0.2-1.2-0.7-1.7-1.1s-0.8-1-1-1.7s-0.3-1.5-0.3-2.3
			s0.1-1.5,0.3-2.1c0.3-0.7,0.7-1.2,1.1-1.7c0.5-0.5,1-0.9,1.7-1.1c0.7-0.3,1.4-0.5,2.1-0.5c0.9,0,1.7,0.1,2.4,0.6
			c0.7,0.3,1.2,0.8,1.6,1.4c0.5,0.6,0.8,1.2,0.9,2c0.2,0.8,0.2,1.5,0.2,2.4h-7.5C450.2,10.8,450.5,11.6,450.8,11.9z M454.2,6.5
			c-0.3-0.3-0.9-0.6-1.6-0.6c-0.5,0-0.8,0.1-1.1,0.2c-0.3,0.1-0.6,0.3-0.8,0.6c-0.2,0.2-0.3,0.5-0.3,0.8c-0.1,0.3-0.1,0.5-0.1,0.7
			h4.7C454.8,7.4,454.5,6.9,454.2,6.5z"/>
	</g>
</g>
</svg>
