<?xml version="1.0" encoding="utf-8"?>
<!-- Generator: Adobe Illustrator 17.1.0, SVG Export Plug-In . SVG Version: 6.00 Build 0)  -->
<!DOCTYPE svg PUBLIC "-//W3C//DTD SVG 1.1//EN" "http://www.w3.org/Graphics/SVG/1.1/DTD/svg11.dtd" [
	<!ENTITY ns_flows "http://ns.adobe.com/Flows/1.0/">
	<!ENTITY ns_extend "http://ns.adobe.com/Extensibility/1.0/">
	<!ENTITY ns_ai "http://ns.adobe.com/AdobeIllustrator/10.0/">
	<!ENTITY ns_graphs "http://ns.adobe.com/Graphs/1.0/">
]>
<svg version="1.1" id="Layer_1" xmlns:x="&ns_extend;" xmlns:i="&ns_ai;" xmlns:graph="&ns_graphs;"
	 xmlns="http://www.w3.org/2000/svg" xmlns:xlink="http://www.w3.org/1999/xlink" xmlns:a="http://ns.adobe.com/AdobeSVGViewerExtensions/3.0/"
	 x="0px" y="0px" viewBox="0 0 60 45.9" style="enable-background:new 0 0 60 45.9;" xml:space="preserve">
<g>
	<g style="enable-background:new    ;">
		<path style="fill:#FFFFFF;" d="M4.2,42.4c0.1-0.3,0.3-0.6,0.5-0.8c0.2-0.2,0.5-0.4,0.7-0.5c0.3-0.1,0.6-0.2,1-0.2
			c0.4,0,0.7,0.1,1,0.2c0.3,0.1,0.5,0.3,0.7,0.5c0.2,0.2,0.4,0.5,0.5,0.8c0.1,0.3,0.2,0.6,0.2,1c0,0.3-0.1,0.7-0.2,1
			c-0.1,0.3-0.3,0.6-0.5,0.8c-0.2,0.2-0.4,0.4-0.7,0.5c-0.3,0.1-0.6,0.2-1,0.2c-0.4,0-0.7-0.1-1-0.2c-0.3-0.1-0.5-0.3-0.7-0.5
			c-0.2-0.2-0.4-0.5-0.5-0.8c-0.1-0.3-0.2-0.6-0.2-1C4.1,43,4.1,42.7,4.2,42.4z M5.2,44c0,0.2,0.1,0.4,0.2,0.5
			c0.1,0.2,0.2,0.3,0.4,0.4C6,45,6.2,45,6.4,45c0.2,0,0.4,0,0.6-0.1c0.2-0.1,0.3-0.2,0.4-0.4c0.1-0.2,0.2-0.3,0.2-0.5
			c0-0.2,0.1-0.4,0.1-0.6c0-0.2,0-0.4-0.1-0.6c0-0.2-0.1-0.4-0.2-0.5C7.3,42.1,7.2,42,7,41.9c-0.2-0.1-0.4-0.1-0.6-0.1
			c-0.2,0-0.4,0-0.6,0.1c-0.2,0.1-0.3,0.2-0.4,0.4c-0.1,0.2-0.2,0.3-0.2,0.5c0,0.2-0.1,0.4-0.1,0.6C5.1,43.6,5.1,43.8,5.2,44z"/>
		<path style="fill:#FFFFFF;" d="M8.8,41.9V41h3.9v0.9h-1.4v3.9h-1v-3.9H8.8z"/>
		<path style="fill:#FFFFFF;" d="M13.3,41.9V41h3.9v0.9h-1.4v3.9h-1.1v-3.9H13.3z"/>
		<path style="fill:#FFFFFF;" d="M19.5,41l1.8,4.8h-1.1l-0.4-1.1H18l-0.4,1.1h-1.1l1.8-4.8L19.5,41L19.5,41z M19.5,43.9l-0.6-1.8h0
			l-0.6,1.8H19.5z"/>
		<path style="fill:#FFFFFF;" d="M25,45.8l-0.8-3.3h0l-0.8,3.3h-1.1L21,41h1.1l0.8,3.3h0l0.8-3.3h1l0.8,3.3h0l0.8-3.3h1L26,45.8H25z
			"/>
		<path style="fill:#FFFFFF;" d="M29.9,41l1.8,4.8h-1.1l-0.4-1.1h-1.8l-0.4,1.1h-1.1l1.8-4.8H29.9z M30,43.9l-0.6-1.8h0l-0.6,1.8H30
			z"/>
		<path style="fill:#FFFFFF;" d="M33.7,42.1c0.1-0.2,0.2-0.4,0.3-0.6c0.1-0.2,0.3-0.3,0.5-0.4c0.2-0.1,0.5-0.1,0.7-0.1
			c0.2,0,0.4,0,0.6,0.1c0.2,0.1,0.4,0.2,0.5,0.3c0.2,0.1,0.3,0.3,0.4,0.5c0.1,0.2,0.1,0.4,0.1,0.6c0,0.2,0,0.4-0.1,0.6
			c-0.1,0.2-0.2,0.3-0.3,0.5c-0.1,0.1-0.3,0.2-0.4,0.4c-0.2,0.1-0.3,0.2-0.5,0.3c-0.2,0.1-0.3,0.2-0.5,0.3c-0.2,0.1-0.3,0.3-0.4,0.4
			H37v0.8h-3.5c0-0.3,0-0.5,0.1-0.7c0.1-0.2,0.2-0.4,0.3-0.5c0.1-0.2,0.3-0.3,0.5-0.4c0.2-0.1,0.4-0.3,0.6-0.4
			c0.1-0.1,0.2-0.1,0.3-0.2c0.1-0.1,0.2-0.2,0.3-0.2c0.1-0.1,0.2-0.2,0.2-0.3c0.1-0.1,0.1-0.2,0.1-0.4c0-0.2-0.1-0.4-0.2-0.5
			c-0.1-0.1-0.3-0.2-0.5-0.2c-0.1,0-0.3,0-0.4,0.1c-0.1,0.1-0.2,0.2-0.2,0.3c-0.1,0.1-0.1,0.2-0.1,0.3c0,0.1,0,0.3,0,0.4h-0.9
			C33.6,42.6,33.7,42.4,33.7,42.1z"/>
		<path style="fill:#FFFFFF;" d="M37.5,42.2c0.1-0.3,0.2-0.6,0.4-0.7c0.2-0.2,0.3-0.3,0.5-0.4c0.2-0.1,0.4-0.1,0.7-0.1
			s0.5,0,0.7,0.1c0.2,0.1,0.4,0.2,0.5,0.4c0.2,0.2,0.3,0.4,0.4,0.7c0.1,0.3,0.1,0.7,0.1,1.2c0,0.5,0,0.9-0.1,1.2
			c-0.1,0.3-0.2,0.6-0.4,0.8c-0.2,0.2-0.3,0.3-0.5,0.4c-0.2,0.1-0.4,0.1-0.7,0.1s-0.5,0-0.7-0.1c-0.2-0.1-0.4-0.2-0.5-0.4
			c-0.2-0.2-0.3-0.4-0.4-0.8s-0.1-0.7-0.1-1.2C37.4,42.9,37.4,42.6,37.5,42.2z M38.3,43.9c0,0.2,0,0.4,0.1,0.5
			c0,0.2,0.1,0.3,0.2,0.5c0.1,0.1,0.2,0.2,0.4,0.2s0.3-0.1,0.5-0.2c0.1-0.1,0.2-0.3,0.2-0.5c0-0.2,0.1-0.4,0.1-0.5
			c0-0.2,0-0.4,0-0.5c0-0.1,0-0.2,0-0.3c0-0.1,0-0.2,0-0.4c0-0.1,0-0.2-0.1-0.4s-0.1-0.2-0.1-0.3c-0.1-0.1-0.1-0.2-0.2-0.2
			c-0.1-0.1-0.2-0.1-0.3-0.1s-0.2,0-0.3,0.1c-0.1,0.1-0.2,0.1-0.2,0.2c-0.1,0.1-0.1,0.2-0.1,0.3c0,0.1-0.1,0.2-0.1,0.4
			c0,0.1,0,0.2,0,0.4c0,0.1,0,0.2,0,0.3C38.3,43.5,38.3,43.7,38.3,43.9z"/>
		<path style="fill:#FFFFFF;" d="M42.4,45.8v-3.1h-1.2V42c0.2,0,0.3,0,0.5,0c0.2,0,0.3-0.1,0.4-0.2c0.1-0.1,0.2-0.2,0.3-0.3
			c0.1-0.1,0.1-0.3,0.2-0.5h0.8v4.7L42.4,45.8L42.4,45.8L42.4,45.8z"/>
		<path style="fill:#FFFFFF;" d="M44,44.7v-0.9l2-2.7h0.9v2.8h0.6v0.8h-0.6v1.1H46v-1.1L44,44.7L44,44.7z M46,42.3l-1.2,1.6H46
			L46,42.3L46,42.3z"/>
	</g>
	<g>
		<path style="fill:#00B9E7;" d="M6.8,25.8H4.3V13.4h3.6c1.5,0,2.3,0.8,2.3,2.3v3.5c0,1.5-0.8,2.3-2.3,2.3H6.8V25.8z M7.3,15.5H6.8
			v3.8h0.5c0.3,0,0.4-0.1,0.4-0.4v-3C7.7,15.6,7.6,15.5,7.3,15.5z"/>
		<path style="fill:#00B9E7;" d="M14.6,25.9h-1.6c-1.5,0-2.3-0.8-2.3-2.3v-8c0-1.5,0.8-2.3,2.3-2.3h1.6c1.5,0,2.3,0.8,2.3,2.3v8
			C16.9,25.1,16.2,25.9,14.6,25.9z M14,15.4h-0.4c-0.3,0-0.4,0.1-0.4,0.4v7.5c0,0.3,0.1,0.4,0.4,0.4H14c0.3,0,0.4-0.1,0.4-0.4v-7.5
			C14.5,15.5,14.3,15.4,14,15.4z"/>
		<path style="fill:#00B9E7;" d="M23.6,21.5v4.3h-2.5v-4.2c0-0.3-0.1-0.4-0.4-0.4h-0.6v4.7h-2.5V13.4h3.7c1.5,0,2.3,0.8,2.3,2.3v2.4
			c0,1.1-0.4,1.6-1.1,1.8C23.3,20.1,23.6,20.6,23.6,21.5z M20.7,15.5h-0.6V19h0.6c0.3,0,0.4-0.1,0.4-0.4V16
			C21.1,15.7,21,15.5,20.7,15.5z"/>
		<path style="fill:#00B9E7;" d="M25.5,25.8V15.6H24v-2.2h5.5v2.2h-1.5v10.2L25.5,25.8L25.5,25.8z"/>
		<path style="fill:#00B9E7;" d="M34.5,13.4v2.2h-2v2.9h1.9v2.2h-1.9v5.1H30V13.4H34.5z"/>
		<path style="fill:#00B9E7;" d="M38.9,25.9h-1.6c-1.5,0-2.3-0.8-2.3-2.3v-8c0-1.5,0.8-2.3,2.3-2.3h1.6c1.5,0,2.3,0.8,2.3,2.3v8
			C41.2,25.1,40.4,25.9,38.9,25.9z M38.2,15.4h-0.4c-0.3,0-0.4,0.1-0.4,0.4v7.5c0,0.3,0.1,0.4,0.4,0.4h0.4c0.3,0,0.4-0.1,0.4-0.4
			v-7.5C38.7,15.5,38.5,15.4,38.2,15.4z"/>
		<path style="fill:#00B9E7;" d="M44.3,13.4v10.2h1.8v2.2h-4.3V13.4H44.3z"/>
		<path style="fill:#00B9E7;" d="M49.1,25.8h-2.5V13.4h2.5V25.8z"/>
		<path style="fill:#00B9E7;" d="M53.5,25.9h-1.6c-1.5,0-2.3-0.8-2.3-2.3v-8c0-1.5,0.8-2.3,2.3-2.3h1.6c1.5,0,2.3,0.8,2.3,2.3v8
			C55.8,25.1,55,25.9,53.5,25.9z M52.9,15.4h-0.4c-0.3,0-0.4,0.1-0.4,0.4v7.5c0,0.3,0.1,0.4,0.4,0.4h0.4c0.3,0,0.4-0.1,0.4-0.4v-7.5
			C53.3,15.5,53.2,15.4,52.9,15.4z"/>
		<path style="fill:#00B9E7;" d="M10.3,34.8V39H7.8v-4.2c0-0.3-0.1-0.4-0.4-0.4H6.8V39H4.3V26.7H8c1.5,0,2.3,0.8,2.3,2.3v2.4
			c0,1.1-0.4,1.6-1.1,1.8C10,33.4,10.3,33.9,10.3,34.8z M7.4,28.8H6.8v3.4h0.6c0.3,0,0.4-0.1,0.4-0.4v-2.5C7.8,29,7.7,28.8,7.4,28.8
			z"/>
		<path style="fill:#00B9E7;" d="M15.5,26.7v2.2h-2.1v2.8h2v2.2h-2v3h2.2V39h-4.6V26.7H15.5z"/>
		<path style="fill:#00B9E7;" d="M17.7,39L16,26.7h2.5l0.9,8.8l0.9-8.8h2.3L20.9,39H17.7z"/>
		<path style="fill:#00B9E7;" d="M25.5,39H23V26.7h2.5V39z"/>
		<path style="fill:#00B9E7;" d="M30.8,26.7v2.2h-2.1v2.8h2v2.2h-2v3h2.2V39h-4.6V26.7H30.8z"/>
		<path style="fill:#00B9E7;" d="M37.5,26.7l0.7,6.6l0.6-6.6h2.2L39.6,39h-2.7l-0.7-5.6L35.6,39h-2.7l-1.5-12.4h2.5l0.6,6.6l0.7-6.6
			L37.5,26.7L37.5,26.7z"/>
		<path style="fill:#00B9E7;" d="M47.4,34.6v2.3c0,1.5-0.8,2.3-2.3,2.3h-1.4c-1.5,0-2.3-0.8-2.3-2.3v-2.6h2.4v2.4
			c0,0.3,0.1,0.4,0.4,0.4h0.2c0.3,0,0.4-0.1,0.4-0.4v-1.5c0-0.4-0.1-0.6-0.4-0.8l-2.1-1.6c-0.8-0.5-1-1.1-1-1.9v-2
			c0-1.5,0.8-2.3,2.3-2.3H45c1.5,0,2.3,0.8,2.3,2.3v2.3h-2.4v-2c0-0.3-0.1-0.4-0.4-0.4h-0.2c-0.3,0-0.4,0.1-0.4,0.4v1.2
			c0,0.4,0.1,0.6,0.4,0.8l2.1,1.6C47.1,33.2,47.4,33.6,47.4,34.6z"/>
	</g>
	<g>
		<path style="fill:#FFFFFF;" d="M6.5,6.6c0.2,0,0.4,0,0.6,0.1c0.2,0,0.3,0.1,0.5,0.2C7.6,6.9,7.7,7,7.8,7.2s0.1,0.3,0.1,0.5
			c0,0.2,0,0.4-0.1,0.6C7.7,8.4,7.5,8.6,7.3,8.7C7.6,8.7,7.8,8.9,8,9.1c0.1,0.2,0.2,0.5,0.2,0.7c0,0.2,0,0.4-0.1,0.6
			c-0.1,0.2-0.2,0.3-0.4,0.4c-0.1,0.1-0.3,0.2-0.5,0.2s-0.4,0.1-0.6,0.1H4.3V6.6L6.5,6.6L6.5,6.6z M6.3,8.4c0.2,0,0.3,0,0.4-0.1
			C6.9,8.2,7,8.1,7,7.9c0-0.1,0-0.2-0.1-0.3c0-0.1-0.1-0.1-0.1-0.1c-0.1,0-0.1-0.1-0.2-0.1c-0.1,0-0.2,0-0.3,0H5.3v1.1H6.3z
			 M6.4,10.4c0.1,0,0.2,0,0.3,0c0.1,0,0.2,0,0.2-0.1s0.1-0.1,0.2-0.2c0-0.1,0.1-0.2,0.1-0.3c0-0.2-0.1-0.4-0.2-0.5
			C6.8,9.2,6.6,9.1,6.4,9.1H5.3v1.2L6.4,10.4L6.4,10.4z"/>
		<path style="fill:#FFFFFF;" d="M9.4,10.3c0.1,0.1,0.3,0.2,0.6,0.2c0.2,0,0.3,0,0.5-0.1c0.1-0.1,0.2-0.2,0.2-0.3h0.8
			c-0.1,0.4-0.3,0.7-0.6,0.9c-0.3,0.2-0.6,0.3-0.9,0.3c-0.3,0-0.5,0-0.7-0.1c-0.2-0.1-0.4-0.2-0.5-0.4c-0.1-0.1-0.2-0.3-0.3-0.5
			C8.4,10,8.3,9.7,8.3,9.5s0-0.5,0.1-0.7c0.1-0.2,0.2-0.4,0.3-0.5C8.9,8.1,9.1,8,9.3,7.9C9.5,7.8,9.8,7.7,10,7.7
			c0.3,0,0.5,0,0.7,0.2C11,8,11.1,8.2,11.3,8.3c0.1,0.2,0.2,0.4,0.3,0.6c0.1,0.2,0.1,0.5,0.1,0.7H9.2C9.2,10,9.3,10.2,9.4,10.3z
			 M10.5,8.6c-0.1-0.1-0.3-0.2-0.5-0.2c-0.1,0-0.3,0-0.4,0.1c-0.1,0-0.2,0.1-0.2,0.2S9.3,8.8,9.3,8.9c0,0.1,0,0.1,0,0.2h1.5
			C10.7,8.9,10.6,8.7,10.5,8.6z"/>
		<path style="fill:#FFFFFF;" d="M12.6,6.6v1.7h0c0.1-0.2,0.3-0.3,0.4-0.4c0.2-0.1,0.4-0.1,0.5-0.1c0.2,0,0.4,0,0.6,0.1
			c0.1,0.1,0.3,0.2,0.4,0.3c0.1,0.1,0.1,0.3,0.2,0.4c0,0.2,0.1,0.4,0.1,0.6v2h-0.9V9.3c0-0.3,0-0.5-0.1-0.6
			c-0.1-0.1-0.2-0.2-0.5-0.2c-0.2,0-0.4,0.1-0.5,0.2c-0.1,0.1-0.2,0.4-0.2,0.7v1.7h-0.9V6.6L12.6,6.6L12.6,6.6z"/>
		<path style="fill:#FFFFFF;" d="M15.2,8.3c0.1-0.1,0.2-0.2,0.4-0.3c0.1-0.1,0.3-0.1,0.5-0.2c0.2,0,0.4-0.1,0.5-0.1
			c0.2,0,0.3,0,0.5,0c0.2,0,0.3,0.1,0.5,0.1c0.1,0.1,0.2,0.2,0.3,0.3c0.1,0.1,0.1,0.3,0.1,0.5v1.7c0,0.1,0,0.3,0,0.4
			c0,0.1,0.1,0.2,0.1,0.3h-0.9c0,0,0-0.1-0.1-0.1c0,0,0-0.1,0-0.2c-0.1,0.1-0.3,0.2-0.5,0.3c-0.2,0.1-0.4,0.1-0.6,0.1
			c-0.1,0-0.3,0-0.4-0.1c-0.1,0-0.2-0.1-0.4-0.2c-0.1-0.1-0.2-0.2-0.2-0.3C15,10.6,15,10.4,15,10.3c0-0.2,0-0.3,0.1-0.5
			s0.1-0.2,0.2-0.3c0.1-0.1,0.2-0.1,0.4-0.2c0.1,0,0.3-0.1,0.4-0.1c0.1,0,0.3,0,0.4,0c0.1,0,0.2,0,0.4-0.1c0.1,0,0.2-0.1,0.2-0.1
			c0.1,0,0.1-0.1,0.1-0.2s0-0.2,0-0.2c0-0.1-0.1-0.1-0.1-0.1c0,0-0.1,0-0.2-0.1c-0.1,0-0.1,0-0.2,0c-0.2,0-0.3,0-0.4,0.1
			C16.1,8.6,16,8.7,16,8.9h-0.9C15.1,8.6,15.1,8.5,15.2,8.3z M17,9.6c-0.1,0-0.1,0-0.2,0c-0.1,0-0.1,0-0.2,0c-0.1,0-0.1,0-0.2,0
			c-0.1,0-0.1,0-0.2,0s-0.1,0-0.2,0.1c0,0-0.1,0.1-0.1,0.1c0,0.1,0,0.1,0,0.2c0,0.1,0,0.1,0,0.2c0,0.1,0.1,0.1,0.1,0.1
			c0,0,0.1,0.1,0.2,0.1c0.1,0,0.1,0,0.2,0c0.2,0,0.3,0,0.4-0.1c0.1-0.1,0.2-0.1,0.2-0.2c0-0.1,0.1-0.2,0.1-0.2s0-0.1,0-0.2V9.6
			C17.1,9.6,17.1,9.6,17,9.6z"/>
		<path style="fill:#FFFFFF;" d="M19.2,7.8v0.5h0c0.1-0.2,0.3-0.3,0.4-0.4c0.2-0.1,0.4-0.1,0.6-0.1c0.2,0,0.4,0,0.6,0.1
			C21,7.9,21.1,8,21.2,8.1c0.1,0.1,0.1,0.3,0.2,0.4c0,0.2,0.1,0.4,0.1,0.6v2h-0.9V9.3c0-0.3,0-0.5-0.1-0.6c-0.1-0.1-0.2-0.2-0.5-0.2
			c-0.2,0-0.4,0.1-0.5,0.2c-0.1,0.1-0.2,0.4-0.2,0.7v1.7h-0.9V7.9L19.2,7.8L19.2,7.8z"/>
		<path style="fill:#FFFFFF;" d="M23.2,8.4c-0.1,0-0.3,0-0.4,0.1c-0.1,0.1-0.2,0.1-0.2,0.2c-0.1,0.1-0.1,0.2-0.1,0.3
			c0,0.1,0,0.2,0,0.4c0,0.1,0,0.2,0,0.4c0,0.1,0.1,0.2,0.1,0.3c0.1,0.1,0.1,0.2,0.2,0.2c0.1,0.1,0.2,0.1,0.4,0.1
			c0.2,0,0.4-0.1,0.5-0.2c0.1-0.1,0.2-0.3,0.2-0.5h0.9c-0.1,0.4-0.2,0.8-0.5,1c-0.3,0.2-0.6,0.3-1.1,0.3c-0.2,0-0.5,0-0.7-0.1
			c-0.2-0.1-0.4-0.2-0.5-0.3c-0.1-0.1-0.3-0.3-0.3-0.5c-0.1-0.2-0.1-0.4-0.1-0.7c0-0.2,0-0.5,0.1-0.7c0.1-0.2,0.2-0.4,0.3-0.6
			c0.1-0.1,0.3-0.3,0.5-0.4c0.2-0.1,0.5-0.1,0.7-0.1c0.2,0,0.4,0,0.6,0.1c0.2,0,0.3,0.1,0.5,0.2c0.1,0.1,0.3,0.2,0.3,0.4
			c0.1,0.1,0.1,0.3,0.1,0.5h-0.9C23.9,8.6,23.6,8.4,23.2,8.4z"/>
		<rect x="9" y="6.9" style="fill:#FFFFFF;" width="1.8" height="0.5"/>
		<path style="fill:#FFFFFF;" d="M26.1,10.3c0.1,0.1,0.3,0.2,0.6,0.2c0.2,0,0.3,0,0.5-0.1c0.1-0.1,0.2-0.2,0.2-0.3h0.8
			c-0.1,0.4-0.3,0.7-0.6,0.9c-0.3,0.2-0.6,0.3-0.9,0.3c-0.3,0-0.5,0-0.7-0.1c-0.2-0.1-0.4-0.2-0.5-0.4c-0.1-0.1-0.3-0.3-0.3-0.5
			C25,10,25,9.7,25,9.5s0-0.5,0.1-0.7c0.1-0.2,0.2-0.4,0.3-0.5C25.6,8.1,25.8,8,26,7.9c0.2-0.1,0.4-0.1,0.7-0.1c0.3,0,0.5,0,0.7,0.2
			c0.2,0.1,0.4,0.2,0.5,0.4C28,8.5,28.1,8.7,28.2,9c0.1,0.2,0.1,0.5,0.1,0.7h-2.4C25.9,10,26,10.2,26.1,10.3z M27.1,8.6
			c-0.1-0.1-0.3-0.2-0.5-0.2c-0.1,0-0.3,0-0.4,0.1S26.1,8.6,26,8.7c-0.1,0.1-0.1,0.1-0.1,0.2s0,0.1,0,0.2h1.5
			C27.3,8.9,27.3,8.7,27.1,8.6z"/>
	</g>
</g>
</svg>
