<?xml version="1.0" encoding="utf-8"?>
<!-- Generator: Adobe Illustrator 17.1.0, SVG Export Plug-In . SVG Version: 6.00 Build 0)  -->
<!DOCTYPE svg PUBLIC "-//W3C//DTD SVG 1.1//EN" "http://www.w3.org/Graphics/SVG/1.1/DTD/svg11.dtd" [
	<!ENTITY ns_flows "http://ns.adobe.com/Flows/1.0/">
	<!ENTITY ns_extend "http://ns.adobe.com/Extensibility/1.0/">
	<!ENTITY ns_ai "http://ns.adobe.com/AdobeIllustrator/10.0/">
	<!ENTITY ns_graphs "http://ns.adobe.com/Graphs/1.0/">
]>
<svg version="1.1" id="Layer_1" xmlns:x="&ns_extend;" xmlns:i="&ns_ai;" xmlns:graph="&ns_graphs;"
	 xmlns="http://www.w3.org/2000/svg" xmlns:xlink="http://www.w3.org/1999/xlink" xmlns:a="http://ns.adobe.com/AdobeSVGViewerExtensions/3.0/"
	 x="0px" y="0px" viewBox="0 0 627.1 593.8" enable-background="new 0 0 627.1 593.8" xml:space="preserve">
<g>
	<g enable-background="new    ">
		<path fill="#FFFFFF" d="M45.4,444c1.1-3.2,2.8-6.1,4.9-8.4c2.1-2.4,4.7-4.3,7.7-5.6c3.1-1.3,6.5-2,10.3-2s7.3,0.7,10.4,2
			c3,1.3,5.6,3.2,7.7,5.6c2.1,2.4,3.7,5.2,4.9,8.4c1.1,3.2,1.7,6.7,1.7,10.4c0,3.6-0.6,7.1-1.7,10.2c-1.1,3.1-2.8,5.9-4.9,8.3
			c-2.1,2.4-4.6,4.2-7.7,5.6c-3,1.3-6.5,2-10.4,2c-3.9,0-7.3-0.7-10.3-2c-3.1-1.3-5.7-3.1-7.7-5.6c-2.1-2.4-3.7-5-4.9-8.3
			c-1.1-3.1-1.7-6.6-1.7-10.2C43.7,450.7,44.3,447.3,45.4,444z M55.5,460.6c0.5,2,1.3,3.8,2.4,5.4c1.1,1.6,2.4,2.9,4.3,3.9
			c1.7,0.9,3.9,1.4,6.3,1.4c2.4,0,4.6-0.5,6.3-1.4c1.7-0.9,3.1-2.3,4.3-3.9c1.1-1.6,1.9-3.4,2.4-5.4c0.5-2,0.8-4,0.8-6.1
			c0-2.2-0.3-4.3-0.8-6.4c-0.5-2.1-1.3-3.9-2.4-5.6c-1.1-1.7-2.4-2.9-4.3-3.9c-1.7-0.9-3.9-1.4-6.3-1.4c-2.4,0-4.6,0.5-6.3,1.4
			c-1.7,0.9-3.1,2.3-4.3,3.9c-1.1,1.7-1.9,3.4-2.4,5.6c-0.5,2-0.8,4.2-0.8,6.4C54.8,456.6,55,458.7,55.5,460.6z"/>
		<path fill="#FFFFFF" d="M93.6,438.4v-9.3h41.1v9.3h-15.1v40.9h-10.9v-40.9H93.6z"/>
		<path fill="#FFFFFF" d="M140.4,438.4v-9.3h41.1v9.3h-15.1v40.9h-11v-40.9H140.4z"/>
		<path fill="#FFFFFF" d="M204.9,429.1l18.8,50.2h-11.4l-3.7-11.1h-18.8l-3.9,11.2h-11.1l19-50.2L204.9,429.1L204.9,429.1z
			 M205.5,459.9l-6.3-18.4h-0.2l-6.5,18.4H205.5z"/>
		<path fill="#FFFFFF" d="M262.2,479.4l-8.5-34.2h-0.2l-8.3,34.2H234l-13.3-50.2h11l8,34.2h0.2l8.7-34.2H259l8.6,34.6h0.2l8.2-34.6
			h10.9l-13.5,50.2H262.2z"/>
		<path fill="#FFFFFF" d="M314.1,429.1l18.8,50.2h-11.4l-3.8-11.2h-18.8l-3.9,11.2h-11.1l19-50.2H314.1z M314.8,459.9l-6.3-18.4
			h-0.2l-6.5,18.4H314.8z"/>
		<path fill="#FFFFFF" d="M353.6,441.2c0.8-2.4,1.9-4.5,3.4-6.3c1.5-1.8,3.4-3.2,5.7-4.3c2.3-1,4.9-1.5,7.8-1.5c2.3,0,4.4,0.3,6.5,1
			c2,0.7,3.9,1.7,5.4,3c1.6,1.3,2.8,2.9,3.7,4.9c0.9,1.9,1.3,4.1,1.3,6.5c0,2.4-0.4,4.6-1.2,6.4c-0.8,1.8-1.9,3.4-3.1,4.7
			c-1.3,1.3-2.8,2.6-4.5,3.8c-1.7,1.1-3.4,2.3-5,3.4c-1.7,1.1-3.4,2.3-5,3.5c-1.6,1.3-3,2.8-4.3,4.5h23.2v8.6h-36.2
			c0-2.9,0.4-5.4,1.3-7.5s1.9-4,3.4-5.7c1.4-1.7,3.1-3.2,5-4.6c1.9-1.4,3.9-2.8,6.1-4.3c1.1-0.8,2.2-1.5,3.4-2.3
			c1.3-0.8,2.4-1.7,3.4-2.5c1-0.9,1.9-2,2.5-3.1c0.7-1.2,1-2.5,1-4c0-2.4-0.7-4.3-2-5.6c-1.3-1.3-3.1-2-5.3-2c-1.4,0-2.7,0.3-3.7,1
			c-1,0.7-1.9,1.6-2.4,2.7c-0.6,1.1-1,2.4-1.3,3.6c-0.3,1.3-0.4,2.7-0.4,4h-9.6C352.6,446.2,352.8,443.6,353.6,441.2z"/>
		<path fill="#FFFFFF" d="M393.1,442.4c0.9-3.3,2.3-5.9,3.9-7.8c1.7-2,3.5-3.4,5.7-4.3c2.2-0.8,4.5-1.3,6.9-1.3s4.8,0.4,7,1.3
			c2.2,0.8,4.1,2.3,5.7,4.3c1.7,2,2.9,4.6,3.9,7.8c0.9,3.3,1.4,7.2,1.4,12c0,5-0.5,9.1-1.4,12.4c-0.9,3.3-2.3,6-3.9,7.9
			c-1.7,2-3.5,3.4-5.7,4.3c-2.2,0.8-4.5,1.3-7,1.3s-4.7-0.4-6.9-1.3c-2.2-0.8-4.1-2.3-5.7-4.3c-1.7-2-2.9-4.6-3.9-7.9
			s-1.4-7.4-1.4-12.4C391.7,449.7,392.1,445.8,393.1,442.4z M401.8,459.6c0.1,2,0.4,3.9,0.9,5.7c0.5,1.9,1.3,3.4,2.4,4.7
			s2.6,2,4.6,2s3.6-0.7,4.7-2c1.1-1.3,1.9-2.9,2.4-4.7c0.5-1.9,0.8-3.8,0.9-5.7c0.1-2,0.2-3.7,0.2-5c0-0.8,0-1.9-0.1-3.1
			c0-1.2-0.2-2.4-0.3-3.7c-0.2-1.3-0.4-2.5-0.7-3.8c-0.3-1.3-0.8-2.4-1.3-3.4c-0.6-0.9-1.3-1.8-2.4-2.4c-0.9-0.6-2-0.9-3.4-0.9
			s-2.4,0.3-3.4,0.9c-0.9,0.6-1.7,1.4-2.3,2.4c-0.6,0.9-1,2.1-1.3,3.4c-0.3,1.3-0.6,2.4-0.7,3.8c-0.2,1.3-0.2,2.4-0.3,3.7
			c0,1.2-0.1,2.2-0.1,3.1C401.6,456,401.7,457.6,401.8,459.6z"/>
		<path fill="#FFFFFF" d="M443.9,479.4v-32h-12.5v-7.6c1.7,0.1,3.4-0.1,5-0.4c1.7-0.3,3.1-0.8,4.4-1.7c1.3-0.8,2.4-1.8,3.3-3.1
			c0.9-1.3,1.5-2.8,1.8-4.7h8v49.2h-10L443.9,479.4L443.9,479.4z"/>
		<path fill="#FFFFFF" d="M460.7,468v-9.1l21.4-28.7h8.9v29.6h6.5v8.2H491v11.4h-9.5v-11.4L460.7,468L460.7,468z M481.4,442.7
			l-12.8,17.1h13v-17.1H481.4z"/>
	</g>
	<g>
		<g>
			<path fill="#00B9E7" d="M56.6,540.3c-0.1-0.5-0.3-0.9-0.5-1.3c-0.2-0.4-0.5-0.7-0.8-1c-0.3-0.3-0.7-0.5-1.1-0.6
				c-0.4-0.2-0.9-0.2-1.5-0.2c-0.8,0-1.6,0.2-2.2,0.5c-0.6,0.3-1.1,0.8-1.5,1.4c-0.4,0.6-0.7,1.3-0.8,1.9c-0.2,0.7-0.3,1.5-0.3,2.2
				s0.1,1.5,0.3,2.2c0.2,0.7,0.5,1.4,0.8,1.9c0.4,0.6,0.9,1,1.5,1.4c0.6,0.3,1.3,0.5,2.2,0.5c0.6,0,1.3-0.1,1.6-0.3
				c0.5-0.2,0.9-0.5,1.3-0.9c0.3-0.4,0.6-0.8,0.8-1.3c0.2-0.5,0.3-1,0.4-1.6h2.8c-0.1,0.9-0.3,1.8-0.6,2.6c-0.3,0.8-0.8,1.4-1.4,2
				c-0.6,0.6-1.3,1-2.1,1.3c-0.8,0.3-1.7,0.5-2.6,0.5c-1.3,0-2.2-0.2-3.2-0.6c-0.9-0.4-1.7-1-2.4-1.8c-0.6-0.7-1.1-1.6-1.5-2.6
				c-0.3-1-0.5-2.1-0.5-3.2c0-1.1,0.2-2.2,0.5-3.2c0.3-1,0.8-1.9,1.5-2.6c0.6-0.7,1.4-1.3,2.4-1.8c0.9-0.4,2-0.7,3.2-0.7
				c0.9,0,1.7,0.1,2.5,0.4c0.8,0.2,1.5,0.6,2.1,1.1c0.6,0.5,1.1,1,1.4,1.7c0.4,0.7,0.6,1.4,0.7,2.4h-2.8L56.6,540.3L56.6,540.3z"/>
			<path fill="#00B9E7" d="M66.4,551.3c-0.9,0-1.7-0.2-2.4-0.5c-0.7-0.3-1.3-0.7-1.8-1.3c-0.5-0.5-0.9-1.3-1.1-1.9
				c-0.3-0.7-0.4-1.5-0.4-2.4s0.1-1.7,0.4-2.4c0.3-0.7,0.6-1.4,1.1-1.9c0.5-0.5,1.1-0.9,1.8-1.3c0.7-0.3,1.5-0.5,2.4-0.5
				s1.7,0.2,2.4,0.5c0.7,0.3,1.3,0.7,1.8,1.3c0.5,0.5,0.9,1.3,1.1,1.9c0.3,0.7,0.4,1.5,0.4,2.4s-0.1,1.7-0.4,2.4
				c-0.3,0.7-0.6,1.4-1.1,1.9c-0.5,0.5-1.1,0.9-1.8,1.3C68.2,551.2,67.3,551.3,66.4,551.3z M66.4,549.3c0.6,0,1-0.1,1.5-0.4
				c0.4-0.2,0.7-0.5,1-0.9c0.3-0.4,0.5-0.8,0.6-1.3c0.1-0.5,0.2-1,0.2-1.5c0-0.5-0.1-1-0.2-1.5c-0.1-0.5-0.3-0.9-0.6-1.3
				c-0.3-0.4-0.6-0.7-1-0.9S67,541,66.4,541c-0.6,0-1,0.1-1.5,0.4c-0.4,0.2-0.7,0.5-1,0.9c-0.3,0.4-0.5,0.8-0.6,1.3
				c-0.1,0.5-0.2,1-0.2,1.5c0,0.5,0.1,1,0.2,1.5c0.1,0.5,0.3,0.9,0.6,1.3c0.3,0.4,0.6,0.7,1,0.9C65.4,549.2,65.9,549.3,66.4,549.3z"
				/>
			<path fill="#00B9E7" d="M73.8,539.5h2.4v1.7l0,0c0.4-0.6,0.9-1.1,1.5-1.5c0.6-0.4,1.3-0.5,2-0.5c1.3,0,2.2,0.3,2.9,1
				c0.7,0.6,1.1,1.6,1.1,2.9v7.8h-2.5v-7.2c0-0.9-0.2-1.5-0.6-1.9c-0.4-0.4-0.9-0.6-1.7-0.6c-0.4,0-0.8,0.1-1.1,0.2
				c-0.3,0.2-0.6,0.4-0.9,0.6c-0.3,0.2-0.4,0.6-0.6,1c-0.1,0.4-0.2,0.8-0.2,1.3v6.7h-2.5L73.8,539.5L73.8,539.5L73.8,539.5z"/>
			<path fill="#00B9E7" d="M86.1,539.5h2.4v1.7l0,0c0.4-0.6,0.9-1.1,1.5-1.5c0.6-0.4,1.3-0.5,2-0.5c1.3,0,2.2,0.3,2.9,1
				c0.7,0.6,1.1,1.6,1.1,2.9v7.8h-2.5v-7.2c0-0.9-0.2-1.5-0.6-1.9c-0.4-0.4-0.9-0.6-1.7-0.6c-0.4,0-0.8,0.1-1.1,0.2
				c-0.3,0.2-0.6,0.4-0.9,0.6c-0.3,0.2-0.4,0.6-0.6,1c-0.1,0.4-0.2,0.8-0.2,1.3v6.7H86L86.1,539.5L86.1,539.5L86.1,539.5z"/>
			<path fill="#00B9E7" d="M100.4,546c0,0.4,0.1,0.9,0.2,1.3c0.1,0.4,0.3,0.8,0.6,1.1c0.2,0.3,0.6,0.6,0.9,0.7
				c0.4,0.2,0.8,0.3,1.4,0.3c0.7,0,1.3-0.2,1.8-0.5c0.4-0.3,0.8-0.8,1-1.4h2.4c-0.1,0.6-0.4,1.3-0.7,1.7c-0.3,0.5-0.7,0.9-1.3,1.3
				c-0.5,0.3-1,0.6-1.5,0.7c-0.6,0.2-1.3,0.3-1.8,0.3c-0.9,0-1.7-0.1-2.4-0.4c-0.7-0.3-1.3-0.7-1.7-1.3c-0.5-0.5-0.8-1.3-1.1-1.9
				c-0.3-0.7-0.4-1.5-0.4-2.4c0-0.8,0.1-1.6,0.4-2.4c0.3-0.7,0.6-1.4,1.1-1.9c0.5-0.6,1.1-1,1.7-1.3c0.7-0.3,1.4-0.5,2.4-0.5
				s1.7,0.2,2.4,0.6c0.7,0.4,1.3,0.9,1.8,1.5c0.5,0.6,0.8,1.3,1,2.1c0.2,0.8,0.3,1.6,0.2,2.5h-8.4V546z M106.2,544.2
				c0-0.4-0.1-0.8-0.3-1.1c-0.1-0.4-0.3-0.7-0.6-1c-0.2-0.3-0.5-0.5-0.9-0.7c-0.3-0.2-0.7-0.3-1.3-0.3c-0.4,0-0.8,0.1-1.3,0.2
				c-0.4,0.2-0.7,0.4-0.9,0.6c-0.3,0.3-0.5,0.6-0.6,1c-0.2,0.4-0.2,0.8-0.3,1.3L106.2,544.2L106.2,544.2z"/>
			<path fill="#00B9E7" d="M117.9,543.5c-0.1-0.7-0.4-1.3-0.8-1.6c-0.5-0.4-1-0.5-1.7-0.5c-0.3,0-0.7,0.1-1,0.2
				c-0.4,0.1-0.7,0.3-1,0.6c-0.3,0.3-0.6,0.7-0.8,1.3c-0.2,0.5-0.3,1.3-0.3,2.1c0,0.5,0.1,0.9,0.2,1.4c0.1,0.5,0.3,0.9,0.5,1.3
				c0.2,0.4,0.6,0.7,0.9,0.9c0.4,0.2,0.8,0.3,1.4,0.3c0.7,0,1.3-0.2,1.8-0.7c0.5-0.5,0.8-1.1,0.9-1.9h2.4c-0.2,1.5-0.8,2.6-1.7,3.4
				c-0.9,0.8-2.1,1.3-3.5,1.3c-0.9,0-1.7-0.2-2.4-0.5c-0.7-0.3-1.3-0.7-1.7-1.3c-0.5-0.5-0.8-1.1-1.1-1.9c-0.2-0.7-0.4-1.5-0.4-2.4
				c0-0.8,0.1-1.6,0.4-2.4c0.2-0.7,0.6-1.4,1.1-1.9c0.5-0.5,1.1-1,1.7-1.3c0.7-0.3,1.5-0.5,2.5-0.5c0.7,0,1.3,0.1,1.9,0.3
				c0.7,0.2,1.1,0.4,1.6,0.8c0.5,0.3,0.8,0.8,1.1,1.3c0.3,0.5,0.5,1.1,0.5,1.8L117.9,543.5v-0.3l0,0V543.5z"/>
			<path fill="#00B9E7" d="M120.8,539.5h1.9v-3.4h2.5v3.4h2.4v1.9h-2.4v6.1c0,0.3,0,0.5,0,0.7c0,0.2,0.1,0.4,0.2,0.5
				c0.2,0.1,0.2,0.2,0.4,0.3c0.2,0.1,0.4,0.1,0.7,0.1c0.2,0,0.4,0,0.5,0c0.1,0,0.4,0,0.5-0.1v1.9c-0.3,0-0.6,0.1-0.8,0.1
				s-0.5,0-0.8,0c-0.7,0-1.3-0.1-1.6-0.2c-0.4-0.1-0.7-0.3-0.9-0.5c-0.2-0.2-0.4-0.5-0.5-0.9c-0.1-0.4-0.1-0.8-0.1-1.3v-6.7H121
				v-1.9L120.8,539.5L120.8,539.5z"/>
			<path fill="#00B9E7" d="M144.2,548.5c0,0.3,0,0.5,0.1,0.7c0.1,0.1,0.2,0.2,0.5,0.2c0.1,0,0.2,0,0.3,0c0.1,0,0.2,0,0.4,0v1.7
				c-0.1,0-0.2,0.1-0.3,0.1c-0.1,0-0.3,0.1-0.4,0.1c-0.1,0-0.3,0.1-0.4,0.1c-0.1,0-0.3,0-0.4,0c-0.5,0-0.9-0.1-1.3-0.3
				c-0.3-0.2-0.6-0.6-0.7-1.1c-0.5,0.5-1.1,0.8-1.8,1.1c-0.7,0.2-1.4,0.3-2.1,0.3c-0.5,0-1-0.1-1.5-0.2c-0.5-0.2-0.9-0.3-1.3-0.6
				c-0.4-0.3-0.6-0.6-0.9-1c-0.2-0.4-0.3-0.9-0.3-1.5c0-0.7,0.1-1.3,0.4-1.7c0.3-0.4,0.6-0.8,1-1c0.4-0.2,0.9-0.4,1.4-0.5
				s1-0.2,1.6-0.3c0.5-0.1,0.9-0.2,1.3-0.2c0.4,0,0.8-0.1,1.1-0.2c0.3-0.1,0.6-0.2,0.7-0.4c0.2-0.2,0.3-0.5,0.3-0.8
				c0-0.3-0.1-0.6-0.2-0.8c-0.2-0.2-0.3-0.4-0.6-0.5c-0.2-0.1-0.5-0.2-0.8-0.2s-0.5-0.1-0.8-0.1c-0.7,0-1.3,0.1-1.7,0.4
				c-0.5,0.3-0.7,0.7-0.8,1.4h-2.5c0-0.7,0.2-1.3,0.5-1.8c0.3-0.5,0.7-0.9,1.3-1.3s1-0.5,1.6-0.6s1.3-0.2,1.8-0.2
				c0.5,0,1.1,0.1,1.6,0.2c0.5,0.1,1,0.3,1.5,0.6c0.4,0.3,0.8,0.6,1,1c0.3,0.4,0.4,0.9,0.4,1.5L144.2,548.5L144.2,548.5L144.2,548.5
				z M141.8,545.3c-0.4,0.2-0.9,0.4-1.4,0.5c-0.6,0.1-1.1,0.1-1.7,0.2c-0.3,0-0.5,0.1-0.8,0.2c-0.2,0.1-0.5,0.2-0.7,0.3
				c-0.2,0.1-0.3,0.3-0.5,0.5c-0.1,0.2-0.2,0.5-0.2,0.8c0,0.3,0.1,0.5,0.2,0.7c0.2,0.2,0.4,0.3,0.6,0.5c0.2,0.1,0.5,0.2,0.7,0.2
				c0.3,0,0.5,0.1,0.7,0.1c0.3,0,0.6,0,0.9-0.1c0.3-0.1,0.6-0.2,0.9-0.4c0.3-0.2,0.5-0.4,0.7-0.7s0.3-0.6,0.3-1v-1.8L141.8,545.3
				L141.8,545.3z"/>
			<path fill="#00B9E7" d="M146.5,539.5h2.4v1.7l0,0c0.4-0.6,0.9-1.1,1.5-1.5s1.3-0.5,2-0.5c1.3,0,2.2,0.3,2.9,1
				c0.7,0.6,1.1,1.6,1.1,2.9v7.8H154v-7.2c0-0.9-0.2-1.5-0.6-1.9s-0.9-0.6-1.7-0.6c-0.4,0-0.8,0.1-1.1,0.2c-0.3,0.2-0.6,0.4-0.9,0.6
				c-0.3,0.2-0.4,0.6-0.6,1c-0.1,0.4-0.2,0.8-0.2,1.3v6.7h-2.5L146.5,539.5L146.5,539.5L146.5,539.5z"/>
			<path fill="#00B9E7" d="M169.4,550.9H167v-1.5l0,0c-0.3,0.7-0.8,1.1-1.5,1.4c-0.6,0.3-1.3,0.4-2,0.4c-0.9,0-1.7-0.2-2.4-0.5
				c-0.7-0.3-1.3-0.7-1.7-1.3c-0.4-0.5-0.8-1.3-1-1.9c-0.2-0.7-0.3-1.5-0.3-2.4c0-1,0.1-1.9,0.4-2.8c0.3-0.7,0.6-1.4,1.1-1.8
				c0.5-0.5,1-0.8,1.6-1.1c0.6-0.3,1.3-0.3,1.8-0.3c0.4,0,0.7,0,1.1,0.1c0.4,0.1,0.7,0.2,1.1,0.3c0.3,0.1,0.6,0.3,0.9,0.6
				c0.3,0.2,0.5,0.5,0.7,0.8l0,0v-5.8h2.5L169.4,550.9L169.4,550.9z M160.8,545.5c0,0.5,0.1,1,0.2,1.4c0.1,0.5,0.3,0.9,0.6,1.3
				c0.3,0.4,0.6,0.7,1,0.9c0.4,0.2,0.9,0.3,1.4,0.3c0.6,0,1-0.1,1.4-0.4c0.4-0.2,0.7-0.5,1-0.9c0.3-0.4,0.4-0.8,0.6-1.3
				c0.1-0.5,0.2-1,0.2-1.5c0-1.3-0.3-2.2-0.8-2.9c-0.6-0.7-1.3-1.1-2.4-1.1c-0.6,0-1.1,0.1-1.5,0.4c-0.4,0.2-0.7,0.6-1,0.9
				c-0.3,0.3-0.4,0.8-0.5,1.3C160.8,544.4,160.8,544.9,160.8,545.5z"/>
			<path fill="#00B9E7" d="M191.6,550.9h-1.8l-0.4-1.8c-0.7,0.8-1.5,1.4-2.2,1.7s-1.6,0.5-2.5,0.5c-1.3,0-2.2-0.2-3.2-0.6
				c-0.9-0.4-1.7-1-2.4-1.8c-0.6-0.7-1.1-1.6-1.5-2.6c-0.3-1-0.5-2.1-0.5-3.2c0-1.1,0.2-2.2,0.5-3.2c0.3-1,0.8-1.9,1.5-2.6
				c0.6-0.7,1.4-1.3,2.4-1.8c0.9-0.4,2-0.7,3.2-0.7c0.9,0,1.7,0.1,2.4,0.3c0.8,0.2,1.5,0.6,2.1,1s1.1,1,1.5,1.7
				c0.4,0.7,0.6,1.5,0.7,2.4h-2.8c-0.1-0.5-0.2-1-0.5-1.4c-0.2-0.4-0.5-0.7-0.9-1c-0.4-0.3-0.8-0.5-1.3-0.6
				c-0.5-0.1-0.9-0.2-1.4-0.2c-0.8,0-1.6,0.2-2.2,0.5c-0.6,0.3-1.1,0.8-1.5,1.4s-0.7,1.3-0.8,1.9c-0.2,0.7-0.3,1.5-0.3,2.2
				s0.1,1.5,0.3,2.2c0.2,0.7,0.5,1.4,0.8,1.9c0.4,0.6,0.9,1,1.5,1.4c0.6,0.3,1.3,0.5,2.2,0.5c0.7,0,1.3-0.1,1.9-0.3
				c0.5-0.2,1-0.5,1.4-0.9s0.7-0.8,0.8-1.4c0.2-0.5,0.3-1.1,0.3-1.8h-4.3v-2.1h6.7L191.6,550.9L191.6,550.9z"/>
			<path fill="#00B9E7" d="M195.8,546c0,0.4,0.1,0.9,0.2,1.3c0.1,0.4,0.3,0.8,0.6,1.1c0.2,0.3,0.6,0.6,0.9,0.7
				c0.4,0.2,0.8,0.3,1.4,0.3c0.7,0,1.3-0.2,1.8-0.5c0.4-0.3,0.8-0.8,1-1.4h2.4c-0.1,0.6-0.4,1.3-0.7,1.7c-0.3,0.5-0.7,0.9-1.3,1.3
				c-0.5,0.3-1,0.6-1.5,0.7c-0.6,0.2-1.3,0.3-1.8,0.3c-0.9,0-1.7-0.1-2.4-0.4c-0.7-0.3-1.3-0.7-1.7-1.3c-0.5-0.5-0.8-1.3-1.1-1.9
				c-0.3-0.7-0.4-1.5-0.4-2.4c0-0.8,0.1-1.6,0.4-2.4c0.3-0.7,0.6-1.4,1.1-1.9c0.5-0.6,1.1-1,1.7-1.3c0.7-0.3,1.4-0.5,2.4-0.5
				c0.9,0,1.7,0.2,2.4,0.6c0.7,0.4,1.3,0.9,1.8,1.5c0.5,0.6,0.8,1.3,1,2.1s0.3,1.6,0.2,2.5h-8.4L195.8,546L195.8,546z M201.7,544.2
				c0-0.4-0.1-0.8-0.3-1.1c-0.1-0.4-0.3-0.7-0.6-1c-0.2-0.3-0.5-0.5-0.9-0.7c-0.3-0.2-0.7-0.3-1.3-0.3c-0.4,0-0.8,0.1-1.3,0.2
				c-0.4,0.2-0.7,0.4-0.9,0.6c-0.3,0.3-0.5,0.6-0.6,1c-0.2,0.4-0.2,0.8-0.3,1.3L201.7,544.2L201.7,544.2L201.7,544.2z"/>
			<path fill="#00B9E7" d="M204.5,539.5h1.9v-3.4h2.5v3.4h2.4v1.9H209v6.1c0,0.3,0,0.5,0,0.7c0,0.2,0.1,0.4,0.2,0.5
				c0.1,0.1,0.2,0.2,0.4,0.3c0.2,0.1,0.4,0.1,0.7,0.1c0.2,0,0.4,0,0.5,0c0.1,0,0.4,0,0.5-0.1v1.9c-0.3,0-0.6,0.1-0.8,0.1
				c-0.3,0-0.5,0-0.8,0c-0.7,0-1.3-0.1-1.6-0.2c-0.4-0.1-0.7-0.3-0.9-0.5c-0.2-0.2-0.4-0.5-0.5-0.9c-0.1-0.4-0.1-0.8-0.1-1.3v-6.7
				h-1.9V539.5L204.5,539.5L204.5,539.5z"/>
			<path fill="#00B9E7" d="M218.7,535.2h10.9v2.4h-8.2v4.1h7.2v2.2h-7.2v7.1h-2.9v-15.7L218.7,535.2L218.7,535.2z"/>
			<path fill="#00B9E7" d="M233,546c0,0.4,0.1,0.9,0.2,1.3c0.1,0.4,0.3,0.8,0.6,1.1c0.2,0.3,0.6,0.6,0.9,0.7
				c0.4,0.2,0.8,0.3,1.4,0.3c0.7,0,1.3-0.2,1.8-0.5c0.4-0.3,0.8-0.8,1-1.4h2.4c-0.1,0.6-0.4,1.3-0.7,1.7c-0.3,0.5-0.7,0.9-1.3,1.3
				c-0.5,0.3-1,0.6-1.5,0.7c-0.6,0.2-1.3,0.3-1.8,0.3c-0.9,0-1.7-0.1-2.4-0.4c-0.7-0.3-1.3-0.7-1.7-1.3c-0.5-0.5-0.8-1.3-1.1-1.9
				c-0.3-0.7-0.4-1.5-0.4-2.4c0-0.8,0.1-1.6,0.4-2.4c0.3-0.7,0.6-1.4,1.1-1.9c0.5-0.6,1.1-1,1.7-1.3c0.7-0.3,1.4-0.5,2.4-0.5
				c0.9,0,1.7,0.2,2.4,0.6c0.7,0.4,1.3,0.9,1.8,1.5c0.5,0.6,0.8,1.3,1,2.1c0.2,0.8,0.3,1.6,0.2,2.5h-8.5L233,546L233,546z
				 M238.8,544.2c0-0.4-0.1-0.8-0.3-1.1c-0.1-0.4-0.3-0.7-0.6-1c-0.2-0.3-0.5-0.5-0.9-0.7c-0.3-0.2-0.7-0.3-1.3-0.3
				c-0.4,0-0.8,0.1-1.3,0.2c-0.4,0.2-0.7,0.4-0.9,0.6c-0.3,0.3-0.5,0.6-0.6,1c-0.2,0.4-0.2,0.8-0.3,1.3L238.8,544.2L238.8,544.2
				L238.8,544.2z"/>
			<path fill="#00B9E7" d="M244.8,546c0,0.4,0.1,0.9,0.2,1.3c0.1,0.4,0.3,0.8,0.6,1.1c0.2,0.3,0.6,0.6,0.9,0.7
				c0.4,0.2,0.8,0.3,1.4,0.3c0.7,0,1.3-0.2,1.8-0.5c0.4-0.3,0.8-0.8,1-1.4h2.4c-0.1,0.6-0.4,1.3-0.7,1.7c-0.3,0.5-0.7,0.9-1.3,1.3
				c-0.5,0.3-1,0.6-1.5,0.7c-0.6,0.2-1.3,0.3-1.8,0.3c-0.9,0-1.7-0.1-2.4-0.4c-0.7-0.3-1.3-0.7-1.7-1.3c-0.5-0.5-0.8-1.3-1.1-1.9
				c-0.3-0.7-0.4-1.5-0.4-2.4c0-0.8,0.1-1.6,0.4-2.4c0.3-0.7,0.6-1.4,1.1-1.9c0.5-0.6,1.1-1,1.7-1.3c0.7-0.3,1.4-0.5,2.4-0.5
				c0.9,0,1.7,0.2,2.4,0.6c0.7,0.4,1.3,0.9,1.8,1.5c0.5,0.6,0.8,1.3,1,2.1c0.2,0.8,0.3,1.6,0.2,2.5h-8.4L244.8,546L244.8,546z
				 M250.7,544.2c0-0.4-0.1-0.8-0.3-1.1c-0.1-0.4-0.3-0.7-0.6-1c-0.2-0.3-0.5-0.5-0.9-0.7c-0.3-0.2-0.7-0.3-1.3-0.3
				c-0.4,0-0.8,0.1-1.3,0.2c-0.4,0.2-0.7,0.4-0.9,0.6c-0.3,0.3-0.5,0.6-0.6,1c-0.2,0.4-0.2,0.8-0.3,1.3L250.7,544.2L250.7,544.2
				L250.7,544.2z"/>
			<path fill="#00B9E7" d="M265.4,550.9H263v-1.5l0,0c-0.3,0.7-0.8,1.1-1.5,1.4c-0.6,0.3-1.3,0.4-2,0.4c-0.9,0-1.7-0.2-2.4-0.5
				c-0.7-0.3-1.3-0.7-1.7-1.3c-0.4-0.5-0.8-1.3-1-1.9c-0.2-0.7-0.3-1.5-0.3-2.4c0-1,0.1-1.9,0.4-2.8c0.3-0.7,0.6-1.4,1.1-1.8
				c0.5-0.5,1-0.8,1.6-1.1c0.6-0.3,1.3-0.3,1.8-0.3c0.4,0,0.7,0,1.1,0.1c0.4,0.1,0.7,0.2,1.1,0.3c0.3,0.1,0.6,0.3,0.9,0.6
				c0.3,0.2,0.5,0.5,0.7,0.8l0,0v-5.8h2.5L265.4,550.9L265.4,550.9z M256.7,545.5c0,0.5,0.1,1,0.2,1.4c0.1,0.5,0.3,0.9,0.6,1.3
				c0.3,0.4,0.6,0.7,1,0.9c0.4,0.2,0.9,0.3,1.4,0.3c0.6,0,1-0.1,1.4-0.4c0.4-0.2,0.7-0.5,1-0.9c0.3-0.4,0.4-0.8,0.6-1.3
				c0.1-0.5,0.2-1,0.2-1.5c0-1.3-0.3-2.2-0.8-2.9c-0.6-0.7-1.3-1.1-2.4-1.1c-0.6,0-1.1,0.1-1.5,0.4c-0.4,0.2-0.7,0.6-1,0.9
				c-0.3,0.3-0.4,0.8-0.5,1.3C256.7,544.4,256.7,544.9,256.7,545.5z"/>
			<path fill="#00B9E7" d="M267.8,535.2h2.5v5.8l0,0c0.2-0.3,0.4-0.5,0.6-0.7c0.2-0.2,0.5-0.4,0.8-0.6c0.3-0.2,0.6-0.3,0.9-0.4
				c0.3-0.1,0.7-0.1,1-0.1c0.9,0,1.7,0.2,2.4,0.5c0.7,0.3,1.3,0.7,1.7,1.3c0.4,0.5,0.8,1.3,1,1.9c0.2,0.7,0.3,1.5,0.3,2.4
				c0,0.8-0.1,1.5-0.3,2.2c-0.2,0.7-0.5,1.4-0.9,1.9c-0.4,0.5-0.9,1-1.5,1.3s-1.3,0.5-2.2,0.5c-0.4,0-0.8,0-1.3-0.1
				s-0.8-0.2-1.1-0.3c-0.3-0.1-0.7-0.3-1-0.6c-0.3-0.3-0.5-0.5-0.7-0.9l0,0v1.6h-2.4L267.8,535.2L267.8,535.2L267.8,535.2z
				 M276.6,545.3c0-0.5-0.1-1-0.2-1.5c-0.1-0.5-0.3-0.9-0.6-1.3c-0.3-0.4-0.6-0.7-1-0.9c-0.4-0.3-0.9-0.3-1.4-0.3
				c-1.1,0-1.9,0.4-2.4,1.1c-0.5,0.7-0.8,1.7-0.8,2.9c0,0.6,0.1,1.1,0.2,1.6s0.3,0.9,0.6,1.3c0.3,0.4,0.6,0.6,1,0.8
				c0.4,0.2,0.8,0.3,1.4,0.3c0.6,0,1.1-0.1,1.5-0.4c0.4-0.2,0.7-0.5,1-0.9c0.3-0.4,0.4-0.8,0.6-1.3
				C276.6,546.2,276.6,545.7,276.6,545.3z"/>
			<path fill="#00B9E7" d="M290.3,548.5c0,0.3,0,0.5,0.1,0.7c0.1,0.1,0.2,0.2,0.5,0.2c0.1,0,0.2,0,0.3,0c0.1,0,0.2,0,0.4,0v1.7
				c-0.1,0-0.2,0.1-0.3,0.1c-0.1,0-0.3,0.1-0.4,0.1s-0.3,0.1-0.4,0.1s-0.3,0-0.4,0c-0.5,0-0.9-0.1-1.3-0.3c-0.3-0.2-0.6-0.6-0.7-1.1
				c-0.5,0.5-1.1,0.8-1.8,1.1c-0.7,0.2-1.4,0.3-2.1,0.3c-0.5,0-1-0.1-1.5-0.2c-0.5-0.1-0.9-0.3-1.3-0.6c-0.4-0.3-0.6-0.6-0.9-1
				c-0.2-0.4-0.3-0.9-0.3-1.5c0-0.7,0.1-1.3,0.4-1.7c0.3-0.4,0.6-0.8,1-1c0.4-0.2,0.9-0.4,1.4-0.5c0.5-0.1,1-0.2,1.6-0.3
				c0.5-0.1,0.9-0.2,1.3-0.2c0.3,0,0.8-0.1,1.1-0.2c0.3-0.2,0.6-0.2,0.7-0.4c0.2-0.2,0.3-0.5,0.3-0.8c0-0.3-0.1-0.6-0.2-0.8
				c-0.2-0.2-0.3-0.4-0.6-0.5c-0.2-0.1-0.5-0.2-0.8-0.2c-0.3,0-0.5-0.1-0.8-0.1c-0.7,0-1.3,0.1-1.7,0.4c-0.5,0.3-0.7,0.7-0.8,1.4
				h-2.5c0-0.7,0.2-1.3,0.5-1.8c0.3-0.5,0.7-0.9,1.3-1.3c0.5-0.3,1-0.5,1.6-0.6s1.3-0.2,1.8-0.2c0.6,0,1.1,0.1,1.6,0.2
				s1,0.3,1.5,0.6c0.4,0.3,0.8,0.6,1,1c0.3,0.4,0.4,0.9,0.4,1.5L290.3,548.5L290.3,548.5z M287.8,545.3c-0.4,0.2-0.9,0.4-1.4,0.5
				c-0.6,0.1-1.1,0.1-1.7,0.2c-0.3,0-0.5,0.1-0.8,0.2c-0.2,0.1-0.5,0.2-0.7,0.3c-0.2,0.1-0.3,0.3-0.5,0.5c-0.1,0.2-0.2,0.5-0.2,0.8
				c0,0.3,0.1,0.5,0.2,0.7c0.2,0.2,0.4,0.3,0.6,0.5c0.2,0.1,0.5,0.2,0.7,0.2c0.3,0,0.5,0.1,0.7,0.1c0.3,0,0.6,0,0.9-0.1
				c0.3-0.1,0.6-0.2,0.9-0.4c0.3-0.2,0.5-0.4,0.7-0.7s0.3-0.6,0.3-1v-1.8L287.8,545.3L287.8,545.3z"/>
			<path fill="#00B9E7" d="M300.3,543.5c-0.1-0.7-0.4-1.3-0.8-1.6c-0.5-0.4-1-0.5-1.7-0.5c-0.3,0-0.7,0.1-1,0.2
				c-0.4,0.1-0.7,0.3-1,0.6c-0.3,0.3-0.6,0.7-0.8,1.3c-0.2,0.5-0.3,1.3-0.3,2.1c0,0.5,0.1,0.9,0.2,1.4c0.1,0.5,0.3,0.9,0.5,1.3
				c0.3,0.3,0.6,0.7,0.9,0.9c0.4,0.2,0.8,0.3,1.4,0.3c0.7,0,1.3-0.2,1.8-0.7c0.5-0.5,0.8-1.1,0.9-1.9h2.5c-0.2,1.5-0.8,2.6-1.7,3.4
				c-0.9,0.8-2.1,1.3-3.5,1.3c-0.9,0-1.7-0.2-2.4-0.5c-0.7-0.3-1.3-0.7-1.7-1.3c-0.5-0.5-0.8-1.1-1.1-1.9c-0.2-0.7-0.4-1.5-0.4-2.4
				c0-0.8,0.1-1.6,0.4-2.4c0.2-0.7,0.6-1.4,1.1-1.9c0.5-0.5,1.1-1,1.7-1.3c0.7-0.3,1.5-0.5,2.5-0.5c0.7,0,1.3,0.1,1.9,0.3
				c0.7,0.2,1.1,0.4,1.6,0.8c0.5,0.3,0.8,0.8,1.1,1.3c0.3,0.5,0.5,1.1,0.5,1.8L300.3,543.5L300.3,543.5L300.3,543.5z"/>
			<path fill="#00B9E7" d="M304.6,535.2h2.5v8.9l4.5-4.6h3.1l-4.4,4.3l4.8,7.2h-3.1l-3.5-5.6L307,547v4.1h-2.5v-15.9H304.6z"/>
			<path fill="#00B9E7" d="M50.9,576.4c-0.9,0-1.7-0.2-2.4-0.5c-0.7-0.3-1.3-0.7-1.8-1.3c-0.5-0.5-0.9-1.3-1.1-1.9
				c-0.3-0.7-0.4-1.5-0.4-2.4c0-0.9,0.1-1.7,0.4-2.4c0.3-0.8,0.6-1.4,1.1-1.9c0.5-0.5,1.1-0.9,1.8-1.3c0.7-0.3,1.5-0.5,2.4-0.5
				s1.7,0.2,2.4,0.5c0.7,0.3,1.3,0.7,1.8,1.3c0.5,0.5,0.9,1.3,1.1,1.9c0.3,0.7,0.4,1.5,0.4,2.4c0,0.9-0.1,1.7-0.4,2.4
				c-0.3,0.7-0.6,1.4-1.1,1.9c-0.5,0.5-1.1,0.9-1.8,1.3C52.7,576.4,51.8,576.4,50.9,576.4z M50.9,574.4c0.6,0,1-0.1,1.5-0.4
				c0.4-0.2,0.7-0.5,1-0.9c0.3-0.4,0.5-0.8,0.6-1.3c0.1-0.5,0.2-1,0.2-1.5c0-0.5-0.1-1-0.2-1.5c-0.2-0.5-0.3-0.9-0.6-1.3
				c-0.3-0.4-0.6-0.7-1-0.9c-0.4-0.2-0.9-0.4-1.5-0.4s-1,0.1-1.5,0.4c-0.4,0.2-0.7,0.5-1,0.9c-0.3,0.4-0.5,0.8-0.6,1.3
				c-0.1,0.5-0.2,1-0.2,1.5c0,0.5,0.1,1,0.2,1.5c0.1,0.5,0.3,0.9,0.6,1.3c0.3,0.4,0.6,0.7,1,0.9C49.8,574.2,50.3,574.4,50.9,574.4z"
				/>
			<path fill="#00B9E7" d="M58.3,564.7h2.4v1.7l0,0c0.4-0.6,0.9-1.1,1.5-1.5c0.6-0.4,1.3-0.5,2-0.5c1.3,0,2.2,0.3,2.9,1
				c0.7,0.6,1.1,1.6,1.1,2.9v7.8h-2.5v-7.2c0-0.9-0.2-1.5-0.6-1.9c-0.4-0.4-0.9-0.6-1.7-0.6c-0.4,0-0.8,0.1-1.1,0.2
				c-0.3,0.2-0.6,0.4-0.9,0.6c-0.3,0.2-0.4,0.6-0.6,1c-0.1,0.4-0.2,0.8-0.2,1.3v6.7h-2.5L58.3,564.7L58.3,564.7L58.3,564.7z"/>
			<path fill="#00B9E7" d="M80.8,570l-5.9-9.5h3.2l4.3,7.1l4.1-7.1h3.1l-6,9.5v6.2h-2.8C80.8,576.2,80.8,570,80.8,570z"/>
			<path fill="#00B9E7" d="M93.5,576.4c-0.9,0-1.7-0.2-2.4-0.5c-0.7-0.3-1.3-0.7-1.8-1.3c-0.5-0.5-0.9-1.3-1.1-1.9
				c-0.3-0.7-0.4-1.5-0.4-2.4c0-0.9,0.1-1.7,0.4-2.4c0.3-0.7,0.6-1.4,1.1-1.9c0.5-0.5,1.1-0.9,1.8-1.3c0.7-0.3,1.5-0.5,2.4-0.5
				s1.7,0.2,2.4,0.5c0.7,0.3,1.3,0.7,1.8,1.3c0.5,0.6,0.9,1.3,1.1,1.9c0.3,0.7,0.4,1.5,0.4,2.4c0,0.9-0.1,1.7-0.4,2.4
				c-0.3,0.7-0.6,1.4-1.1,1.9c-0.5,0.5-1.1,0.9-1.8,1.3C95.2,576.4,94.3,576.4,93.5,576.4z M93.5,574.4c0.6,0,1-0.1,1.5-0.4
				c0.4-0.2,0.7-0.5,1-0.9c0.3-0.4,0.5-0.8,0.6-1.3c0.1-0.5,0.2-1,0.2-1.5c0-0.5-0.1-1-0.2-1.5c-0.1-0.5-0.3-0.9-0.6-1.3
				c-0.3-0.4-0.6-0.7-1-0.9c-0.4-0.2-0.9-0.4-1.5-0.4c-0.6,0-1,0.1-1.5,0.4c-0.4,0.2-0.7,0.5-1,0.9c-0.3,0.4-0.5,0.8-0.6,1.3
				c-0.2,0.5-0.2,1-0.2,1.5c0,0.5,0.1,1,0.2,1.5c0.1,0.5,0.3,0.9,0.6,1.3c0.3,0.4,0.6,0.7,1,0.9C92.3,574.2,92.8,574.4,93.5,574.4z"
				/>
			<path fill="#00B9E7" d="M110.8,576.1h-2.4v-1.6l0,0c-0.3,0.6-0.8,1-1.4,1.4c-0.6,0.3-1.3,0.5-1.9,0.5c-1.5,0-2.6-0.4-3.2-1.1
				c-0.7-0.7-1-1.9-1-3.4v-7.2h2.5v7c0,1,0.2,1.7,0.6,2.1c0.4,0.4,0.9,0.6,1.6,0.6c0.5,0,1-0.1,1.3-0.2c0.4-0.2,0.6-0.4,0.9-0.6
				c0.2-0.3,0.4-0.6,0.5-1s0.1-0.8,0.1-1.3v-6.6h2.5L110.8,576.1L110.8,576.1L110.8,576.1z"/>
			<path fill="#00B9E7" d="M113.1,564.7h2.4v2.2l0,0c0.1-0.3,0.2-0.6,0.4-0.9c0.2-0.3,0.5-0.6,0.8-0.8c0.3-0.2,0.6-0.4,1-0.6
				c0.4-0.1,0.7-0.2,1.1-0.2c0.3,0,0.5,0,0.6,0c0.2,0,0.2,0,0.3,0v2.4c-0.2,0-0.4-0.1-0.5-0.1c-0.2,0-0.4,0-0.5,0
				c-0.4,0-0.8,0.1-1.3,0.3c-0.4,0.2-0.7,0.4-1,0.7c-0.3,0.3-0.5,0.7-0.7,1.3c-0.2,0.6-0.2,1-0.2,1.7v5.4h-2.5V564.7L113.1,564.7z"
				/>
			<path fill="#00B9E7" d="M137.1,565.3c-0.1-0.5-0.3-0.9-0.5-1.3c-0.3-0.3-0.5-0.7-0.8-1c-0.3-0.3-0.7-0.5-1.1-0.6
				c-0.4-0.2-0.9-0.2-1.5-0.2c-0.8,0-1.6,0.2-2.2,0.5c-0.6,0.3-1.1,0.8-1.5,1.4c-0.4,0.6-0.7,1.3-0.8,1.9c-0.2,0.7-0.3,1.5-0.3,2.2
				c0,0.7,0.1,1.5,0.3,2.2s0.5,1.4,0.8,1.9c0.4,0.6,0.9,1,1.5,1.4c0.6,0.3,1.3,0.5,2.2,0.5c0.6,0,1.3-0.1,1.6-0.3
				c0.5-0.2,0.9-0.5,1.3-0.9c0.3-0.4,0.6-0.8,0.8-1.3c0.2-0.5,0.3-1,0.4-1.6h2.8c-0.1,0.9-0.3,1.8-0.6,2.6s-0.8,1.4-1.4,2
				c-0.6,0.6-1.3,1-2.1,1.3c-0.8,0.3-1.7,0.5-2.6,0.5c-1.3,0-2.2-0.2-3.2-0.6c-0.9-0.4-1.7-1-2.4-1.8c-0.6-0.7-1.1-1.6-1.5-2.6
				c-0.3-1-0.5-2.1-0.5-3.2c0-1.1,0.2-2.2,0.5-3.2c0.3-1,0.8-1.9,1.5-2.6c0.6-0.7,1.4-1.3,2.4-1.8c0.9-0.4,2-0.7,3.2-0.7
				c0.9,0,1.7,0.1,2.5,0.4c0.8,0.2,1.5,0.6,2.1,1.1c0.6,0.5,1.1,1,1.4,1.7c0.4,0.7,0.6,1.4,0.7,2.4h-2.8L137.1,565.3L137.1,565.3
				L137.1,565.3z"/>
			<path fill="#00B9E7" d="M141.6,564.7h2.4v2.2l0,0c0.1-0.3,0.2-0.6,0.4-0.9c0.2-0.3,0.5-0.6,0.8-0.8c0.3-0.2,0.6-0.4,1-0.6
				c0.4-0.1,0.7-0.2,1.1-0.2c0.3,0,0.5,0,0.6,0c0.1,0,0.2,0,0.3,0v2.4c-0.2,0-0.4-0.1-0.5-0.1c-0.2,0-0.4,0-0.5,0
				c-0.4,0-0.8,0.1-1.3,0.3c-0.4,0.2-0.7,0.4-1,0.7c-0.3,0.3-0.5,0.7-0.7,1.3s-0.2,1-0.2,1.7v5.4h-2.5V564.7L141.6,564.7z"/>
			<path fill="#00B9E7" d="M150.4,571.1c0,0.4,0.1,0.9,0.2,1.3c0.1,0.4,0.3,0.8,0.6,1.1c0.2,0.3,0.6,0.6,0.9,0.7
				c0.4,0.2,0.8,0.3,1.4,0.3c0.7,0,1.3-0.2,1.8-0.5c0.4-0.3,0.8-0.8,1-1.4h2.4c-0.1,0.6-0.4,1.3-0.7,1.7c-0.3,0.5-0.7,0.9-1.3,1.3
				c-0.5,0.3-1,0.6-1.5,0.7c-0.6,0.2-1.3,0.3-1.8,0.3c-0.9,0-1.7-0.1-2.4-0.4c-0.7-0.3-1.3-0.7-1.7-1.3c-0.5-0.5-0.8-1.3-1.1-1.9
				c-0.3-0.7-0.4-1.5-0.4-2.4c0-0.8,0.1-1.6,0.4-2.4c0.3-0.7,0.6-1.4,1.1-1.9c0.5-0.6,1.1-1,1.7-1.3c0.7-0.3,1.4-0.5,2.4-0.5
				s1.7,0.2,2.4,0.6c0.7,0.4,1.3,0.9,1.8,1.5c0.5,0.6,0.8,1.3,1,2.1c0.2,0.8,0.3,1.6,0.2,2.5h-8.4L150.4,571.1L150.4,571.1z
				 M156.4,569.5c0-0.4-0.1-0.8-0.3-1.1c-0.1-0.4-0.3-0.7-0.6-1c-0.2-0.3-0.5-0.5-0.9-0.7c-0.3-0.2-0.7-0.3-1.3-0.3
				c-0.4,0-0.8,0.1-1.3,0.2c-0.4,0.2-0.7,0.4-0.9,0.6c-0.3,0.3-0.5,0.6-0.6,1c-0.2,0.4-0.2,0.8-0.3,1.3L156.4,569.5L156.4,569.5
				L156.4,569.5z"/>
			<path fill="#00B9E7" d="M170,573.6c0,0.3,0,0.5,0.1,0.7c0.1,0.1,0.2,0.2,0.5,0.2c0.1,0,0.2,0,0.3,0c0.1,0,0.2,0,0.4,0v1.7
				c-0.1,0-0.2,0.1-0.3,0.1s-0.3,0.1-0.4,0.1c-0.1,0-0.3,0.1-0.4,0.1c-0.1,0-0.3,0-0.4,0c-0.5,0-0.9-0.1-1.3-0.3
				c-0.3-0.2-0.6-0.6-0.7-1.1c-0.5,0.5-1.1,0.8-1.8,1.1c-0.7,0.2-1.4,0.3-2.1,0.3c-0.5,0-1-0.1-1.5-0.2s-0.9-0.3-1.3-0.6
				c-0.4-0.3-0.6-0.6-0.9-1c-0.2-0.4-0.3-0.9-0.3-1.5c0-0.7,0.1-1.3,0.4-1.7c0.3-0.4,0.6-0.8,1-1c0.4-0.2,0.9-0.4,1.4-0.5
				s1-0.2,1.6-0.3c0.5-0.1,0.9-0.2,1.3-0.2c0.4,0,0.8-0.1,1.1-0.2c0.3-0.1,0.6-0.2,0.7-0.4c0.2-0.2,0.3-0.5,0.3-0.8
				c0-0.3-0.1-0.6-0.2-0.8c-0.2-0.2-0.3-0.4-0.6-0.5c-0.2-0.1-0.5-0.2-0.8-0.2c-0.3,0-0.5-0.1-0.8-0.1c-0.7,0-1.3,0.1-1.7,0.4
				c-0.5,0.3-0.7,0.7-0.8,1.4h-2.4c0-0.7,0.2-1.3,0.5-1.8c0.3-0.5,0.7-0.9,1.3-1.3c0.5-0.3,1-0.5,1.6-0.6s1.3-0.2,1.8-0.2
				c0.5,0,1.1,0.1,1.6,0.2s1,0.3,1.5,0.6c0.4,0.3,0.8,0.6,1,1c0.3,0.4,0.4,0.9,0.4,1.5V573.6L170,573.6z M167.5,570.4
				c-0.4,0.2-0.9,0.4-1.4,0.5c-0.6,0.1-1.1,0.1-1.7,0.2c-0.3,0-0.5,0.1-0.8,0.2c-0.2,0.1-0.5,0.2-0.7,0.3c-0.2,0.1-0.3,0.3-0.5,0.5
				c-0.1,0.2-0.2,0.5-0.2,0.8c0,0.3,0.1,0.5,0.2,0.7c0.2,0.2,0.4,0.3,0.6,0.5c0.2,0.1,0.5,0.2,0.7,0.2c0.3,0,0.5,0.1,0.7,0.1
				c0.3,0,0.6,0,0.9-0.1c0.3-0.1,0.6-0.2,0.9-0.4c0.3-0.2,0.5-0.4,0.7-0.7c0.2-0.3,0.3-0.6,0.3-1v-1.8L167.5,570.4L167.5,570.4z"/>
			<path fill="#00B9E7" d="M171.1,564.7h1.9v-3.4h2.5v3.4h2.4v1.9h-2.4v6.1c0,0.3,0,0.5,0,0.7c0,0.2,0.1,0.4,0.2,0.5
				c0.1,0.1,0.2,0.2,0.4,0.3c0.2,0.1,0.4,0.1,0.7,0.1c0.2,0,0.4,0,0.5,0c0.1,0,0.4,0,0.5-0.1v1.9c-0.3,0-0.6,0.1-0.8,0.1
				s-0.5,0-0.8,0c-0.7,0-1.3-0.1-1.6-0.2c-0.4-0.1-0.7-0.3-0.9-0.5c-0.2-0.2-0.4-0.5-0.5-0.9c-0.1-0.4-0.1-0.8-0.1-1.3v-6.7h-1.9
				V564.7L171.1,564.7L171.1,564.7z"/>
			<path fill="#00B9E7" d="M179.3,560.4h2.5v2.4h-2.5V560.4z M179.3,564.7h2.5v11.4h-2.5V564.7z"/>
			<path fill="#00B9E7" d="M183,564.7h2.8l2.9,8.7l0,0l2.8-8.7h2.6l-4.1,11.4h-2.9L183,564.7z"/>
			<path fill="#00B9E7" d="M197,571.1c0,0.4,0.1,0.9,0.2,1.3c0.1,0.4,0.3,0.8,0.6,1.1c0.2,0.3,0.6,0.6,0.9,0.7
				c0.4,0.2,0.8,0.3,1.4,0.3c0.7,0,1.3-0.2,1.8-0.5c0.4-0.3,0.8-0.8,1-1.4h2.4c-0.1,0.6-0.4,1.3-0.7,1.7c-0.3,0.5-0.7,0.9-1.3,1.3
				c-0.5,0.3-1,0.6-1.5,0.7c-0.6,0.2-1.3,0.3-1.8,0.3c-0.9,0-1.7-0.1-2.4-0.4c-0.7-0.3-1.3-0.7-1.7-1.3c-0.5-0.5-0.8-1.3-1.1-1.9
				c-0.3-0.7-0.4-1.5-0.4-2.4c0-0.8,0.1-1.6,0.4-2.4c0.3-0.7,0.6-1.4,1.1-1.9c0.5-0.6,1.1-1,1.7-1.3c0.7-0.3,1.4-0.5,2.4-0.5
				c0.9,0,1.7,0.2,2.4,0.6c0.8,0.4,1.3,0.9,1.8,1.5c0.5,0.6,0.8,1.3,1,2.1c0.2,0.8,0.3,1.6,0.2,2.5H197L197,571.1L197,571.1z
				 M202.9,569.5c0-0.4-0.1-0.8-0.3-1.1c-0.1-0.4-0.3-0.7-0.6-1c-0.2-0.3-0.5-0.5-0.9-0.7c-0.3-0.2-0.7-0.3-1.3-0.3
				c-0.4,0-0.8,0.1-1.3,0.2c-0.4,0.2-0.7,0.4-0.9,0.6c-0.3,0.3-0.5,0.6-0.6,1c-0.2,0.4-0.2,0.8-0.3,1.3L202.9,569.5L202.9,569.5
				L202.9,569.5z"/>
			<path fill="#00B9E7" d="M211.5,560.4h2.8l2.8,12l0,0l3.2-12h2.8l3.1,12l0,0l2.9-12h2.8l-4.3,15.7h-2.8l-3.1-12l0,0l-3.2,12h-2.8
				L211.5,560.4z"/>
			<path fill="#00B9E7" d="M237.9,576.4c-0.9,0-1.7-0.2-2.4-0.5c-0.7-0.3-1.3-0.7-1.8-1.3c-0.5-0.5-0.9-1.3-1.1-1.9
				c-0.3-0.7-0.4-1.5-0.4-2.4c0-0.9,0.1-1.7,0.4-2.4c0.3-0.7,0.6-1.4,1.1-1.9c0.5-0.5,1.1-0.9,1.8-1.3c0.7-0.3,1.5-0.5,2.4-0.5
				c0.9,0,1.7,0.2,2.4,0.5c0.7,0.3,1.3,0.7,1.8,1.3s0.9,1.3,1.1,1.9c0.3,0.7,0.4,1.5,0.4,2.4c0,0.9-0.1,1.7-0.4,2.4
				c-0.3,0.7-0.6,1.4-1.1,1.9c-0.5,0.5-1.1,0.9-1.8,1.3C239.7,576.4,238.8,576.4,237.9,576.4z M237.9,574.4c0.6,0,1-0.1,1.5-0.4
				c0.4-0.2,0.7-0.5,1-0.9c0.3-0.4,0.5-0.8,0.6-1.3c0.1-0.5,0.2-1,0.2-1.5c0-0.5-0.1-1-0.2-1.5c-0.2-0.5-0.3-0.9-0.6-1.3
				c-0.3-0.4-0.6-0.7-1-0.9c-0.4-0.2-0.9-0.4-1.5-0.4s-1,0.1-1.5,0.4c-0.4,0.2-0.7,0.5-1,0.9c-0.3,0.4-0.5,0.8-0.6,1.3
				c-0.1,0.5-0.2,1-0.2,1.5c0,0.5,0.1,1,0.2,1.5c0.1,0.5,0.3,0.9,0.6,1.3c0.3,0.4,0.6,0.7,1,0.9
				C236.7,574.2,237.3,574.4,237.9,574.4z"/>
			<path fill="#00B9E7" d="M245.3,564.7h2.4v2.2l0,0c0.1-0.3,0.2-0.6,0.4-0.9c0.2-0.3,0.5-0.6,0.8-0.8c0.3-0.2,0.6-0.4,1-0.6
				c0.4-0.1,0.7-0.2,1.1-0.2c0.3,0,0.5,0,0.6,0c0.1,0,0.2,0,0.3,0v2.4c-0.2,0-0.4-0.1-0.5-0.1c-0.2,0-0.4,0-0.5,0
				c-0.4,0-0.8,0.1-1.3,0.3c-0.4,0.2-0.7,0.4-1,0.7c-0.3,0.3-0.5,0.7-0.7,1.3c-0.2,0.5-0.2,1-0.2,1.7v5.4h-2.5V564.7L245.3,564.7z"
				/>
			<path fill="#00B9E7" d="M252.6,560.4h2.5v8.9l4.5-4.6h3.1l-4.4,4.3l4.8,7.2h-3.1l-3.5-5.6l-1.5,1.5v4.1h-2.5L252.6,560.4
				L252.6,560.4z"/>
		</g>
	</g>
	<rect x="46" y="506.9" fill="#00B9E7" width="17.2" height="1.3"/>
	<rect x="46" y="400.3" fill="#00B9E7" width="17.2" height="1.3"/>
	<g>
		<path fill="#00B9E7" d="M72.1,233.3h-26V104.1H84c16.1,0,24,8,24,24v36.4c0,16.1-8,24-24,24H72.1V233.3z M77.6,126.2H72v40.1h5.6
			c3.1,0,4.6-1.5,4.6-4.6v-30.9C82.2,127.7,80.7,126.2,77.6,126.2z"/>
		<path fill="#00B9E7" d="M154.3,234.4h-16.6c-16.1,0-24-8-24-24v-83.5c0-16.1,8-24,24-24h16.6c16.1,0,24,8,24,24v83.5
			C178.3,226.5,170.4,234.4,154.3,234.4z M147.9,125.1h-3.7c-3.1,0-4.6,1.5-4.6,4.6v77.9c0,3.1,1.5,4.6,4.6,4.6h3.7
			c3.1,0,4.6-1.5,4.6-4.6v-77.9C152.5,126.6,151,125.1,147.9,125.1z"/>
		<path fill="#00B9E7" d="M247.8,188.8v44.5h-25.8v-44.3c0-3.1-1.5-4.6-4.6-4.6h-6.5v49h-25.9V104.1h38.6c16.1,0,24,8,24,24v25
			c0,11-4,16.6-11,19.2C244.5,174.4,247.8,179.4,247.8,188.8z M217.1,126.6h-6.2v35.8h6.2c3.1,0,4.6-1.5,4.6-4.6v-26.5
			C221.8,128.1,220.3,126.6,217.1,126.6z"/>
		<path fill="#00B9E7" d="M267.4,233.3V127.1h-15.7V104h57.3v23.1h-15.7v106.1L267.4,233.3L267.4,233.3z"/>
		<path fill="#00B9E7" d="M361.3,104.1v23.1h-21.2v30.2h20.3v23.1h-20.3v52.7h-25.8V104.1H361.3z"/>
		<path fill="#00B9E7" d="M407.4,234.4h-16.6c-16.1,0-24-8-24-24v-83.5c0-16.1,8-24,24-24h16.6c16.1,0,24,8,24,24v83.5
			C431.2,226.5,423.3,234.4,407.4,234.4z M400.8,125.1h-3.7c-3.1,0-4.6,1.5-4.6,4.6v77.9c0,3.1,1.5,4.6,4.6,4.6h3.7
			c3.1,0,4.6-1.5,4.6-4.6v-77.9C405.4,126.6,403.9,125.1,400.8,125.1z"/>
		<path fill="#00B9E7" d="M463.8,104.1v106.1h18.6v23.1h-44.5V104.1H463.8z"/>
		<path fill="#00B9E7" d="M513.9,233.3H488V104.1h25.8V233.3z"/>
		<path fill="#00B9E7" d="M560.2,234.4h-16.6c-16.1,0-24-8-24-24v-83.5c0-16.1,8-24,24-24h16.6c16.1,0,24,8,24,24v83.5
			C584.2,226.5,576.2,234.4,560.2,234.4z M553.7,125.1H550c-3.1,0-4.6,1.5-4.6,4.6v77.9c0,3.1,1.5,4.6,4.6,4.6h3.7
			c3.1,0,4.6-1.5,4.6-4.6v-77.9C558.4,126.6,556.9,125.1,553.7,125.1z"/>
		<path fill="#00B9E7" d="M108.9,327.4v44.5H83.1v-44.3c0-3.1-1.5-4.6-4.6-4.6H72v49H46V242.7h38.6c16.1,0,24,8,24,24v25
			c0,11-4,16.6-11,19.2C105.6,313,108.9,318.1,108.9,327.4z M78.2,265.2H72v35.8h6.2c3.1,0,4.6-1.5,4.6-4.6v-26.6
			C82.9,266.7,81.4,265.2,78.2,265.2z"/>
		<path fill="#00B9E7" d="M163.1,242.7v23.1h-22v28.9h21.2v23.1h-21.2v31h22.5v23.1h-48.3V242.7H163.1z"/>
		<path fill="#00B9E7" d="M185.8,371.9l-17.4-129.2h26.2l9.1,91.7l9.4-91.7h24l-17.4,129.2H185.8z"/>
		<path fill="#00B9E7" d="M267.9,371.9H242V242.7h25.8V371.9z"/>
		<path fill="#00B9E7" d="M322.7,242.7v23.1h-22.2v28.9h21.2v23.1h-21.2v31H323v23.1h-48.3V242.7H322.7z"/>
		<path fill="#00B9E7" d="M393.5,242.7l7.3,68.7l6.6-68.7h22.9l-15.7,129.2h-28.4l-6.8-58.9l-6.5,58.9h-28.4l-15.7-129.2h26.2
			l6.6,69.2l7.3-69.2L393.5,242.7L393.5,242.7z"/>
		<path fill="#00B9E7" d="M495.9,325.2V349c0,16.1-8,24-24,24h-14.4c-16.1,0-24-8-24-24v-27.6h25.3v25.1c0,3.1,1.5,4.6,4.6,4.6h2.4
			c3.1,0,4.6-1.5,4.6-4.6V331c0-4-1.3-6.1-4.4-8.3L444,306.2c-8-5.7-10.3-11-10.3-20.3v-20.4c0-16.1,8-24,24-24h14
			c16.1,0,24,8,24,24v23.6h-25.3v-21.2c0-3.1-1.5-4.6-4.6-4.6h-2c-3.1,0-4.6,1.5-4.6,4.6V280c0,4,1.3,6.1,4.4,8.3l22.2,16.5
			C493.6,310.7,495.9,315.6,495.9,325.2z"/>
	</g>
	<g>
		<path fill="#FFFFFF" d="M64.1,46.3c1.8,0,3.5,0.2,5,0.5c1.5,0.3,2.8,0.9,3.9,1.6c1.1,0.7,1.9,1.7,2.5,2.9c0.6,1.3,0.9,2.8,0.9,4.5
			c0,1.9-0.4,3.5-1.3,4.8c-0.9,1.3-2.2,2.4-3.9,3.2c2.4,0.7,4.1,1.9,5.4,3.6c1.3,1.7,1.7,3.9,1.7,6.1c0,1.9-0.4,3.6-1.1,5
			c-0.7,1.4-1.8,2.6-3,3.5c-1.3,0.9-2.8,1.6-4.4,2c-1.6,0.4-3.3,0.6-5,0.6H46V46.3L64.1,46.3L64.1,46.3z M63,61.9
			c1.5,0,2.8-0.4,3.7-1.1c1-0.7,1.4-1.9,1.4-3.5c0-0.9-0.2-1.6-0.5-2.2c-0.3-0.6-0.8-1-1.3-1.3c-0.5-0.3-1.3-0.5-1.9-0.7
			C63.8,53.1,63,53,62.3,53h-8v8.9H63z M63.4,78.3c0.8,0,1.6-0.1,2.4-0.2c0.8-0.2,1.4-0.4,2-0.8c0.6-0.4,1-0.9,1.4-1.5
			c0.3-0.6,0.5-1.5,0.5-2.5c0-2-0.6-3.4-1.7-4.3s-2.6-1.3-4.4-1.3h-9.3v10.5L63.4,78.3L63.4,78.3z"/>
		<path fill="#FFFFFF" d="M89.1,78.1c1.1,1.1,2.8,1.7,5,1.7c1.5,0,2.9-0.4,4-1.3c1.1-0.8,1.8-1.6,2-2.5h6.7c-1.1,3.3-2.8,5.7-5,7.2
			c-2.2,1.4-5,2.2-8,2.2c-2.2,0-4.3-0.4-5.9-1.1c-1.8-0.7-3.2-1.7-4.5-3c-1.3-1.3-2.1-2.8-2.8-4.6c-0.7-1.8-1-3.9-1-5.9
			c0-2,0.3-4,1-5.8c0.7-1.8,1.6-3.3,2.9-4.6c1.3-1.3,2.8-2.4,4.5-3.1c1.7-0.8,3.7-1.1,5.8-1.1c2.4,0,4.4,0.4,6.2,1.4
			c1.8,0.9,3.2,2.1,4.3,3.7c1.1,1.5,1.9,3.3,2.4,5.4c0.5,2,0.7,4,0.5,6.2H87.2C87.2,75,88,77,89.1,78.1z M97.9,63.6
			c-0.9-1-2.4-1.5-4.3-1.5c-1.3,0-2.2,0.2-3,0.6s-1.4,0.9-1.9,1.5c-0.5,0.6-0.8,1.3-1,2c-0.2,0.7-0.3,1.3-0.3,1.8h12.5
			C99.4,66,98.9,64.5,97.9,63.6z"/>
		<path fill="#FFFFFF" d="M115.8,46.3v14.5h0.2c1-1.6,2.2-2.8,3.7-3.5s3-1.1,4.4-1.1c2,0,3.7,0.3,5,0.8c1.3,0.6,2.4,1.4,3.1,2.4
			c0.7,1,1.3,2.2,1.6,3.6c0.3,1.4,0.5,3,0.5,4.7v17.1h-7.6V69.1c0-2.4-0.4-4-1.1-5.1c-0.7-1.1-2-1.7-3.9-1.7c-2.1,0-3.6,0.6-4.5,1.9
			c-0.9,1.3-1.4,3.3-1.4,6.1V85h-7.6V46.6L115.8,46.3L115.8,46.3z"/>
		<path fill="#FFFFFF" d="M137.9,61.1c0.8-1.3,1.8-2.1,3-2.8s2.6-1.3,4.1-1.5c1.5-0.3,3-0.5,4.6-0.5c1.4,0,2.8,0.1,4.3,0.3
			c1.4,0.2,2.8,0.6,3.9,1.3c1.3,0.6,2.1,1.4,2.9,2.4c0.8,1,1.1,2.4,1.1,4.1v14.6c0,1.3,0.1,2.4,0.2,3.6c0.1,1.3,0.5,2,0.9,2.6h-7.8
			c-0.2-0.3-0.4-0.9-0.5-1.3c-0.1-0.4-0.2-0.9-0.2-1.4c-1.3,1.3-2.6,2.1-4.3,2.6c-1.6,0.5-3.3,0.8-5,0.8c-1.3,0-2.5-0.2-3.7-0.5
			c-1.1-0.3-2.1-0.8-3-1.5c-0.9-0.7-1.5-1.5-2-2.6c-0.5-1-0.7-2.4-0.7-3.7c0-1.6,0.3-2.9,0.8-3.9c0.6-0.9,1.3-1.8,2.1-2.4
			c0.9-0.6,1.9-1.1,3-1.4c1.1-0.3,2.4-0.6,3.4-0.7c1.1-0.2,2.4-0.3,3.4-0.4c1.1-0.1,2.1-0.3,3-0.5c0.9-0.2,1.5-0.5,2-0.9
			c0.5-0.4,0.7-1,0.7-1.8c0-0.8-0.1-1.5-0.4-2c-0.3-0.5-0.6-0.9-1.1-1.1c-0.4-0.3-1-0.4-1.5-0.5c-0.6-0.1-1.3-0.1-1.9-0.1
			c-1.5,0-2.8,0.3-3.5,1c-0.9,0.7-1.4,1.7-1.5,3.2h-7.6C136.6,63.8,137,62.2,137.9,61.1z M152.9,71.9c-0.5,0.2-1,0.3-1.5,0.4
			c-0.6,0.1-1.1,0.2-1.7,0.3s-1.3,0.2-1.8,0.3c-0.6,0.1-1.1,0.3-1.7,0.4s-1,0.4-1.4,0.7c-0.4,0.3-0.7,0.7-1,1.3
			c-0.2,0.5-0.4,1.1-0.4,1.8s0.1,1.3,0.4,1.7c0.3,0.5,0.6,0.8,1,1.1c0.4,0.3,0.9,0.5,1.5,0.6c0.6,0.1,1.3,0.2,1.8,0.2
			c1.5,0,2.6-0.2,3.5-0.7c0.8-0.5,1.4-1.1,1.8-1.8c0.4-0.7,0.6-1.4,0.7-2.1s0.1-1.3,0.1-1.7v-2.8C153.8,71.5,153.4,71.8,152.9,71.9z
			"/>
		<path fill="#FFFFFF" d="M171.5,57v3.9h0.2c1-1.6,2.2-2.8,3.7-3.5s3.1-1.1,4.7-1.1c2,0,3.7,0.3,5,0.8c1.3,0.6,2.4,1.3,3.1,2.4
			c0.8,1.1,1.3,2.2,1.6,3.6c0.3,1.4,0.5,3,0.5,4.7v17.1h-7.6V69.1c0-2.4-0.4-4-1.1-5.1c-0.7-1.1-2-1.8-3.9-1.8c-2.1,0-3.6,0.8-4.5,2
			c-0.9,1.2-1.4,3.3-1.4,6.1V85h-7.6V57.2L171.5,57L171.5,57z"/>
		<path fill="#FFFFFF" d="M205.6,61.9c-1.3,0-2.2,0.3-3,0.8c-0.8,0.6-1.5,1.3-2,2.1c-0.5,0.9-0.9,1.8-1.1,2.9
			c-0.2,1.1-0.3,2.1-0.3,3.1c0,1,0.1,2,0.3,3.1c0.2,1,0.6,2,1,2.8c0.5,0.8,1.1,1.5,2,2.1c0.8,0.5,1.8,0.8,3,0.8
			c1.8,0,3.2-0.5,4.3-1.5c1-1,1.6-2.4,1.8-4.1h7.4c-0.5,3.7-1.9,6.5-4.3,8.4c-2.4,1.9-5.4,2.9-9.1,2.9c-2.1,0-4-0.4-5.7-1.1
			s-3.2-1.7-4.4-2.9c-1.3-1.3-2.2-2.8-2.9-4.5c-0.7-1.7-1-3.6-1-5.7s0.3-4.1,0.9-6.1c0.6-1.8,1.5-3.4,2.8-4.8
			c1.3-1.3,2.8-2.4,4.5-3.1c1.8-0.8,3.9-1.1,6.1-1.1c1.6,0,3.2,0.2,4.8,0.6c1.5,0.4,2.9,1.1,4.1,2c1.3,0.9,2.2,2,2.9,3.3
			c0.8,1.3,1.3,2.9,1.3,4.6h-7.6C210.8,63.6,208.9,61.9,205.6,61.9z"/>
		<rect x="85.5" y="48.8" fill="#FFFFFF" width="15.6" height="3.9"/>
		<path fill="#FFFFFF" d="M229.8,78.1c1.1,1.1,2.9,1.7,5,1.7c1.5,0,2.9-0.4,4-1.3c1.1-0.8,1.8-1.6,2-2.5h6.7c-1.1,3.3-2.8,5.7-5,7.2
			c-2.2,1.4-5,2.2-8,2.2c-2.2,0-4.3-0.4-5.9-1.1c-1.8-0.7-3.2-1.7-4.5-3c-1.3-1.3-2.2-2.8-2.8-4.6c-0.7-1.8-1-3.9-1-5.9
			c0-2,0.3-4,1-5.8c0.8-1.8,1.7-3.3,2.9-4.6c1.3-1.3,2.8-2.4,4.5-3.1c1.7-0.8,3.7-1.1,5.8-1.1c2.4,0,4.4,0.4,6.1,1.4
			c1.8,0.9,3.2,2.1,4.3,3.7c1.1,1.5,1.9,3.3,2.4,5.4c0.5,2,0.7,4,0.5,6.2h-20.2C227.8,75,228.6,77,229.8,78.1z M238.6,63.6
			c-0.9-1-2.5-1.5-4.3-1.5c-1.3,0-2.2,0.2-3,0.6c-0.8,0.4-1.5,0.9-2,1.5c-0.5,0.6-0.8,1.3-1,2S228,67.5,228,68h12.5
			C240.2,66,239.5,64.5,238.6,63.6z"/>
	</g>
</g>
</svg>
