<?xml version="1.0" encoding="utf-8"?>
<!-- Generator: Adobe Illustrator 17.1.0, SVG Export Plug-In . SVG Version: 6.00 Build 0)  -->
<!DOCTYPE svg PUBLIC "-//W3C//DTD SVG 1.1//EN" "http://www.w3.org/Graphics/SVG/1.1/DTD/svg11.dtd" [
	<!ENTITY ns_flows "http://ns.adobe.com/Flows/1.0/">
	<!ENTITY ns_extend "http://ns.adobe.com/Extensibility/1.0/">
	<!ENTITY ns_ai "http://ns.adobe.com/AdobeIllustrator/10.0/">
	<!ENTITY ns_graphs "http://ns.adobe.com/Graphs/1.0/">
]>
<svg version="1.1" id="Layer_1" xmlns:x="&ns_extend;" xmlns:i="&ns_ai;" xmlns:graph="&ns_graphs;"
	 xmlns="http://www.w3.org/2000/svg" xmlns:xlink="http://www.w3.org/1999/xlink" xmlns:a="http://ns.adobe.com/AdobeSVGViewerExtensions/3.0/"
	 x="0px" y="0px" viewBox="0 0 387.3 311.6" style="enable-background:new 0 0 387.3 311.6;" xml:space="preserve">
<g>
	<g style="enable-background:new    ;">
		<path style="fill:#FFFFFF;" d="M22.1,288.2c0.7-2,1.8-3.9,3.1-5.4c1.3-1.6,3-2.7,4.9-3.6c2-0.9,4.1-1.3,6.6-1.3
			c2.5,0,4.7,0.4,6.7,1.3c1.9,0.9,3.6,2,4.9,3.6c1.3,1.6,2.4,3.3,3.1,5.4c0.7,2,1.1,4.3,1.1,6.7c0,2.3-0.4,4.5-1.1,6.5
			c-0.7,2-1.8,3.8-3.1,5.3c-1.3,1.5-3,2.7-4.9,3.5c-1.9,0.8-4.1,1.3-6.7,1.3c-2.5,0-4.7-0.4-6.6-1.3c-2-0.9-3.7-2-4.9-3.5
			c-1.3-1.5-2.4-3.2-3.1-5.3c-0.7-2-1.1-4.2-1.1-6.5C21,292.5,21.3,290.3,22.1,288.2z M28.5,298.8c0.3,1.3,0.8,2.4,1.5,3.4
			s1.6,1.8,2.7,2.5c1.1,0.6,2.5,0.9,4,0.9c1.6,0,3-0.3,4-0.9c1.1-0.6,2-1.5,2.7-2.5c0.7-1,1.2-2.2,1.5-3.4c0.3-1.3,0.5-2.6,0.5-3.9
			c0-1.4-0.2-2.7-0.5-4.1s-0.8-2.5-1.5-3.5c-0.7-1.1-1.6-1.8-2.7-2.5c-1.1-0.6-2.5-0.9-4-0.9s-3,0.3-4,0.9c-1.1,0.6-2,1.5-2.7,2.5
			c-0.7,1.1-1.2,2.2-1.5,3.5c-0.3,1.3-0.5,2.7-0.5,4.1C28,296.3,28.2,297.6,28.5,298.8z"/>
		<path style="fill:#FFFFFF;" d="M52.9,284.6v-5.9h26.3v5.9h-9.6v26.1h-7v-26.1H52.9z"/>
		<path style="fill:#FFFFFF;" d="M82.7,284.6v-5.9H109v5.9h-9.7v26.1h-7v-26.1H82.7z"/>
		<path style="fill:#FFFFFF;" d="M123.9,278.7l12,32.1h-7.3l-2.4-7.1h-12l-2.5,7.1h-7.1l12.1-32.1L123.9,278.7L123.9,278.7z
			 M124.3,298.4l-4-11.8h-0.1l-4.1,11.8H124.3z"/>
		<path style="fill:#FFFFFF;" d="M160.6,310.8l-5.4-21.9H155l-5.3,21.9h-7.1l-8.5-32.1h7l5.1,21.9h0.1l5.5-21.9h6.6l5.5,22.1h0.1
			l5.3-22.1h6.9l-8.7,32.1H160.6z"/>
		<path style="fill:#FFFFFF;" d="M193.7,278.7l12,32.1h-7.3l-2.4-7.1h-12l-2.5,7.1h-7.1l12.1-32.1H193.7z M194.2,298.4l-4-11.8H190
			l-4.1,11.8H194.2z"/>
		<path style="fill:#FFFFFF;" d="M218.9,286.5c0.5-1.6,1.2-2.9,2.2-4c1-1.1,2.2-2,3.7-2.7c1.5-0.6,3.1-1,5-1c1.5,0,2.8,0.2,4.1,0.6
			c1.3,0.4,2.5,1.1,3.4,1.9c1,0.8,1.8,1.9,2.4,3.1s0.9,2.6,0.9,4.1c0,1.6-0.3,3-0.8,4.1c-0.5,1.1-1.2,2.2-2,3
			c-0.8,0.9-1.8,1.7-2.8,2.4c-1.1,0.7-2.2,1.5-3.2,2.2c-1.1,0.7-2.2,1.5-3.2,2.3c-1,0.8-1.9,1.8-2.7,2.8h14.8v5.5h-23.1
			c0-1.8,0.3-3.4,0.8-4.8c0.5-1.3,1.2-2.5,2.2-3.7c0.9-1.1,2-2,3.2-3c1.2-0.9,2.5-1.8,3.9-2.7c0.7-0.5,1.4-1,2.2-1.5
			c0.8-0.5,1.5-1.1,2.2-1.6c0.6-0.6,1.2-1.3,1.6-2c0.4-0.8,0.6-1.6,0.6-2.5c0-1.6-0.4-2.7-1.3-3.6c-0.9-0.9-2-1.3-3.4-1.3
			c-0.9,0-1.7,0.2-2.4,0.6c-0.6,0.4-1.2,1-1.6,1.7c-0.4,0.7-0.6,1.5-0.8,2.3c-0.2,0.9-0.3,1.7-0.3,2.5h-6.1
			C218.3,289.6,218.5,288,218.9,286.5z"/>
		<path style="fill:#FFFFFF;" d="M244.2,287.2c0.6-2.1,1.5-3.8,2.5-5c1.1-1.3,2.3-2.2,3.7-2.7c1.4-0.5,2.8-0.8,4.4-0.8
			c1.6,0,3.1,0.3,4.5,0.8c1.4,0.5,2.6,1.5,3.7,2.7c1.1,1.3,1.9,3,2.5,5c0.6,2.1,0.9,4.6,0.9,7.7c0,3.2-0.3,5.8-0.9,7.9
			c-0.6,2.1-1.5,3.8-2.5,5.1c-1.1,1.3-2.3,2.2-3.7,2.7c-1.4,0.5-2.9,0.8-4.5,0.8c-1.6,0-3-0.3-4.4-0.8c-1.4-0.5-2.6-1.5-3.7-2.7
			c-1.1-1.3-1.9-3-2.5-5.1s-0.9-4.7-0.9-7.9C243.3,291.9,243.6,289.4,244.2,287.2z M249.8,298.2c0.1,1.3,0.3,2.5,0.6,3.7
			c0.3,1.2,0.8,2.2,1.5,3c0.7,0.8,1.7,1.3,3,1.3s2.3-0.4,3-1.3c0.7-0.8,1.2-1.8,1.6-3c0.3-1.2,0.5-2.4,0.6-3.7
			c0.1-1.3,0.1-2.4,0.1-3.2c0-0.5,0-1.2-0.1-2c0-0.8-0.1-1.6-0.2-2.4c-0.1-0.8-0.3-1.6-0.4-2.4s-0.5-1.5-0.9-2.2
			c-0.4-0.6-0.9-1.1-1.5-1.6c-0.6-0.4-1.3-0.6-2.2-0.6c-0.9,0-1.6,0.2-2.2,0.6c-0.6,0.4-1.1,0.9-1.5,1.6c-0.4,0.6-0.6,1.3-0.9,2.2
			s-0.4,1.6-0.4,2.4c-0.1,0.8-0.1,1.6-0.2,2.4c0,0.8-0.1,1.4-0.1,2C249.6,295.9,249.7,297,249.8,298.2z"/>
		<path style="fill:#FFFFFF;" d="M276.6,310.8v-20.4h-8v-4.8c1.1,0.1,2.2-0.1,3.2-0.3c1.1-0.2,2-0.5,2.8-1.1c0.8-0.5,1.6-1.1,2.1-2
			c0.6-0.8,1-1.8,1.1-3h5.1v31.4h-6.4L276.6,310.8L276.6,310.8z"/>
		<path style="fill:#FFFFFF;" d="M287.4,303.6v-5.8l13.7-18.3h5.7v18.9h4.1v5.3h-4.1v7.3h-6.1v-7.3L287.4,303.6L287.4,303.6z
			 M300.6,287.4l-8.2,10.9h8.3v-10.9H300.6z"/>
	</g>
	<g>
		<path style="fill:#00B9E7;" d="M39.1,177.2H22.5V94.7h24.2C57,94.7,62,99.8,62,110v23.3c0,10.3-5.1,15.3-15.3,15.3h-7.6V177.2z
			 M42.6,108.8H39v25.6h3.5c2,0,3-1,3-3v-19.7C45.5,109.8,44.6,108.8,42.6,108.8z"/>
		<path style="fill:#00B9E7;" d="M91.6,177.9H81c-10.3,0-15.3-5.1-15.3-15.3v-53.3C65.7,99,70.8,94,81,94h10.6
			c10.3,0,15.3,5.1,15.3,15.3v53.3C106.9,172.9,101.9,177.9,91.6,177.9z M87.5,108.1h-2.4c-2,0-3,1-3,3v49.8c0,2,1,3,3,3h2.4
			c2,0,3-1,3-3v-49.8C90.5,109.1,89.5,108.1,87.5,108.1z"/>
		<path style="fill:#00B9E7;" d="M151.3,148.8v28.4h-16.5v-28.3c0-2-1-3-3-3h-4.1v31.3h-16.6V94.7h24.7c10.3,0,15.3,5.1,15.3,15.3
			v16c0,7-2.6,10.6-7,12.3C149.2,139.6,151.3,142.8,151.3,148.8z M131.8,109.1h-4v22.8h4c2,0,3-1,3-3V112
			C134.7,110,133.8,109.1,131.8,109.1z"/>
		<path style="fill:#00B9E7;" d="M163.9,177.2v-67.8h-10.1V94.6h36.6v14.8h-10.1v67.8L163.9,177.2L163.9,177.2z"/>
		<path style="fill:#00B9E7;" d="M223.9,94.7v14.8h-13.5v19.3h13v14.8h-13v33.7h-16.5V94.7H223.9z"/>
		<path style="fill:#00B9E7;" d="M253.3,177.9h-10.6c-10.3,0-15.3-5.1-15.3-15.3v-53.3c0-10.3,5.1-15.3,15.3-15.3h10.6
			c10.3,0,15.3,5.1,15.3,15.3v53.3C268.6,172.9,263.5,177.9,253.3,177.9z M249.1,108.1h-2.4c-2,0-3,1-3,3v49.8c0,2,1,3,3,3h2.4
			c2,0,3-1,3-3v-49.8C252.1,109.1,251.1,108.1,249.1,108.1z"/>
		<path style="fill:#00B9E7;" d="M289.4,94.7v67.8h11.9v14.8h-28.4V94.7H289.4z"/>
		<path style="fill:#00B9E7;" d="M321.4,177.2h-16.5V94.7h16.5V177.2z"/>
		<path style="fill:#00B9E7;" d="M351,177.9h-10.6c-10.3,0-15.3-5.1-15.3-15.3v-53.3c0-10.3,5.1-15.3,15.3-15.3H351
			c10.3,0,15.3,5.1,15.3,15.3v53.3C366.3,172.9,361.2,177.9,351,177.9z M346.8,108.1h-2.4c-2,0-3,1-3,3v49.8c0,2,1,3,3,3h2.4
			c2,0,3-1,3-3v-49.8C349.8,109.1,348.8,108.1,346.8,108.1z"/>
		<path style="fill:#00B9E7;" d="M62.6,237.4v28.4H46.1v-28.3c0-2-1-3-3-3H39v31.3H22.4v-82.6h24.7c10.3,0,15.3,5.1,15.3,15.3v16
			c0,7-2.6,10.6-7,12.3C60.5,228.2,62.6,231.4,62.6,237.4z M43,197.6h-4v22.8h4c2,0,3-1,3-3v-17C46,198.6,45,197.6,43,197.6z"/>
		<path style="fill:#00B9E7;" d="M97.3,183.3V198H83.2v18.5h13.5v14.8H83.2v19.8h14.4v14.8H66.7v-82.7H97.3z"/>
		<path style="fill:#00B9E7;" d="M111.7,265.8l-11.1-82.6h16.8l5.8,58.6l6-58.6h15.3l-11.1,82.6H111.7z"/>
		<path style="fill:#00B9E7;" d="M164.2,265.8h-16.5v-82.6h16.5V265.8z"/>
		<path style="fill:#00B9E7;" d="M199.2,183.3V198H185v18.5h13.5v14.8H185v19.8h14.4v14.8h-30.9v-82.7H199.2z"/>
		<path style="fill:#00B9E7;" d="M244.4,183.3l4.7,43.9l4.2-43.9H268l-10.1,82.6h-18.2l-4.4-37.6l-4.1,37.6h-18.2L203,183.3h16.8
			l4.2,44.2l4.7-44.2L244.4,183.3L244.4,183.3z"/>
		<path style="fill:#00B9E7;" d="M309.9,236v15.2c0,10.3-5.1,15.3-15.3,15.3h-9.2c-10.3,0-15.3-5.1-15.3-15.3v-17.6h16.2v16
			c0,2,1,3,3,3h1.6c2,0,3-1,3-3v-9.9c0-2.6-0.8-3.9-2.8-5.3l-14.2-10.5c-5.1-3.7-6.6-7-6.6-13v-13.1c0-10.3,5.1-15.3,15.3-15.3h9
			c10.3,0,15.3,5.1,15.3,15.3v15.1h-16.2v-13.5c0-2-1-3-3-3h-1.3c-2,0-3,1-3,3v7.7c0,2.6,0.8,3.9,2.8,5.3l14.2,10.5
			C308.4,226.7,309.9,229.9,309.9,236z"/>
	</g>
	<g>
		<path style="fill:#FFFFFF;" d="M34,57.8c1.1,0,2.3,0.1,3.2,0.3c1,0.2,1.8,0.6,2.5,1c0.7,0.4,1.2,1.1,1.6,1.9s0.6,1.8,0.6,2.9
			c0,1.2-0.3,2.3-0.8,3.1c-0.6,0.8-1.4,1.5-2.5,2c1.6,0.4,2.6,1.2,3.4,2.3c0.8,1.1,1.1,2.5,1.1,3.9c0,1.2-0.3,2.3-0.7,3.2
			c-0.4,0.9-1.1,1.7-1.9,2.3c-0.8,0.6-1.8,1-2.8,1.3c-1,0.3-2.1,0.4-3.2,0.4h-12V57.8L34,57.8L34,57.8z M33.3,67.7
			c1,0,1.8-0.3,2.4-0.7c0.6-0.4,0.9-1.2,0.9-2.3c0-0.6-0.1-1-0.3-1.4c-0.2-0.4-0.5-0.6-0.8-0.8c-0.3-0.2-0.8-0.3-1.2-0.4
			c-0.4-0.1-0.9-0.1-1.4-0.1h-5.1v5.7H33.3z M33.6,78.2c0.5,0,1-0.1,1.6-0.1c0.5-0.1,0.9-0.3,1.3-0.5s0.6-0.6,0.9-1
			c0.2-0.4,0.3-1,0.3-1.6c0-1.3-0.4-2.2-1.1-2.7c-0.7-0.5-1.7-0.8-2.8-0.8h-5.9v6.7L33.6,78.2L33.6,78.2z"/>
		<path style="fill:#FFFFFF;" d="M49.9,78.1c0.7,0.7,1.8,1.1,3.2,1.1c1,0,1.9-0.3,2.6-0.8c0.7-0.5,1.1-1,1.3-1.6h4.3
			c-0.7,2.1-1.8,3.7-3.2,4.6c-1.4,0.9-3.2,1.4-5.1,1.4c-1.4,0-2.7-0.3-3.8-0.7c-1.1-0.4-2-1.1-2.9-1.9c-0.8-0.8-1.3-1.8-1.8-3
			c-0.4-1.1-0.6-2.5-0.6-3.8c0-1.3,0.2-2.6,0.6-3.7c0.4-1.1,1-2.1,1.9-3c0.8-0.8,1.8-1.5,2.9-2c1.1-0.5,2.4-0.7,3.7-0.7
			c1.5,0,2.8,0.3,4,0.9c1.1,0.6,2,1.3,2.7,2.4c0.7,1,1.2,2.1,1.6,3.4c0.3,1.3,0.4,2.6,0.3,4H48.8C48.7,76.1,49.3,77.4,49.9,78.1z
			 M55.6,68.8c-0.6-0.6-1.6-1-2.7-1c-0.8,0-1.4,0.1-1.9,0.4c-0.5,0.3-0.9,0.6-1.2,1c-0.3,0.4-0.5,0.8-0.6,1.3
			c-0.1,0.4-0.2,0.8-0.2,1.1h8C56.6,70.4,56.2,69.4,55.6,68.8z"/>
		<path style="fill:#FFFFFF;" d="M67,57.8V67h0.1c0.6-1,1.4-1.8,2.4-2.3c1-0.5,1.9-0.7,2.8-0.7c1.3,0,2.4,0.2,3.2,0.5s1.5,0.9,2,1.6
			c0.4,0.6,0.8,1.4,1,2.3c0.2,0.9,0.3,1.9,0.3,3v10.9H74V72.4c0-1.5-0.3-2.6-0.7-3.3C72.8,68.4,72,68,70.8,68
			c-1.3,0-2.3,0.4-2.9,1.2c-0.6,0.8-0.9,2.1-0.9,3.9v9.4h-4.8V58L67,57.8L67,57.8z"/>
		<path style="fill:#FFFFFF;" d="M81.1,67.2c0.5-0.8,1.1-1.3,1.9-1.8c0.8-0.4,1.7-0.8,2.6-1c1-0.2,1.9-0.3,3-0.3
			c0.9,0,1.8,0.1,2.7,0.2c0.9,0.1,1.8,0.4,2.5,0.8c0.8,0.4,1.3,0.9,1.9,1.6c0.5,0.6,0.7,1.6,0.7,2.6v9.3c0,0.8,0.1,1.6,0.1,2.3
			c0.1,0.8,0.3,1.3,0.6,1.7h-5c-0.1-0.2-0.3-0.6-0.3-0.8c-0.1-0.3-0.1-0.6-0.1-0.9c-0.8,0.8-1.7,1.3-2.7,1.7c-1,0.3-2.1,0.5-3.2,0.5
			c-0.8,0-1.6-0.1-2.4-0.3c-0.7-0.2-1.3-0.5-1.9-1s-1-1-1.3-1.7c-0.3-0.6-0.4-1.5-0.4-2.4c0-1,0.2-1.9,0.5-2.5
			c0.4-0.6,0.8-1.1,1.3-1.6c0.6-0.4,1.2-0.7,1.9-0.9c0.7-0.2,1.5-0.4,2.2-0.4c0.7-0.1,1.5-0.2,2.2-0.3c0.7-0.1,1.3-0.2,1.9-0.3
			c0.6-0.1,1-0.3,1.3-0.6c0.3-0.3,0.4-0.6,0.4-1.1c0-0.5-0.1-1-0.3-1.3s-0.4-0.6-0.7-0.7c-0.3-0.2-0.6-0.3-1-0.3
			c-0.4-0.1-0.8-0.1-1.2-0.1c-1,0-1.8,0.2-2.3,0.6c-0.6,0.4-0.9,1.1-1,2h-4.8C80.3,68.9,80.6,68,81.1,67.2z M90.7,74.1
			c-0.3,0.1-0.6,0.2-1,0.3c-0.4,0.1-0.7,0.1-1.1,0.2s-0.8,0.1-1.1,0.2c-0.4,0.1-0.7,0.2-1.1,0.3s-0.6,0.3-0.9,0.4
			c-0.3,0.2-0.4,0.4-0.6,0.8c-0.1,0.3-0.3,0.7-0.3,1.1c0,0.4,0.1,0.8,0.3,1.1c0.2,0.3,0.4,0.5,0.6,0.7c0.3,0.2,0.6,0.3,1,0.4
			c0.4,0.1,0.8,0.1,1.1,0.1c1,0,1.7-0.1,2.3-0.4c0.5-0.3,0.9-0.7,1.1-1.1c0.3-0.4,0.4-0.9,0.4-1.3c0.1-0.4,0.1-0.8,0.1-1.1v-1.8
			C91.3,73.9,91,74.1,90.7,74.1z"/>
		<path style="fill:#FFFFFF;" d="M102.6,64.6v2.5h0.1c0.6-1,1.4-1.8,2.4-2.3c1-0.5,2-0.7,3-0.7c1.3,0,2.4,0.2,3.2,0.5s1.5,0.8,2,1.5
			c0.5,0.7,0.8,1.4,1,2.3c0.2,0.9,0.3,1.9,0.3,3v10.9h-4.8V72.4c0-1.5-0.3-2.6-0.7-3.3c-0.4-0.7-1.3-1.1-2.5-1.1
			c-1.3,0-2.3,0.5-2.9,1.3c-0.6,0.8-0.9,2.1-0.9,3.9v9.4H98V64.7L102.6,64.6L102.6,64.6z"/>
		<path style="fill:#FFFFFF;" d="M124.4,67.7c-0.8,0-1.4,0.2-1.9,0.5c-0.5,0.4-1,0.8-1.3,1.3c-0.3,0.6-0.6,1.1-0.7,1.9
			c-0.1,0.7-0.2,1.3-0.2,2c0,0.6,0.1,1.3,0.2,2c0.1,0.6,0.4,1.3,0.6,1.8c0.3,0.5,0.7,1,1.3,1.3c0.5,0.3,1.1,0.5,1.9,0.5
			c1.1,0,2-0.3,2.7-1c0.6-0.6,1-1.6,1.1-2.6h4.7c-0.3,2.4-1.2,4.1-2.7,5.4c-1.6,1.2-3.4,1.9-5.8,1.9c-1.3,0-2.6-0.3-3.7-0.7
			c-1.1-0.4-2-1.1-2.8-1.9c-0.8-0.8-1.4-1.8-1.9-2.9c-0.4-1.1-0.6-2.3-0.6-3.7s0.2-2.6,0.6-3.9c0.4-1.1,1-2.2,1.8-3.1
			c0.8-0.8,1.8-1.6,2.9-2c1.1-0.5,2.5-0.7,3.9-0.7c1,0,2,0.1,3.1,0.4c1,0.3,1.9,0.7,2.6,1.3c0.8,0.6,1.4,1.3,1.9,2.1s0.8,1.9,0.8,3
			h-4.8C127.7,68.8,126.5,67.7,124.4,67.7z"/>
		<rect x="47.6" y="59.4" style="fill:#FFFFFF;" width="9.9" height="2.5"/>
		<path style="fill:#FFFFFF;" d="M139.8,78.1c0.7,0.7,1.9,1.1,3.2,1.1c1,0,1.9-0.3,2.6-0.8c0.7-0.5,1.1-1,1.3-1.6h4.3
			c-0.7,2.1-1.8,3.7-3.2,4.6c-1.4,0.9-3.2,1.4-5.1,1.4c-1.4,0-2.7-0.3-3.8-0.7c-1.1-0.4-2-1.1-2.9-1.9c-0.8-0.8-1.4-1.8-1.8-3
			c-0.4-1.1-0.6-2.5-0.6-3.8c0-1.3,0.2-2.6,0.6-3.7c0.5-1.1,1.1-2.1,1.9-3c0.8-0.8,1.8-1.5,2.9-2c1.1-0.5,2.4-0.7,3.7-0.7
			c1.5,0,2.8,0.3,3.9,0.9c1.1,0.6,2,1.3,2.7,2.4c0.7,1,1.2,2.1,1.6,3.4c0.3,1.3,0.4,2.6,0.3,4h-12.9
			C138.6,76.1,139.1,77.4,139.8,78.1z M145.5,68.8c-0.6-0.6-1.6-1-2.7-1c-0.8,0-1.4,0.1-1.9,0.4c-0.5,0.3-1,0.6-1.3,1
			c-0.3,0.4-0.5,0.8-0.6,1.3c-0.1,0.5-0.2,0.8-0.2,1.1h8C146.5,70.4,146.1,69.4,145.5,68.8z"/>
	</g>
</g>
</svg>
