<?xml version="1.0" encoding="utf-8"?>
<!-- Generator: Adobe Illustrator 17.1.0, SVG Export Plug-In . SVG Version: 6.00 Build 0)  -->
<!DOCTYPE svg PUBLIC "-//W3C//DTD SVG 1.1//EN" "http://www.w3.org/Graphics/SVG/1.1/DTD/svg11.dtd" [
	<!ENTITY ns_flows "http://ns.adobe.com/Flows/1.0/">
	<!ENTITY ns_extend "http://ns.adobe.com/Extensibility/1.0/">
	<!ENTITY ns_ai "http://ns.adobe.com/AdobeIllustrator/10.0/">
	<!ENTITY ns_graphs "http://ns.adobe.com/Graphs/1.0/">
]>
<svg version="1.1" id="Layer_1" xmlns:x="&ns_extend;" xmlns:i="&ns_ai;" xmlns:graph="&ns_graphs;"
	 xmlns="http://www.w3.org/2000/svg" xmlns:xlink="http://www.w3.org/1999/xlink" xmlns:a="http://ns.adobe.com/AdobeSVGViewerExtensions/3.0/"
	 x="0px" y="0px" viewBox="0 308.1 612 175.8" enable-background="new 0 308.1 612 175.8" xml:space="preserve">
<metadata><?xpacket begin="﻿" id="W5M0MpCehiHzreSzNTczkc9d"?>
<x:xmpmeta xmlns:x="adobe:ns:meta/" x:xmptk="Adobe XMP Core 5.5-c014 79.151739, 2013/04/03-12:12:15        ">
   <rdf:RDF xmlns:rdf="http://www.w3.org/1999/02/22-rdf-syntax-ns#">
      <rdf:Description rdf:about=""
            xmlns:dc="http://purl.org/dc/elements/1.1/"
            xmlns:xmp="http://ns.adobe.com/xap/1.0/"
            xmlns:xmpGImg="http://ns.adobe.com/xap/1.0/g/img/"
            xmlns:xmpMM="http://ns.adobe.com/xap/1.0/mm/"
            xmlns:stRef="http://ns.adobe.com/xap/1.0/sType/ResourceRef#"
            xmlns:stEvt="http://ns.adobe.com/xap/1.0/sType/ResourceEvent#"
            xmlns:illustrator="http://ns.adobe.com/illustrator/1.0/"
            xmlns:xmpTPg="http://ns.adobe.com/xap/1.0/t/pg/"
            xmlns:stDim="http://ns.adobe.com/xap/1.0/sType/Dimensions#"
            xmlns:xmpG="http://ns.adobe.com/xap/1.0/g/"
            xmlns:pdf="http://ns.adobe.com/pdf/1.3/">
         <dc:format>image/svg+xml</dc:format>
         <dc:title>
            <rdf:Alt>
               <rdf:li xml:lang="x-default">Print</rdf:li>
            </rdf:Alt>
         </dc:title>
         <xmp:MetadataDate>2014-04-07T15:54:22-04:00</xmp:MetadataDate>
         <xmp:ModifyDate>2014-04-07T15:54:22-04:00</xmp:ModifyDate>
         <xmp:CreateDate>2014-04-07T15:54:22-04:00</xmp:CreateDate>
         <xmp:CreatorTool>Adobe Illustrator CC (Macintosh)</xmp:CreatorTool>
         <xmp:Thumbnails>
            <rdf:Alt>
               <rdf:li rdf:parseType="Resource">
                  <xmpGImg:width>256</xmpGImg:width>
                  <xmpGImg:height>80</xmpGImg:height>
                  <xmpGImg:format>JPEG</xmpGImg:format>
                  <xmpGImg:image>/9j/4AAQSkZJRgABAgEASABIAAD/7QAsUGhvdG9zaG9wIDMuMAA4QklNA+0AAAAAABAASAAAAAEA&#xA;AQBIAAAAAQAB/+4ADkFkb2JlAGTAAAAAAf/bAIQABgQEBAUEBgUFBgkGBQYJCwgGBggLDAoKCwoK&#xA;DBAMDAwMDAwQDA4PEA8ODBMTFBQTExwbGxscHx8fHx8fHx8fHwEHBwcNDA0YEBAYGhURFRofHx8f&#xA;Hx8fHx8fHx8fHx8fHx8fHx8fHx8fHx8fHx8fHx8fHx8fHx8fHx8fHx8fHx8f/8AAEQgAUAEAAwER&#xA;AAIRAQMRAf/EAaIAAAAHAQEBAQEAAAAAAAAAAAQFAwIGAQAHCAkKCwEAAgIDAQEBAQEAAAAAAAAA&#xA;AQACAwQFBgcICQoLEAACAQMDAgQCBgcDBAIGAnMBAgMRBAAFIRIxQVEGE2EicYEUMpGhBxWxQiPB&#xA;UtHhMxZi8CRygvElQzRTkqKyY3PCNUQnk6OzNhdUZHTD0uIIJoMJChgZhJRFRqS0VtNVKBry4/PE&#xA;1OT0ZXWFlaW1xdXl9WZ2hpamtsbW5vY3R1dnd4eXp7fH1+f3OEhYaHiImKi4yNjo+Ck5SVlpeYmZ&#xA;qbnJ2en5KjpKWmp6ipqqusra6voRAAICAQIDBQUEBQYECAMDbQEAAhEDBCESMUEFURNhIgZxgZEy&#xA;obHwFMHR4SNCFVJicvEzJDRDghaSUyWiY7LCB3PSNeJEgxdUkwgJChgZJjZFGidkdFU38qOzwygp&#xA;0+PzhJSktMTU5PRldYWVpbXF1eX1RlZmdoaWprbG1ub2R1dnd4eXp7fH1+f3OEhYaHiImKi4yNjo&#xA;+DlJWWl5iZmpucnZ6fkqOkpaanqKmqq6ytrq+v/aAAwDAQACEQMRAD8A9U4q07oilnYKo6sTQfji&#xA;rC/zZ/MCXyR5YXUba3W5vrmdba1SSvpqxVnLvxoSAE6VGKvNPy6/5yH1m81ltP8AM1t9ZiuFY2r6&#xA;fbu04kUVCeknIuGA7CoPXboqypfz9tpvNw8uWvlvUZZ2Yxqr8ILkuE50+rzcOP8AsnG29O2KvHvz&#xA;z1fzVfec5U1m1udNtAkb6dps8iSKkfAKXBiZ4izuGJ4nbp2wq9s/5x7vtdvPy8R9WeWRY7qWPT5J&#xA;qlmtVVONGO7KJC6j5U6DAr0oMpJAIJU0YDsaV3+g4q1JLFEvOV1RenJiAPvOKuimilXlE6yL05KQ&#xA;RX6MVXYq5mCgsxoo3JPQDFVsU0Uq8onWRenJSCK/Riqnc3tnaryuZ44F/mldUHh1YjFV8FxBOnqQ&#xA;SLLGejowYePUYqvxV2KuxVSuLu0tl53M0cC7nlIwQbdd2IxVRg1jSbh+Fve28z7DjHKjHfYbA4qi&#xA;8VdirsVQ1zqmm2rBbq7hgY9FlkRD/wAMRiqrBcW9xGJIJUmjPR42DL0r1GKqmKuxVakkbglGDAEq&#xA;SpBoR1G2KrIru1mkeOGZJJIjSREYMVPgwB2xVUeRI0LyMEQdWY0A+k4q16sfp+rzHp05c6jjTrWu&#xA;KujkjkQPGwdD0ZSCD26jFV2Kvj3859c8wX/n7V7XVJpPQsrl4rK1JPppCu0bKmwq6UYnvXCqeeRd&#xA;UsbzyzrHlbz9cSJ5etBHcWM/qA3Ftcq4jK24PIuAkhZlAbioO2+KvWfIP5KeV/JuonzCb6W+uIY3&#xA;NvNOEjjhR1PJ6D9rhUVJ6V2wK8/8seaLXzR/zkdb6tp8SiyIuIopAoDPHFZyIJW71cjbvxoMKvf9&#xA;U0HQ9WWNdV0611BYiWiW6hjmCE9SvqBqfRgVCeadP9Xyfq1hZj0C1hPFbCGqcG9FgnDhSlDSlMVf&#xA;FWj67q+jajHqOl3clpeRMGWWNiCaGtG/mU9wdjhVfrvmLXNevXvdYvZb25ck8pWJC17Iv2UHsopi&#xA;qjper6ppV2t3pl3NZ3KGqzQO0bbe6kVHtir6o/JH8y7nzlok9vqZU61phVbiRQFE0T14S8RQBqqQ&#xA;1Nu/emBUv/5yYQt+XtuQxULqMJIHRh6Uoofvrir5w8v+aPMHl27N3ot9LZTspRzGfhYEEUZDVWpX&#xA;ao2OFUFe317fXL3V7cSXVzIayTzO0jsfdmJJxVV0rWtX0i6W70u8msrlaUlgdozt2PEio9jir6k/&#xA;JT805fOWmzWOp8V13T1UzOoCrPETQShRsrA7OBt0I60AV6Zir5s/Nz889butVutD8sXLWOm2rtDN&#xA;fwmk07qaPwkG6IG+yV3PWtDTCrxq4ubm5maa5leaZ92kkYux+ZNTiqnirMfI/wCanm3ynexPbXcl&#xA;1pwI9fTJ3LQuncLWvpt4Mv01G2Kvr3Q9Ysta0ez1aybla30KTxE9QHFeLU7r0PvgV89fnT+c2tXO&#xA;tXfl3y/dPZabZO0F3cwErLPKvwyAON1jU/D8PX5YVeLu7u5d2LOxqzE1JJ7knFUXpWsarpF2l5pl&#xA;3LZXSEFZYXKHbsadR7HFU1XzHrfmDzfYahrF5JeXUl3CeUh2UGRfhRRRUX2UUxV9Lfn/ACyR/lfq&#xA;TRuUYyWwJUkGhnWo2wK+V9K1/WtI+sfoy9ms/rcTQXPouU5xt1VqYVZF+T8sqfmXoBR2UvchXIJF&#xA;VKmoNOxxVnH/ADlFPN/ijSYPUb0BY8xFU8OZmccuPStB1xV5GNb1gaUdIF7MNLaT1jZc29EyAU5c&#xA;K0rir27/AJxXkuTN5ij5sbZFtW4VPAOxl3p0qQuKvYPOPn3yx5QtYZ9cujCbglbeFFaSSQrTlxVe&#xA;y13J2wK+cfzq/Mbyr5zu7NtH0+RJ7TksmpzBUeWMjaPgKnirbgsfowqwzTvOGtadptxZWcgia5Ea&#xA;PeVdp1jiJZI42ZisahjWqKG98VW3fm7zdqNqlhd6xfXdvuq28lxLIp57ceJY18KYq9m/5x//ACu8&#xA;w6drQ80azbGygWB47G3mHGdnkopcod0XhyHxbmvhgV79irmUMCrCqnYg9CMVfM353fln5W8meXdH&#xA;OjxSfWZriRLi6mkLvIOAYAjZBTtxUYVT38nvyS8pax5Ttdf8wRSXs1/6jRWoleKKONJGjX+6KOWP&#xA;Hl9r6MCpx+Yn5EeRLfylqeo6Lavpt9p1tLdownlkRxAhkZHEzSfaVSARTfFWGf8AOL31j/GWqca/&#xA;V/0c3qeHP14uH4csKvffNvlHR/NWlDS9WV2s/VSZkjbgS0daAtQmm/bAr5w/PryD5d8pappX6Cga&#xA;2tr2CT1IDI8o5xMByBkLN8Qfxwq9R/L38kPIS+VtLvtU0/8ASOo3ltFczyzSScQ0qCTgqKypxXlT&#xA;cb4Fd57/ACI8hzeXr+60q0Ol6jawSTwyxSSGNjGpfjIkjMvE0pUUI/DFXl3/ADjcZx+Y/wC6rwNl&#xA;P69OnCqUr7c+OFX0x5ku5bPy9ql5CaS21pPNGRsQ0cTMPxGBXyf+Tv5f2vnXzQ9pfyvHp1nCbm69&#xA;PZ5PiVVjDfs8i1SfAYVfRtt+TP5Y28QiTQIGA/akaSRj/snZjgVUb8oPy0IIPl61odtgwP3hsVeJ&#xA;fnx+VmheVI7DVtCVrezvJGt57NnaRUkC81aNnLNQgNUE4Veq/kRdyL+UunyP8Ytzd8R34rPI1K/T&#xA;gV84eRPKN95282Q6Sk3pm4Lz3l2Ry4Rr8TvSoqSTQe5wq+jdN/5x5/LK0gWO5sp9QkA3mnuJUYn5&#xA;QNCv4YFX3n/OPv5XXEZSLTZbRiCBJDczlh7/AL15V/DFXlN9+QPnXS/OUR0e0bUNDt7mCWG+ea2j&#xA;cxgq7ckaRWqhqNl3pUYVfQ/mjyxpXmbSH0nVVd7GSSOSWONuBb0nDhSw3AJG9N/fAr5w/wCchfKf&#xA;l7y7rulJotkljFcWrGWKKvEtG/ENQk70O574VeyeSvyx8lR6L5Z1eLTUi1W0tba5W9jLJI8rxBna&#xA;Sho/IsftD5YFeWfn/wCcfKOsasunaVarqOsW6i1m1MM7RxKHLelAqtxdyzUZiDToN+hVPvyj/IWC&#xA;KFNc842olnkAa00iUVRFI+3cKereCHp332AV7HpHljy9o1xcz6Tp1vp8l4Ixc/Vo1iV/S5cKolFq&#xA;PUbemKvl/wDP7zTb695+lhtSWttIiFgGrVWlR2aVgO3xNw/2OFXm2KuxV9L/APON/lTSU8pfp+ex&#xA;jfU7i6lFveyIGkWKMKgEbEfCOYatOuBXsuKuxV2KvEf+cpf+OBof/MXL/wAm8Vef+UPz88z+WPLt&#xA;podtY2dzb2YcRSzCXmQ7s9DxdRsWp0wqqeaP+chPNnmDQbzRpLO0tIb5PSmmgEvqemT8ajk7D4h8&#xA;J26YqyH/AJxq8zeU9OuLzSLlmg1/VJFEEsgHpSJGDwhRh9l6sx3+1t3xV9E4FfOn/OU0rHWdBi24&#xA;pbTMD3qzqD/xHCqUaL+f35j6bpFlp8GmWVxBaQRwQzS29wzskahVLFJkUniOoGKofzP+fX5h6tol&#xA;1pV3Z2lhb3yGGWeCGeOTg321VpJXX4lqDt0xVk//ADjDe+V4rjUrRnZfMtyKoHACG1joSsTfzcjy&#xA;ceAFOhwK9s84/wDKIa5/2z7r/ky2KvCP+cWv+O/rn/MJF/ycwq+jsCuxV4z/AM5Rf8ojpP8A20B/&#xA;yZkxVN/yN/8AJPW//R7/AMnXxV5T/wA41f8AkxJP+2fP/wATjwq+pcCuxV2KuxV84/8AOUv/AB39&#xA;D/5hJf8Ak5hVINR/OPzxr3ly28saLZG1tobeG1nezEktzKsaCOnJfsq9NwFr2r4qsf8AKWqap5E1&#xA;uLWNR8t/WJI6eh9fjnhMbV+1ETReXgWVqdsVfSv5dfm35c87I0FsGstWiXnLp8xBYr3aJxQSKO+w&#xA;I7jArOMVfHXmj8q/zB0HV5TLpdxqEayl4r+3hN1FL8VQ7hQ9OXdXGFUN5w1Fry0iOteWzo3mFqOt&#xA;9DE9pHdRg8W9S1YKnKu/qR032I7hViOKvqz8s/zJ/Lyy8n6Ho8mtWttewWkSTxScoVWUrVwXdVSv&#xA;Impr1wK9NhmhniSaGRZYpAGjkQhlZT0II2IxVfirsVeI/wDOUv8AxwND/wCYuX/k3irL/wAh5rOT&#xA;8rtHFsVrH66XCrSol9dyeVO5BB+RGKs+dFdSrgMrbFSKgjFXyr+f2kaToH5gQS6GEs5ZreK7mhtw&#xA;EEVwJHAdQtApYIrbd9++FX015a1N9V8u6Vqjji9/Z29yyjYAzRK5/wCJYFeBf85S/wDHf0P/AJhJ&#xA;f+TmFXt/5e/8oD5a/wC2VY/9QyYFT50V1KOAyMCGUioIPUEYq+VtAFmP+chY10NUis11WZYliFEE&#xA;ahxKEAIHEgNSm1PbCr6R85Ov+E9bSo5nTrsha70ELb0+nAr55/5xq13T9P8AON5Y3cqwtqVt6dqz&#xA;mgaWNwwjqe7LWnywq+n8CuxV4f8A85R6nYjQ9H0z1VN810bn0AasIljZORHYFmoPHfwxVkX5FqW/&#xA;KC2VRVj9cAA6k+q+KvGf+cftZsNM/Ma3+uSCFL2CW0ikYgL6rlWQEn+YpxHucKvrTArsVSLXvPXl&#xA;DQLpLTWdVgsrmRBIkMrHkUJIDUAO1QcVTqGaKeFJomDxSqHjcdCrCoP3Yq+dP+cpf+O/of8AzCS/&#xA;8nMKva/y3t4IfIHlwQxrEH0yzkcIoXk726FmNOpJ6nAqf3Fvb3MDwXESTQSArJFIoZGU9QymoIxV&#xA;8mecra38j/nM/wCgj6EVld29xFEDQIJkSR4f9QiQrT+U0wq+t8CuxV8ifnl5pv8AW/P+oW0zEWek&#xA;SNZ2cHZeBAkb5u4r8qDthV59irsVe6f84u3mrSarq9obmRtKgt1f6oWJjWeSQUdVPQlVatOuKvoj&#xA;ArC/zlu5rT8tNcuIJmgmSOL05kYoysZ4wOLChB3xV8qeZPPPmrzNBZwa5qD3sdgGFsHVARzpyZio&#xA;Uu3wgVauFVPy55y80eWpXk0PUprEyUMiIQ0bkdC0bhkb6RirIrj88vzUniMb684U9THBbRt9DJEr&#xA;D78VYc8mpatqIaV5b3ULyQLzdmklkkchVBLEliTtir6g/NL6/wCWPyXt7W0u5La906LTrWO4gdkf&#xA;lAY1PFlIP7FcCvmrzF5q8w+Y7iC41u9e+mt4hBC8gUEICTT4QtTU7k7nCrLfy287+bJfNHlfQpdW&#xA;uP0PDfW8aWfMqnEyCiNShZfBWJGKvpr8wNYudG8k61qdqeNzbWkjQMP2ZCOKt/sSa4FfF+k6xqWk&#xA;anBqmnTtb39s3OGdaEq1CDswINQd64Ve8fkDrOsebNX8z3ev3Ul9PJaW9s0r0HGORpaogUBEB60A&#xA;wK8O8y+X7/y9r17o98pS5s5WjLUoGUGqSL/kutGGFUdY/mJ58sY0itfMF/HFHThH9YkZRTsFYkU9&#xA;sVRM/wCan5jTij+Yr4ChH7uZozv7pxxVjk9xe392ZbiWW7u5mHKSRmkkdjsKk1YnFX2b+WPlyfy7&#xA;5E0fSbleF1DCZLlO6yzO0rqfdS/H6MCvkfzt5aufLXmnUdHnQqLaZvq7EU5wsaxOP9ZCMKovS/zO&#xA;/MDS4lhstevEhSgSN5DKqgCgCrLzAHtiqMn/ADk/M6eMxv5guAp7xiONulPtIinFWM8tX1zVkDyT&#xA;X+qX0qxq8jNJLJI5CqCzEkntir6k/Nw33l/8ofTsbmS3utOFjDFcwOyODFJGlVYUbtgV8wa75l17&#xA;X7mO51m+lvp4kEUckzVKoCTQfScKs8/J/wA8+aj5z8uaJNqt0+jpKYVsvUPp8TG4VSO6qSKA9MVf&#xA;V2BXxT+Z13NdfmH5jlmNXXULiIf6sMhiT/hUGFXoH5G+d/NGr/mHZWmr6vc3luLSeOGCWRmSqoGF&#xA;V6FqL9o74q+lsCvgu4mutQv5Z2BkuryVnZUXdpJWrRVHix2GFX01+WP5F6JpOi+t5osrfUtWu+Mj&#xA;RTJzW3UqP3QBJVmDV5N93uFSb/nI7yxpWneS9Ik0uxis7e1vjGYraNYowJ4mJYqgAqTCu5xVGf8A&#xA;OMGhvbeWNT1h14nUblYo6947ZT8Q/wBnKw+jFXs+Ksc/MXyvL5p8m6joUVwlpJdiIi4kBZF9GZJt&#xA;wCOvp0xV4x5U/wCcdLOXUfX1nzBZ3en21JJ7fT35M6jejyNx9NdtzQ/R1wqifNv/ADjbYs7ah5c1&#xA;qC1spyGht74n0hz3UJcLyLKa/DVSfc4FSGD/AJxo84yXTW76tpIeOhmSOad5EDdCU9FevucKvTPy&#xA;6/JPyx5Q1OK9v71dU19VL24cLGkQ6F44SWYkdOZPyAwKyP8AMfy1Y+c/Jlxp8epw2kHNZhffDJEp&#xA;hNSHIZQB4mu2KvMPLH/OOGirN/zsGuxXf1mJjY29iwQtUbSh3qWCjegWnvTFVTQP+cfYNI862d0v&#xA;ma3lTSZ4dQa0MYFzwhkWRQ6ep8KnjTn+GKvcLq207V9MmtZgl1p97E0UoU1R45AVYBlPcHqMVfPe&#xA;t/8AONp/TM1ronmGzKKDL9TvCVuYo+3IR8+Q3+1RcKvSPyZ/LNvJdjfzvqcWpSar6JJt1/coLf1A&#xA;OLknnX1T2HTAqbeefI3kTzgWttaMaajaxcxcwypHdQxbnka1+Dv8alcVeWXv/OMds8ZutL8zxtZt&#xA;Uo08IK9aD96knE77fZwqg2/5xnntk9bU/NFnZ2xp++MRpTqftyRD8cVegflx+T/5e6LcJqdneJr+&#xA;ow0aO6Z45Iomrs0ccZZVPgWJI7UwK9QxVhn5ieTfIfmeCODzFNFaXkI/0a8E0cNwgPYF9mWvZgRi&#xA;ryi9/wCcZatHJp3me3ktrg0tzNFxLeysjsHPywqgpP8AnHa3srtYNY84adYlhUIwAkI9kkkixV6f&#xA;5P8Ayv8Ay88gtFqk93HLqDikOpX8saAVG/oKSqLUHruffArI/PPla287eUbjSIr4QRXZjkivI1Ey&#xA;/u3DjYMoYHj/ADYq8gtP+cc/LljPKmv+a4lYxlYIYxHAwkYUR29SRqgH9kAV8cKpj5D/AOcf59J8&#xA;yWGvp5ht7u2sJxLGLeHl6oXYqW58VqPngV7j6sXqelzX1KcuFRyp40xV4p+aH5PeVtc8wS6nZ+Yb&#xA;TR9Uu2rd2dy6FJJAAC6jmrq1Oooa+2Koj8sfyKvvK3me18wza1BdRwJIEhgiYiQSxslfULbU5V2B&#xA;xVOf+chdd1LSPy+b6hI8L393FZzSxkqyxMkkjUI6cvTCn2OKvJ/+cc/KdprPm641K+txPbaPEssP&#xA;KvFbp3HotToeKo5Fe++FX1JgV4b+en5p+U7vQdX8nQLNPq6yxRmURqIYpIJkd6uzBq8VZfhU4qln&#xA;5Tfnv5d0Ly5aeXtdtpbZbLksF7boJI2V3L/vEFGDVbqoNcVfQcUscsSSxsHjkUMjDoVYVBxV5d+b&#xA;Ok6p5r806B5Kjv207SryG4vb+RdzL6BUKnGqhuPWle/LsMVSHU/+cZLCDTLltD1q7XUjEyxpPwEU&#xA;tR/duUCEK/Tv8jirKvM/5XX3mX8svL/leW8SwvdKitGlk4esjS21o0Bj2ZNiz/a3+WKpD/zj55Iu&#xA;bSyXzpc6gbibWreSJ7ZlJZQs4CsZSx5VEXSnfFVP/nILyFdXiHzpa6ibeawt7ewNoFKlkmuHjZvV&#xA;Vq7/AFoArx6V8cVZZof5Vpp35cXfkqXUTLHeF+V6sXFlEpVmohZuhBpvirBPyp/KdbXznfajLqsk&#xA;3+Fb+Sys4SmzxmIvvVvg/v60XvXxxVf+c35Vi58yW3mGDVJIJfMWpWWlXEIT4Y4541t+QIYF/wC6&#xA;qVNK19t1Xrfk3y0nlny1ZaFHObqOyDqk7LwLBpGcVUFunKmKvJPzm/KsXPmK38xQam8Nz5g1Ky0u&#xA;SDhRY0niW25cg1W/u6kd60+ar1jyR5Vi8qeWLPQIbhrqKzMvCd1CMwlmeXcAkbepTFXlf50flj9c&#xA;8w2Wvwam8E+u6hZaPNCE+FIrhBDyqGBb7NSp619t1WY3f5SwyflhF5Dh1Jkhjk5i/eIO1Dctc09M&#xA;Mo/a4/a98VeUeSvyR1bzdHcza3rckdjpFxLpdmigzMy2zcW9PmwEcYPQUPfp3Kpn5k/JK98iac/m&#xA;7yzrkz3uj0uHhkjC8o1Yc/iQ7in2lIoRXAr2nX9bltvJOpa5abSw6bNe24O4DLA0qVqPEYq8P0b/&#xA;AJxx1nzBpsGuax5i9C/1JFupYzbtcv8AvgHHqSNLFV999vpwqm+hfkR5k8s+b/L19a6oNW0myumm&#xA;uEZfq/oFlozrE0kity4ivE12GBUz8xf84/p5m84a1rmqamba3vXRrCK1HJxxiVGM3qKB1XYL9+Ks&#xA;Q8nfkZL5hvNZtNd1i5+q+Xrp9KsPTFahP3hKiXkESkgbgvj95Vl91ofmj8v/AMpJNCsbuNtXvNQF&#xA;pZXsJZQqXkwVW+IAo/HrSvEnY4FS22/5xcsGiD6h5gnlu3+KZ44VC8juftszHfueuKt6L+Xuqfll&#xA;580CbTtVe90bXLhrC8tpF9M8jGzJyUFlenHkG2pSnfFXfnn5C1ZdWi856TqbwX80ttpsNrGGjcGY&#xA;GIMs6tX4uVCOPTviqyy/5xasPqyHUNema7IrKYIVEYJ6gc2Zj89q+GKpx+Wfl3WPIfny58oS6g2o&#xA;aLqFg2oWLEFeEsUqow4FmCkhzyp12xVOPz/04Xn5Yak/7dnJBcJWnaVUbr/kyHFUP/zjzoFvpv5e&#xA;QXykNcavLJczOOwRjCiV/wAkJX5k4q9G1C9gsLC5vrg8YLSJ55j4JGpZvwGKvhPUr+fUNRur+c1n&#xA;vJpJ5T/lysXb8ThVDYq+y/yg1v8ATH5caJcs3KWGAWkvjytiYd/cqgb6cCo/zRoHlzzFcW2nXl01&#xA;trNoDeafLaTiG+gWojaWKlW4H7LVUr9OKpVeeUPNljZzXGn+dL71bdXkiXUY7SaAhQW4zMIo24+L&#xA;A7dsVTryN5jfzL5S0zXJIhDLew8pYlrxEisUfjXfjyU09sVec/lV5T8zX35f6PdWfm680+2kjk9O&#xA;zigtnSOkzqQGdCx3Fd8VXfmf5U8y2Hkq9ur3zZealbRy2nOxmgt0STldxKKtGob4SeW3hir2HFWF&#xA;/lu6y3nnKQLxb/ENzGT3Ijt7deuKqf5rOqweVeRC18y6XSpp/uxj+oYqzO4u7W2EZuJkhErrFF6j&#xA;Becj7Ki1IqzdgMVYX+a7qlt5XdzRV8yaWWJ7ASknFWaXF3a2yo1zMkCyOsaNIwQM7miqORFWY9Bi&#xA;rDvzRUtH5VUEcj5k0wgE0rxdmNK+ynFWbYqwb8opEfQ9W4MG463qQNDWhM5P6iDiqYfmk6p+XPmM&#xA;saA2Ewr7stB+JxVR8w/+Si1P/wAB+f8A6gmxVOfKN5b3vlXR7q3YPDNZQMjCneNdjTuOhxVhvmW6&#xA;/MfQr/RAfMVndW+ranDYNGdPWJ41l5NyH75+dAtD0xV6RirCvy1n9W685Fqcl8xXS0HgsECg/Txx&#xA;VS/OKeGDy5ps8ziOGLWNOeWRjRVVZwWYk9ABirOlYMAymqncEdCMVYL+Y08I8x+RoC4Ez6xzWOvx&#xA;FUgkDMB4AuPvxVv835I49A0t5GCous6cST4CcE/gMVZzirB79l/5XLpC1HIaJdkr3ANxHQ/hirI/&#xA;Nfly08yeXr3Q7uR4re9QI8kVOalWDqRUEfaUYqxX8qvy817yQuoWF1q66jo8zK9hCEZGjap5tQlg&#xA;vMUqATvirL/MGjQa3od9pFxI8MF/C9vJJEQHCyChpUEYq+dNc/5xm842s7HSLu11G1JPAuxglp/l&#xA;KwZPufCqA07/AJxw/Ma5mVbpLSwjr8Uks4eg9hEJK4q+hvy98kWnkzy3Fo1vO9ywdpri4fbnK9Ax&#xA;VanitFAA/jgVjP5tflprvmS5sdc8taidP17To2hUiR4ecTHlRZY/iRhVvY17Yq83j/KT89NYf6hr&#xA;WsTppshAna61CS4jK9/3Su/I06A0+Ywq9H8+eRfMsP5daV5b8jzSRXFhLGkrpMLdpLf0ZUlLtVQe&#xA;byBivj8sCoD8nPy989eUNavYNYu/X0JbbjYxpOzwiaR1dykJPwHYgnjviqh+cn5d+f8Azd5it49H&#xA;uDHoH1JVuIpLgpAbmKSZxygB+JiGQBuP6sVTHy35X/Mdfyq1TSdUuJV803DyGymluuciACMRUnRn&#xA;404GlDtirHvy8/K780fLXm3Tr671IS6VcNJda1Ely7BpmjkSkiN/ev8AEDy8fkDiqt+Z/wCVv5ie&#xA;bfOFxNZ34g0GNEnsY5bh+C3McIX4YlrwZnFOVNhv7Yqken/lb+dc2v6Je63fm+tdLvLe5VZ71pgg&#xA;hkViyo1QWoOvU4VT380fyt/MPzf5ume1v1i8vLGktnHNO/ppcRw8doVrxZn2502Br7YFY/bflX+d&#xA;lxq2kz63fNqFnp13BcejPfNKAInDEhWqOXGor1wqn/5m/lZ+YnmbzjcahpmoCDS4FiuNOie4kULd&#xA;RRqtUjWojcsPt4FT658o/mFd/k7Foct63+LuXqS3L3Lcz/pbShfXWpr6RC9adsVST8q/yl87eUPN&#xA;kV1e3sc2jvbu88UMr8frMiAUMRADFTtz8PuxVOPzn8i+dPNtxpNnodyYdLbnHqymYxx8S6MjvECP&#xA;V4cSR1OKo38s/JXmjT/KGqaB5xuWvUume3hHrtOFtGgWHghf7C9aLT6MVeXz/k3+c+gTy2XlrVpn&#xA;0vmzRNaXz2gIJ2LxF4wG8aV+eFU38vfk9+Zw8weX/MHmDVPr8tjepJcW1xdSXEkUClW5K7llJNDV&#xA;VPhuewV6z+Ymn+Y9Q8nahaeWpmg1t/RazlSX0WBSdHcCSopVFYe/TFXk3kr8pfzQ0Pzfpep3l961&#xA;jcTi81tY7pqGWrbSqSPWf4q8t9yfpVeveefKVp5s8sXmh3MhhFyFMU4HIxyowZHpUV3G4r0xV4P/&#xA;AMqj/PbR/wDRNI1SY2ibRmz1GSCPiOnwM0VOvhhVlf5Zfk15qsvNEPmnzjffWLu0DfVLczNcyGRl&#xA;K8pZGqKIGJUKTv4U3Coj82vyn85ecvNUc9jexQaMlqtEmlfj9Zj50/dKCKtyA59hX5FVnP5Y6H5g&#xA;0Tydaaf5gmM+qRvK00hlMxIeQsnxtuaLTFXj2ofk/wDnJca3fa3BqjRX8czQ2Ev12QTG0YufglBq&#xA;iLUDht1P0lX/2Q==</xmpGImg:image>
               </rdf:li>
            </rdf:Alt>
         </xmp:Thumbnails>
         <xmpMM:InstanceID>xmp.iid:c0398b12-9fa5-4bf7-8a6d-abf475064143</xmpMM:InstanceID>
         <xmpMM:DocumentID>xmp.did:c0398b12-9fa5-4bf7-8a6d-abf475064143</xmpMM:DocumentID>
         <xmpMM:OriginalDocumentID>uuid:5D20892493BFDB11914A8590D31508C8</xmpMM:OriginalDocumentID>
         <xmpMM:RenditionClass>proof:pdf</xmpMM:RenditionClass>
         <xmpMM:DerivedFrom rdf:parseType="Resource">
            <stRef:instanceID>uuid:d1c078a0-2746-42b2-b0d1-25aedff8fb1e</stRef:instanceID>
            <stRef:documentID>xmp.did:1b6690ed-28a8-c141-9479-b6a9cf6be651</stRef:documentID>
            <stRef:originalDocumentID>uuid:5D20892493BFDB11914A8590D31508C8</stRef:originalDocumentID>
            <stRef:renditionClass>proof:pdf</stRef:renditionClass>
         </xmpMM:DerivedFrom>
         <xmpMM:History>
            <rdf:Seq>
               <rdf:li rdf:parseType="Resource">
                  <stEvt:action>saved</stEvt:action>
                  <stEvt:instanceID>xmp.iid:c0398b12-9fa5-4bf7-8a6d-abf475064143</stEvt:instanceID>
                  <stEvt:when>2014-04-07T15:54:22-04:00</stEvt:when>
                  <stEvt:softwareAgent>Adobe Illustrator CC (Macintosh)</stEvt:softwareAgent>
                  <stEvt:changed>/</stEvt:changed>
               </rdf:li>
            </rdf:Seq>
         </xmpMM:History>
         <illustrator:StartupProfile>Print</illustrator:StartupProfile>
         <xmpTPg:HasVisibleOverprint>False</xmpTPg:HasVisibleOverprint>
         <xmpTPg:HasVisibleTransparency>False</xmpTPg:HasVisibleTransparency>
         <xmpTPg:NPages>1</xmpTPg:NPages>
         <xmpTPg:MaxPageSize rdf:parseType="Resource">
            <stDim:w>612.000000</stDim:w>
            <stDim:h>175.847072</stDim:h>
            <stDim:unit>Points</stDim:unit>
         </xmpTPg:MaxPageSize>
         <xmpTPg:PlateNames>
            <rdf:Seq>
               <rdf:li>Cyan</rdf:li>
               <rdf:li>Magenta</rdf:li>
               <rdf:li>Yellow</rdf:li>
               <rdf:li>Black</rdf:li>
            </rdf:Seq>
         </xmpTPg:PlateNames>
         <xmpTPg:SwatchGroups>
            <rdf:Seq>
               <rdf:li rdf:parseType="Resource">
                  <xmpG:groupName>Default Swatch Group</xmpG:groupName>
                  <xmpG:groupType>0</xmpG:groupType>
               </rdf:li>
            </rdf:Seq>
         </xmpTPg:SwatchGroups>
         <pdf:Producer>Adobe PDF library 10.01</pdf:Producer>
      </rdf:Description>
   </rdf:RDF>
</x:xmpmeta>
                                                                                                    
                                                                                                    
                                                                                                    
                                                                                                    
                                                                                                    
                                                                                                    
                                                                                                    
                                                                                                    
                                                                                                    
                                                                                                    
                                                                                                    
                                                                                                    
                                                                                                    
                                                                                                    
                                                                                                    
                                                                                                    
                                                                                                    
                                                                                                    
                                                                                                    
                                                                                                    
                           
<?xpacket end="w"?>
	</metadata>
<g>
	<g>
		<path fill="#424143" d="M338.8,471.2c-0.1,3.4-3.8,4.5-7.4,4.5c-5.1,0-7.1-1.6-7.4-4.8c-0.2-1.6-0.3-2.7-0.3-3.5V449
			c-0.1-6.2,4-5.3,6.8-4.3l-0.3-9c-4.4-0.9-7.7,0.9-8.3,3.9c-1-4.5-4.4-5.8-9.1-3.8l0.2,8.8c3.4-1.6,7.3-1.4,7.3,4.6v20.2
			c0,6.2-3,7.3-6.7,5.3l-0.1,9.9c4.4,1.4,6.4,0.2,7.4-0.7c1-1,1.6-2.2,1.8-3.4c0.6,2.5,2.1,4.7,7.1,4.6l13-0.2l-0.7-13.6h-3.2V471.2
			z"/>
		<path fill="#424143" d="M359.8,471.5l0.2-23.1c0-4.2,3.1-5.8,6.8-4v-8.7c-4.1-1.6-7-0.7-8.5,4.3c-0.9-4.5-5.1-6.6-8.5-4.1v8.8
			c3.4-2.2,6.8-1,6.8,3.7l-0.2,22.3c0,3.8-2.7,5.8-6.8,3.4l0.3,10.3c3.8,1.9,7,0.5,8.2-4.2c1.2,4.5,4.4,6.3,9.1,4.2l-0.6-9.6
			C362.9,476.8,359.8,475.7,359.8,471.5z"/>
		<path fill="#424143" d="M301.9,471.2c-0.1,3.4-3.8,4.5-7.4,4.5c-5,0-7.1-1.6-7.4-4.8c-0.2-1.6-0.3-2.7-0.3-3.5V449
			c-0.1-6.2,4-5.3,6.8-4.3l-0.3-9c-4.4-0.9-7.7,0.9-8.3,3.9c-1-4.5-4.4-5.8-9.1-3.8l0.2,8.8c3.4-1.6,7.3-1.4,7.3,4.6v20.2
			c0,6.2-3,7.3-6.7,5.3l-0.1,9.9c4.4,1.4,6.4,0.2,7.4-0.7c1-1,1.6-2.2,1.8-3.4c0.6,2.5,2.1,4.7,7.1,4.6l13-0.2l-0.7-13.6h-3.2V471.2
			z"/>
		<path fill="#424143" d="M233.8,470.1v-19.9c0-5.7,3-6.9,6.6-4.7l-0.2-9.7c-4.1-1.7-7,0.3-8.2,4.4c-1.5-4.6-4.6-5.6-8.4-4.3
			l-0.3,9.3c4.1-1.3,7-0.6,7,5v8.6h-28.4v-8.1c0-6.3,2.9-7.4,6.8-5.2V436c-4.8-1.8-7.4,0.1-8.5,4.2c-1.7-4.9-4.5-5.7-8.5-4.1v9.3
			c3.9-1.4,6.8-0.4,6.8,4.9v19.2c0,6-2.9,7.4-6.8,5.2v10.1c4.8,2.2,7.4,0.4,8.5-4.2c1.7,4.9,4.5,5.7,8.5,4.1v-10.2
			c-3.9,2-6.8,0.8-6.8-4.5v-8.2h28.4v8.4c0,5.3-2.8,6.2-6.8,4.5v10.2c3.9,1.6,6.7,0.9,8.5-4.1c1,4.6,3.9,6.2,8.5,4.2v-10.3
			C236.7,477.1,233.8,475.4,233.8,470.1z"/>
		<path fill="#424143" d="M170.2,458.5l-6-0.2c-6.4-0.3-9.1-3.8-9.1-7.5c0-5.9,4.2-7.5,11.4-7.5c6.4,0,10.8,0.3,12,5.3h3v-13.2
			c-2.7-0.3-5.3,1.3-5.9,4.2c-1.9-3.5-5.1-4.5-8.9-4.5c-9.1,0-15.4,4.4-15.4,14.4c0,4.4,3.2,11.5,12.8,11.8c2.1,0.1,4.5,0.1,7.3,0.2
			c5.9,0.4,8.5,3,8.5,7.1c0,6.6-9.2,6.9-13.1,6.9c-8.2,0-12.2-0.6-12.7-4.6h-3.5c-1,10.7,7.3,14.7,16.5,14.7
			c10.9,0,16.6-6.4,16.6-15.5C183.6,463.4,179.5,458.5,170.2,458.5z"/>
		<path fill="#424143" d="M420.3,475.6c-1.4-0.7-2.1-2.9-2.1-6.5v-18.8c-0.5-12-6.3-15.2-17.6-15.5c-10.3,0-14.6,3.7-15.3,5.9
			c-1.2-4.6-4.7-6.2-9.3-4.4l0.4,9.2c2.6-2,6.8-0.9,6.8,4.1v18.1c0,7-3.1,8.1-6.8,6.2V484c4.6,2,7.8,0.5,8.5-4.2
			c1,4.5,4.3,6.4,8.5,4.3V474c-4.1,1.9-6.8,0.6-6.8-6.2l-0.1-14.9c0-7.3,5.5-9.3,15.6-9.3c9.4,0,12.7,2.9,12.7,9.1v15.7
			c0,6.5-2.8,8.4-6.5,6.3l0.1,9.6c4.6,2.6,7.3,0.6,8.2-4c1,4.1,4.4,5.9,8.4,4l-0.5-9.2C423.1,476.2,421.6,476.4,420.3,475.6z"/>
		<path fill="#424143" d="M614.1,475.6c-1.4-0.7-2.1-2.9-2.1-6.5v-18.8c-0.5-12-6.3-15.2-17.6-15.5c-10.3,0-14.6,3.7-15.3,5.9
			c-1.2-4.6-4.7-6.2-9.3-4.4l0.4,9.2c2.6-2,6.8-0.9,6.8,4.1v18.1c0,7-3.1,8.1-6.8,6.2V484c4.6,2,7.8,0.5,8.5-4.2
			c1,4.5,4.3,6.4,8.5,4.3V474c-4.1,1.9-6.8,0.6-6.8-6.2l-0.1-14.9c0-7.3,5.5-9.3,15.6-9.3c9.4,0,12.7,2.9,12.7,9.1v15.7
			c0,6.5-2.8,8.4-6.5,6.3l0.1,9.6c4.6,2.6,7.3,0.6,8.2-4c1,4.1,4.4,5.9,8.4,4l-0.5-9.2C616.8,476.2,615.5,476.4,614.1,475.6z"/>
		<path fill="#424143" d="M503.7,434.9c-3.4,0.6-6.1,2.2-7.8,5.1c-2.7-6-12-7.3-19.4-3.4V447h3.4c0.4-2.7,3.1-3.8,7.1-3.6
			c5.1,0.3,7.1,2.1,7.1,9.4l-0.1,17.5c0,5.9-3.9,6.9-7.9,4.5l0.2,9.6c4.3,2.2,8.5,0.1,9.4-4c1.7,4.6,4.3,5.8,9.3,4.2v-10.8
			c-4.6,2.4-7.8,1.6-7.8-5l0.1-16c0-7.3,3-9.5,7.1-9.9c3.8-0.3,6.1,1.5,6.5,4.2h3.4l0.1-10.1C511.6,434.9,507.2,434.3,503.7,434.9z"
			/>
		<path fill="#424143" d="M541.4,434.9c-11.6,0-19.8,3.5-19.8,15.7v18.5c0,11.3,5.5,16.5,20.3,16.5c12.8,0,18.2-4.8,18.2-16v-20
			C560.2,437.9,553.3,434.9,541.4,434.9z M556.8,466.6c0.1,6.3-4.2,8.5-13.2,8.5h-3.7c-9.1,0-14.8-2-14.8-8.9v-13.6
			c0-7.3,5.6-8.8,14.6-8.8h3c8.3,0,14,0.6,14,8.9L556.8,466.6L556.8,466.6z"/>
		<path fill="#424143" d="M259.7,471.5l0.2-23.1c0-4.2,3.1-5.8,6.8-4v-8.7c-4.1-1.6-7-0.7-8.5,4.3c-0.9-4.5-5.1-6.6-8.5-4.1v8.8
			c3.4-2.2,6.8-1,6.8,3.7l-0.2,22.3c0,3.8-2.7,5.8-6.8,3.4l0.3,10.3c3.8,1.9,7,0.5,8.2-4.2c1.2,4.5,4.4,6.3,9.1,4.2l-0.6-9.6
			C262.9,476.8,259.7,475.7,259.7,471.5z"/>
		<g>
			<path fill="#424143" d="M326.5,404.5c-1.3,0-2.3-0.3-3.1-0.7c-1.8-1.3-2.3-3.8-1.5-7.5c2.4-11-0.9-19.2-9.3-23
				c3.2-4,7.7-10.8,7.7-18.6c0-17.6-12.6-29-32-29c-9.2,0-15.8,2.2-19.8,6.6c-2.9-4.1-7.7-6.3-13.4-6.3c-2.3,0-4.7,0.4-6.9,1.2
				l-1.8,0.6l1.2,23.3l3.4-1.3c1.8-0.6,3.5-0.9,4.9-0.9s5.8,0,5.8,6.7l-0.1,41.6c0,2.6-0.5,7.1-4.1,7.1c-1.4,0-3.2-0.5-5.2-1.7
				l-3.7-2l-1.2,24.6l1.3,0.7c2.4,1.4,4.9,2.1,7.4,2.1c4.9,0,8.8-2.7,11.2-6.2c4.8,5.5,13.4,7,18.2,4.7l1.4-0.7l-0.4-24.8l-3.7,1.6
				c-3.6,1.5-6.5,1.5-8-0.2c-1-1.2-1.6-3.2-1.6-5.9v-15.9h26.4c5.1,0,8.6,0.9,10.4,2.8c1.6,1.7,2.1,4.4,1.6,8.2
				c-0.5,3.1-1.9,6.2-3.2,9.3c-1.9,4.2-3.8,8.5-3.8,13.3c0.4,10,9.3,14.4,18,14.4l0,0c3.9,0,7.8-0.8,11-2.5l1.3-0.6l1.2-26.8
				l-4.7,4.3C330,403.9,328.2,404.5,326.5,404.5z M272.9,365.7v-7.2c0-6.4,2.6-10.4,15.7-10.4c8,0,13.1,1.4,15.8,4.2
				c2.1,2.2,2.8,5.5,2.2,9.9c-0.4,2.9-1.8,5.5-4.5,8.3h-24.7C274.8,370.4,273.1,369.4,272.9,365.7z"/>
			<path fill="#424143" d="M221.4,372.9c2.8-4.1,6-10.5,6-18.6c0-18.6-10.3-28.4-29.9-28.4c-7.5,0.2-13.9,2.6-18,6.7
				c-2.8-4.6-7.8-6.3-12.2-6.3c-2.3,0-4.6,0.4-6.6,1.4l-1.8,0.7l3.5,23.5l3.5-2c2.7-1.6,4.1-1.8,4.6-1.8c0.4,0,0.5,0.1,0.6,0.2
				c0.3,0.3,1.5,2,1.2,8.1v40.5c-0.1,5-2,8.1-5,8.1c-1.4,0-3.1-0.7-5-2.1l-4-2.8l-1.2,26.8l1.8,0.6c2,0.6,4.1,1,6.2,1
				c6.2,0,11.7-3,14.6-7.5c5.3,5.5,13.4,8.2,23.9,8.2c21.8,0,33.3-10.3,33.3-29.9C236.7,385.9,231.3,376.9,221.4,372.9z
				 M187.3,370.9c-1.9,0-3.6-0.3-3.6-4.5v-7.7c0-8.3,8.4-10.1,15.4-10.1c10.9,0,14.9,2.6,15.5,10.4c-0.1,6.5-2.4,10.2-4,11.8
				C210.7,370.9,187.3,370.9,187.3,370.9z M183.8,385.3c0-3.6,0.9-4.2,3.4-4.2h24.2c11.8,0,12.8,9.3,12.8,12.2
				c0,7.5-7.1,11.3-21.2,11.3h-1c-4.3,0-18.1-0.8-18.1-12V385.3z"/>
			<path fill="#424143" d="M383.7,325.6c-27.4,0-40.7,10.7-40.7,32.7v35.4c0,23.8,12.5,34,41.7,34c26.1,0,37.7-10.3,37.7-33.3v-38.5
				C422.4,329.3,403.8,325.6,383.7,325.6z M410.5,362.3v26.6c0.1,4.3-1,7.3-3.4,9.5c-3.4,3-9.5,4.5-19.6,4.5h-7
				c-18.3,0-25.9-4.3-25.9-14.7v-26.2c0-11,6.2-14.6,25.5-14.6h6C402.8,347.6,410.5,349,410.5,362.3z"/>
			<path fill="#424143" d="M509.7,396.5h-10.9l-0.6,1.5c-1.3,2.6-5.6,5.8-19.3,5.8h-8.8c-14-1.2-22.6-2.9-22.6-17.7v-21.8
				c0-10.1,7.4-15.2,22-15.2h5.5c7.5,0,20.2,0.9,21,7l0.3,2.1h11.5v-31.7h-3.2c-5.7,0-10,2.2-12.4,6c-4.6-4.7-11.8-6.8-23.2-6.8
				c-21.4,0-33.1,11-33.1,31.1v38.6c0,22,12.3,32.7,37.5,32.7c14.4,0,24.7-3,30.7-9c4.8-4.9,6.9-11.7,6-20.3L509.7,396.5z"/>
			<path fill="#424143" d="M612.3,401l-3.6,1.6c-3,1.4-5.8,1.3-7.3-0.2c-1.4-1.4-2-3.8-1.9-6.9c0.2-6.5-2.2-12.4-7-16.9
				c-5-4.7-12.5-7.8-20.4-8.6c3.7-3.5,9.2-8.5,14.7-13.3l5.3-4.9l2.5-2.3c3.1-2.8,6.6-3.1,8-3.1c1.2,0,2.2,0.2,2.9,0.5l3.7,1.9
				l0.9-18.3l-0.2-0.4c-0.9-2.5-4.9-3.9-8.4-3.9c-3.7,0-7.5,1.4-10,4.9c-2.8-4-6.7-4.9-10.1-4.9c-2.5,0-5.2,0.6-8.3,1.8l-1.6,0.6
				l-0.2,21.5l3.7-1.5c0.7-0.3,1.6-0.4,2.6-0.4c0.9,0,1.6,0.2,1.9,0.3c-0.1,0.2-0.3,0.7-0.9,1.5c-4.9,4.8-17.4,15.9-22.9,20.4
				c-2.9,0.4-4.9,1.2-6.6,1.7c-0.5,0.2-1,0.3-1.4,0.5c-0.2,0.1-0.4,0.1-0.5,0.1c-0.1-0.3-0.1-0.8-0.1-1.7v-17.4
				c0-4.4,1.4-6.6,4.1-6.6c1.5,0,3.2,0.5,5.1,1.6l3.9,2v-21.9l-1.3-0.7c-2.5-1.4-5.1-2.1-7.5-2.1c-4.3,0-7.9,2.1-10.3,5.9
				c-3.4-4.7-7.8-5.5-10.6-5.5c-2,0-4.2,0.4-6.4,1.2l-1.7,0.6v23.5l4.1-2.7c1.5-0.9,2.8-1.5,4.2-1.5c2.9,0,4.8,2.6,4.8,6.7v43.5
				c0,6.2-3.5,6.2-4.6,6.2c-1.4,0-3-0.4-4.8-1.2l-3.7-1.6v24.6l1.7,0.6c7.5,2.7,14,1.3,17.4-3.5c0.6,0.9,1.5,1.8,2.3,2.6
				c2.9,2.7,7.7,3.1,14.7,1.3l1.9-0.5l-1-23.9l-3,0.7c-1.4,0.3-2.7,0.5-3.8,0.5c-2.7,0-5.2-0.7-5.2-5.9v-14.7
				c3.4-1.5,7.7-2.5,13.1-3.2c9.7-1.3,18.8,0.7,23.4,5c2.5,2.4,3.7,5.5,3.6,9c-0.1,3.4-0.7,6.1-1.4,8.6c-0.3,1.4-0.6,2.6-0.8,4
				c-1.5,7.8-0.5,13.4,2.9,17.1c2.8,3.1,7.3,4.7,13.2,4.7c0.6,0,1.3,0,1.9,0c4-0.2,6.5-0.6,8.7-1.5l1.7-0.6L612.3,401z"/>
		</g>
		<path fill="#424143" d="M454.9,460.1v3.2h9.7c1,1,1.8,3.1,1.8,4.7c0,6.3-5.2,7.3-13,7.3h-3.8c-8.3,0-12.7-2.3-12.7-10.9v-11.1
			c0-7.5,4.2-8.6,12.5-8.6h3.4c7.1,0,10.9,0.2,12.4,4.2h3.4v-13.6h-0.3c-3.6,0-5.5,1.6-5.9,4.7c-1.3-3.2-4.7-4.9-10.5-5.1
			c-10.9,0-18.1,1.9-18.1,15.1v19.5c0,12,5.8,16,15.8,16h1.7c5,0,9.9-0.7,11.2-5.2c1,2.6,3.2,4.7,5.9,4.7h1.3v-21.7h1.8l-0.3-3.2
			H454.9z"/>
	</g>
	<path fill="#424143" d="M149.6,314.7c0,0-6.5-13.3-19.1-2.2c0,0-2.1,4.5-1.3,6.2l-8.2,1.2c0,0-1.5-2.6-2.7-2.1c0,0-4.2-0.5-4.8,0.2
		c0,0-1.9,0.5-2.2,1.3l-0.9,1.3l-8.7,1.2c0,0-4.3-13.1-16.9-5c0,0-7.2,5.8-0.8,14.4c0,0,6.8,6.9,15,1.2c0,0,3.1-3,3.7-7.9l7.8-0.5
		c0,0,0.6,4.5,3,6c0,0-2.4,7.7-4.7,9.7c0,0-5.1,5.5-4.8,6.7c0,0-6-0.2-7.3,2.4c0,0-9.2-5.2-15.2,2.8h-5.1v-1.9c0,0,4.2,0.4,4-3.6
		v-2.6c-0.5,0.6-1.6,1.8-3.4,2.5c-3.5,1.4-6.9-1.6-5.9-5c0.5-1.6,3.9-2.8,5.3-1.5c0.9,0.9,0.4,1.9,0,2.7c0.3-0.7-3.6-2.7-3.5,0.6
		c0.1,3.8,7.4,0.4,6.5-2.6l2-1.3l0,0c0,0-2.9-11.3-12.8-12.5c-0.1,0-0.2,0-0.3,0c-0.3,0-0.7,0-1,0c-3.6,0.4-16.6,2.9-11.4,16.5
		c0,0,5.7,6.1,6.5,6.5v5c0,0-5.7,1.3-8.1,3.8c0,0-11.6-4.2-13.7,11.2v1.8c0,0-6.4,9.9-6.9,17c0,0-0.5,2.4,1.5,3.8
		c0,0,6.9,8.2,23.9,5.1c0,0,0.9,2.9,2.4,4c0,0-8.2,7.2-6,15.8l-2.1,2.6l0.9,1.2c0,0-3.6,3.5-1.9,16c0,0-8.2,2.6-6.9,15.3
		c0,0,1.7,13.3,3,17.9c0,0,0.5,4.1-0.5,5.6l0.2,3l1.9,1.3c0,0,7,4.3,9.7,3.4c0,0,4-0.2,0-6.4c0,0-6.8-4.1-3.8-11.2
		c0,0,7.9-20,7.4-24.3c0,0,4-0.9,4.6-5.6c0,0,5.5-6.4,6-8.4h2.1c0,0,1.6-5.5,2.4-5.5c0,0,3.5-0.7,4-1.2c0,0,9.2,0.7,13.2-2.8h3
		c0,0-1.2,4.3,0.8,6.7c0,0-0.6,8.2,2.9,15.1c0,0,1.2,4.1,0,5.2c-1.2,1.2,0,0.6,0,0.6s-1.4,2.2-0.4,2c0,0-9.2,0.8-9.7,2.2l-7.2,28.4
		c0,0,7.4,7.7,25.3,7.4c0,0,16.1,0.4,20.9-9.3l-6.5-26.2c0,0-4.5-1.2-7.3-1.9c0,0-10.2-3.9-6.9-10.3c0,0,5.1-12.7,6.1-26
		c0,0,1.3-3.4,0.8-7.4c0,0-11.6-10.3-27.4-8.1c0,0,1.7-8.1,0.8-11.7c0,0,3.8-6.2,3.5-14c0,0,1.2-2.6,1.2-3.8c0,0,16.8-7.3,18.8-10
		c0,0,4.8,1.2,5.6-16.8c0,0,0.7-5.6-0.4-10.1c0,0,1.2-3.6,1.7-7.4l8.9-1.2c0,0,3,8.6,11.4,7.1C141.3,328.5,152.2,326.1,149.6,314.7z
		 M58.3,389.6c-1.9-0.9-9.5-4.8-9.5-4.8c1.7-0.5,4.3-2.9,4.3-2.9c1.5,0.4,6.8,3.6,6.8,3.6c3.2,1.3,5.8,6.2,6.3,7.5
		C65,391.3,58.3,389.6,58.3,389.6z"/>
	<path fill="#424143" d="M88.8,341.2c0-0.9-2.2-3.4-4.3-2.4c-0.5,0.2-2.3,2.1-0.6,3.5c0,0,0.5-2.9,1.7-2.2c0,0,2.1,2.2,0.3,3.1
		c0,0-3.7,0.8-5.3-2.1l-0.3,2.7c0,0,0.9,0.7,3,1.4C85.5,345.9,88.7,345.6,88.8,341.2z"/>
</g>
</svg>
