<svg xmlns="http://www.w3.org/2000/svg" width="512" height="512" viewBox="0 0 512 512"><path fill="#fff" d="M397.389 118.131c0 10.035-8.135 18.171-18.17 18.171s-18.171-8.136-18.171-18.171v-45.729c0-10.034 8.136-18.17 18.171-18.17s18.17 8.136 18.17 18.17v45.729zm-245.5-45.811c0-10.035-8.136-18.171-18.17-18.171-10.036 0-18.171 8.136-18.171 18.171v45.728c0 10.035 8.135 18.171 18.171 18.171 10.034 0 18.17-8.136 18.17-18.171v-45.728zm267.463 26.531v18.616c0 22.13-18.004 40.134-40.133 40.134-22.13 0-40.134-18.004-40.134-40.134v-18.616h-165.233v18.533c0 22.13-18.004 40.134-40.133 40.134-22.13 0-40.134-18.004-40.134-40.134v-18.533h-43.585v359h412v-359h-42.648zm2.648 319h-332v-222.471h332v222.471zm-155.839-82.674c0-14.731-7.681-26.239-20.387-31.124 9.716-4.852 15.363-14.818 15.363-27.609 0-24.714-24.103-39.482-47.404-39.482-27.117 0-47.591 16.986-48.831 50.757h30.196c-.26-13.972 4.987-24.149 18.828-24.149 8.249 0 17.128 4.996 17.128 15.967 0 13.849-14.992 15.833-28.788 14.627v23.504c19.606 0 31.3 1.244 31.3 18.093 0 13.3-10.058 19.253-20.024 19.253-15.118 0-21.29-11.277-21.835-26.662h-29.981c-.568 34.746 20.488 53.075 52.201 53.075 28.335-.004 52.234-17.323 52.234-46.25zm79.216 43.732v-139.244h-25.556c-3.17 21.188-18.279 27.386-39.884 26.801v24.729h34.004v87.714h31.436z"/></svg>