<?xml version="1.0" encoding="utf-8"?>
<!-- Generator: Adobe Illustrator 17.1.0, SVG Export Plug-In . SVG Version: 6.00 Build 0)  -->
<!DOCTYPE svg PUBLIC "-//W3C//DTD SVG 1.1//EN" "http://www.w3.org/Graphics/SVG/1.1/DTD/svg11.dtd">
<svg version="1.1" id="Layer_1" xmlns="http://www.w3.org/2000/svg" xmlns:xlink="http://www.w3.org/1999/xlink" x="0px" y="0px"
	 viewBox="0 846 1224 254" enable-background="new 0 846 1224 254" xml:space="preserve">
<g id="t5Jypo.tif">
	<g>
		<path fill="#FFFFFF" d="M1002.9,1010.6c1-3-0.3-5.7-0.8-8.3c-3.8-17.1-7.8-34.2-11.5-51.4c-1.8-8.5-4.1-16.9-3.4-25.7
			c0.2-2.5,0.5-3.6,3.4-3.5c8.6,0.2,17.2,0.2,25.8,0c2.8-0.1,3.5,1,3.3,3.6c-0.2,2.1-0.1,4.3,0,6.4c0,0.8-0.4,1.8,0.7,2.2
			c1,0.3,1.6-0.4,2.1-1c2.4-2.5,4.9-4.8,7.8-6.8c15.4-10.2,31.9-10.9,48.8-4.6c18.8,7.1,28.9,22,34.2,40.5
			c6.2,21.7,3.2,42.3-10.6,60.6c-8.4,11.2-19.6,18.5-33.5,20.9c-14,2.4-27.6,1.1-39.6-7.5c-1.9-1.3-3.4-3-5.1-4.5
			c-0.6-0.6-1.2-1.5-2.1-1.2c-1.2,0.4-0.7,1.6-0.7,2.5c0,14.5,0,28.9,0,43.4c0,4.6,0,4.6-4.6,4.6c-8.8,0-17.7-0.1-26.5,0.1
			c-2.7,0.1-3.4-0.8-3.4-3.5c0.1-16.1,0.1-32.3,0.1-48.4c0-4-0.3-4.2-4.1-2.8c-20.9,7.7-41.8,15.3-62.8,23
			c-12.6,4.6-25.3,9.1-37.9,13.9c-2.8,1.1-3.7,0.3-4.6-2.3c-13.8-37.9-27.7-75.7-41.7-113.6c-0.7-1.9-0.7-4.3-3-5.6
			c-0.5,3.6,0.8,6.8,1.4,10.1c4.1,21.3,8.4,42.6,12.7,63.9c0.4,2.1,0.1,3.8-1.3,5.7c-14.5,20.1-40.6,28.4-63.9,20.3
			c-5.7-2-10.5-5.6-15.1-9.4c-0.6-0.5-1.2-1.5-2-1.2c-1.2,0.4-0.8,1.6-0.8,2.5c0,14.5-0.1,28.9,0,43.4c0,3-0.6,4.2-3.9,4.1
			c-9.3-0.2-18.6-0.2-28,0c-2.8,0-3.4-0.9-3.4-3.5c0.1-50.8,0.1-101.6,0-152.4c0-2.7,0.8-3.5,3.5-3.4c8.8,0.1,17.7,0.1,26.5,0
			c2.6,0,3.3,0.9,3.1,3.3c-0.2,2.1-0.1,4.3,0,6.4c0,0.8-0.4,1.8,0.5,2.3c1.1,0.5,1.7-0.4,2.3-1.1c6.8-7.5,15.4-12.2,25.2-13.9
			c18-3.2,34.4,0.9,47.8,13.7c2.9,2.8,5.2,3.2,8.7,1.7c9-3.6,18.1-6.8,27.2-10c1.7-0.6,2.8-1.5,3.5-3.2c3.1-7.4,6.3-14.6,9.3-22
			c1-2.6,2.1-3.2,4.8-2c7.1,3.3,14.5,6.2,21.6,9.4c2.9,1.3,5.5,1.6,8.6,0.4c11.2-4.3,22.6-8.3,33.8-12.5c2.4-0.9,3.5-0.6,4.4,1.9
			c11.4,31.4,22.9,62.8,34.4,94.2c2.3,6.3,4.6,12.5,6.9,18.7C1001.6,1009.5,1001.8,1010.3,1002.9,1010.6z M934.8,938.5
			c-0.4,0.1-1.3,0.4-2.2,0.8c-16.8,6.3-33.6,12.6-50.5,18.8c-5.4,2-5.6,2.3-3.6,7.6c6.4,17.2,12.8,34.3,19.1,51.5
			c0.8,2.2,1.6,3,4.1,2.1c18.2-6.8,36.4-13.5,54.6-20.2c1.9-0.7,2.5-1.5,1.7-3.6c-3.1-8-6-16-9-24.1c-3.8-10.3-7.5-20.5-11.4-30.8
			C937.2,939.6,937.2,938.1,934.8,938.5z M1080.7,981.4c1.1-16.8-12.3-31.2-30-31.1c-17.5,0.1-30.7,13.4-30.4,31.4
			c0.3,17.5,13.1,30.5,31,30.3C1068.8,1011.9,1081.7,997.5,1080.7,981.4z M762.9,981.5c-0.6,17.5,13.5,30.6,30.3,30.5
			c17.2,0,30.2-13.3,30-31c-0.2-16.9-12-31-30.6-30.7C774.5,950.6,762.6,964.1,762.9,981.5z M908.1,910.5c-0.2-0.6-0.5-1.1-1.1-1.3
			c-4.5-1.9-8.9-3.9-13.4-5.7c-1.3-0.5-2.6-0.3-3.2,1.3c-1.8,4.1-3.6,8.2-5.3,12.4c-0.7,1.9-0.1,2.8,2,2c6.5-2.3,12.9-4.6,19.4-7
			C907.2,911.9,908.2,911.7,908.1,910.5z"/>
		<path fill="#414042" d="M260.9,982.5c0,18.8-0.1,37.5,0.1,56.3c0,2.9-0.5,3.9-3.6,3.8c-9.4-0.2-18.9-0.2-28.3,0
			c-2.8,0.1-3.5-0.8-3.3-3.4c0.2-2.2,0.1-4.5,0-6.8c0-0.8,0.3-1.8-0.8-2.1c-1-0.3-1.1,0.6-1.5,1.2c-8.1,10.9-19.7,14.6-32.6,15
			c-17,0.5-32-5-43.9-17.3c-9.7-10-15.2-22.3-16.9-36.2c-1.7-14.3-0.5-28.2,6.2-41.4c8.2-16.2,21.1-26.5,38.5-31.2
			c14.7-4,28.7-2.5,41.6,6.3c2.8,1.9,4.8,4.6,7.2,6.9c0.5,0.5,0.7,1.3,1.6,1c0.9-0.3,0.7-1.1,0.7-1.8c0-2.6,0.1-5.3,0-7.9
			c-0.1-1.8,0.3-2.5,2.3-2.5c10.2,0.1,20.3,0.1,30.5,0c2.8,0,2.4,1.5,2.4,3.2C260.9,944.5,260.9,963.5,260.9,982.5z M194.9,1013.4
			c19,1.1,30.7-14.2,30.8-31.2c0-17.1-11.9-30.3-29.6-31c-19.3-0.7-31.5,14.6-31.5,31.3C164.4,998.7,177.2,1014.7,194.9,1013.4z"/>
		<path fill="#414042" d="M620.3,982.6c0,18.8,0,37.5,0.1,56.3c0,2.6-0.4,3.7-3.4,3.6c-9.4-0.2-18.9-0.2-28.3,0
			c-2.9,0.1-3.7-0.9-3.5-3.6c0.2-2.1,0-4.3,0-6.4c0-0.6,0.2-1.2-0.5-1.6c-0.8-0.4-1.4,0.2-1.8,0.8c-5.7,8-14,12-23.3,13.7
			c-18.4,3.4-34.9-0.9-49.3-13c-12.1-10.2-18.3-23.8-20.6-39c-2.9-19,1-36.8,12.7-52.2c8.8-11.5,20.7-18.5,34.9-21.6
			c13.4-2.9,26-1.2,37.6,6.3c2.9,1.9,5.6,4,7.6,6.9c0.5,0.7,1.1,1.4,2.1,0.9c0.8-0.4,0.5-1.3,0.5-1.9c0-2.4,0.1-4.8,0-7.2
			c-0.1-1.9,0.6-2.4,2.5-2.4c9.9,0.1,19.8,0.1,29.7,0c2.4,0,3,0.6,3,3C620.3,944.4,620.3,963.5,620.3,982.6z M555,1013.4
			c17.7,1.4,29.9-14.7,30.4-30.2c0.5-16.3-11.9-32.9-32.1-31.9c-18.7,0.9-28.9,14.6-28.9,31.5C524.4,999.1,535.7,1014.3,555,1013.4z
			"/>
		<path fill="#414042" d="M272.5,982.5c0-18.9,0.1-37.8-0.1-56.6c0-2.9,0.8-3.6,3.6-3.5c8.8,0.2,17.7,0.2,26.5,0
			c2.6,0,3.4,0.7,3.1,3.2c-0.2,1.8-0.2,3.6,0,5.4c0.1,1-0.9,2.6,0.8,3c1.3,0.4,1.7-1,2.3-1.8c3.5-4.2,7.6-7.9,12.6-10.2
			c15.5-7,39.4-4,51.1,9.6c5.5,6.4,8.5,13.9,9.9,22.1c1,6,1.4,12,1.4,18c-0.1,22.5-0.1,44.9,0,67.4c0,2.8-0.7,3.5-3.5,3.5
			c-9.7-0.2-19.4-0.2-29,0c-2.7,0-3.4-0.7-3.4-3.4c0.1-22.7,0.1-45.4,0-68.1c0-5-0.9-9.9-4.4-13.9c-5-5.7-11.6-6.2-18.3-5.4
			c-11.6,1.4-16.5,8.2-16.7,20c-0.4,22.5-0.2,44.9-0.1,67.4c0,2.7-0.7,3.4-3.4,3.4c-9.7-0.2-19.4-0.2-29,0c-2.7,0-3.6-0.6-3.6-3.5
			C272.5,1020.2,272.5,1001.3,272.5,982.5z"/>
		<path fill="#414042" d="M108.8,968.4c-4.9,0-9.8-0.1-14.7,0c-1.8,0-3-0.3-3.8-2.2c-7.2-16.5-29.9-18.3-41.4-10.8
			c-7.2,4.7-10.8,11.6-12.4,19.8c-1.4,7-0.6,13.8,1.8,20.5c3.9,10.8,13.5,17,24,17.7c12.2,0.8,22.1-3.3,28.2-14.5
			c0.8-1.4,1.9-1.9,3.5-1.8c10.2,0.1,20.3,0.1,30.5,0c2.3,0,2.9,0.4,2.1,2.8c-8.2,24.8-24.8,40.2-50.6,45.4
			c-17.9,3.6-34.2-0.5-48.9-10.9c-14.2-10.1-22.5-24-25.7-41.1c-0.6-3.3-1.4-6.4-1.3-9.8c0.5-18,6.5-33.9,19.3-46.6
			c10.1-10.4,22.6-16.3,37.2-18c17.9-2.1,33.8,2.8,47.8,13.4c11.4,8.5,18.4,20.4,22.3,34.1c0.5,1.7-0.3,2-1.8,2
			C119.6,968.3,114.2,968.4,108.8,968.4z"/>
		<path fill="#414042" d="M644.6,1007.5c4.9,0,9.8,0.1,14.7-0.1c1.9-0.1,2.8,0.7,3.2,2.3c1.6,6,6.4,8,11.7,8.6
			c5.2,0.6,10.2-0.9,13.6-5.2c2.3-3,1.1-9.4-2.2-11.5c-6.9-4.3-14.7-6.3-22.1-9.2c-8.4-3.3-17.1-5.8-24.3-11.9
			c-9.8-8.3-13.4-20.2-9.3-32.4c5.2-15.7,16.5-24.2,31.9-28.1c17.3-4.3,33.1-1,46.9,10.4c6.4,5.3,9.4,12.9,11.1,20.9
			c0.2,0.8,0.2,1.6,0.5,2.4c0.8,1.9-0.1,2.4-2,2.4c-10-0.1-20.1-0.1-30.1,0c-1.7,0-2.3-0.8-2.7-2.1c-1.7-5.8-6.1-8.5-12.3-7.4
			c-2,0.3-4,0.3-5.8,1.5c-4.6,2.9-5.1,8.7-0.9,12.2c5.6,4.7,12.7,6.1,19.4,8.1c8.9,2.7,17.9,5.3,25.7,10.8
			c9.6,6.8,13.6,17.9,12.5,29.2c-1.4,14.6-9.1,25-21.7,31.7c-10.8,5.7-22.4,7.6-34.7,5.8c-9-1.4-17.4-3.9-24.8-9.4
			c-9.1-6.8-13.9-16.2-16-27.2c-0.4-1.9,1-1.7,2.2-1.8C634.3,1007.5,639.4,1007.5,644.6,1007.5z"/>
		<path fill="#414042" d="M380.4,922.4c11.9,0,23.3,0,34.6,0c2,0,2.1,1.3,2.6,2.7c5.1,16.6,10.3,33.2,15.5,49.7
			c2,6.3,3.9,12.6,5.8,18.9c0.3,1.1,0.4,2.6,1.8,2.7c1.6,0,1.4-1.8,1.7-2.7c6.3-20.3,12.5-40.6,18.8-60.9c1.1-3.4,0.9-8.2,3.8-9.8
			c2.7-1.6,7-0.5,10.5-0.5c8.2,0,16.5,0,25.1,0c-3.9,10.9-7.7,21.5-11.5,32c-6.5,17.9-12.9,35.9-19.4,53.8
			c-3.9,10.8-7.9,21.6-11.7,32.5c-0.5,1.5-1.3,1.7-2.6,1.7c-9.9,0-19.8,0-29.8,0c-1.6,0-2.2-0.6-2.8-2.1
			c-9.3-26.2-18.6-52.5-28-78.7C390.1,948.8,385.3,935.9,380.4,922.4z"/>
		<path fill="#FFFFFF" d="M1143.8,926.4c-2.2,2.5-2.2,5.5-3.6,7.9c-0.4,0.7-0.4,1.6-1.6,1.6c-1.1,0-1.4-0.8-1.7-1.5
			c-0.7-1.9-1.3-3.8-2-5.7c-0.2-0.6-0.5-1.1-1.2-1.1c-0.8,0.1-0.8,0.8-0.8,1.4c0,1.6,0,3.1,0,4.7c0,1,0.3,2.4-1.4,2.3
			c-1.4-0.1-1.3-1.2-1.3-2.1c0-3.7,0-7.4,0-11.1c0-1.1,0-2.2,1.5-2.3c1.3-0.1,2.7-0.2,3.3,1.4c0.9,2.3,1.7,4.7,2.6,7
			c0.2,0.5,0.3,1.2,1,1.3c0.9,0.1,1.2-0.5,1.5-1.3c0.7-2.2,1.4-4.3,1.9-6.5c0.5-2,1.8-2.1,3.5-2.1c2.1,0,1.7,1.5,1.7,2.8
			c0,3.1,0.1,6.2,0,9.3c-0.1,1.2,0.9,3.4-1.2,3.5c-2.3,0.1-1.2-2.1-1.4-3.3C1144.2,930.6,1144.9,928.6,1143.8,926.4z"/>
		<path fill="#FFFFFF" d="M1119.9,929.3c0-1-0.1-1.9,0-2.9c0.2-2.2-0.2-3.8-3-3.5c-0.9,0.1-2.1,0-2-1.4s1.2-1.3,2.2-1.3
			c2.9,0,5.7,0,8.6,0c1,0,2,0.1,2,1.5c-0.1,1.2-1,1.3-1.8,1.2c-3.3-0.5-3.4,1.5-3.3,3.9s0,4.8,0,7.2c0,0.8,0,1.8-1.2,1.8
			c-1.4,0.1-1.4-0.9-1.5-1.9C1119.9,932.4,1120,930.9,1119.9,929.3C1120,929.3,1119.9,929.3,1119.9,929.3z"/>
		<path fill="#FFFFFF" d="M908.1,910.5c0.1,1.1-0.8,1.4-1.6,1.6c-6.4,2.4-12.9,4.7-19.4,7c-2.1,0.8-2.8-0.2-2-2
			c1.7-4.2,3.5-8.3,5.3-12.4c0.7-1.6,1.9-1.8,3.2-1.3c4.5,1.9,8.9,3.8,13.4,5.7C907.6,909.5,907.9,909.9,908.1,910.5z"/>
	</g>
</g>
</svg>
