<?xml version="1.0" encoding="utf-8"?>
<!-- Generator: Adobe Illustrator 17.1.0, SVG Export Plug-In . SVG Version: 6.00 Build 0)  -->
<!DOCTYPE svg PUBLIC "-//W3C//DTD SVG 1.1//EN" "http://www.w3.org/Graphics/SVG/1.1/DTD/svg11.dtd" [
	<!ENTITY ns_flows "http://ns.adobe.com/Flows/1.0/">
	<!ENTITY ns_extend "http://ns.adobe.com/Extensibility/1.0/">
	<!ENTITY ns_ai "http://ns.adobe.com/AdobeIllustrator/10.0/">
	<!ENTITY ns_graphs "http://ns.adobe.com/Graphs/1.0/">
]>
<svg version="1.1" id="Layer_1" xmlns:x="&ns_extend;" xmlns:i="&ns_ai;" xmlns:graph="&ns_graphs;"
	 xmlns="http://www.w3.org/2000/svg" xmlns:xlink="http://www.w3.org/1999/xlink" xmlns:a="http://ns.adobe.com/AdobeSVGViewerExtensions/3.0/"
	 x="0px" y="0px" viewBox="0 0 600 200" enable-background="new 0 0 600 200" xml:space="preserve">
<metadata><?xpacket begin="﻿" id="W5M0MpCehiHzreSzNTczkc9d"?>
<x:xmpmeta xmlns:x="adobe:ns:meta/" x:xmptk="Adobe XMP Core 5.5-c014 79.151739, 2013/04/03-12:12:15        ">
   <rdf:RDF xmlns:rdf="http://www.w3.org/1999/02/22-rdf-syntax-ns#">
      <rdf:Description rdf:about=""
            xmlns:dc="http://purl.org/dc/elements/1.1/"
            xmlns:xmp="http://ns.adobe.com/xap/1.0/"
            xmlns:xmpGImg="http://ns.adobe.com/xap/1.0/g/img/"
            xmlns:xmpMM="http://ns.adobe.com/xap/1.0/mm/"
            xmlns:stRef="http://ns.adobe.com/xap/1.0/sType/ResourceRef#"
            xmlns:stEvt="http://ns.adobe.com/xap/1.0/sType/ResourceEvent#"
            xmlns:illustrator="http://ns.adobe.com/illustrator/1.0/"
            xmlns:xmpTPg="http://ns.adobe.com/xap/1.0/t/pg/"
            xmlns:stDim="http://ns.adobe.com/xap/1.0/sType/Dimensions#"
            xmlns:xmpG="http://ns.adobe.com/xap/1.0/g/"
            xmlns:pdf="http://ns.adobe.com/pdf/1.3/">
         <dc:format>image/svg+xml</dc:format>
         <dc:title>
            <rdf:Alt>
               <rdf:li xml:lang="x-default">Print</rdf:li>
            </rdf:Alt>
         </dc:title>
         <xmp:MetadataDate>2014-04-07T16:48:41-04:00</xmp:MetadataDate>
         <xmp:ModifyDate>2014-04-07T16:48:41-04:00</xmp:ModifyDate>
         <xmp:CreateDate>2014-04-07T16:48:40-04:00</xmp:CreateDate>
         <xmp:CreatorTool>Adobe Illustrator CC (Macintosh)</xmp:CreatorTool>
         <xmp:Thumbnails>
            <rdf:Alt>
               <rdf:li rdf:parseType="Resource">
                  <xmpGImg:width>256</xmpGImg:width>
                  <xmpGImg:height>44</xmpGImg:height>
                  <xmpGImg:format>JPEG</xmpGImg:format>
                  <xmpGImg:image>/9j/4AAQSkZJRgABAgEASABIAAD/7QAsUGhvdG9zaG9wIDMuMAA4QklNA+0AAAAAABAASAAAAAEA&#xA;AQBIAAAAAQAB/+4ADkFkb2JlAGTAAAAAAf/bAIQABgQEBAUEBgUFBgkGBQYJCwgGBggLDAoKCwoK&#xA;DBAMDAwMDAwQDA4PEA8ODBMTFBQTExwbGxscHx8fHx8fHx8fHwEHBwcNDA0YEBAYGhURFRofHx8f&#xA;Hx8fHx8fHx8fHx8fHx8fHx8fHx8fHx8fHx8fHx8fHx8fHx8fHx8fHx8fHx8f/8AAEQgALAEAAwER&#xA;AAIRAQMRAf/EAaIAAAAHAQEBAQEAAAAAAAAAAAQFAwIGAQAHCAkKCwEAAgIDAQEBAQEAAAAAAAAA&#xA;AQACAwQFBgcICQoLEAACAQMDAgQCBgcDBAIGAnMBAgMRBAAFIRIxQVEGE2EicYEUMpGhBxWxQiPB&#xA;UtHhMxZi8CRygvElQzRTkqKyY3PCNUQnk6OzNhdUZHTD0uIIJoMJChgZhJRFRqS0VtNVKBry4/PE&#xA;1OT0ZXWFlaW1xdXl9WZ2hpamtsbW5vY3R1dnd4eXp7fH1+f3OEhYaHiImKi4yNjo+Ck5SVlpeYmZ&#xA;qbnJ2en5KjpKWmp6ipqqusra6voRAAICAQIDBQUEBQYECAMDbQEAAhEDBCESMUEFURNhIgZxgZEy&#xA;obHwFMHR4SNCFVJicvEzJDRDghaSUyWiY7LCB3PSNeJEgxdUkwgJChgZJjZFGidkdFU38qOzwygp&#xA;0+PzhJSktMTU5PRldYWVpbXF1eX1RlZmdoaWprbG1ub2R1dnd4eXp7fH1+f3OEhYaHiImKi4yNjo&#xA;+DlJWWl5iZmpucnZ6fkqOkpaanqKmqq6ytrq+v/aAAwDAQACEQMRAD8A9TXFxb20Dz3EqQwRKWkl&#xA;kYKiqOpZjQAYq891P/nID8sLC4a3GpPdsho72sMkiAjwchVb5qSMVTXyv+bfkDzLcLa6bqqC9f7N&#xA;pcK0EjHwT1AqufZScVZhiqVeYvNflzy3Zi71zUIrGBqhPUNXcjqEjWruR/kg4qwmL/nIj8rnuBCb&#xA;+dEJp67W0vD57At/wuKsmvfzK8hWVva3FzrlqkF6hltZOfJXUGhIK16HYjFVSw/MPyVqFjfX9lq8&#xA;E9npio9/OpPGJZOQQtt34HFVCw/NH8vtQvI7Oz121muZiRHGrGpIBJ6gDoMVSHUv+cgfyxsbt7Ya&#xA;hJdtGSGktoXkjqPBzxDfNajFWQ+XPzH8l+Y7K4u9J1OOZLONpruJgySxxqKszRuA/EeIFMVQZ/OH&#xA;8sgK/wCIrT72/wCacVZgrK6h0IZWAKsDUEHoQcVY7rP5jeR9Fv30/VNatrW9jCmS3dvjXkKryABp&#xA;Ub74qi9M84eWNT0qfV7LUoJdLtmKXF6W4RIygMeTvxGwYYqw/Uv+chPywsp2hW/lvCmzNbQOyVHg&#xA;zBAfmNsVTrRfzZ/L/WNMuNRtdXiSCzQSXiTBopIlZgoLIwqRyYCq1Hviqtp/5ofl/qN9BY2OuW1x&#xA;eXLiOCFCxZmPQDbFUb5o87eVvK1uk+u6jFZCSvpRtV5Xp14RoGdgPEDFWIW3/ORH5XzXAha/mgUm&#xA;gmlt5eHWn7IZh92KvQdN1PT9Tsor7T7mO7s5xyinhYOjD2IxVE4q7FXYq7FXYq7FXYq7FXYq7FXY&#xA;q+UPz2/M298xeYrnQ7KZk0DTJTD6amizzxmjyvT7QDCidqb98VY95N/KLzx5tszfaXaKlhUql3cu&#xA;Io3ZdiE6s1DtUCle+KpP5p8neZfKeorZ63aPZzsOcDghkdQftRyISpp86jvil7n+Uv52sfJmrp5i&#xA;lNxfeXbb6zDKx/eXMFRGiMT1cSMicj15DvU4oeD+ZvM2s+aNbn1XVJmnu7hvgQVKxpX4Yo134qtd&#xA;h/HFLL7H8gPzOvNMF+unJDzXlHazzJHOwIqPgY0U+zEHFDBNSsNR028l07UIZLa6tXKS20oKsjbV&#xA;2Pjt88UvR/yv/wDJZfmX/wAwll/xKfFDzCMy8wIuXNqqAtankOJG3jWmKWa6n+S/5jaZoT61eaUU&#xA;s4Y/WnUSRtLHHTkWeNWLCg+13HfFDHPK/mC98v6/ZavaOUktZVZ1BIDx1+ONgOqutVIxSjfzA8uD&#xA;y55w1TSU3toZi9m9ahreUCSEgjY/u2HTvir6p/J/zRDrH5aaZfTyj1LCE2t652Cm1HGrfOMKx+eK&#xA;HyX5r1yXX/M2p6w9eV/cyTIvgjN8C/7FaDFKZeaNfvI9MsvKMDtFpukA/WoRVfWvnPKeSQftGNz6&#xA;aV/ZWvfFCr5P/Kvzt5ut3u9Hsa2SEr9bmdYoiw6qhbdqd+INO+KoLzb5G81+T7tbfW7RrX1wwhmR&#xA;g8Uqj7XF0JB67g7+2KUX+VTrH+Y3l6RzRUvI2Y9dhuemKEr81+ZtS8za/d6zqMhee5clVJ+GOMfY&#xA;jUdlUbYpZdJ+Rvm2byxpuvaK8OtR6giO9tZmskPNeVG58QeP2W8Dih6N/wA4/eX/AMxPLOt3mn6x&#xA;pdxa6HewmTlIV4JcoRxYUY05JVT47eGKveMVdirsVdirsVdirsVdirsVdirsVfn9KZTK5lr6pY+p&#xA;y+1yrvWveuKX3L5FWxXyXoQsQq2n1C2MIWlKGJTvTvXr74oX+Z9M8o31rEPM0FlNbRv+4N+I+KuR&#xA;+yZOhIHbFXkn5zaR+X1j+X99J5Yt9MivXkgS4axMPqeh6ysQeBrx5qmKvI/ybh06b8zvL8eoBTb/&#xA;AFglQ3QzLGzQdf8Ai4Lir7QxV8x/85RxaevnHTXhCi9ksQbvj1KiRhGW9/tD5YqlP5X/APksvzL/&#xA;AOYSy/4lPirD/wAu4ll8/wDluNgGU6pZ8lYVBAnQkEYpfa+rxJNpV7E4qkkEqMPZkIOKHwPil7h/&#xA;zkP5X46T5Z8zwptJaxWF4w/mEfqQn6RzH0DFDD/JP5iNoX5febdAMjCbUo4/0etaKGmPo3NPcxEH&#xA;6MVQP5Q+Vx5k8/6XYyJztIZPrd4CCVMMHxlWp2dqJ9OKsTvGna8naf8AvzI5l/1yx5fjil9veQId&#xA;Oh8kaDHp3H6mLC3MRWm/KMFiaftFiS3vihin/OQ8OnyfldqD3QX1oprd7Enr6xmVTx9/SZ/orir5&#xA;y/Kb/wAmT5c/5jov14qzX8xv+ce/M2mahc3/AJagOp6PIxkjtojW5hDH7HpneQCuxSpp1GKvNtN1&#xA;vzX5Wv5BY3d3pF4hpNCrPCajtJGaV+TDFL338k/zu1LzFqa+W/MhSTUJUZrG/RRGZSg5NHIi0Xlx&#xA;BIKgdOmKHt2KuxV2KuxV2KuxV2KuxV2KuxV2KvkX88Py6vfK/mm51GCEnQtVlaa1mUfBHJJV5IGp&#xA;9kg1K+K/I4qhfIv52ecvJ9h+jbQw3umqWMNrdqzCIsan02RkYAnfjWnXapxVJPO/5geZfOeoJea1&#xA;MpWEMttawrwhiDGpCKSTvQVLEn3xV6h+VH5KXmpeTdcv9Xj+q3GtWZttIjlBDKA6zLO69QGliTj3&#xA;4g9iMVeLXtnqej6pLa3KSWeo2MpV1qVeOSNuoI8CNiMUvT7D/nJj8wbXTRaSxWV5cKvFb2aN/UPa&#xA;rBHRCfoxQ8013XdW17VZ9V1a4a6vrk1lmag6CgAAoFUDYACgxS9C/K//AMll+Zf/ADCWX/Ep8UMS&#xA;/LT/AMmH5a/7adp/yeXFL7X1H/jn3X/GJ/8AiJxQ+BMUvs3zh5Z/xL+VM2lKvK4fT4pbQDr68KLJ&#xA;GB/rMvE+xxQ+MumKX0h/zi55X9DSNT8yzJSS9kFnaE1B9KH4pCOxDOQP9jih5l+d3kS78secru4S&#xA;I/ojVZHurKYD4A0h5SQ16Aox2H8tMVU/In51+cfJ1h+jbT0L7TQS0VrdqzekWNT6bIyMoJ3INR9+&#xA;Kpb58/M/zV53lh/S0kcdpbktBY2ylIVYihchizM1Nqsdu1N8VU/ytSV/zD0BIpPSla7QRy0DcWNa&#xA;NxOxoe2Ksj1b86Pzn0jVLrTL/WDFd2crQzxtaWezIaf756HscVb/ADK/OK087+XLKxn0OO21eB0e&#xA;bUg6saKpDJF8HMI5bkVLbe/XFVD8gvL1/qv5j6fdQI31XSuV1eTDYKODKi18XcgU8K+GKvr3FXYq&#xA;7FXYq7FXYq7FXYq7FXYq7FUNqWmafqdlLY6hbR3dnOOMsEyh0Ye4OKvMdQ/5xo/Li7uGmhe/sUYk&#xA;+hbzoUFfD1o5m/4bFU48rfkZ+Xfl64S6isW1C7jIMdxfsJipHcIAkVffhUdsVZ/irFPOn5YeTvOA&#xA;D6xZ/wCmIvGO+gb0p1Xw5CoYezg07YqwKL/nFryct1zk1XUHtQSRDWEPTsDJ6f8AxrirJbz8hfy2&#xA;urOztGsZIorJGVDFKys5cgs8jdXY06n5DbFUbo/5PeSdI0jV9JsoZ1s9bSOO/VpmZisRYrxY/Z/v&#xA;DiqB0j8hfy80nVLTU7O3uFu7KZLiBmndgHjYMtQeu4xV6FLEssTxP9iRSrU8CKHFXmX/AELj+WP/&#xA;ACzXX/SQ+KvS7eCK3t4reIUihRY4wTWiqKDf5DFXnd9/zj5+Wl5ez3clpOslxI8rrHO6oGdixCr2&#xA;G+wxVnOg6Fpmg6RbaRpcPoWFopSGKpagJLEksSSSxJOKu1zQdH17TpNN1e0jvbKWheGQbVHRlIoy&#xA;sOxBriryvUP+cXvJEzl7O/v7Spr6ZeKVB7CqBvvY4qyDRfyG/LrS9Ou7IWkt4b1PSnurmWs/p8g3&#xA;FGjEapuu5VQT8sVV9G/JD8utH1W11SwsJY72zkEsDm4mYB16HizEHFUb52/KnyZ5xYTaratHfKAo&#xA;v7ZhFPxHZjRlceHJTTtirBrb/nFryelxzuNVv5oN6RKYUPXar8G/ADFXp/lbyf5d8rad9Q0SzW1h&#xA;NDKwq0kjAU5SO1WY/q7YqnOKuxV2KuxV2KuxV2KuxV2KuxV2KuxV2KuxV2KuxV2KuxV2KuxV2Kux&#xA;V2KuxV2KuxV2KuxV2KuxV2KuxV2KuxV2KuxV2KuxV2KuxV2KuxV2Kv8A/9k=</xmpGImg:image>
               </rdf:li>
            </rdf:Alt>
         </xmp:Thumbnails>
         <xmpMM:InstanceID>xmp.iid:fa9c81ff-adff-405a-9e31-ae27c1c4374a</xmpMM:InstanceID>
         <xmpMM:DocumentID>xmp.did:fa9c81ff-adff-405a-9e31-ae27c1c4374a</xmpMM:DocumentID>
         <xmpMM:OriginalDocumentID>uuid:5D20892493BFDB11914A8590D31508C8</xmpMM:OriginalDocumentID>
         <xmpMM:RenditionClass>proof:pdf</xmpMM:RenditionClass>
         <xmpMM:DerivedFrom rdf:parseType="Resource">
            <stRef:instanceID>uuid:d1c078a0-2746-42b2-b0d1-25aedff8fb1e</stRef:instanceID>
            <stRef:documentID>xmp.did:1b6690ed-28a8-c141-9479-b6a9cf6be651</stRef:documentID>
            <stRef:originalDocumentID>uuid:5D20892493BFDB11914A8590D31508C8</stRef:originalDocumentID>
            <stRef:renditionClass>proof:pdf</stRef:renditionClass>
         </xmpMM:DerivedFrom>
         <xmpMM:History>
            <rdf:Seq>
               <rdf:li rdf:parseType="Resource">
                  <stEvt:action>saved</stEvt:action>
                  <stEvt:instanceID>xmp.iid:fa9c81ff-adff-405a-9e31-ae27c1c4374a</stEvt:instanceID>
                  <stEvt:when>2014-04-07T16:48:41-04:00</stEvt:when>
                  <stEvt:softwareAgent>Adobe Illustrator CC (Macintosh)</stEvt:softwareAgent>
                  <stEvt:changed>/</stEvt:changed>
               </rdf:li>
            </rdf:Seq>
         </xmpMM:History>
         <illustrator:StartupProfile>Print</illustrator:StartupProfile>
         <xmpTPg:HasVisibleOverprint>False</xmpTPg:HasVisibleOverprint>
         <xmpTPg:HasVisibleTransparency>False</xmpTPg:HasVisibleTransparency>
         <xmpTPg:NPages>1</xmpTPg:NPages>
         <xmpTPg:MaxPageSize rdf:parseType="Resource">
            <stDim:w>600.000000</stDim:w>
            <stDim:h>200.000000</stDim:h>
            <stDim:unit>Points</stDim:unit>
         </xmpTPg:MaxPageSize>
         <xmpTPg:PlateNames>
            <rdf:Seq>
               <rdf:li>Cyan</rdf:li>
               <rdf:li>Magenta</rdf:li>
               <rdf:li>Yellow</rdf:li>
               <rdf:li>Black</rdf:li>
            </rdf:Seq>
         </xmpTPg:PlateNames>
         <xmpTPg:SwatchGroups>
            <rdf:Seq>
               <rdf:li rdf:parseType="Resource">
                  <xmpG:groupName>Default Swatch Group</xmpG:groupName>
                  <xmpG:groupType>0</xmpG:groupType>
               </rdf:li>
            </rdf:Seq>
         </xmpTPg:SwatchGroups>
         <pdf:Producer>Adobe PDF library 10.01</pdf:Producer>
      </rdf:Description>
   </rdf:RDF>
</x:xmpmeta>
                                                                                                    
                                                                                                    
                                                                                                    
                                                                                                    
                                                                                                    
                                                                                                    
                                                                                                    
                                                                                                    
                                                                                                    
                                                                                                    
                                                                                                    
                                                                                                    
                                                                                                    
                                                                                                    
                                                                                                    
                                                                                                    
                                                                                                    
                                                                                                    
                                                                                                    
                                                                                                    
                           
<?xpacket end="w"?>
	</metadata>
<g>
	<path fill="#3D3C3C" d="M116.2,125.1c-4.3,4.5-9.7,6.1-15.6,6.3c-12.1,0.3-22.2-5.1-27.9-14.3c5.6,9.2,15.7,14.8,28,14.4
		c5.9-0.1,11.4-1.8,15.6-6.3c0.5-0.6,1-1.2,1.8-2.1c0-0.1,0-0.1,0-0.2C117.2,123.9,116.7,124.5,116.2,125.1z"/>
	<path fill="#3D3C3C" d="M136.8,129.1c-6.2,0-12.2,0-18.6,0c0,0,0,0.1,0,0.1c6.4,0,12.5,0,18.7,0c0-21.1,0-42.1,0-63
		c0,0-0.1,0-0.1,0C136.8,87.2,136.8,108,136.8,129.1z"/>
	<path fill="#3D3C3C" d="M136.8,66.2c-6.4,0-12.4,0-18.7,0c0,2,0,3.8,0,5.7c-1.2-1-2.2-2-3.2-2.7c-1.2-0.9-2.4-1.8-3.7-2.5
		c-10.8-5.6-26.4-2.2-35,7.6c-7.1,8-9.2,17.6-8.2,28.1c0.5,5.5,2.2,10.5,4.7,14.7c5.7,9.2,15.7,14.7,27.9,14.3
		c5.9-0.2,11.3-1.8,15.6-6.3c0.5-0.6,1-1.2,1.9-2.2c0,0.1,0,0.1,0,0.2c0,0,0.1-0.1,0.1-0.1c0,2.4,0,4.2,0,6.1c6.4,0,12.4,0,18.6,0
		C136.8,108,136.8,87.2,136.8,66.2z M102.4,113.7c-9,0-15.9-6.9-15.8-16.1c0-9.2,6.9-16.2,15.7-16.2c9,0.1,15.9,7,15.9,16
		C118.1,106.9,111.5,113.7,102.4,113.7z"/>
	<path fill="#3D3C3C" d="M282.5,131c-0.2,0-0.3,0-0.5-0.1C282.1,130.9,282.3,131,282.5,131z"/>
	<path fill="#3D3C3C" d="M281.5,130.8c-4-0.7-7.5-2.2-10.5-4.1C274,128.7,277.6,130.1,281.5,130.8z"/>
	<path fill="#3D3C3C" d="M325.5,129.1c0-21.1,0-42.1,0.1-63c0,0-0.1,0-0.1,0C325.5,87,325.5,108,325.5,129.1z"/>
	<path fill="#3D3C3C" d="M306.9,71.9C306.9,71.9,306.9,71.8,306.9,71.9c-2.3-1.9-4.3-3.9-6.8-5.2c-3.3-1.8-7.2-2.7-11.1-2.8
		c3.9,0.1,7.7,1,11,2.8C302.4,68,304.5,70.1,306.9,71.9z"/>
	<path fill="#3D3C3C" d="M303.5,126.4c-4.7,3.8-10.1,5.1-15.8,5c5.8,0.1,11.2-1.2,15.9-5c1.1-0.9,2-2,3.2-3.4c0,0,0-0.1,0-0.1
		C305.5,124.3,304.6,125.5,303.5,126.4z"/>
	<path fill="#3D3C3C" d="M270,126.1c0,0-0.1-0.1-0.1-0.1C269.9,126,270,126,270,126.1z"/>
	<path fill="#3D3C3C" d="M307,66.1c0,2,0,4,0,5.8c0,0-0.1-0.1-0.1-0.1c0,0,0,0.1,0,0.1c-2.4-1.8-4.5-3.9-6.9-5.2
		c-3.3-1.8-7.1-2.7-11-2.8c-8.6-0.2-17.8,3.3-23.7,9.8c-7.1,7.8-9.5,17.1-8.7,27.4c0.7,9.8,5.3,19.2,13.3,24.9c0,0,0.1,0.1,0.1,0.1
		c0.3,0.2,0.6,0.4,1,0.6c3.1,1.9,6.6,3.4,10.5,4.1c0.1,0,0.3,0.1,0.4,0.1c0.2,0,0.3,0,0.5,0.1c0.9,0.1,1.8,0.3,2.7,0.3
		c0.8,0.1,1.7,0.1,2.5,0.1c5.7,0.1,11.1-1.2,15.8-5c1.1-0.9,2-2.1,3.3-3.5c0,0,0,0.1,0,0.1c0,0,0.1-0.1,0.1-0.1c0,2.3,0,4.2,0,6.2
		c1.6,0,3.1,0,4.6,0c4.7,0,9.3,0,14,0c0-21.1,0-42.1,0-63C319.3,66.1,313.3,66.1,307,66.1z M291.1,113.7
		c-9.6,0.4-15.8-7.6-15.8-15.9c-0.2-9.2,6.8-16.3,15.6-16.3c9,0,16,6.9,16,15.9C306.9,106.7,300.2,113.7,291.1,113.7z"/>
	<path fill="#3D3C3C" d="M200.5,81.5c-0.8-3.8-2.1-7.2-4.3-9.9c2.1,2.7,3.4,6.1,4.2,9.8c0.5,2.5,0.8,5,0.8,7.5c0,12.8,0,25.6,0,38.4
		c0,0.5,0,1.1,0,1.7c-6.3,0-12.3,0-18.8,0c0,0,0,0.1,0,0.1c6.4,0,12.6,0,18.9,0c0-0.7,0-1.2,0-1.7c0-12.8,0.1-25.6,0-38.4
		C201.3,86.5,201,84,200.5,81.5z"/>
	<path fill="#3D3C3C" d="M171.7,81.6c-6.5,0.6-9.8,4-9.9,10.8c-0.2,11.4-0.1,22.9-0.1,34.3c0,0.8,0,1.5,0,2.4c-6.3,0-12.3,0-18.6,0
		c0,0,0,0.1,0,0.1c6.2,0,12.3,0,18.7,0c0-0.9,0-1.6,0-2.4c0-11.4-0.1-22.9,0.1-34.3c0.1-6.8,3.4-10.2,9.9-10.8
		c3-0.3,5.6,0.5,7.4,2.2C177.4,82.1,174.8,81.3,171.7,81.6z"/>
	<path fill="#3D3C3C" d="M160.4,72c0-2,0-3.9,0-6c0,0-0.1,0-0.1,0c0,2.1,0,3.9,0,5.9C160.3,72,160.4,72,160.4,72z"/>
	<path fill="#3D3C3C" d="M201.2,127.3c0-12.8,0-25.6,0-38.4c0-2.5-0.3-5-0.8-7.5c-0.7-3.8-2.1-7.1-4.2-9.8c-2.1-2.7-4.9-4.8-8.6-6.2
		c-3.8-1.4-7.8-1.6-11.8-1.4c-5.9,0.3-10.9,2.6-14.4,7.5c-0.2,0.3-0.3,0.6-0.4,0.9c-0.2-0.1-0.4-0.2-0.6-0.3c0,0,0,0,0,0
		c0,0-0.1,0-0.1,0c0-2,0-3.8,0-5.9c-5.9,0-11.4,0-17.3,0c0,21.1,0,41.9,0.1,63c6.3,0,12.3,0,18.6,0c0-0.9,0-1.6,0-2.4
		c0-11.4-0.1-22.9,0.1-34.3c0.1-6.8,3.4-10.2,9.9-10.8c3.1-0.3,5.7,0.5,7.5,2.3c1.4,1.3,2.4,3.2,2.8,5.6c0.3,1.7,0.4,3.5,0.4,5.2
		c0,10.8,0,21.6,0,32.4c0,0.7,0,1.2,0,1.9c6.5,0,12.5,0,18.8,0C201.2,128.4,201.2,127.8,201.2,127.3z"/>
	<path fill="#3D3C3C" d="M49.5,105c-1.3,0-2,0.4-2.6,1.5c-2.8,4.6-6.9,6.9-12.2,7.1c-6.7,0.2-12-3.2-14.4-9.1
		c-0.8-2.1-1.3-4.3-1.3-6.6c0,2.3,0.4,4.6,1.3,6.8c2.4,5.8,7.8,9.3,14.4,9.1c5.3-0.2,9.5-2.5,12.2-7.1c0.6-1.1,1.3-1.5,2.6-1.5
		c5.8,0,11.5,0,17.3,0c0-0.1,0-0.1,0-0.2C61,105,55.2,105.1,49.5,105z"/>
	<path fill="#3D3C3C" d="M46.9,106.7c-2.7,4.6-6.9,6.9-12.2,7.1c-6.6,0.2-12-3.3-14.4-9.1c-0.9-2.1-1.3-4.5-1.3-6.8
		c-0.1-5,1.7-9.9,5-12.8c6.9-6.2,18.1-4.5,22.8,3.6c0.7,1.3,1.5,1.8,3,1.7c2.3-0.1,4.5,0,6.8,0c3.4,0,6.7,0,10.1,0
		c-1.8-12.2-14-26.9-34.1-26.5C14.6,64.3,0.3,78.8,0,96.5c-0.3,19.2,14.2,34.2,32.3,34.6c16.7,0.5,33.4-12.1,34.5-25.9
		c-5.8,0-11.5,0-17.3,0C48.2,105.2,47.5,105.6,46.9,106.7z"/>
	<path fill="#3D3C3C" d="M339.2,127.6c-5.9-3.3-9.2-8.5-10.4-15.1c-0.1-0.4-0.1-0.7-0.1-1c0-0.3,0.1-0.5,0.1-0.8c0,0-0.1,0-0.1,0
		c-0.1,0.4-0.1,0.7-0.1,0.9c0,0.4,0,0.7,0.1,1c1.2,6.5,4.5,11.7,10.4,15.1c5.2,3,10.9,4.1,16.8,3.8c7-0.4,13.5-2.4,18.4-7.6
		c-5,5.1-11.3,7.2-18.3,7.5C350.1,131.7,344.4,130.6,339.2,127.6z"/>
	<path fill="#3D3C3C" d="M360.4,113.6c-0.2,0.2-0.3,0.5-0.5,0.7c0,0,0.1,0,0.1-0.1C360.1,114,360.2,113.8,360.4,113.6z"/>
	<path fill="#3D3C3C" d="M352,79.1c-0.9,0.2-1.8,0.6-2.4,1.2c0.6-0.5,1.4-0.9,2.3-1.1c4-1,6.5,0.5,7.9,4.5c6,0,12,0,18.3,0
		c-6.3,0-12.3,0-18.2-0.1C358.4,79.6,355.9,78.2,352,79.1z"/>
	<path fill="#3D3C3C" d="M359.5,108.2c-1.3-0.9-2.9-1.7-4.4-2.3c-3.8-1.5-7.6-2.8-11.4-4.3c-1.9-0.7-3.8-1.4-5.5-2.4
		c-10-5.7-10.8-15.3-6.6-23.3c1-1.9,2.1-3.5,3.4-4.9c-1.3,1.4-2.5,3-3.5,5c-4.2,8.1-3.5,17.7,6.6,23.3c1.8,0.9,3.6,1.7,5.5,2.4
		c3.8,1.5,7.6,2.8,11.4,4.3C356.5,106.6,358.1,107.3,359.5,108.2c1.7,1.4,2,3.6,0.9,5.4C361.5,111.8,361.3,109.5,359.5,108.2z"/>
	<path fill="#3D3C3C" d="M368.5,93.1c-3.3-1.4-6.8-2.2-10.1-3.4c-2.7-1-5.4-2-8-3.3c-1.4-0.7-2.5-1.9-2.1-3.8c0.2-1,0.7-1.8,1.3-2.3
		c0.6-0.6,1.5-1,2.4-1.2c3.9-0.9,6.4,0.5,7.9,4.5c5.9,0.1,11.9,0.1,18.2,0.1c-0.8-7.6-4.2-13.4-11.1-16.8c-5.3-2.7-11-3.4-16.8-2.7
		c-6,0.7-11.2,2.8-15.2,6.8c-1.3,1.4-2.5,3-3.4,4.9c-4.2,8-3.4,17.6,6.6,23.3c1.7,1,3.6,1.7,5.5,2.4c3.8,1.5,7.6,2.8,11.4,4.3
		c1.5,0.6,3.1,1.4,4.4,2.3c1.8,1.3,2,3.6,0.9,5.4c0,0,0,0,0,0c-0.1,0.2-0.3,0.4-0.5,0.6c0,0-0.1,0-0.1,0.1c0,0,0,0,0,0
		c-3,3.2-10.6,3-12.2-2.3c-0.4-1.2-1-1.4-2.1-1.4c-5,0-10.1,0-15.1,0c-0.5,0-1,0.1-1.6,0.1c0,0.3-0.1,0.5-0.1,0.8c0,0.3,0,0.6,0.1,1
		c1.2,6.6,4.5,11.8,10.4,15.1c5.2,3,10.9,4.1,16.8,3.8c7-0.4,13.4-2.4,18.3-7.5c0.3-0.3,0.6-0.7,1-1.1
		C384,112.5,380.8,98.4,368.5,93.1z"/>
	<path fill="#3D3C3C" d="M230.9,105.1c-4.2-13.4-8.1-26.2-12.1-39c-0.1,0-0.1,0-0.2,0c4,12.9,8,25.7,12.2,39.2
		C230.8,105.2,230.9,105.1,230.9,105.1z"/>
	<path fill="#3D3C3C" d="M262.9,66.1c-0.1,0-0.2,0-0.2,0c-1.8,5-3.5,9.7-5.2,14.5c-5.6,15.6-11.2,31.2-16.8,46.8
		c-0.5,1.4-1.1,1.9-2.6,1.9c-4.9-0.1-9.8,0-14.7,0c-0.4,0-0.8,0-1.1-0.2c0.3,0.2,0.7,0.3,1.3,0.3c4.9-0.1,9.8-0.1,14.7,0
		c1.5,0,2.1-0.5,2.6-1.9c5.5-15.6,11.2-31.2,16.8-46.8C259.4,75.9,261.1,71.1,262.9,66.1z"/>
	<path fill="#3D3C3C" d="M238.1,129.3c1.5,0,2.1-0.5,2.6-1.9c5.6-15.6,11.2-31.2,16.8-46.8c1.7-4.8,3.4-9.5,5.2-14.5
		c-5.9,0-11.6,0.1-17.4,0c-1.5-0.1-2.2,0.4-2.6,1.8c-3.4,11-6.8,22.1-10.2,33.1c-0.4,1.3-0.9,2.6-1.5,4.4c0-0.1-0.1-0.2-0.1-0.3
		c0,0.1-0.1,0.2-0.1,0.2c-4.2-13.5-8.2-26.3-12.2-39.2c-6.4,0-12.8,0-19.2,0c0.1,0.4,0.1,0.7,0.4,1.1c7.3,20.3,14.6,40.6,21.8,60.9
		c0.2,0.5,0.4,0.8,0.7,1c0.3,0.1,0.6,0.2,1.1,0.2C228.3,129.3,233.2,129.2,238.1,129.3z"/>
</g>
<path fill="#FFFFFF" d="M578.1,119.1c9.3-11.6,9-29.7,1.6-42c-7.5-12.6-24.4-16.5-36.4-10.8c-2.8,1.3-5.3,3.2-7.3,5.6
	c-0.2,0.2-0.5,0.3-1.2,0.7c0,0,0,0,0-0.1c0,0-0.1,0-0.1,0.1c0-2,0-3.7,0-5.3c0-1-0.4-1.5-1.5-1.5c0,0,0,0,0,0
	c-3.6,0.1-7.1,0-10.7,0.1c-1.2,0-2.4,0-3.6,0c-0.5,0-1.3,0.7-1.3,1.2c-0.1,1.9-0.2,3.8,0.2,5.6c2.9,13.5,5.9,26.9,8.9,40.4
	c0.1,0.6,0.1,1.2,0.2,1.7c0,0-0.1-0.1-0.1-0.1c0,0,0,0.1,0,0.1c-0.6-0.5-0.9-1.1-1.1-1.7c-7.4-20.1-14.8-40.3-22.1-60.4
	c-0.4-1.1-0.9-1.6-1.7-1.6c-0.3,0-0.6,0.1-1,0.3c-2.9,1.2-5.8,2.3-8.8,3.3c-1.7,0.6-3.5,1.3-5.2,1.9c-1.2,0.4-2.4,0.9-3.6,1.3
	c-1,0.4-2.3,0.3-3.4-0.1c-0.2,0-0.4-0.1-0.5-0.1c-3.9-1.5-7.8-3.1-11.6-4.9c-0.4-0.2-0.7-0.3-0.9-0.3c-0.8-0.1-1.2,0.4-1.7,1.4
	c-1.5,3.7-3,7.4-4.7,11c-0.4,0.9-1.3,1.8-2.2,2.1c-5,2-10,3.7-15.1,5.6c-0.3,0.1-0.6,0.2-0.8,0.2c-0.7,0.1-1.3-0.2-1.9-0.8
	c-4.5-4.6-9.9-7.2-16.2-8c-1.6-0.2-3.2-0.3-4.7-0.3c-6.7,0-12.8,2.2-18,7.3c-0.5,0.5-1,0.8-2,1.6c0-2.1-0.1-3.6-0.1-5.1
	c0.1-1.4-0.5-1.8-1.8-1.8c-2.2,0-4.5,0.1-6.8,0.1c-2.3,0-4.5,0-6.8-0.1c-1.3,0-1.8,0.4-1.8,1.8c0,26.5,0,53,0,79.6
	c0,1.5,0.6,1.9,1.9,1.9c2.4,0,4.7-0.1,7.1-0.1c2.3,0,4.7,0,7.1,0.1c1.8,0,2.2-0.7,2.2-2.4c-0.1-7.2,0-14.5,0-21.7
	c0-0.6,0-1.3,0.1-2.1c0,0,0.1,0,0.1,0.1c0,0,0,0,0-0.1c2.2,1.6,4.1,3.3,6.2,4.4c3.8,2.1,8.1,3.1,12.4,3.1c9.5,0.1,19-4.5,24.3-12.5
	c0.4-0.6,0.5-1.6,0.4-2.3c-2.2-11.9-4.6-23.7-6.9-35.5c-0.3-1.5-0.5-2.9-0.7-4.4c0.3-0.1,0.5-0.1,0.7-0.2c0,0,0,0,0,0
	c0,0,0.1,0,0.1,0c7.9,21.6,15.9,43.3,23.9,65.1c18.8-6.9,37.3-13.7,56.2-20.6c0,0,0,0,0,0c0,0,0.1,0,0.1,0c0,1.3,0,2,0,2.8
	c0,8,0,15.9,0,23.9c0,1.7,0.4,2.4,2.2,2.4c2.3,0,4.7-0.1,7-0.1c2.3,0,4.7,0,7.1,0.1c0.6,0,1-0.1,1.4-0.2c0.5-0.3,0.7-0.9,0.7-2
	c-0.1-7.1,0-14.3,0-21.5c0-0.8,0.1-1.5,0.2-2.7c0,0,0.1,0,0.1,0.1c0,0,0,0,0-0.1c0.8,0.6,1.2,1,1.6,1.3c2,1.4,3.9,3,6.1,4
	c3.6,1.7,7.4,2.5,11.4,2.4C563.8,130.2,572.5,126.1,578.1,119.1z M415.9,113.1c-9,0-15.9-6.9-16-16c0-9.3,7.1-16.5,16-16.4
	c9.1,0.2,15.8,7.1,15.8,16.4C431.7,106.3,425,113.1,415.9,113.1z M464.5,62.7c0.5-1.5,1.2-3,1.8-4.5c1-2.4,1-2.4,3.4-1.4
	c2.2,1,4.5,1.9,6.7,2.9c0.1,0.2,0.1,0.4,0.1,0.6c-4,1.5-8.1,3-12.7,4.7C464.1,63.9,464.3,63.3,464.5,62.7z M501.2,106.4
	c-7.1,2.6-14.1,5.2-21.1,7.8c-2.5,0.9-4.9,1.8-7.3,2.7c-1,0.4-1.5,0.2-1.9-0.8c-3.6-9.7-7.1-19.3-10.7-28.9c-0.3-1,0-1.4,1-1.8
	c9.5-3.5,19-7.1,28.5-10.6c0.9-0.3,1.7-0.4,2.1,0.8c3.5,9.7,7,19.3,10.6,28.9c0.1,0.2,0.1,0.5,0.3,1
	C502.2,105.8,501.7,106.2,501.2,106.4z M549.4,113.1c-7.8-0.6-14.7-8.3-14.3-16.5c0.5-9.7,7.4-15.9,16.2-15.9
	c10.4,0.3,15.9,8.6,15.7,16.5C566.8,106.3,560,113.8,549.4,113.1z"/>
</svg>
