<?xml version="1.0" encoding="utf-8"?>
<!-- Generator: Adobe Illustrator 17.1.0, SVG Export Plug-In . SVG Version: 6.00 Build 0)  -->
<!DOCTYPE svg PUBLIC "-//W3C//DTD SVG 1.1//EN" "http://www.w3.org/Graphics/SVG/1.1/DTD/svg11.dtd" [
	<!ENTITY ns_flows "http://ns.adobe.com/Flows/1.0/">
	<!ENTITY ns_extend "http://ns.adobe.com/Extensibility/1.0/">
	<!ENTITY ns_ai "http://ns.adobe.com/AdobeIllustrator/10.0/">
	<!ENTITY ns_graphs "http://ns.adobe.com/Graphs/1.0/">
]>
<svg version="1.1" id="Layer_1" xmlns:x="&ns_extend;" xmlns:i="&ns_ai;" xmlns:graph="&ns_graphs;"
	 xmlns="http://www.w3.org/2000/svg" xmlns:xlink="http://www.w3.org/1999/xlink" xmlns:a="http://ns.adobe.com/AdobeSVGViewerExtensions/3.0/"
	 x="0px" y="0px" viewBox="0 846 1224 254" enable-background="new 0 846 1224 254" xml:space="preserve">
<metadata><?xpacket begin="﻿" id="W5M0MpCehiHzreSzNTczkc9d"?>
<x:xmpmeta xmlns:x="adobe:ns:meta/" x:xmptk="Adobe XMP Core 5.5-c014 79.151739, 2013/04/03-12:12:15        ">
   <rdf:RDF xmlns:rdf="http://www.w3.org/1999/02/22-rdf-syntax-ns#">
      <rdf:Description rdf:about=""
            xmlns:xmp="http://ns.adobe.com/xap/1.0/"
            xmlns:xmpGImg="http://ns.adobe.com/xap/1.0/g/img/"
            xmlns:xmpTPg="http://ns.adobe.com/xap/1.0/t/pg/"
            xmlns:stDim="http://ns.adobe.com/xap/1.0/sType/Dimensions#"
            xmlns:xmpG="http://ns.adobe.com/xap/1.0/g/"
            xmlns:dc="http://purl.org/dc/elements/1.1/"
            xmlns:xmpMM="http://ns.adobe.com/xap/1.0/mm/"
            xmlns:stEvt="http://ns.adobe.com/xap/1.0/sType/ResourceEvent#">
         <xmp:CreatorTool>Adobe Illustrator CC (Macintosh)</xmp:CreatorTool>
         <xmp:CreateDate>2014-04-04T14:24:24-04:00</xmp:CreateDate>
         <xmp:Thumbnails>
            <rdf:Alt>
               <rdf:li rdf:parseType="Resource">
                  <xmpGImg:width>256</xmpGImg:width>
                  <xmpGImg:height>44</xmpGImg:height>
                  <xmpGImg:format>JPEG</xmpGImg:format>
                  <xmpGImg:image>/9j/4AAQSkZJRgABAgEASABIAAD/7QAsUGhvdG9zaG9wIDMuMAA4QklNA+0AAAAAABAASAAAAAEA&#xA;AQBIAAAAAQAB/+4ADkFkb2JlAGTAAAAAAf/bAIQABgQEBAUEBgUFBgkGBQYJCwgGBggLDAoKCwoK&#xA;DBAMDAwMDAwQDA4PEA8ODBMTFBQTExwbGxscHx8fHx8fHx8fHwEHBwcNDA0YEBAYGhURFRofHx8f&#xA;Hx8fHx8fHx8fHx8fHx8fHx8fHx8fHx8fHx8fHx8fHx8fHx8fHx8fHx8fHx8f/8AAEQgALAEAAwER&#xA;AAIRAQMRAf/EAaIAAAAHAQEBAQEAAAAAAAAAAAQFAwIGAQAHCAkKCwEAAgIDAQEBAQEAAAAAAAAA&#xA;AQACAwQFBgcICQoLEAACAQMDAgQCBgcDBAIGAnMBAgMRBAAFIRIxQVEGE2EicYEUMpGhBxWxQiPB&#xA;UtHhMxZi8CRygvElQzRTkqKyY3PCNUQnk6OzNhdUZHTD0uIIJoMJChgZhJRFRqS0VtNVKBry4/PE&#xA;1OT0ZXWFlaW1xdXl9WZ2hpamtsbW5vY3R1dnd4eXp7fH1+f3OEhYaHiImKi4yNjo+Ck5SVlpeYmZ&#xA;qbnJ2en5KjpKWmp6ipqqusra6voRAAICAQIDBQUEBQYECAMDbQEAAhEDBCESMUEFURNhIgZxgZEy&#xA;obHwFMHR4SNCFVJicvEzJDRDghaSUyWiY7LCB3PSNeJEgxdUkwgJChgZJjZFGidkdFU38qOzwygp&#xA;0+PzhJSktMTU5PRldYWVpbXF1eX1RlZmdoaWprbG1ub2R1dnd4eXp7fH1+f3OEhYaHiImKi4yNjo&#xA;+DlJWWl5iZmpucnZ6fkqOkpaanqKmqq6ytrq+v/aAAwDAQACEQMRAD8A9SXd5aWVtJdXkyW9tCvK&#xA;WeVgiKo7szUAGKvPb/8A5yC/LG0uGhW/luuOzSQQSMlR4MwWvzG2Kp75V/NHyP5okEGk6mjXh/48&#xA;5g0Mx7/Crgc/9jXFWVYqx3zV+YPk/wAqhRrepR20zjlHbKGkmYePpxhmAPiRTFWM6b/zkF+Wd9dC&#xA;3a9msyzcUluYWSM+5ZefEe7UxVPtZ/NLyBo159S1LWYYbngkoQLJICkihkYNGrLRlNRviqrP+ZHk&#xA;iDQbbX5dWjTSLuRoLe64yUeReQZQoXntwPUYqpWX5p/l/e2N7f2+twNaaeEN3KwdAnqVCCjqpYsV&#xA;IAWpxVjq/wDORX5Ym59I3dysdafWDbycPnQVf/hcVZXefmD5Ms9Dt9dn1WL9EXTiKG8QPIhkILcD&#xA;6asVainZsVWeXvzH8keYr82GjarHd3gQy+iqyISikAkc1WtK4qyC5uYLa3lubiQRW8CNJNKxoqog&#xA;5MxPgAMVYfD+c35ZTTJBFrkbyyMEjRYpyWZjQAfu+5xVNPNXn/yj5VRTrmpR20rjlHbCskzDpURI&#xA;GenvSmKsVsP+chfyzu7oW73k9oGNFnuIGEZJ905kfNgMVZDrH5o+QNHuktdR1mGGaSNJ4wokkVo5&#xA;BVHVo1dSGG43xVN9E8yaHrmljVdKvEudPJcfWBVVBj2avMKRT3xVhms/n9+WumXDQC+kv5ENHNnE&#xA;0iAg02kbgjfNSRiqe+UfzM8l+bHMOj6gr3aglrOUGKeg6kI9OQHcrWmKsoxV2KuxV2KuxV2KuxV2&#xA;KuxV2KuxV2KvlD88/wAx7zzH5luNHtZmXQtLkaGOJSQs00Z4ySv/ADUaqp7b9ziqC8n/AJGeefNG&#xA;lpqlsttY2UwrbSXsjoZV6ckWNJWp7sBXtirHPNXk/wAy+TdXS01WE21yKS2txE1UcKdnikXwP0jC&#xA;r2zyt+elwv5U6lqF+4n8x6OY7SIv/u9riot5W8SvFi/jx/ysCvBgNe8z69QerqWs6lL/AK0kkjfg&#xA;AB9AHthV6Dc/843fmPDpxu1FlPMF5Gxjnb1/l8SLET/s8CvMbtLuOd4LsOs9ufReOWodDH8PAhtx&#xA;xpSnbCr0rX//AFn/AMsf9tW5/wCZ2BWEeVfLGueaNXj0XR4/VuZqyMGbhGqxg1kcnYBQfxoOuFU8&#xA;89/lJ5t8lW0F3qggnsp39IXNo7OiyEFgj80jYEgGm1MCq/5ZxXOuWuveTgS8ep2Ul1Yw+F9Z0liK&#xA;jxdQyNTsfbFUo/LnzD/h3zxo+qseMUFwqXJrSkMtYpfuRycVfSP/ADkD5i/RH5dXcCNxuNWkSyjo&#xA;d+LfHL9HpoVPzxV81+SZ49P1V9fmjE0ehx/XI4m+y9zyEdsp+Uzq5H8qnCqBlm1/zRr5dzLqWs6l&#xA;KB/M8kjbAAdAB27Ae2KvQJf+cbvzHj043YFk8wXl9QSdvX+VSgir/wA9MCvMryG8t7mS1vFeO4tm&#xA;MMkMtQ0bISChB6cT2wq9CvvMd/Yfkho+j2zNHFq+oXpu3XblHbGM+mfZmkB/2OBUn/LPyDaeddWn&#xA;06bWYtJljjDwLInqPMxNOMal4q07719sVTyH8j/zg0rVludN06s1nNytb2G6tUqUb4ZFDyq4B60Y&#xA;D3xV9V2D3cljbSXkYhu3iRriEEMEkKguoIqDRtsVV8VdirsVdirsVdirsVdirsVdirsVfAtys6XE&#xA;q3FROrsJeW55g/FX3rhV92aA9jJoWnPYU+otbQm149PSMY4Up/k0wKgvMtz5KhW3HmeXTY1YsbUa&#xA;m0CgkU5+n6/0Vpirxn8/J/Jc3k20PleTTJFTUYvrv6Ma3ahME3pep6B9m4198VY1/wA40yacn5hS&#xA;rclRcyWMy2PKn95zjLBf8r0w30VxV9TYq+O/zvk09/zQ1w2PH0xJGsxWnH11hQTdO/MHl/lVxVNd&#xA;f/8AWf8Ayx/21bn/AJnYqmf/ADi9Gx89ajKPsrpcin5tcQEf8ROKvTP+cjR/yDSb/mLt/wDiRxV4&#xA;x/zj3/5NLTf+MVz/AMmHxVLPzh8sf4d/MHVLRE4Wly/1yzA2HpXFWoPZH5J9GKoj8yfzBbzTo/la&#xA;zEhZtMsAt7WtTdk+k5PjVIVb/ZYqiJ/K0un/AJGx62yFZtX1mFien+i28NxGlR7ysx+7FUX/AM45&#xA;vYL+ZcIuePqta3C2XLr61ATx9/S54q+r8VfIX58yac/5oasbKnwiFborTiZ1iUP07jYN71xV6F+X&#xA;f5e6d54/JWDTrmQ211Be3E1jeAcjHJWhBG3JGH2hX9WKvN/NP5K/mB5dLySaeb+zj3+uWNZloO5Q&#xA;ASL71WmKqHlL83fPXlieP6vqEl3ZIaPp92zTRFe6ryPKP/YEYq+uPLeu2mv6DYazaArBfQrMqN1U&#xA;sPiQ+6tUHFUyxV2KuxV2KuxV2KuxV2KuxV2KuxV8tfnt+WF/oevXXmLT4Gl0LUZDNM6Cotp5DV1e&#xA;nRGY1U9N+PhVVjXlT84PPflfTxpum3yvYISYbe4jWVY6mp4E/EoJ7VpiqTa95j8z+cNZS51KeXUd&#xA;RlpDbxIvQE/DHFGgoNz0A3+eFXvXlr8iWj/KzUdH1DhF5i1Ypdc/tCCWCpgiLDr1YOR/MaVoMCvn&#xA;y5ttd8s64Ypll03WNOlrsSkkbqahlYfeCNiMKs0uP+cgPzOnsWtDqEcZZeDXMcEazeBIYCin3A+W&#xA;BXn1zFdJIGuVdZJgJQZAQzLJ8Qffc8q1r3wq9K8wMP8AlQHlda/EdVuSB3oDN/XAqaf84vSkeeNS&#xA;ips+mO5P+rcQj/jbFXpn/ORv/ktJv+Yu3/4kcVeL/wDOPf8A5NLTf+MVz/yYfFXo/wDzk/5Y+saP&#xA;pvmOFP3ljIbS6YdTFN8UZPsjqR/ssVfPelabdapqlpptovK5vZo7eFf8uRgq/icKvsfzJ+X2n6p+&#xA;Xj+T4CIooraOGylI+xLbgGN2p4svxeNTgV8g6hp2veWNca2ukl07VrCQMpBKujqaq6MOo7qw64VZ&#xA;nJ/zkB+Z72BtDqMasU4G6WCMTeFeQHEH3AwK8/ulvPU9a7Enq3A9b1JeXKQOT8dW3bka74Veq2C+&#xA;dLT8ltN1ry1f3VrHYXt2upRWrshMUhTjKwXqI2Wh/wBavjgVLvJ359+ddAmuDfzNrsE4FIr2Vy0b&#xA;LWhjfela/EKb4qwjULm/8yeY7m6hteV9q11JMtpbqx/eTuW4ovxHq2FX2Z5A8vzeXvJmkaNOQbi0&#xA;t1W4oagSuS8gB7gOxGBU/wAVdirsVdirsVdirsVdirsVdirsVWyxRyxtFKgkjcFXRgCpB2IIPXFW&#xA;C6n+Rv5YahcNcSaMsEjGrC2llhQ/880YIPoAxVPPLfkDyb5aYvomlQ2kxFDP8Uk1D1HqyF5Ke1cV&#xA;ZBiqR+ZfJHlPzMirrmmQ3pQcUlYFJVHWiyoVkA9g2Ksf078jPywsLlbmPRlmkUgotxLNMgp/xW7l&#xA;G/2QOKp/qXkTyXqlz9a1DRLK6uOKx+rJCjNxQUVa06AbDFV83kryhNpcGky6PZvpls5kt7QwoY0d&#xA;qlmVabE8jXFV+i+UPK2hzyXGj6Va2E8q+nJLBEqMUrXiSBWlRiqM1XR9K1ezay1S0ivbRyGaCdA6&#xA;Eqag0PhiqXaV5H8naReLe6Xo1nZ3agqs8MKI4DChAYCoqMVTPUtM0/U7KWx1G2ju7Oaglt5lDo3E&#xA;hhVTtswBxVKdP/L/AMkadeRXtjodlbXcB5QzxworqaUqpA264qn+KpP5j8neWPMsCw65p0N8qf3b&#xA;uCJEr14SIVda+xxVjVh+Rf5XWVyLhNGEzqQUW4mmmjFP+K3cow/1gcVZBqXkTyZqc6T6hollczRx&#xA;rCjyQoSI02VRt0XtiqY6Xo2k6TZCx0y0is7NSxFvCgRKsasaDxxVimr/AJK/lnqs7XE+ixwzMas1&#xA;s8luD4/BEyp/wuKpr5Y/LzyZ5Yb1NF0qK2noVNyeUs1D1HqyF3APgDTFWRYq7FXYq7FXYq7FXYq7&#xA;FXYq7FXYq7FXYq7FXYq7FXYq7FXYq7FXYq7FXYq7FXYq7FXYq7FXYq7FXYq7FXYq7FXYq7FXYq7F&#xA;XYq7FXYq7FXYq7FX/9k=</xmpGImg:image>
               </rdf:li>
            </rdf:Alt>
         </xmp:Thumbnails>
         <xmp:MetadataDate>2014-04-04T14:24:24-04:00</xmp:MetadataDate>
         <xmp:ModifyDate>2014-04-04T14:24:24-04:00</xmp:ModifyDate>
         <xmpTPg:MaxPageSize rdf:parseType="Resource">
            <stDim:w>1224.000000</stDim:w>
            <stDim:h>254.000000</stDim:h>
            <stDim:unit>Points</stDim:unit>
         </xmpTPg:MaxPageSize>
         <xmpTPg:NPages>1</xmpTPg:NPages>
         <xmpTPg:HasVisibleTransparency>False</xmpTPg:HasVisibleTransparency>
         <xmpTPg:HasVisibleOverprint>False</xmpTPg:HasVisibleOverprint>
         <xmpTPg:PlateNames>
            <rdf:Seq>
               <rdf:li>Black 7U</rdf:li>
            </rdf:Seq>
         </xmpTPg:PlateNames>
         <xmpTPg:SwatchGroups>
            <rdf:Seq>
               <rdf:li rdf:parseType="Resource">
                  <xmpG:groupName>Default Swatch Group</xmpG:groupName>
                  <xmpG:groupType>0</xmpG:groupType>
                  <xmpG:Colorants>
                     <rdf:Seq>
                        <rdf:li rdf:parseType="Resource">
                           <xmpG:swatchName>Black 7U</xmpG:swatchName>
                           <xmpG:type>SPOT</xmpG:type>
                           <xmpG:tint>100.000000</xmpG:tint>
                           <xmpG:mode>CMYK</xmpG:mode>
                           <xmpG:cyan>0.000000</xmpG:cyan>
                           <xmpG:magenta>0.000000</xmpG:magenta>
                           <xmpG:yellow>0.000000</xmpG:yellow>
                           <xmpG:black>89.999998</xmpG:black>
                        </rdf:li>
                     </rdf:Seq>
                  </xmpG:Colorants>
               </rdf:li>
            </rdf:Seq>
         </xmpTPg:SwatchGroups>
         <dc:format>image/svg+xml</dc:format>
         <xmpMM:DerivedFrom rdf:parseType="Resource"/>
         <xmpMM:DocumentID>xmp.did:60806719-f41b-468e-8a7c-591014943e39</xmpMM:DocumentID>
         <xmpMM:InstanceID>xmp.iid:60806719-f41b-468e-8a7c-591014943e39</xmpMM:InstanceID>
         <xmpMM:OriginalDocumentID>xmp.did:60806719-f41b-468e-8a7c-591014943e39</xmpMM:OriginalDocumentID>
         <xmpMM:History>
            <rdf:Seq>
               <rdf:li rdf:parseType="Resource">
                  <stEvt:action>saved</stEvt:action>
                  <stEvt:instanceID>xmp.iid:60806719-f41b-468e-8a7c-591014943e39</stEvt:instanceID>
                  <stEvt:when>2014-04-04T14:24:24-04:00</stEvt:when>
                  <stEvt:softwareAgent>Adobe Illustrator CC (Macintosh)</stEvt:softwareAgent>
                  <stEvt:changed>/</stEvt:changed>
               </rdf:li>
            </rdf:Seq>
         </xmpMM:History>
      </rdf:Description>
   </rdf:RDF>
</x:xmpmeta>
                                                                                                    
                                                                                                    
                                                                                                    
                                                                                                    
                                                                                                    
                                                                                                    
                                                                                                    
                                                                                                    
                                                                                                    
                                                                                                    
                                                                                                    
                                                                                                    
                                                                                                    
                                                                                                    
                                                                                                    
                                                                                                    
                                                                                                    
                                                                                                    
                                                                                                    
                                                                                                    
                           
<?xpacket end="w"?>
	</metadata>
<g id="t5Jypo.tif">
	<g>
		<path fill="#FFFFFF" d="M1002.9,1010.6c1-3-0.3-5.7-0.8-8.3c-3.8-17.1-7.8-34.2-11.5-51.4c-1.8-8.5-4.1-16.9-3.4-25.7
			c0.2-2.5,0.5-3.6,3.4-3.5c8.6,0.2,17.2,0.2,25.8,0c2.8-0.1,3.5,1,3.3,3.6c-0.2,2.1-0.1,4.3,0,6.4c0,0.8-0.4,1.8,0.7,2.2
			c1,0.3,1.6-0.4,2.1-1c2.4-2.5,4.9-4.8,7.8-6.8c15.4-10.2,31.9-10.9,48.8-4.6c18.8,7.1,28.9,22,34.2,40.5
			c6.2,21.7,3.2,42.3-10.6,60.6c-8.4,11.2-19.6,18.5-33.5,20.9c-14,2.4-27.6,1.1-39.6-7.5c-1.9-1.3-3.4-3-5.1-4.5
			c-0.6-0.6-1.2-1.5-2.1-1.2c-1.2,0.4-0.7,1.6-0.7,2.5c0,14.5,0,28.9,0,43.4c0,4.6,0,4.6-4.6,4.6c-8.8,0-17.7-0.1-26.5,0.1
			c-2.7,0.1-3.4-0.8-3.4-3.5c0.1-16.1,0.1-32.3,0.1-48.4c0-4-0.3-4.2-4.1-2.8c-20.9,7.7-41.8,15.3-62.8,23
			c-12.6,4.6-25.3,9.1-37.9,13.9c-2.8,1.1-3.7,0.3-4.6-2.3c-13.8-37.9-27.7-75.7-41.7-113.6c-0.7-1.9-0.7-4.3-3-5.6
			c-0.5,3.6,0.8,6.8,1.4,10.1c4.1,21.3,8.4,42.6,12.7,63.9c0.4,2.1,0.1,3.8-1.3,5.7c-14.5,20.1-40.6,28.4-63.9,20.3
			c-5.7-2-10.5-5.6-15.1-9.4c-0.6-0.5-1.2-1.5-2-1.2c-1.2,0.4-0.8,1.6-0.8,2.5c0,14.5-0.1,28.9,0,43.4c0,3-0.6,4.2-3.9,4.1
			c-9.3-0.2-18.6-0.2-28,0c-2.8,0-3.4-0.9-3.4-3.5c0.1-50.8,0.1-101.6,0-152.4c0-2.7,0.8-3.5,3.5-3.4c8.8,0.1,17.7,0.1,26.5,0
			c2.6,0,3.3,0.9,3.1,3.3c-0.2,2.1-0.1,4.3,0,6.4c0,0.8-0.4,1.8,0.5,2.3c1.1,0.5,1.7-0.4,2.3-1.1c6.8-7.5,15.4-12.2,25.2-13.9
			c18-3.2,34.4,0.9,47.8,13.7c2.9,2.8,5.2,3.2,8.7,1.7c9-3.6,18.1-6.8,27.2-10c1.7-0.6,2.8-1.5,3.5-3.2c3.1-7.4,6.3-14.6,9.3-22
			c1-2.6,2.1-3.2,4.8-2c7.1,3.3,14.5,6.2,21.6,9.4c2.9,1.3,5.5,1.6,8.6,0.4c11.2-4.3,22.6-8.3,33.8-12.5c2.4-0.9,3.5-0.6,4.4,1.9
			c11.4,31.4,22.9,62.8,34.4,94.2c2.3,6.3,4.6,12.5,6.9,18.7C1001.6,1009.5,1001.8,1010.3,1002.9,1010.6z M934.8,938.5
			c-0.4,0.1-1.3,0.4-2.2,0.8c-16.8,6.3-33.6,12.6-50.5,18.8c-5.4,2-5.6,2.3-3.6,7.6c6.4,17.2,12.8,34.3,19.1,51.5
			c0.8,2.2,1.6,3,4.1,2.1c18.2-6.8,36.4-13.5,54.6-20.2c1.9-0.7,2.5-1.5,1.7-3.6c-3.1-8-6-16-9-24.1c-3.8-10.3-7.5-20.5-11.4-30.8
			C937.2,939.6,937.2,938.1,934.8,938.5z M1080.7,981.4c1.1-16.8-12.3-31.2-30-31.1c-17.5,0.1-30.7,13.4-30.4,31.4
			c0.3,17.5,13.1,30.5,31,30.3C1068.8,1011.9,1081.7,997.5,1080.7,981.4z M762.9,981.5c-0.6,17.5,13.5,30.6,30.3,30.5
			c17.2,0,30.2-13.3,30-31c-0.2-16.9-12-31-30.6-30.7C774.5,950.6,762.6,964.1,762.9,981.5z M908.1,910.5c-0.2-0.6-0.5-1.1-1.1-1.3
			c-4.5-1.9-8.9-3.9-13.4-5.7c-1.3-0.5-2.6-0.3-3.2,1.3c-1.8,4.1-3.6,8.2-5.3,12.4c-0.7,1.9-0.1,2.8,2,2c6.5-2.3,12.9-4.6,19.4-7
			C907.2,911.9,908.2,911.7,908.1,910.5z"/>
		<path fill="#414042" d="M260.9,982.5c0,18.8-0.1,37.5,0.1,56.3c0,2.9-0.5,3.9-3.6,3.8c-9.4-0.2-18.9-0.2-28.3,0
			c-2.8,0.1-3.5-0.8-3.3-3.4c0.2-2.2,0.1-4.5,0-6.8c0-0.8,0.3-1.8-0.8-2.1c-1-0.3-1.1,0.6-1.5,1.2c-8.1,10.9-19.7,14.6-32.6,15
			c-17,0.5-32-5-43.9-17.3c-9.7-10-15.2-22.3-16.9-36.2c-1.7-14.3-0.5-28.2,6.2-41.4c8.2-16.2,21.1-26.5,38.5-31.2
			c14.7-4,28.7-2.5,41.6,6.3c2.8,1.9,4.8,4.6,7.2,6.9c0.5,0.5,0.7,1.3,1.6,1c0.9-0.3,0.7-1.1,0.7-1.8c0-2.6,0.1-5.3,0-7.9
			c-0.1-1.8,0.3-2.5,2.3-2.5c10.2,0.1,20.3,0.1,30.5,0c2.8,0,2.4,1.5,2.4,3.2C260.9,944.5,260.9,963.5,260.9,982.5z M194.9,1013.4
			c19,1.1,30.7-14.2,30.8-31.2c0-17.1-11.9-30.3-29.6-31c-19.3-0.7-31.5,14.6-31.5,31.3C164.4,998.7,177.2,1014.7,194.9,1013.4z"/>
		<path fill="#414042" d="M620.3,982.6c0,18.8,0,37.5,0.1,56.3c0,2.6-0.4,3.7-3.4,3.6c-9.4-0.2-18.9-0.2-28.3,0
			c-2.9,0.1-3.7-0.9-3.5-3.6c0.2-2.1,0-4.3,0-6.4c0-0.6,0.2-1.2-0.5-1.6c-0.8-0.4-1.4,0.2-1.8,0.8c-5.7,8-14,12-23.3,13.7
			c-18.4,3.4-34.9-0.9-49.3-13c-12.1-10.2-18.3-23.8-20.6-39c-2.9-19,1-36.8,12.7-52.2c8.8-11.5,20.7-18.5,34.9-21.6
			c13.4-2.9,26-1.2,37.6,6.3c2.9,1.9,5.6,4,7.6,6.9c0.5,0.7,1.1,1.4,2.1,0.9c0.8-0.4,0.5-1.3,0.5-1.9c0-2.4,0.1-4.8,0-7.2
			c-0.1-1.9,0.6-2.4,2.5-2.4c9.9,0.1,19.8,0.1,29.7,0c2.4,0,3,0.6,3,3C620.3,944.4,620.3,963.5,620.3,982.6z M555,1013.4
			c17.7,1.4,29.9-14.7,30.4-30.2c0.5-16.3-11.9-32.9-32.1-31.9c-18.7,0.9-28.9,14.6-28.9,31.5C524.4,999.1,535.7,1014.3,555,1013.4z
			"/>
		<path fill="#414042" d="M272.5,982.5c0-18.9,0.1-37.8-0.1-56.6c0-2.9,0.8-3.6,3.6-3.5c8.8,0.2,17.7,0.2,26.5,0
			c2.6,0,3.4,0.7,3.1,3.2c-0.2,1.8-0.2,3.6,0,5.4c0.1,1-0.9,2.6,0.8,3c1.3,0.4,1.7-1,2.3-1.8c3.5-4.2,7.6-7.9,12.6-10.2
			c15.5-7,39.4-4,51.1,9.6c5.5,6.4,8.5,13.9,9.9,22.1c1,6,1.4,12,1.4,18c-0.1,22.5-0.1,44.9,0,67.4c0,2.8-0.7,3.5-3.5,3.5
			c-9.7-0.2-19.4-0.2-29,0c-2.7,0-3.4-0.7-3.4-3.4c0.1-22.7,0.1-45.4,0-68.1c0-5-0.9-9.9-4.4-13.9c-5-5.7-11.6-6.2-18.3-5.4
			c-11.6,1.4-16.5,8.2-16.7,20c-0.4,22.5-0.2,44.9-0.1,67.4c0,2.7-0.7,3.4-3.4,3.4c-9.7-0.2-19.4-0.2-29,0c-2.7,0-3.6-0.6-3.6-3.5
			C272.5,1020.2,272.5,1001.3,272.5,982.5z"/>
		<path fill="#414042" d="M108.8,968.4c-4.9,0-9.8-0.1-14.7,0c-1.8,0-3-0.3-3.8-2.2c-7.2-16.5-29.9-18.3-41.4-10.8
			c-7.2,4.7-10.8,11.6-12.4,19.8c-1.4,7-0.6,13.8,1.8,20.5c3.9,10.8,13.5,17,24,17.7c12.2,0.8,22.1-3.3,28.2-14.5
			c0.8-1.4,1.9-1.9,3.5-1.8c10.2,0.1,20.3,0.1,30.5,0c2.3,0,2.9,0.4,2.1,2.8c-8.2,24.8-24.8,40.2-50.6,45.4
			c-17.9,3.6-34.2-0.5-48.9-10.9c-14.2-10.1-22.5-24-25.7-41.1c-0.6-3.3-1.4-6.4-1.3-9.8c0.5-18,6.5-33.9,19.3-46.6
			c10.1-10.4,22.6-16.3,37.2-18c17.9-2.1,33.8,2.8,47.8,13.4c11.4,8.5,18.4,20.4,22.3,34.1c0.5,1.7-0.3,2-1.8,2
			C119.6,968.3,114.2,968.4,108.8,968.4z"/>
		<path fill="#414042" d="M644.6,1007.5c4.9,0,9.8,0.1,14.7-0.1c1.9-0.1,2.8,0.7,3.2,2.3c1.6,6,6.4,8,11.7,8.6
			c5.2,0.6,10.2-0.9,13.6-5.2c2.3-3,1.1-9.4-2.2-11.5c-6.9-4.3-14.7-6.3-22.1-9.2c-8.4-3.3-17.1-5.8-24.3-11.9
			c-9.8-8.3-13.4-20.2-9.3-32.4c5.2-15.7,16.5-24.2,31.9-28.1c17.3-4.3,33.1-1,46.9,10.4c6.4,5.3,9.4,12.9,11.1,20.9
			c0.2,0.8,0.2,1.6,0.5,2.4c0.8,1.9-0.1,2.4-2,2.4c-10-0.1-20.1-0.1-30.1,0c-1.7,0-2.3-0.8-2.7-2.1c-1.7-5.8-6.1-8.5-12.3-7.4
			c-2,0.3-4,0.3-5.8,1.5c-4.6,2.9-5.1,8.7-0.9,12.2c5.6,4.7,12.7,6.1,19.4,8.1c8.9,2.7,17.9,5.3,25.7,10.8
			c9.6,6.8,13.6,17.9,12.5,29.2c-1.4,14.6-9.1,25-21.7,31.7c-10.8,5.7-22.4,7.6-34.7,5.8c-9-1.4-17.4-3.9-24.8-9.4
			c-9.1-6.8-13.9-16.2-16-27.2c-0.4-1.9,1-1.7,2.2-1.8C634.3,1007.5,639.4,1007.5,644.6,1007.5z"/>
		<path fill="#414042" d="M380.4,922.4c11.9,0,23.3,0,34.6,0c2,0,2.1,1.3,2.6,2.7c5.1,16.6,10.3,33.2,15.5,49.7
			c2,6.3,3.9,12.6,5.8,18.9c0.3,1.1,0.4,2.6,1.8,2.7c1.6,0,1.4-1.8,1.7-2.7c6.3-20.3,12.5-40.6,18.8-60.9c1.1-3.4,0.9-8.2,3.8-9.8
			c2.7-1.6,7-0.5,10.5-0.5c8.2,0,16.5,0,25.1,0c-3.9,10.9-7.7,21.5-11.5,32c-6.5,17.9-12.9,35.9-19.4,53.8
			c-3.9,10.8-7.9,21.6-11.7,32.5c-0.5,1.5-1.3,1.7-2.6,1.7c-9.9,0-19.8,0-29.8,0c-1.6,0-2.2-0.6-2.8-2.1
			c-9.3-26.2-18.6-52.5-28-78.7C390.1,948.8,385.3,935.9,380.4,922.4z"/>
		<path fill="#FFFFFF" d="M1143.8,926.4c-2.2,2.5-2.2,5.5-3.6,7.9c-0.4,0.7-0.4,1.6-1.6,1.6c-1.1,0-1.4-0.8-1.7-1.5
			c-0.7-1.9-1.3-3.8-2-5.7c-0.2-0.6-0.5-1.1-1.2-1.1c-0.8,0.1-0.8,0.8-0.8,1.4c0,1.6,0,3.1,0,4.7c0,1,0.3,2.4-1.4,2.3
			c-1.4-0.1-1.3-1.2-1.3-2.1c0-3.7,0-7.4,0-11.1c0-1.1,0-2.2,1.5-2.3c1.3-0.1,2.7-0.2,3.3,1.4c0.9,2.3,1.7,4.7,2.6,7
			c0.2,0.5,0.3,1.2,1,1.3c0.9,0.1,1.2-0.5,1.5-1.3c0.7-2.2,1.4-4.3,1.9-6.5c0.5-2,1.8-2.1,3.5-2.1c2.1,0,1.7,1.5,1.7,2.8
			c0,3.1,0.1,6.2,0,9.3c-0.1,1.2,0.9,3.4-1.2,3.5c-2.3,0.1-1.2-2.1-1.4-3.3C1144.2,930.6,1144.9,928.6,1143.8,926.4z"/>
		<path fill="#FFFFFF" d="M1119.9,929.3c0-1-0.1-1.9,0-2.9c0.2-2.2-0.2-3.8-3-3.5c-0.9,0.1-2.1,0-2-1.4s1.2-1.3,2.2-1.3
			c2.9,0,5.7,0,8.6,0c1,0,2,0.1,2,1.5c-0.1,1.2-1,1.3-1.8,1.2c-3.3-0.5-3.4,1.5-3.3,3.9s0,4.8,0,7.2c0,0.8,0,1.8-1.2,1.8
			c-1.4,0.1-1.4-0.9-1.5-1.9C1119.9,932.4,1120,930.9,1119.9,929.3C1120,929.3,1119.9,929.3,1119.9,929.3z"/>
		<path fill="#FFFFFF" d="M908.1,910.5c0.1,1.1-0.8,1.4-1.6,1.6c-6.4,2.4-12.9,4.7-19.4,7c-2.1,0.8-2.8-0.2-2-2
			c1.7-4.2,3.5-8.3,5.3-12.4c0.7-1.6,1.9-1.8,3.2-1.3c4.5,1.9,8.9,3.8,13.4,5.7C907.6,909.5,907.9,909.9,908.1,910.5z"/>
	</g>
</g>
</svg>
