<?xml version="1.0" encoding="utf-8"?>
<!-- Generator: Adobe Illustrator 17.1.0, SVG Export Plug-In . SVG Version: 6.00 Build 0)  -->
<!DOCTYPE svg PUBLIC "-//W3C//DTD SVG 1.1//EN" "http://www.w3.org/Graphics/SVG/1.1/DTD/svg11.dtd">
<svg version="1.1" id="Layer_1" xmlns="http://www.w3.org/2000/svg" xmlns:xlink="http://www.w3.org/1999/xlink" x="0px" y="0px"
	 viewBox="0 0 792 464.8" enable-background="new 0 0 792 464.8" xml:space="preserve">
<path fill="#FFFFFF" d="M1,291.1l138-157c1.3-1.5,3.4-1.7,5-0.5l78.8,58.7c1.5,1.1,3.6,0.9,4.9-0.4L409.5,1.2
	c1.6-1.7,4.2-1.5,5.6,0.3l102.4,128.1c0.9,1.2,2.5,1.7,3.9,1.3l111.8-30.3c1.1-0.3,2.3-0.1,3.2,0.7l34.7,27.3
	c0.8,0.6,1.8,0.9,2.8,0.8l113.8-16.8c2.3-0.3,4.3,1.5,4.3,4v348.3H0v-171C0,292.8,0.4,291.8,1,291.1z"/>
</svg>
