<?xml version="1.0" encoding="utf-8"?>
<!-- Generator: Adobe Illustrator 17.1.0, SVG Export Plug-In . SVG Version: 6.00 Build 0)  -->
<!DOCTYPE svg PUBLIC "-//W3C//DTD SVG 1.1//EN" "http://www.w3.org/Graphics/SVG/1.1/DTD/svg11.dtd" [
	<!ENTITY ns_flows "http://ns.adobe.com/Flows/1.0/">
	<!ENTITY ns_extend "http://ns.adobe.com/Extensibility/1.0/">
	<!ENTITY ns_ai "http://ns.adobe.com/AdobeIllustrator/10.0/">
	<!ENTITY ns_graphs "http://ns.adobe.com/Graphs/1.0/">
]>
<svg version="1.1" id="Layer_1" xmlns:x="&ns_extend;" xmlns:i="&ns_ai;" xmlns:graph="&ns_graphs;"
	 xmlns="http://www.w3.org/2000/svg" xmlns:xlink="http://www.w3.org/1999/xlink" xmlns:a="http://ns.adobe.com/AdobeSVGViewerExtensions/3.0/"
	 x="0px" y="0px" viewBox="0 0 600 200" enable-background="new 0 0 600 200" xml:space="preserve">
<metadata><?xpacket begin="﻿" id="W5M0MpCehiHzreSzNTczkc9d"?>
<x:xmpmeta xmlns:x="adobe:ns:meta/" x:xmptk="Adobe XMP Core 5.5-c014 79.151739, 2013/04/03-12:12:15        ">
   <rdf:RDF xmlns:rdf="http://www.w3.org/1999/02/22-rdf-syntax-ns#">
      <rdf:Description rdf:about=""
            xmlns:dc="http://purl.org/dc/elements/1.1/"
            xmlns:xmp="http://ns.adobe.com/xap/1.0/"
            xmlns:xmpGImg="http://ns.adobe.com/xap/1.0/g/img/"
            xmlns:xmpMM="http://ns.adobe.com/xap/1.0/mm/"
            xmlns:stRef="http://ns.adobe.com/xap/1.0/sType/ResourceRef#"
            xmlns:stEvt="http://ns.adobe.com/xap/1.0/sType/ResourceEvent#"
            xmlns:illustrator="http://ns.adobe.com/illustrator/1.0/"
            xmlns:xmpTPg="http://ns.adobe.com/xap/1.0/t/pg/"
            xmlns:stDim="http://ns.adobe.com/xap/1.0/sType/Dimensions#"
            xmlns:xmpG="http://ns.adobe.com/xap/1.0/g/"
            xmlns:pdf="http://ns.adobe.com/pdf/1.3/">
         <dc:format>image/svg+xml</dc:format>
         <dc:title>
            <rdf:Alt>
               <rdf:li xml:lang="x-default">Print</rdf:li>
            </rdf:Alt>
         </dc:title>
         <xmp:MetadataDate>2014-04-07T17:08:34-04:00</xmp:MetadataDate>
         <xmp:ModifyDate>2014-04-07T17:08:34-04:00</xmp:ModifyDate>
         <xmp:CreateDate>2014-04-07T17:08:34-04:00</xmp:CreateDate>
         <xmp:CreatorTool>Adobe Illustrator CC (Macintosh)</xmp:CreatorTool>
         <xmp:Thumbnails>
            <rdf:Alt>
               <rdf:li rdf:parseType="Resource">
                  <xmpGImg:width>256</xmpGImg:width>
                  <xmpGImg:height>68</xmpGImg:height>
                  <xmpGImg:format>JPEG</xmpGImg:format>
                  <xmpGImg:image>/9j/4AAQSkZJRgABAgEASABIAAD/7QAsUGhvdG9zaG9wIDMuMAA4QklNA+0AAAAAABAASAAAAAEA&#xA;AQBIAAAAAQAB/+4ADkFkb2JlAGTAAAAAAf/bAIQABgQEBAUEBgUFBgkGBQYJCwgGBggLDAoKCwoK&#xA;DBAMDAwMDAwQDA4PEA8ODBMTFBQTExwbGxscHx8fHx8fHx8fHwEHBwcNDA0YEBAYGhURFRofHx8f&#xA;Hx8fHx8fHx8fHx8fHx8fHx8fHx8fHx8fHx8fHx8fHx8fHx8fHx8fHx8fHx8f/8AAEQgARAEAAwER&#xA;AAIRAQMRAf/EAaIAAAAHAQEBAQEAAAAAAAAAAAQFAwIGAQAHCAkKCwEAAgIDAQEBAQEAAAAAAAAA&#xA;AQACAwQFBgcICQoLEAACAQMDAgQCBgcDBAIGAnMBAgMRBAAFIRIxQVEGE2EicYEUMpGhBxWxQiPB&#xA;UtHhMxZi8CRygvElQzRTkqKyY3PCNUQnk6OzNhdUZHTD0uIIJoMJChgZhJRFRqS0VtNVKBry4/PE&#xA;1OT0ZXWFlaW1xdXl9WZ2hpamtsbW5vY3R1dnd4eXp7fH1+f3OEhYaHiImKi4yNjo+Ck5SVlpeYmZ&#xA;qbnJ2en5KjpKWmp6ipqqusra6voRAAICAQIDBQUEBQYECAMDbQEAAhEDBCESMUEFURNhIgZxgZEy&#xA;obHwFMHR4SNCFVJicvEzJDRDghaSUyWiY7LCB3PSNeJEgxdUkwgJChgZJjZFGidkdFU38qOzwygp&#xA;0+PzhJSktMTU5PRldYWVpbXF1eX1RlZmdoaWprbG1ub2R1dnd4eXp7fH1+f3OEhYaHiImKi4yNjo&#xA;+DlJWWl5iZmpucnZ6fkqOkpaanqKmqq6ytrq+v/aAAwDAQACEQMRAD8A9U4q7FXYq7FXYq7FXYq7&#xA;FXYq7FXYq7FXYq7FXYqwj8xfzb8teSIhDdFrvV5E9S302LZipJAaRzsi1Hz8AcVeJeWvzQ81+c/z&#xA;V8vHU7j0rBbxTBpsFVgT4WoSOrt/lN9FMVfUmKuxV2KuxV2KuxV2KuxV2KuxV2KvN/8AnIb/AMlZ&#xA;qX/GW2/5Ppir5FxS+4vy8/5QDyz/ANsmx/6hkxQyDFXYq7FXYq7FXYq7FXYq7FXYq7FXYq7FXYq7&#xA;FXYq+Vv+cmf/ACY0f/bPg/4nJirFvyf/APJmeXf+Ytf+InFX2lirsVdirsVdirsVdirsVdirsVdi&#xA;rzf/AJyG/wDJWal/xltv+T6Yq+RcUvuL8vP+UA8s/wDbJsf+oZMUMgxVxNNz0xV5B58/5yM8u6HP&#xA;JYaDCNavoyVkuA/G1Rh4OATLT/J2/wArFXlOpf8AORX5n3che3vLfT1rUR29tEwp4fvxMfxxVSs/&#xA;+chfzUgl5y6nFdrUfu5ra3C7f8Ykib8cVeleSv8AnJrTL6eOz802Y02RyFF/bFnt6n+dGq6D3Bb3&#xA;pir0X8yPN135b8hX/mPSRBczW62723q1khdZ5446/u2QkcZKijYq8J/6Gi8//wDVv0n/AJE3P/ZR&#xA;ir1nWPzt8vaF5O0jVtRK3GtapYwXaaTbGjc5YwzVLcvTjDkgFqnwrirxTWP+ci/zLvbtpbG6h0u3&#xA;qeFvBBFIAO3Jp1lYn5U+WKvWfyD/ADB84ecINV/T0kM8Wn+isVysQild5eZYNwpHRQg6KOuKqH5l&#xA;/wDOQmm+XbubSPL8CanqkBMdxcSEi2hkU0KUWjSMD1AIA8e2KvJLr/nIP81ZpjJHqsdsp6RRWtsV&#xA;Hy9SORvxxVUsP+ciPzStpQ89/BfKD/dXFtCqn/kQsLfjir2T8svz50fzZdx6TqcA0vWpNoBy5QTt&#xA;/LGxoVfwU/QSdsVTf86PPes+SvKttqmkxwSXM96lowuVZ1CPDLIWUIyfFWMddvbFXyv5y85az5u1&#xA;j9LauYzdCNYVEKcECKSQKVP8xxSgdB1u+0PWLXV7Aqt5ZuJIC68l5AU3Hfrir0L/AKGP/Mz/AH/a&#xA;f9I6/wBcUK9h/wA5AfmzqF7BY2Rt7i7uXEcEKWylmdjQAb4q93v/ADrH5J8pWt754v45tXlUl4bV&#xA;AGkl6mOCOu4QEAsTTvtUDFXi3mP/AJyd82XczpoVnb6Za1+CSUfWJyPEk0jHy4n54qxhfz5/NdZf&#xA;V/TpY7Aqba14kD/J9Kn3YqzTyj/zk9q8M6QeabGO7tTQNeWg9OZf8poyeD/IccVfQGha9pGu6ZDq&#xA;mk3KXdjOKxyp4jqrA7qw7g7jFUfirEfzC/M3y75IsVl1FjPfTgm006KnqyU25GuyJX9o/RXFXgGv&#xA;f85IfmHfzMdNeDSLf9iOGJJnp/lPOHqfdVXFUBpv/OQP5o2citJqaXsYNTDc28JU/No1jf8A4bFW&#xA;Q+c/zzsPOP5c3+jX1m1jrbPA0fp1e3lCSqzcSfiQ0B2av+t2xV4xil9xfl5/ygHln/tk2P8A1DJi&#xA;hkGKvCP+ci/zOurGnk7SJjFNNGJNXnQ0YRyD4LcHqOa/E/8Ak0HQnFXz3Y2N5f3kNlZQvcXdw4jg&#xA;gjBZnZjQAAYpe0+XP+cXdcurZJ9d1WLTZGFfqkEf1h1r2d+caA/6vL54oRGs/wDOK2oxwF9H12K5&#xA;mA/uLqFoQflIjS/8RxV5ZqX5c+ctM1600K/0yWC+v5Vgs60aKVmYLVJV5IQK1NDt3xS+ifzU0G38&#xA;v/kJe6LbsXisILKH1D1ZheQ8m/2TVNMUPlHFKO0vStX1vUodP06CS9v56JDCnxMQooOvRVUdTsBi&#xA;r1jTf+cXvOU8AkvtRsrORhX0QZJmHsxCqtfkTihnFt5S1/8ALD8o9dgsGbUNevJi0U1jHI5RZQkQ&#xA;YAAsPTQM9adcVfMpgn9f0TG3rluPpEHnyJpTj1ril7P5P/5xl1vUrFLzzBfjSDKA0dkkfrTBT/vw&#xA;lkVD7b+9OmKEm/Mf8hdc8o6bJrFpdpqukwlfrDhDFNEGNAzR1cFakCob6KYq8willhlSWJzHLGwe&#xA;N1NGVlNQQR0IOKX1Lquiah+bv5SeX3iu47S8aWO5uppVJVpbdJraWir05SEkYofP/wCYnkHUPI+u&#xA;RaTfXMV1JNbrdJLByC8HkeMAhgPi/dHFUp8t6LLrmv6fo8Uiwy6hOlukrglVMjcakDFL1/8A6FW8&#xA;wf8AV8tP+RUmKGc/lz+UekflzBqHmPW7qO9vbaGR1ulQhLe3ReUhQNU82A3PhsOpqq+dfPXnLU/N&#xA;3mO61i+YgSMVtbetVhgU/BGvyHXxNTilX8hfl55h87am1lpSKkUIDXd7NUQxKenIgElmp8Kjr8qn&#xA;FD1uT/nFIC0PpeZK3YFRytaRlvDaUsB7/hirxjzf5P1vylrUmkaxEI7hAHjkQ8o5YySFkjagqpp8&#xA;+x3xSy38j/zDuPKvmqGyuZiND1V1gvI2PwxyN8Mc48Cp2b/J+QxQ+rNc1e00bRr3Vrw0trGF55fE&#xA;hFJoPc9Bir4g80+ZdT8y67d6zqUhe5unLcanjGg+xGngqDYYpRvknyF5i85aobDR4QRGA1zdSkrD&#xA;Cp2BdgD17AAk+HXFXrzf84pt9TqvmMG9pWhtaRcvCvq8qe9PoxQ8d85eSfMHlDVjpuswBHI5QTxk&#xA;tDMlaco2oK+4IqO4xSkOKvuL8vP+UA8s/wDbJsf+oZMUMgxV8J+bNbl1zzNqmrysWN7cyyrXshY8&#xA;F+SpQDFL2b/nFvyzbSz6t5knQPNbFbOzY78C685mHvx4ivgTih9DYq7FVrxRSFC6K5jbnGWAPFqE&#xA;VFehoSMVYD+fn/kptd/6NP8AqMhxV8e4pfTH/OMflS3tfLl35lljBvNRla3t5CN1t4SAQp7c5a8v&#xA;9UYoe1Yq7FWJedPOH5deX5oZ/Mk9p9fhIltYmiE90pBqrIiq7pv0bYe+KsGvf+co/JkTFbPTL+5p&#xA;0dxDEp37fG5+8Yqx7zd/zkdomueWNU0eLR7mGXULaS3SV5IyqmRSKkDFXgmKX1p/zjnKz/lhaqaU&#xA;jublV+Rk5frbFDyz/nKL/lP9P/7ZMP8A1E3GKsG/K7/yY3lv/toW/wDycGKX21ih5n/zkRrMmm/l&#xA;pdQxkq+p3ENnyHWhJmYfSsJGKvknFL138svzu0jyR5ZXSV0KS6uXlee7u1nVPUdjRfhMbEBUCjri&#xA;hln/AENZp/8A1Lkv/SUv/VLFWAfm1+a+lefbSwEejvYXtjIxW5aYScopB8SUCJ+0qkfT44q81xS+&#xA;mfzZ8zzz/kJpd2zn1tcj0+Kc71LNH9YkFf8AWhPzxQ+ZsUvs38nfKdv5b8haZAsYW7vYlvb5/wBp&#xA;pZ1DUP8AqLRPoxQzXFXn/wCePlO38wfl/qEnphr7SUa+tJKfEPSHKVR7PGDt408MVfHuKX3F+Xn/&#xA;ACgHln/tk2P/AFDJihkGKvgCeGWCaSCVSssTFJFPUMpoR9+KX0r/AM4s3sT+UtXsQR60F/67jvxm&#xA;hRV/GFsUPasVdirsVef/AJ+f+Sm13/o0/wCoyHFXx7il9nfkxbLb/lf5fjUUDW7SdKbyyvIfxbFD&#xA;NMVeefnX+Y0vkzyygsSBrOps0NixofTCgGSah68OQA9yMVfI13d3V5cy3V3M9xczMXmmlYu7sepZ&#xA;juTillGg/lN+YmvWUd9peiyy2ko5RTSPFArr/MnrPHyHgRihFal+Sf5nabp9zqN7ovpWdnE89zL9&#xA;ZtX4xxqWduKSsxoorsMVYPil9V/840Ozflw4JJC384UeA4Rn9ZxQ81/5yi/5T/T/APtkw/8AUTcY&#xA;qwb8rv8AyY3lv/toW/8AycGKX21ih4z/AM5SRSN5L0uUCqJqKhm8C0EtP1Yq+Y8Us+0n8jvzF1bT&#xA;LXU7Cxils7yJZreT6xCKo4qKgtUH2OKEX/0Lz+af/Vti/wCkmD/mvFXf9C8/mn/1bYv+kmD/AJrx&#xA;V3/QvP5p/wDVti/6SYP+a8VZ/wDnHoeo6b+RXlvT7uMJdaZPZpdoCGCsttNGfiWoPxMMVfO+KX3f&#xA;5XvYL7y1pN7BT0bmzgljC7AK8akADtTFCZ4qkPn+8gs/I2v3E7cY00+5HzZomVVHuzEAYq+G8Uvu&#xA;L8vP+UA8s/8AbJsf+oZMUMgxV8f/AJ5+T5vLnn29lVKafq7NfWbgfDWQ1mTwHCQnbwIxVB/lN+Y0&#xA;3kfzGbuSNp9LvFEOowL9rgDVZErtzj3oD1BI71xV9c6B5n0DzDZLe6Nfw3tuwBJiarLXs6GjIfZg&#xA;DiqvqmsaTpNsbrU72Cxtx/u24kWNduwLEVOKvJPOX/OTHl3T+dt5atm1a6G31qXlFbKfao9ST7lH&#xA;viqZfmn5gtfMP5B3utW1PSvobKXiDXi5vIQ6fNHBU/LFXylil9tfld/5Lny3/wBs+3/4gMUMoxV8&#xA;1f8AOU5m/wAUaMDX0BYtw8Ofqtzp9HHFXi0BiE8ZlHKIMDIB3Wu/4YpfeelX2l3mmW93pksUunSR&#xA;q1tLCR6fpgbUp0oO3bFDx389Pzf0SLQbvyvodyl7qF8phvZoSHighJ+NeY+Eu32aDoK1oaYq+asU&#xA;vq3/AJxqiKflvyJBEt9O49gAi/8AGuKHn3/OU9o6eatHvClEmsTCr+JimZiPo9UffiryzyZq8Oje&#xA;bdG1Wf8A3nsryCabufTSQF6U78a4pfcdne2d9axXdnMlxazKHimiYOjKdwQw2OKGKfmx5XbzV5A1&#xA;KwtB6t2EF1YhfiLSwnmFX3daoPnir4vIIJBFCNiDil9Cf84//mxpFtpCeUtduktJLd2Ol3UzBYnS&#xA;RuRhZzsrByeNeoNO26h74royB1YMjDkrA1BB3qDirx/84Pzw03RLGbRvLd0l1rs4Mct1CweO0U7E&#xA;8xVWl8APs9T4FV555O/5yJ8+2c9vY6hDHr6SOsUaMPSumLEKqrJGKMT/AJSEnxxV7p+aXl658yfl&#xA;zqtgkNL5oFuIYQeZE0BEvpqR1LcSn04q+LcUvfvyC/N7TbGwj8peYLhbZImY6XfSsBHxc8jBIx+z&#xA;8RJQnbtttVQ+gTNCIfWMiiHjz9So48aVrXpTFXzt+f8A+ben6rbf4T8v3C3NpzV9UvYiGjcoQyQx&#xA;sNmAYBmYbVAp3xV4Til9laJ5v8u+Vfyw8q6hr139Ts5dPsLeOX05ZayNaBwvGJXb7KNvSmKEP/yv&#xA;z8pv+r7/ANOl5/1RxVPPP3kTSPOmgvpeoVjkU+pZ3airwygUDDxB6Mvce9CFXyN51/LzzT5PvWt9&#xA;XtGFuWpBfxgtbyjtxkp1/wAlqN7Yqx2OWWJucTsjdOSkg/eMUulmllblK7SN05MSTT6cVTLy75W8&#xA;weY79bHRbGW9nJHLgPgQHblI5oqL7scVe/8AmryVc+Tf+cd9V0a6uzd3Ie3nmI/u43kvIC0cVQDw&#xA;BFanqSTtWgUPmvFL7g/Lhkb8vvLRShH6LswaeIgQN+OKGRYq8y/Pj8u7vzb5ahudMj9XWNJZ5YIR&#xA;9qWJwPVjX/K+FWX5U74q+TJYpIpHilRo5Y2KujAhlYGhBB3BBxSuWedY2iWRlibdkBIU/MYqyTyJ&#xA;+XPmTznqIttLgK2iMBdahICIIR3q37TU6INz8t8UMev7K4sL65sbleNxayvBMvg8bFWH3jFL6r/5&#xA;xw/8lnB/zF3H/EhihNvzg/Lv/G3lf6tbFU1exYz6c7bBmpR4mPYSDv4gdsVfIGo6bf6bezWOoW8l&#xA;reW7cJoJVKup9wcUqImlEbRB2EbbsgJ4k+4xV9Yf847eYjqv5dw2kjcrjSJpLRq9TGf3sR+QWTgP&#xA;9XFDD/zo/Iu8uby48y+VIPVaYmTUNKjHxlzUvLCP2uXVkG9ela0xV8/SxSRSNFKhjkQlXRgQwI2I&#xA;IPQ4pXi6uRF6QmcRbj0wx40PXbpiq2GGWaVIYUaSWRgscaAszMTQAAbknFX0V+R/5KXWl3UXmjzN&#xA;B6V7H8Wm6a4+KIkf30o7P/Kv7PU70ooe64q+Zvzt/Je/03ULnzJ5dtmn0i4LTXtrEKtbOTV2VBuY&#xA;j12+z8qYq8WxSqfWLj0fR9V/R/33yPHrXp064qjIvL+ty6PPrSWUp0m2ZUmvSpEQZ24hQx2Y17Dp&#xA;iqX4q+gfzf8A/JAeSf8At1/906XFD5+xS/QLFCH1D9H/AFKb9I+l9R4/6R9Y4+lx/wAvn8NPnirx&#xA;vzD/ANCu/XD9e+o+rXf9H/W/S+j6j+7xVCaL/wBCsetH6HoetQf72/X+Nf8AK9f9zir2Xy//AIc/&#xA;Rsf+Hvqn6M/3V9Q9P0Po9L4cVXa//h/9Ez/4g+qfoj4PrP6Q9P6t9teHqet8H2+NK96Yqw//AJAB&#xA;/wB+p/3LsVZtpf6L/R1t+ivQ/Rvpr9T+q8PQ9Knw+n6fwcadOO2KorFXYq84/Mb/AJUh9bP+MvqP&#xA;6QoOfH1PrfHtz+q/vqeFcVYZov8A0Kx9bHo+l63I8Prv1/06VH+/v3VP9bfFXt+k/oj9HQfoj6v+&#xA;jeP+jfVOHocf8j0/gp8sVYNrP/Kif0td/pf9B/pT1W+u+v6Pq+rX4+dd+VetcVZX5S/wn+h1/wAL&#xA;fVf0Tzfj9S4+jzr8dOG1fHFU5xVhP5k/8qp+qp/jn6n9n9z6vL61xrv6Xo/6RSv8uKvJ7T/oVn66&#xA;OX1nhUcfV+vel/wvx08a4q9z8n/4P/Q0f+E/qn6Kr8P1Hhw5d+fHfn48t/HFU7xVg35gf8qg5/8A&#xA;O5/o763xH97T63w7U9L9/wAflirzAf8AQqX1s/3vpf8Ab09Pp/yMxV6f5A/5VD6n/Om/o363xNfR&#xA;p9b496+p+/4/hirOcVdirsVeTeeP+hdv0hJ/iP6h9f5fv/qnr+ry7+r9R35f62+KpX5f/wChXfry&#xA;/UPqXrVHH6/9c9Kvav13919+KvWNU/wp/h9v0r9R/wAO8Y+f1r0fqXDmvpV9T91Tnx4+9KYqxT/k&#xA;AH/fqf8AcuxVOvMX/Ku/8N2P6d/R3+HKxfo31/S+qV9JvR9H9inpcuPH9npirFR/0LpUf8o99PoY&#xA;q//Z</xmpGImg:image>
               </rdf:li>
            </rdf:Alt>
         </xmp:Thumbnails>
         <xmpMM:InstanceID>xmp.iid:c11b5bba-7a71-4b24-a498-42a7e34021d1</xmpMM:InstanceID>
         <xmpMM:DocumentID>xmp.did:c11b5bba-7a71-4b24-a498-42a7e34021d1</xmpMM:DocumentID>
         <xmpMM:OriginalDocumentID>uuid:5D20892493BFDB11914A8590D31508C8</xmpMM:OriginalDocumentID>
         <xmpMM:RenditionClass>proof:pdf</xmpMM:RenditionClass>
         <xmpMM:DerivedFrom rdf:parseType="Resource">
            <stRef:instanceID>uuid:d1c078a0-2746-42b2-b0d1-25aedff8fb1e</stRef:instanceID>
            <stRef:documentID>xmp.did:1b6690ed-28a8-c141-9479-b6a9cf6be651</stRef:documentID>
            <stRef:originalDocumentID>uuid:5D20892493BFDB11914A8590D31508C8</stRef:originalDocumentID>
            <stRef:renditionClass>proof:pdf</stRef:renditionClass>
         </xmpMM:DerivedFrom>
         <xmpMM:History>
            <rdf:Seq>
               <rdf:li rdf:parseType="Resource">
                  <stEvt:action>saved</stEvt:action>
                  <stEvt:instanceID>xmp.iid:c11b5bba-7a71-4b24-a498-42a7e34021d1</stEvt:instanceID>
                  <stEvt:when>2014-04-07T17:08:34-04:00</stEvt:when>
                  <stEvt:softwareAgent>Adobe Illustrator CC (Macintosh)</stEvt:softwareAgent>
                  <stEvt:changed>/</stEvt:changed>
               </rdf:li>
            </rdf:Seq>
         </xmpMM:History>
         <illustrator:StartupProfile>Print</illustrator:StartupProfile>
         <xmpTPg:HasVisibleOverprint>False</xmpTPg:HasVisibleOverprint>
         <xmpTPg:HasVisibleTransparency>False</xmpTPg:HasVisibleTransparency>
         <xmpTPg:NPages>1</xmpTPg:NPages>
         <xmpTPg:MaxPageSize rdf:parseType="Resource">
            <stDim:w>600.000000</stDim:w>
            <stDim:h>200.000000</stDim:h>
            <stDim:unit>Points</stDim:unit>
         </xmpTPg:MaxPageSize>
         <xmpTPg:PlateNames>
            <rdf:Seq>
               <rdf:li>Cyan</rdf:li>
               <rdf:li>Magenta</rdf:li>
               <rdf:li>Yellow</rdf:li>
               <rdf:li>Black</rdf:li>
            </rdf:Seq>
         </xmpTPg:PlateNames>
         <xmpTPg:SwatchGroups>
            <rdf:Seq>
               <rdf:li rdf:parseType="Resource">
                  <xmpG:groupName>Default Swatch Group</xmpG:groupName>
                  <xmpG:groupType>0</xmpG:groupType>
               </rdf:li>
            </rdf:Seq>
         </xmpTPg:SwatchGroups>
         <pdf:Producer>Adobe PDF library 10.01</pdf:Producer>
      </rdf:Description>
   </rdf:RDF>
</x:xmpmeta>
                                                                                                    
                                                                                                    
                                                                                                    
                                                                                                    
                                                                                                    
                                                                                                    
                                                                                                    
                                                                                                    
                                                                                                    
                                                                                                    
                                                                                                    
                                                                                                    
                                                                                                    
                                                                                                    
                                                                                                    
                                                                                                    
                                                                                                    
                                                                                                    
                                                                                                    
                                                                                                    
                           
<?xpacket end="w"?>
	</metadata>
<g>
	<g>
		<path fill="#3E3D3D" d="M376.1,129.3c2.5,13.1,7.6,21.2,18.8,24.2c15.4,4.2,26.1-3,34.8-15.5c6.8,2.5,13.3,5,20.5,7.7
			c-8.2,18.7-21.7,28.6-40.7,30.9c-37.5,4.6-66.2-25-60.7-62.6c3.3-22.8,13.1-40.6,37.1-47.2c34.1-9.4,64.3,12.7,65.7,48
			c0.2,4.4,0,8.8,0,14.5C426.6,129.3,402,129.3,376.1,129.3z M378.2,107.4c15.5,0,30.4,0,45.5,0c-3-13.5-10.5-20.1-22.1-20.3
			C389.8,87,381.2,94.1,378.2,107.4z"/>
		<path fill="#3E3D3D" d="M267.5,174.7c-7.5,0-13.9,0-20.6,0c-1.2-3.9-2.4-7.6-3.9-12.1c-10.4,9.6-21.6,15-35.4,14.3
			c-14.1-0.7-24.6-7.6-29.1-19.9c-5-13.7-1.6-27.9,8.9-37.1c10.3-9,23-11,36-11.6c5.7-0.3,11.4,0,16.9,0c1.7-11.2-0.4-15.8-8.1-19.2
			c-11-4.9-20.4-1.8-30.4,10.2c-6.6-1.5-13.4-3.1-20.2-4.6c2.3-16.2,16.1-28.2,33.8-29.6c4.4-0.3,8.8-0.3,13.2-0.1
			c22.2,1,37,13.4,38.4,35.6C268.7,124.9,267.5,149.3,267.5,174.7z M240.7,130.1c-8.2,0-16.6-0.6-24.9,0.2
			c-7.1,0.7-10.9,5.8-11.1,12.4c-0.2,6.4,2.9,10.5,9,11.7C225.2,156.5,244,145.4,240.7,130.1z"/>
		<path fill="#3E3D3D" d="M288.1,89.5c-5.5-0.3-9.2-0.5-13.9-0.8c0-6.9,0-13.8,0-21.2c4-0.5,7.9-0.9,13.3-1.5c0-9,0-17.9,0-26.7
			c9.1-5.7,17.1-10.7,26.6-16.7c0,15.1,0,28.7,0,43.6c15.9,0,30.6,0,47.2,0c-7.1,8.5-12.8,15.4-19.1,22.9c-8.3,0-17.1,0-27.6,0
			c0,4.7,0,9,0,13.2c0,10.5,0,21.1,0,31.6c0.1,18.7,4.9,22.7,24.6,19.3c1.9,6.2,3.8,12.5,5.7,18.8c-22.9,14.2-54.1-0.5-56.2-26.7
			c-1.1-14.2-0.6-28.5-0.8-42.7C288.1,98.5,288.1,94.5,288.1,89.5z"/>
		<path fill="#3E3D3D" d="M97.6,80.6c-2.8,5.8-5.6,11.5-8.9,18.2c-2.6-1.7-4.6-3.4-6.8-4.4c-4.9-2.3-9.8-4.8-14.9-6.1
			c-14.8-3.8-30,1.3-36.3,11.7c-7.5,12.3-6.7,34.1,2.4,44.3c8.7,9.8,20.6,12.1,32.6,9.3c9.3-2.2,18-7.2,27.7-11.2
			c2,4.8,4.5,11,7,16.8c-16,20.2-58.3,25.5-82.3,3.4C-4.7,141.6-6,104.7,15,82C37.4,57.7,81.1,61,97.6,80.6z"/>
		<path fill="#3E3D3D" d="M107.8,67.1c8.6,0,16.4,0,24.8,0c0.5,4.8,0.9,9.2,1.3,14c20.5-17,28.6-19.5,44.6-13.3
			c-1.4,6.9-2.8,14-4.1,20.8c-1.3,0.4-1.9,0.8-2.5,0.8c-21.4-2.4-32.8,5.2-36.4,26.7c-2,12.2-1.6,24.9-2.1,37.4
			c-0.3,6.7,0,13.4,0,20.8c-8.9,0-16.8,0-25.6,0C107.8,138.9,107.8,103.5,107.8,67.1z"/>
		<path fill="#3E3D3D" d="M598.6,149.4c0,5.5,0.1,10.5,0,15.5c-0.1,3-0.3,5.9-0.6,10c-4.4,0-8.4,0-12.3,0c-4,0-8,0-12.6,0
			c0-8.9,0-16.8,0-25.5C581,149.4,588.9,149.4,598.6,149.4z"/>
	</g>
	<path fill="#3E3D3D" d="M537.7,22.9c0,9.2,0,17.7,0,26.1c0,8.2,0,16.4,0,26c-3.1-1.9-4.2-2.6-5.3-3.3C506.7,56,474.8,67.2,465,95.5
		c-5,14.5-5.2,29.5-1.7,44.2c8,34.5,42.5,47.7,71.9,28c0.4-0.3,1.2,0,2,0c0.3,2,0.6,4,1.1,6.7c8.6,0,16.6,0,24.8-0.1
		c0-51,0-101.3,0-151.4C554.3,22.9,546.3,22.9,537.7,22.9z M533.1,145.1c-4.4,6.1-10.9,9.3-17.5,9.5c-0.5,0-1,0-1.4,0
		c-15,0-27.2-15.1-27.2-33.7c0-14.1,7-26.2,17-31.2c3.3-1.7,7.1-2.6,11.4-2.5c5.7,0.3,10.1,2.3,13.8,5.6c7.3,6,12.2,16.4,12.2,28.1
		C541.3,130.4,538.1,138.9,533.1,145.1z"/>
</g>
</svg>
