<?xml version="1.0" encoding="utf-8"?>
<!-- Generator: Adobe Illustrator 17.1.0, SVG Export Plug-In . SVG Version: 6.00 Build 0)  -->
<!DOCTYPE svg PUBLIC "-//W3C//DTD SVG 1.1//EN" "http://www.w3.org/Graphics/SVG/1.1/DTD/svg11.dtd" [
	<!ENTITY ns_flows "http://ns.adobe.com/Flows/1.0/">
	<!ENTITY ns_extend "http://ns.adobe.com/Extensibility/1.0/">
	<!ENTITY ns_ai "http://ns.adobe.com/AdobeIllustrator/10.0/">
	<!ENTITY ns_graphs "http://ns.adobe.com/Graphs/1.0/">
]>
<svg version="1.1" id="Layer_1" xmlns:x="&ns_extend;" xmlns:i="&ns_ai;" xmlns:graph="&ns_graphs;"
	 xmlns="http://www.w3.org/2000/svg" xmlns:xlink="http://www.w3.org/1999/xlink" xmlns:a="http://ns.adobe.com/AdobeSVGViewerExtensions/3.0/"
	 x="0px" y="0px" viewBox="0 0 20 20" enable-background="new 0 0 20 20" xml:space="preserve">
<g>
	<path fill="#3B3A3C" d="M5.2,9.1c-1.5,0-2.8-1.3-2.8-2.8s1.2-2.9,2.8-2.9S8,4.7,8,6.3S6.7,9.1,5.2,9.1z M5.2,4C3.9,4,2.9,5,2.9,6.3
		s1,2.3,2.3,2.3s2.3-1,2.3-2.3S6.4,4,5.2,4z"/>
</g>
<path fill="#3B3A3C" d="M6.4,6.6C6.4,6.6,6.5,6.6,6.4,6.6L6.4,6.6C6.5,6.6,6.4,6.6,6.4,6.6C6,6.7,5.1,6.9,5,6.9S4.7,6.8,4.7,6.6
	c0-0.1,0.2-1.1,0.2-1.5l0,0l0,0l0,0l0.4,1.3L6.4,6.6z"/>
<g>
	<path fill="#3B3A3C" d="M3.3,10.6l-0.1,0.7l0,0c0.1-0.1,0.2-0.2,0.3-0.2c0.1,0,0.2-0.1,0.3-0.1c0.2,0,0.3,0,0.4,0.1
		c0.1,0.1,0.2,0.1,0.3,0.2c0.1,0.1,0.1,0.2,0.2,0.3c0,0.1,0.1,0.3,0.1,0.4c0,0.2,0,0.3-0.1,0.5c-0.1,0.1-0.1,0.3-0.3,0.4
		S4.2,13.1,4,13.2c-0.1,0.1-0.3,0.1-0.4,0.1c-0.2,0-0.3,0-0.4-0.1c-0.1,0-0.3-0.1-0.4-0.2c-0.1-0.1-0.2-0.2-0.3-0.3
		c-0.1-0.1-0.1-0.3-0.1-0.4H3c0,0.1,0.1,0.3,0.2,0.3c0.1,0.1,0.2,0.1,0.4,0.1c0.1,0,0.2,0,0.2-0.1c0.1,0,0.1-0.1,0.2-0.1
		c0-0.1,0.1-0.1,0.1-0.2c0-0.1,0-0.2,0-0.2c0-0.1,0-0.2,0-0.2c0-0.1-0.1-0.1-0.1-0.2c0-0.1-0.1-0.1-0.2-0.1c-0.1,0-0.1,0-0.2,0
		c-0.1,0-0.2,0-0.3,0.1c-0.1,0-0.1,0.1-0.2,0.2H2.5l0.3-1.7h1.8v0.5H3.3z"/>
	<path fill="#3B3A3C" d="M5.1,11.6v-0.7h0.7v0.7H5.1z M5.8,12.5v0.7H5.1v-0.7H5.8z"/>
	<path fill="#3B3A3C" d="M7.3,11.3c0.1,0,0.1,0,0.2-0.1c0.1,0,0.1-0.1,0.2-0.1c0-0.1,0.1-0.1,0.1-0.2c0-0.1,0-0.2-0.1-0.3
		c-0.1-0.1-0.2-0.1-0.3-0.1c-0.2,0-0.3,0.1-0.4,0.2c-0.1,0.1-0.1,0.2-0.1,0.4H6.2c0-0.2,0-0.3,0.1-0.4c0.1-0.1,0.1-0.2,0.2-0.3
		c0.1-0.1,0.2-0.2,0.3-0.2C7,10,7.1,10,7.3,10c0.1,0,0.3,0,0.4,0.1c0.1,0,0.2,0.1,0.3,0.2c0.1,0.1,0.2,0.2,0.2,0.3
		c0.1,0.1,0.1,0.2,0.1,0.4c0,0.2,0,0.3-0.1,0.4c-0.1,0.1-0.2,0.2-0.3,0.2v0c0.2,0,0.3,0.1,0.4,0.3s0.1,0.3,0.1,0.5
		c0,0.2,0,0.3-0.1,0.4c-0.1,0.1-0.1,0.2-0.3,0.3c-0.1,0.1-0.2,0.2-0.4,0.2c-0.1,0-0.3,0.1-0.4,0.1c-0.2,0-0.3,0-0.5-0.1
		c-0.1-0.1-0.3-0.1-0.4-0.2c-0.1-0.1-0.2-0.2-0.2-0.4c-0.1-0.1-0.1-0.3-0.1-0.5h0.6c0,0.1,0,0.2,0,0.2c0,0.1,0.1,0.1,0.1,0.2
		c0,0.1,0.1,0.1,0.2,0.1c0.1,0,0.1,0.1,0.2,0.1c0.1,0,0.3,0,0.4-0.1c0.1-0.1,0.1-0.2,0.1-0.4c0-0.1,0-0.2-0.1-0.3
		c0-0.1-0.1-0.1-0.2-0.1c-0.1,0-0.2,0-0.2,0c-0.1,0-0.2,0-0.2,0v-0.5C7.1,11.3,7.2,11.3,7.3,11.3z"/>
	<path fill="#3B3A3C" d="M8.7,10.8c0.1-0.2,0.1-0.4,0.2-0.5c0.1-0.1,0.2-0.2,0.4-0.3C9.5,10,9.6,10,9.8,10s0.3,0,0.4,0.1
		c0.1,0.1,0.3,0.1,0.4,0.3c0.1,0.1,0.2,0.3,0.3,0.5c0.1,0.2,0.1,0.5,0.1,0.8c0,0.3,0,0.6-0.1,0.8c-0.1,0.2-0.1,0.4-0.3,0.5
		c-0.1,0.1-0.2,0.2-0.4,0.3c-0.1,0.1-0.3,0.1-0.4,0.1s-0.3,0-0.4-0.1C9.2,13.1,9.1,13,9,12.9c-0.1-0.1-0.2-0.3-0.2-0.5
		c-0.1-0.2-0.1-0.5-0.1-0.8C8.6,11.3,8.7,11,8.7,10.8z M9.3,11.9c0,0.1,0,0.2,0.1,0.4c0,0.1,0.1,0.2,0.1,0.3
		c0.1,0.1,0.2,0.1,0.3,0.1c0.1,0,0.2,0,0.3-0.1c0.1-0.1,0.1-0.2,0.1-0.3c0-0.1,0.1-0.2,0.1-0.4c0-0.1,0-0.2,0-0.3c0-0.1,0-0.1,0-0.2
		c0-0.1,0-0.2,0-0.2c0-0.1,0-0.2,0-0.2c0-0.1,0-0.2-0.1-0.2c0-0.1-0.1-0.1-0.1-0.2c-0.1,0-0.1-0.1-0.2-0.1c-0.1,0-0.2,0-0.2,0.1
		c-0.1,0-0.1,0.1-0.1,0.2c0,0.1-0.1,0.1-0.1,0.2c0,0.1,0,0.2,0,0.2c0,0.1,0,0.2,0,0.2c0,0.1,0,0.1,0,0.2C9.3,11.7,9.3,11.8,9.3,11.9
		z"/>
	<path fill="#3B3A3C" d="M12.9,10c0.2,0,0.4,0,0.5,0.1c0.1,0.1,0.3,0.1,0.3,0.2c0.1,0.1,0.2,0.2,0.2,0.3c0,0.1,0.1,0.2,0.1,0.4
		c0,0.1,0,0.3-0.1,0.4c0,0.1-0.1,0.2-0.2,0.3c-0.1,0.1-0.2,0.2-0.3,0.2C13.3,12,13.1,12,12.9,12h-0.7v1.1h-0.7V10H12.9z M12.7,11.5
		c0.1,0,0.2,0,0.2,0c0.1,0,0.1,0,0.2-0.1c0.1,0,0.1-0.1,0.1-0.1c0-0.1,0.1-0.1,0.1-0.2s0-0.2-0.1-0.2c0-0.1-0.1-0.1-0.1-0.1
		c-0.1,0-0.1-0.1-0.2-0.1c-0.1,0-0.2,0-0.2,0h-0.5v1H12.7z"/>
	<path fill="#3B3A3C" d="M15.5,10l0.7,2.2h0l0.7-2.2h1v3.2h-0.7v-2.3h0l-0.8,2.3h-0.5l-0.8-2.2h0v2.2h-0.7V10H15.5z"/>
	<path fill="#3B3A3C" d="M3.6,13.9l0.8,2.2h0l0.7-2.2h1v3.2H5.4v-2.3h0l-0.8,2.3H4.1l-0.8-2.3h0v2.3H2.6v-3.2H3.6z"/>
	<path fill="#3B3A3C" d="M8.3,13.9l1.2,3.2H8.8l-0.2-0.7H7.4l-0.3,0.7H6.4l1.2-3.2H8.3z M8.4,15.9L8,14.7h0l-0.4,1.2H8.4z"/>
	<path fill="#3B3A3C" d="M9.2,13.9h0.8l0.8,1.3l0.8-1.3h0.8l-1.2,2v1.2h-0.7v-1.3L9.2,13.9z"/>
	<path fill="#3B3A3C" d="M14.6,17.1v-2.1h-0.8v-0.5c0.1,0,0.2,0,0.3,0c0.1,0,0.2-0.1,0.3-0.1c0.1-0.1,0.2-0.1,0.2-0.2
		c0.1-0.1,0.1-0.2,0.1-0.3h0.5v3.2H14.6z"/>
	<path fill="#3B3A3C" d="M15.6,16.4v-0.6l1.4-1.8h0.6v1.9h0.4v0.5h-0.4v0.7h-0.6v-0.7H15.6z M16.9,14.8l-0.8,1.1h0.8L16.9,14.8
		L16.9,14.8z"/>
</g>
</svg>
