<?xml version="1.0" encoding="utf-8"?>
<!-- Generator: Adobe Illustrator 17.1.0, SVG Export Plug-In . SVG Version: 6.00 Build 0)  -->
<!DOCTYPE svg PUBLIC "-//W3C//DTD SVG 1.1//EN" "http://www.w3.org/Graphics/SVG/1.1/DTD/svg11.dtd" [
	<!ENTITY ns_flows "http://ns.adobe.com/Flows/1.0/">
	<!ENTITY ns_extend "http://ns.adobe.com/Extensibility/1.0/">
	<!ENTITY ns_ai "http://ns.adobe.com/AdobeIllustrator/10.0/">
	<!ENTITY ns_graphs "http://ns.adobe.com/Graphs/1.0/">
]>
<svg version="1.1" id="Layer_1" xmlns:x="&ns_extend;" xmlns:i="&ns_ai;" xmlns:graph="&ns_graphs;"
	 xmlns="http://www.w3.org/2000/svg" xmlns:xlink="http://www.w3.org/1999/xlink" xmlns:a="http://ns.adobe.com/AdobeSVGViewerExtensions/3.0/"
	 x="0px" y="0px" viewBox="0 0 60 60" style="enable-background:new 0 0 60 60;" xml:space="preserve">
<g>
	<path style="fill:#3B3A3C;" d="M11.6,31.8l-0.3,1.9l0,0c0.2-0.2,0.5-0.4,0.7-0.5c0.3-0.1,0.6-0.1,0.9-0.1c0.4,0,0.8,0.1,1.1,0.2
		c0.3,0.2,0.6,0.4,0.8,0.6c0.2,0.3,0.4,0.6,0.5,0.9c0.1,0.3,0.2,0.7,0.2,1.1c0,0.4-0.1,0.8-0.3,1.2s-0.4,0.7-0.7,1s-0.6,0.5-1,0.6
		c-0.4,0.1-0.8,0.2-1.2,0.2c-0.4,0-0.8-0.1-1.2-0.2s-0.7-0.3-1-0.5c-0.3-0.2-0.5-0.5-0.7-0.8s-0.3-0.7-0.3-1.2H11
		c0,0.4,0.2,0.7,0.4,0.9s0.6,0.3,0.9,0.3c0.2,0,0.4,0,0.6-0.1c0.2-0.1,0.3-0.2,0.5-0.4s0.2-0.3,0.3-0.5c0.1-0.2,0.1-0.4,0.1-0.6
		c0-0.2,0-0.4-0.1-0.6c-0.1-0.2-0.2-0.4-0.3-0.5c-0.1-0.1-0.3-0.3-0.5-0.3c-0.2-0.1-0.4-0.1-0.6-0.1c-0.3,0-0.6,0.1-0.7,0.2
		c-0.2,0.1-0.4,0.3-0.5,0.5H9.6l0.8-4.6h4.7v1.4H11.6z"/>
	<path style="fill:#3B3A3C;" d="M16.5,34.6v-1.8h1.9v1.8H16.5z M18.4,37v1.8h-1.9V37H18.4z"/>
	<path style="fill:#3B3A3C;" d="M22.4,33.8c0.2,0,0.4-0.1,0.6-0.1c0.2-0.1,0.3-0.2,0.4-0.3c0.1-0.1,0.2-0.3,0.2-0.6
		c0-0.4-0.1-0.6-0.4-0.8c-0.2-0.2-0.5-0.3-0.8-0.3c-0.4,0-0.8,0.1-1,0.4c-0.2,0.3-0.3,0.6-0.3,1.1h-1.6c0-0.4,0.1-0.8,0.2-1.2
		c0.1-0.4,0.3-0.7,0.6-0.9c0.3-0.3,0.6-0.5,0.9-0.6s0.7-0.2,1.2-0.2c0.3,0,0.7,0,1,0.1s0.6,0.2,0.9,0.5c0.3,0.2,0.5,0.4,0.7,0.7
		c0.2,0.3,0.3,0.6,0.3,1c0,0.4-0.1,0.8-0.3,1.1c-0.2,0.3-0.5,0.5-0.9,0.6v0c0.5,0.1,0.8,0.3,1.1,0.7c0.3,0.3,0.4,0.8,0.4,1.2
		c0,0.4-0.1,0.8-0.3,1.2c-0.2,0.3-0.4,0.6-0.7,0.9c-0.3,0.2-0.6,0.4-1,0.5c-0.4,0.1-0.8,0.2-1.2,0.2c-0.5,0-0.9-0.1-1.3-0.2
		c-0.4-0.1-0.7-0.3-1-0.6c-0.3-0.3-0.5-0.6-0.6-1c-0.1-0.4-0.2-0.8-0.2-1.3H21c0,0.2,0,0.4,0.1,0.6s0.2,0.4,0.3,0.5
		c0.1,0.1,0.3,0.3,0.4,0.4c0.2,0.1,0.4,0.1,0.6,0.1c0.4,0,0.7-0.1,1-0.4c0.3-0.2,0.4-0.6,0.4-1c0-0.3-0.1-0.6-0.2-0.7
		s-0.3-0.3-0.5-0.4s-0.4-0.1-0.6-0.1c-0.2,0-0.4,0-0.7,0v-1.2C22,33.8,22.2,33.8,22.4,33.8z"/>
	<path style="fill:#3B3A3C;" d="M26.8,32.5c0.2-0.6,0.4-1,0.7-1.3c0.3-0.3,0.6-0.6,1-0.7c0.4-0.1,0.8-0.2,1.2-0.2
		c0.4,0,0.8,0.1,1.2,0.2c0.4,0.1,0.7,0.4,1,0.7s0.5,0.8,0.7,1.3c0.2,0.6,0.2,1.2,0.2,2.1c0,0.8-0.1,1.5-0.2,2.1s-0.4,1-0.7,1.4
		c-0.3,0.3-0.6,0.6-1,0.7C30.4,38.9,30,39,29.6,39c-0.4,0-0.8-0.1-1.2-0.2c-0.4-0.1-0.7-0.4-1-0.7c-0.3-0.3-0.5-0.8-0.7-1.4
		s-0.2-1.3-0.2-2.1C26.5,33.8,26.6,33.1,26.8,32.5z M28.2,35.5c0,0.3,0.1,0.7,0.1,1s0.2,0.6,0.4,0.8c0.2,0.2,0.4,0.3,0.8,0.3
		c0.4,0,0.6-0.1,0.8-0.3c0.2-0.2,0.3-0.5,0.4-0.8s0.1-0.6,0.2-1c0-0.3,0-0.6,0-0.9c0-0.1,0-0.3,0-0.5c0-0.2,0-0.4,0-0.6
		c0-0.2-0.1-0.4-0.1-0.6s-0.1-0.4-0.2-0.6c-0.1-0.2-0.2-0.3-0.4-0.4s-0.4-0.2-0.6-0.2c-0.2,0-0.4,0.1-0.6,0.2
		c-0.2,0.1-0.3,0.2-0.4,0.4c-0.1,0.2-0.2,0.4-0.2,0.6c-0.1,0.2-0.1,0.4-0.1,0.6c0,0.2,0,0.4,0,0.6c0,0.2,0,0.4,0,0.5
		C28.2,34.8,28.2,35.1,28.2,35.5z"/>
	<path style="fill:#3B3A3C;" d="M38.6,30.3c0.5,0,1,0.1,1.4,0.2c0.4,0.2,0.7,0.4,0.9,0.6c0.2,0.3,0.4,0.5,0.5,0.9
		c0.1,0.3,0.2,0.7,0.2,1c0,0.3-0.1,0.7-0.2,1c-0.1,0.3-0.3,0.6-0.5,0.9c-0.2,0.3-0.5,0.5-0.9,0.6c-0.4,0.2-0.8,0.2-1.4,0.2h-2v3.1
		h-1.9v-8.6H38.6z M38.1,34.3c0.2,0,0.4,0,0.6,0c0.2,0,0.4-0.1,0.5-0.2c0.2-0.1,0.3-0.2,0.4-0.4c0.1-0.2,0.1-0.4,0.1-0.7
		s0-0.5-0.1-0.7c-0.1-0.2-0.2-0.3-0.4-0.4c-0.2-0.1-0.3-0.2-0.5-0.2c-0.2,0-0.4,0-0.6,0h-1.5v2.6H38.1z"/>
	<path style="fill:#3B3A3C;" d="M45.4,30.3l2,5.9h0l1.9-5.9H52v8.6h-1.8v-6.1h0l-2.1,6.1h-1.5l-2.1-6h0v6h-1.8v-8.6H45.4z"/>
	<path style="fill:#3B3A3C;" d="M12.7,40.4l2.1,6.2h0l2-6.2h2.8v8.9h-1.8V43h0l-2.2,6.3H14L11.8,43h0v6.3H9.9v-8.9H12.7z"/>
	<path style="fill:#3B3A3C;" d="M25.8,40.4l3.3,8.9h-2l-0.7-2H23l-0.7,2h-2l3.4-8.9H25.8z M25.9,45.8l-1.1-3.3h0l-1.2,3.3H25.9z"/>
	<path style="fill:#3B3A3C;" d="M28,40.4h2.2l2.1,3.5l2.1-3.5h2.2l-3.3,5.5v3.4h-2v-3.5L28,40.4z"/>
	<path style="fill:#3B3A3C;" d="M42.3,49.3v-5.7h-2.2v-1.3c0.3,0,0.6,0,0.9-0.1c0.3-0.1,0.5-0.2,0.8-0.3c0.2-0.1,0.4-0.3,0.6-0.5
		c0.2-0.2,0.3-0.5,0.3-0.8h1.4v8.8H42.3z"/>
	<path style="fill:#3B3A3C;" d="M45.3,47.3v-1.6l3.8-5.1h1.6v5.3h1.2v1.5h-1.2v2h-1.7v-2H45.3z M49,42.8l-2.3,3h2.3L49,42.8L49,42.8
		z"/>
</g>
<g>
	<path style="fill:#3B3A3C;" d="M17.7,27.8c-4.5,0-8.4-3.9-8.4-8.4s3.6-8.7,8.4-8.7s8.4,3.9,8.4,8.7S22.2,27.8,17.7,27.8z
		 M17.7,12.5c-3.9,0-6.9,3-6.9,6.9s3,6.9,6.9,6.9s6.9-3,6.9-6.9S21.3,12.5,17.7,12.5z"/>
</g>
<path style="fill:#3B3A3C;" d="M21.3,20.3C21.3,20.3,21.6,20.3,21.3,20.3L21.3,20.3C21.6,20.3,21.3,20.3,21.3,20.3
	c-1.2,0.3-3.9,0.9-4.2,0.9c-0.3,0-0.9-0.3-0.9-0.9c0-0.3,0.6-3.3,0.6-4.5l0,0l0,0l0,0l1.2,3.9L21.3,20.3z"/>
</svg>
