<?xml version="1.0" encoding="utf-8"?>
<!-- Generator: Adobe Illustrator 17.1.0, SVG Export Plug-In . SVG Version: 6.00 Build 0)  -->
<!DOCTYPE svg PUBLIC "-//W3C//DTD SVG 1.1//EN" "http://www.w3.org/Graphics/SVG/1.1/DTD/svg11.dtd" [
	<!ENTITY ns_flows "http://ns.adobe.com/Flows/1.0/">
	<!ENTITY ns_extend "http://ns.adobe.com/Extensibility/1.0/">
	<!ENTITY ns_ai "http://ns.adobe.com/AdobeIllustrator/10.0/">
	<!ENTITY ns_graphs "http://ns.adobe.com/Graphs/1.0/">
]>
<svg version="1.1" id="Layer_1" xmlns:x="&ns_extend;" xmlns:i="&ns_ai;" xmlns:graph="&ns_graphs;"
	 xmlns="http://www.w3.org/2000/svg" xmlns:xlink="http://www.w3.org/1999/xlink" xmlns:a="http://ns.adobe.com/AdobeSVGViewerExtensions/3.0/"
	 x="0px" y="0px" viewBox="213.9 213.9 84.3 84.3" enable-background="new 213.9 213.9 84.3 84.3" xml:space="preserve">
<path fill="#00B8E6" d="M269.9,246.4h19.5v29.9c0,7.3-5.9,13.2-13.2,13.2h-40.3c-7.3,0-13.2-5.9-13.2-13.2v-29.9h19.4
	c-2,2.8-3.2,6.2-3.2,9.9c0,9.4,7.6,17.1,17.1,17.1c9.4,0,17.1-7.6,17.1-17.1C273,252.6,271.8,249.2,269.9,246.4z M289.3,235.7v8.7
	h-21.2c-3.1-3.1-7.4-5.1-12.2-5.1c-4.8,0-9.1,1.9-12.2,5.1h-21.1v-8.7c0-4.4,2.2-8.4,5.6-10.8v14.2h2.7v-15.7
	c0.6-0.2,1.2-0.4,1.9-0.6v16.3h2.7v-16.6c0.1,0,0.2,0,0.3,0h1.6v16.6h2.7v-16.6h36C283.4,222.5,289.3,228.4,289.3,235.7L289.3,235.7
	z M283.3,230.1c0-1.2-0.9-2.1-2.1-2.1h-7.1c-1.2,0-2.1,0.9-2.1,2.1v7.3c0,1.2,0.9,2.1,2.1,2.1h7.1c1.2,0,2.1-0.9,2.1-2.1V230.1
	L283.3,230.1z M242.8,256.3c0-3.9,1.7-7.5,4.5-9.9c1-0.8,2.1-1.6,3.2-2.1c1.7-0.8,3.5-1.2,5.4-1.2c1.9,0,3.8,0.4,5.4,1.2
	c1.2,0.5,2.3,1.2,3.2,2.1c2.7,2.4,4.5,5.9,4.5,9.9c0,7.2-5.9,13.1-13.1,13.1C248.7,269.4,242.8,263.5,242.8,256.3L242.8,256.3z
	 M246.3,256.3c0,5.4,4.3,9.7,9.7,9.7s9.7-4.3,9.7-9.7c0-5.4-4.3-9.7-9.7-9.7C250.6,246.6,246.3,250.9,246.3,256.3L246.3,256.3z"/>
</svg>
