<?xml version="1.0" encoding="utf-8"?>
<!-- Generator: Adobe Illustrator 17.1.0, SVG Export Plug-In . SVG Version: 6.00 Build 0)  -->
<!DOCTYPE svg PUBLIC "-//W3C//DTD SVG 1.1//EN" "http://www.w3.org/Graphics/SVG/1.1/DTD/svg11.dtd" [
	<!ENTITY ns_flows "http://ns.adobe.com/Flows/1.0/">
	<!ENTITY ns_extend "http://ns.adobe.com/Extensibility/1.0/">
	<!ENTITY ns_ai "http://ns.adobe.com/AdobeIllustrator/10.0/">
	<!ENTITY ns_graphs "http://ns.adobe.com/Graphs/1.0/">
]>
<svg version="1.1" id="Layer_1" xmlns:x="&ns_extend;" xmlns:i="&ns_ai;" xmlns:graph="&ns_graphs;"
	 xmlns="http://www.w3.org/2000/svg" xmlns:xlink="http://www.w3.org/1999/xlink" xmlns:a="http://ns.adobe.com/AdobeSVGViewerExtensions/3.0/"
	 x="0px" y="0px" viewBox="0 0 600 200" enable-background="new 0 0 600 200" xml:space="preserve">
<g>
	<path fill="#414042" d="M373.1,85.8c-2.4-3.6-3.8-8-3.8-12.7V73c0-11.9,8.7-21.6,21.3-21.6h0.2c12.5,0,21.2,9.7,21.2,21.6v0.2
		c0,3.7-0.7,7.2-2.1,10.2l-4.3-3.8l-9.6,11c8.4,1.4,17.1,2.5,26.1,3.2l0,0c4.1-5.9,6.3-12.7,6.3-20.1v-0.2
		c0-20.1-15.7-36.4-37.5-36.4c-21.9,0-37.7,16.5-37.7,36.6v0.2c0,2.1,0.2,4.1,0.5,6.1C359.7,82.2,366.3,84.1,373.1,85.8L373.1,85.8z
		"/>
	<path fill="#414042" d="M481.6,93.7c4.9-0.4,9.7-0.9,14.5-1.5c1.4-4,2.2-8.7,2.2-14v-40h-15.6v40.6c0,7.8-2.8,12.9-7.6,15.4
		C477.3,94.1,479.4,93.9,481.6,93.7L481.6,93.7z"/>
	<path fill="#414042" d="M524.8,87.7V38.3h-15.6v52.2C514.5,89.6,519.7,88.7,524.8,87.7L524.8,87.7z"/>
	<path fill="#414042" d="M552.4,80.9V64.1l10.4,13.6c5-1.6,9.9-3.4,14.6-5.2l-26-34.2h-14.4V85C542.3,83.7,547.4,82.4,552.4,80.9
		L552.4,80.9z"/>
	<path fill="#414042" d="M461.4,94.9c-5.8-2.1-9.2-7.7-9.2-16.5V38.3h-15.6v40.5c0,6.3,1.1,11.7,3.1,16.1
		C446.8,95.1,454,95.1,461.4,94.9L461.4,94.9z"/>
	<path fill="#414042" d="M537.1,92v17.1h15.4V89.3C547.4,90.2,542.3,91.2,537.1,92L537.1,92z"/>
	<path fill="#414042" d="M509.2,95.7v13.4h15.6V93.8C519.7,94.5,514.5,95.2,509.2,95.7L509.2,95.7z"/>
	<path fill="#414042" d="M493,97.2c-17.5,1.4-34.6,1.9-51.1,1.6c5.2,7.6,13.9,11.4,25.4,11.4c12.2,0,21.5-4.3,26.6-13
		C493.5,97.2,493.3,97.2,493,97.2L493,97.2z"/>
	<path fill="#414042" d="M387.5,94.7c-0.1,0-0.2,0-0.4-0.1c-10.7-1.5-21-3.3-30.9-5.5c5.7,12.5,18.3,21.1,34.2,21.1
		c7.9,0,15.2-2.3,21.1-6.2l11.2,10l10-11.3l-5.4-4.5C413.6,97.7,400.2,96.5,387.5,94.7L387.5,94.7z"/>
	<path fill="#414042" d="M584.6,81.9L584.6,81.9c-5.1,1.4-10.3,2.7-15.7,3.9l17.8,23.3H600V77.5C595,79,589.9,80.5,584.6,81.9
		L584.6,81.9L584.6,81.9z"/>
	<path fill="#414042" d="M584.6,38.3v31.3c5.3-2.2,10.4-4.6,15.4-7.1V38.3H584.6L584.6,38.3z"/>
	<path fill="#414042" d="M128.7,59.7c5.5-0.3,10.9-0.6,16.3-0.8c3.7-4.6,9.1-7.5,15.2-7.5c8.2,0,13.1,2.6,18.5,7.2l9.8-11.8
		c-7.4-6.3-15.1-9.7-27.8-9.7c-16.2,0-29.2,9.5-34.5,22.8C127,59.8,127.8,59.8,128.7,59.7L128.7,59.7z"/>
	<path fill="#414042" d="M217.7,60.7c3.7-5.6,9.9-9.3,17.5-9.3c9.6,0,17.1,5.9,20,14.1c6,1,11.8,2.2,17.4,3.5
		c-2.1-18-17.1-32-37.3-32c-16.4,0-29.4,9.3-34.9,22.4C206.3,59.8,212.1,60.2,217.7,60.7L217.7,60.7z"/>
	<path fill="#414042" d="M94.8,62.7V38.3H79.2v26.4C84.4,64,89.6,63.3,94.8,62.7L94.8,62.7z"/>
	<path fill="#414042" d="M328.8,81.9L328.8,81.9L328.8,81.9l-33.2-43.6h-14.4v32.8c5.4,1.4,10.5,2.8,15.4,4.4V64.1l34.3,45h13.3
		V86.3C338.9,85,333.7,83.5,328.8,81.9L328.8,81.9L328.8,81.9z"/>
	<path fill="#414042" d="M281.2,109.1h15.4V88.3c-4.9-2.4-10-4.6-15.4-6.7V109.1L281.2,109.1z"/>
	<path fill="#414042" d="M328.8,38.3v31.3c4.8,2.5,10,4.8,15.4,7V38.3H328.8L328.8,38.3z"/>
	<path fill="#414042" d="M256.7,73.6C256.7,73.6,256.7,73.7,256.7,73.6v0.3C256.7,86,248,96,235.4,96C222.9,96,214,85.8,214,73.7
		v-0.2c0-2.8,0.5-5.5,1.4-8c-5.3-0.7-10.8-1.3-16.3-1.7c-0.9,3.2-1.4,6.5-1.4,10v0.2c0,20.1,15.7,36.4,37.5,36.4
		c20.1,0,35.1-13.9,37.4-31.8C267.5,76.7,262.2,75.1,256.7,73.6L256.7,73.6z"/>
	<path fill="#414042" d="M160.3,81.8H176v10.1c-3.9,2.8-9,4.3-14.7,4.3c-12.5,0-21.5-9.5-21.5-22.5v-0.2c0-3.7,0.9-7.3,2.4-10.4
		c-2.9,0.2-5.9,0.4-8.8,0.6c-2.9,0.2-5.8,0.5-8.7,0.8c-0.7,2.9-1.1,6-1.1,9.2v0.2c0,20.9,15.2,36.4,37.2,36.4
		c12.9,0,23-5.1,30.3-11.2V68.3h-30.8V81.8L160.3,81.8z"/>
	<path fill="#414042" d="M94.8,68.6c-5.3,0.9-10.5,1.9-15.6,3v37.5h44.3V94.4H94.8V68.6L94.8,68.6z"/>
	<path fill="#414042" d="M5.3,96.6L0,109.1h15.9l6-14.7h30.9l6,14.7h16.3L61,76.1C40.6,81.5,21.9,88.5,5.3,96.6L5.3,96.6z"/>
	<path fill="#414042" d="M30.2,73.9l7.2-17.5L43.3,71c4.7-1,9.5-1.9,14.4-2.8L44.7,37.8H30.4L13.1,78.4
		C18.6,76.9,24.3,75.4,30.2,73.9L30.2,73.9z"/>
	<path fill="#414042" d="M318.6,141.7v-0.1c0-11.7,8.8-21.4,21.3-21.4c7.6,0,12.2,2.7,16.2,6.4l-4.7,5.4c-3.3-3.1-6.8-5.1-11.6-5.1
		c-7.9,0-13.6,6.5-13.6,14.6v0.1c0,8.1,5.7,14.7,13.6,14.7c5.1,0,8.3-2.1,11.9-5.4l4.7,4.7c-4.3,4.5-9,7.3-16.8,7.3
		C327.5,162.9,318.6,153.6,318.6,141.7L318.6,141.7z"/>
	<path fill="#414042" d="M395.7,141.7v-0.1c0-8-5.8-14.7-14-14.7c-8.2,0-13.9,6.6-13.9,14.6v0.1c0,8,5.8,14.7,14.1,14.7
		C390,156.3,395.7,149.7,395.7,141.7L395.7,141.7z M360.2,141.7v-0.1c0-11.6,9-21.4,21.7-21.4s21.5,9.6,21.5,21.2v0.1
		c0,11.6-9,21.4-21.7,21.4S360.2,153.3,360.2,141.7L360.2,141.7z"/>
	<polygon fill="#414042" points="410.9,120.9 418.1,120.9 418.1,155.6 439.8,155.6 439.8,162.2 410.9,162.2 410.9,120.9 	"/>
	<polygon fill="#414042" points="447.3,120.9 454.6,120.9 454.6,155.6 476.3,155.6 476.3,162.2 447.3,162.2 447.3,120.9 	"/>
	<polygon fill="#414042" points="483.8,120.9 514.5,120.9 514.5,127.4 491.1,127.4 491.1,138.1 511.8,138.1 511.8,144.6 
		491.1,144.6 491.1,155.7 514.8,155.7 514.8,162.2 483.8,162.2 483.8,120.9 	"/>
	<path fill="#414042" d="M521,141.7v-0.1c0-11.6,8.9-21.4,21.3-21.4c7.2,0,11.6,2,15.9,5.6l-4.6,5.5c-3.2-2.7-6.3-4.4-11.6-4.4
		c-7.6,0-13.4,6.7-13.4,14.6v0.1c0,8.5,5.6,14.8,14.1,14.8c3.9,0,7.4-1.2,10-3.1v-7.7h-10.6v-6.3h17.6v17.4
		c-4.1,3.5-9.9,6.4-17.2,6.4C529.5,162.9,521,153.7,521,141.7L521,141.7z"/>
	<polygon fill="#414042" points="569.1,120.9 599.7,120.9 599.7,127.4 576.3,127.4 576.3,138.1 597,138.1 597,144.6 576.3,144.6 
		576.3,155.7 600,155.7 600,162.2 569.1,162.2 569.1,120.9 	"/>
</g>
</svg>
