<?xml version="1.0" encoding="utf-8"?>
<!-- Generator: Adobe Illustrator 17.1.0, SVG Export Plug-In . SVG Version: 6.00 Build 0)  -->
<!DOCTYPE svg PUBLIC "-//W3C//DTD SVG 1.1//EN" "http://www.w3.org/Graphics/SVG/1.1/DTD/svg11.dtd" [
	<!ENTITY ns_flows "http://ns.adobe.com/Flows/1.0/">
	<!ENTITY ns_extend "http://ns.adobe.com/Extensibility/1.0/">
	<!ENTITY ns_ai "http://ns.adobe.com/AdobeIllustrator/10.0/">
	<!ENTITY ns_graphs "http://ns.adobe.com/Graphs/1.0/">
]>
<svg version="1.1" id="Layer_1" xmlns:x="&ns_extend;" xmlns:i="&ns_ai;" xmlns:graph="&ns_graphs;"
	 xmlns="http://www.w3.org/2000/svg" xmlns:xlink="http://www.w3.org/1999/xlink" xmlns:a="http://ns.adobe.com/AdobeSVGViewerExtensions/3.0/"
	 x="0px" y="0px" viewBox="0 0 600 200" enable-background="new 0 0 600 200" xml:space="preserve">
<g>
	<g>
		<g>
			<path fill="#414042" d="M184.7,35.8c0,0-5.1-10.4-14.9-1.8c0,0-1.6,3.5-1,4.8l-6.4,0.9c0,0-1.2-2-2.2-1.6c0,0-3.3-0.4-3.7,0.1
				c0,0-1.5,0.4-1.7,1l-0.7,1l-6.8,0.9c0,0-3.4-10.2-13.2-3.9c0,0-5.7,4.5-0.7,11.3c0,0,5.3,5.4,11.7,0.9c0,0,2.5-2.3,2.9-6.1
				l6.1-0.4c0,0,0.5,3.5,2.4,4.7c0,0-1.9,6-3.7,7.6c0,0-4,4.2-3.8,5.3c0,0-4.6-0.1-5.8,1.9c0,0-7.2-4.1-11.9,2.2h-4V63
				c0,0,3.3,0.3,3.1-2.8V57c0,0,3.6,2.5,3.9-1.9c0,0-1.2-1.5-2.3-0.3c0,0-0.6,1.3,0.3,1.6c0,0-0.3-1.4,0.3-1.2c0,0,1.3,0.6,0.7,1.3
				c0,0-1.4,1.2-2.9-0.4l-0.3-0.2v1.1l-1.8,1.3c-1.7,0.6-2.3-0.7-2.3-0.7c-0.1-0.2-0.1-0.4,0-0.5h0c0,0,0.7-2.7,2.1-1.1
				c0,0,0.2,0.5,0,0.9c0,0-0.5-0.8-0.8-0.6c0,0-0.5-0.1-0.7,0.8c0.1,0.4,0.4,0.6,0.4,0.6c0.8,1.1,2.6-1.4,2.6-1.4l0.5-0.3l-0.2-0.1
				l1.4-1.2c0,0-2.3-8.8-10-9.8c-0.1,0-0.1,0-0.2,0c-0.3,0-0.6,0-0.9,0c-2.8,0.3-12.9,2.3-9,12.9c0,0,4.5,4.8,5.1,5.1v4
				c0,0-4.5,1-6.3,2.9c0,0-9.1-3.3-10.7,8.8v1.4c0,0-5,7.7-5.4,13.3c0,0-0.4,1.9,1.2,2.9c0,0,5.4,6.4,18.7,4c0,0,0.7,2.3,1.9,3.1
				c0,0-6.4,5.6-4.7,12.4l-1.6,2l0.7,0.9c0,0-2.8,2.7-1.5,12.6c0,0-6.4,2-5.4,12c0,0,1.3,10.4,2.3,14c0,0,0.4,3.2-0.4,4.4l0.1,2.3
				l1.5,1c0,0,5.5,3.4,7.6,2.6c0,0,3.1-0.1,0-5c0,0-5.3-3.2-3-8.8c0,0,6.1-15.6,5.8-19c0,0,3.1-0.7,3.6-4.4c0,0,4.3-5,4.7-6.6h1.7
				c0,0,1.2-4.2,1.9-4.2c0,0,2.7-0.6,3.1-0.9c0,0,7.2,0.6,10.4-2.2h2.4c0,0-0.9,3.4,0.6,5.3c0,0-0.5,6.4,2.3,11.8c0,0,0.9,3.2,0,4.1
				c-0.9,0.9,0,0.5,0,0.5s-1,1.7-0.4,1.6c0,0-7.2,0.7-7.6,1.7l-5.7,22.3c0,0,5.8,6,19.8,5.8c0,0,12.6,0.3,16.3-7.3l-5.1-20.5
				c0,0-3.5-0.9-5.8-1.5c0,0-7.9-3.1-5.4-8c0,0,4-9.9,4.8-20.3c0,0,1-2.6,0.6-5.8c0,0-9.1-8-21.4-6.3c0,0,1.3-6.3,0.7-9.2
				c0,0,2.9-4.8,2.7-11c0,0,0.9-2,0.9-2.9c0,0,13.1-5.7,14.7-7.8c0,0,3.8,0.9,4.4-13.1c0,0,0.6-4.4-0.4-7.9c0,0,0.9-2.8,1.3-5.8
				l7-0.9c0,0,2.3,6.7,8.9,5.6C178.2,46.6,186.7,44.7,184.7,35.8z M113.3,94.3c-1.5-0.7-7.5-3.8-7.5-3.8c1.3-0.4,3.4-2.3,3.4-2.3
				c1.2,0.3,5.3,2.7,5.3,2.7c2.5,1.1,4.4,5,4.9,6c0.1,0.1,0.1,0.2,0.1,0.3c0,0,0-0.1-0.1-0.3C118.6,95.7,113.3,94.3,113.3,94.3z"/>
			<path fill="#414042" d="M202.5,169.3c-6.1,0-11.7-2.9-11-10.8h2.3c0.4,2.9,3,3.3,8.5,3.3c2.6,0,8.8-0.2,8.8-5
				c0-3-1.7-4.9-5.7-5.2c-1.9-0.1-3.5-0.1-4.9-0.1c-6.4-0.2-8.6-5.5-8.6-8.7c0-7.3,4.3-10.5,10.3-10.5c2.5,0,4.7,0.7,6,3.3
				c0.4-2.1,2.1-3.3,3.9-3v9.7h-2c-0.8-3.6-3.8-3.9-8-3.9c-4.9,0-7.7,1.2-7.7,5.5c0,2.7,1.8,5.3,6.1,5.5l4,0.1
				c6.1,0.1,8.9,3.5,9,8.4C213.5,164.6,209.8,169.3,202.5,169.3"/>
			<path fill="#414042" d="M251.6,168.8c-3.1,1.5-5,0.3-5.7-3c-1.2,3.6-3,4.1-5.7,3v-7.5c2.7,1.3,4.6,0.6,4.6-3.3v-6.1h-19v6
				c0,3.9,1.9,4.7,4.6,3.3v7.5c-2.6,1.2-4.5,0.7-5.7-3c-0.7,3.3-2.5,4.7-5.7,3v-7.4c2.6,1.6,4.6,0.5,4.6-3.8v-14.1
				c0-3.9-1.9-4.6-4.6-3.6V133c2.6-1.2,4.5-0.7,5.7,3c0.7-3,2.5-4.3,5.7-3v7c-2.6-1.6-4.6-0.8-4.6,3.8v6h19v-6.3
				c0-4.1-1.9-4.6-4.7-3.7l0.2-6.9c2.5-0.9,4.6-0.2,5.6,3.2c0.8-3,2.7-4.4,5.5-3.2l0.1,7.2c-2.4-1.6-4.4-0.7-4.4,3.5V158
				c0,3.9,1.9,5.1,4.6,3.4V168.8z"/>
			<path fill="#414042" d="M263.3,165.5c-0.8,3.4-3,4.4-5.5,3l-0.2-7.5c2.7,1.8,4.6,0.3,4.6-2.5l0.1-16.4c0-3.5-2.3-4.3-4.6-2.7V133
				c2.2-1.9,5-0.4,5.7,3c1-3.7,3-4.3,5.7-3.2v6.4c-2.4-1.3-4.6-0.2-4.6,2.9l-0.1,16.9c0,3.1,2.1,3.8,4.6,2.6l0.4,7
				C266.3,170.1,264.1,168.9,263.3,165.5"/>
			<path fill="#414042" d="M286.7,169c-3.3,0.1-4.3-1.5-4.7-3.4c-0.2,0.9-0.5,1.7-1.2,2.5c-0.7,0.7-2.1,1.5-5,0.5l0.1-7.2
				c2.4,1.5,4.5,0.7,4.5-3.9v-14.8c0-4.4-2.7-4.5-4.9-3.3l-0.1-6.4c3.2-1.5,5.4-0.6,6.1,2.7c0.4-2.1,2.6-3.5,5.5-2.9l0.2,6.6
				c-1.9-0.7-4.6-1.4-4.6,3.2V156c0,0.5,0.1,1.4,0.2,2.6c0.2,2.4,1.6,3.5,5,3.5c2.4,0,4.9-0.8,5-3.3h2.2l0.5,10L286.7,169z"/>
			<path fill="#414042" d="M311.4,169c-3.3,0.1-4.3-1.5-4.7-3.4c-0.2,0.9-0.5,1.7-1.2,2.5c-0.7,0.7-2.1,1.5-5,0.5l0.1-7.2
				c2.4,1.5,4.5,0.7,4.5-3.9v-14.8c0-4.4-2.7-4.5-4.9-3.3l-0.1-6.4c3.2-1.5,5.4-0.6,6.1,2.7c0.4-2.1,2.6-3.5,5.5-2.9l0.2,6.6
				c-1.9-0.7-4.6-1.4-4.6,3.2V156c0,0.5,0.1,1.4,0.2,2.6c0.2,2.4,1.6,3.5,5,3.5c2.4,0,4.9-0.8,5-3.3h2.2l0.5,10L311.4,169z"/>
			<path fill="#414042" d="M330.3,165.5c-0.8,3.4-3,4.4-5.5,3l-0.2-7.5c2.7,1.8,4.6,0.3,4.6-2.5l0.1-16.4c0-3.5-2.3-4.3-4.6-2.7V133
				c2.2-1.9,5-0.4,5.7,3c1-3.7,3-4.3,5.7-3.2v6.4c-2.4-1.3-4.6-0.2-4.6,2.9l-0.1,16.9c0,3.1,2.1,3.8,4.6,2.6l0.4,7
				C333.3,170.1,331.1,168.9,330.3,165.5"/>
			<path fill="#414042" d="M369.5,165.5c-0.5,3.4-2.4,4.9-5.5,2.9l-0.1-7.1c2.5,1.5,4.4,0.2,4.4-4.6v-11.3c0-4.6-2.2-6.7-8.5-6.7
				c-6.8,0-10.5,1.5-10.5,6.9l0.1,10.9c0,4.9,1.8,5.9,4.6,4.5v7.4c-2.9,1.5-5,0.2-5.7-3.2c-0.5,3.4-2.6,4.5-5.7,3v-7.4
				c2.4,1.4,4.6,0.7,4.6-4.5V143c0-3.6-2.8-4.4-4.6-3l-0.3-6.7c3.1-1.3,5.5-0.2,6.3,3.2c0.5-1.6,3.4-4.3,10.3-4.3
				c7.6,0.2,11.4,2.6,11.8,11.4v13.7c0,2.6,0.5,4.2,1.4,4.7c0.9,0.5,1.9,0.4,2.8-0.4l0.4,6.7C372.4,169.8,370.2,168.5,369.5,165.5"
				/>
			<path fill="#414042" d="M404.8,153v15.9H404c-1.8,0-3.2-1.5-3.9-3.5c-1,3.3-4.2,3.8-7.5,3.8h-1.1c-6.7,0-10.6-3-10.6-11.7v-14.3
				c0-9.7,4.9-11.1,12.2-11.1c3.8,0.1,6.1,1.4,7,3.8c0.3-2.3,1.6-3.5,4-3.5h0.2v10h-2.2c-1-3-3.5-3.1-8.3-3.1h-2.2
				c-5.5,0-8.3,0.8-8.3,6.3v8.1c0,6.3,3,8,8.5,8h2.6c5.2,0,8.7-0.8,8.7-5.4c0-1.2-0.5-2.7-1.2-3.5h-6.5v-2.4h10.7l0.2,2.4H404.8z"/>
			<g>
				<path fill="#414042" d="M347.4,45.2c-15.6,0-26.6,5.1-26.6,23.2v27.1c0,16.6,7.3,24.1,27.3,24.1c17.2,0,24.5-7.1,24.5-23.7V66.6
					C372.6,49.5,363.4,45.2,347.4,45.2z M368,91.8c0.1,9.3-5.6,12.6-17.8,12.6h-5c-12.2,0-19.9-2.9-19.9-13.1v-20
					c0-10.9,7.4-12.9,19.6-12.9h4.1c11.1,0,18.9,1,18.9,13.1V91.8z"/>
				<path fill="#414042" d="M231.2,80.5c2.9-3.8,5.2-9.1,5.2-15.1c0-13.3-6.5-19.9-19-19.9c-5.5,0.1-10.9,2.4-13.2,7.2
					c-1.3-6.8-7.6-8.1-11.8-6.1l1.8,13.8c4.5-2.9,7.8-2.8,7.3,6.5v31c-0.1,5.5-2.6,7.9-5.4,7.9c-1.3,0-2.9-0.6-4.6-2l-0.6,15.6
					c6,2.2,12.3-1.2,13.4-7.1c2.6,4.3,7.4,8.2,17.2,8.2c15.5,0,21.5-8.2,21.5-21C242.9,90.2,239.3,82.8,231.2,80.5z M205.9,68.7
					c0-7.9,7.3-9.5,12.6-9.5c7.7,0,12.1,2.1,12.7,9.8c-0.1,6.2-2.4,9.5-3.8,10.9h-17.2c-3.7,0-4.3-2.8-4.3-5.3V68.7z M221.2,105.6
					h-0.7c-8.2,0-14.5-3.7-14.5-11V89c0-2.4,0.5-5,4.1-5h17c8.9,0,10.7,7.1,10.7,11.1C237.8,101.9,232.1,105.6,221.2,105.6z"/>
				<path fill="#414042" d="M304.2,104.6c-2.3-1.8-2.2-5-1.7-7.6c0.8-4.3,1.6-13.7-7.7-16.5c2.7-3,6.5-8.8,6.5-15
					c0-13.8-9.4-20.4-20.5-20.4c-7.8,0-12.1,2.6-14,7c-2.3-6.8-8.8-7.7-13.4-6l0.6,13.9c5-2,10-0.9,10,6.1l-0.1,32
					c0,6-2.9,9.4-9.3,5.7l-0.6,14.8c6,3.7,10.9-1,11.8-6c1.6,5.9,8.7,8.2,12.1,6.3l-0.2-15.1c-4.8,2.2-9.3,1.1-9.3-6.3V83.6h20.2
					c7.3,0,11.2,2.8,10.1,10.5c-1,6-4.9,11.1-4.9,17c0.4,9.3,11.2,11.1,17.6,7.6l0.6-14.9C310,105.7,306.6,106.2,304.2,104.6z
					 M273.1,79.5c-3.2-0.1-4.8-1.9-4.9-5.5v-5.5c0-7.3,4.4-9.8,12.8-9.8c9.4,0,15.7,2.9,14.4,12.8c-0.4,3-1.8,5.5-4.1,7.9H273.1z"/>
				<path fill="#414042" d="M385.6,96.7V67.2c0-17,10.3-22,21.3-22c10.1,0,14.4,2.7,16.7,7.6c0.6-4.8,3.8-7,8.1-7h0.5v20.6h-4.6
					c-0.6-5.2-7.7-7-16.5-7h-3.8c-9.8,0-17.2,3.7-17.2,13.4v16.6c0,13.1,7.7,14.5,17.4,15.4h6.3c5.1,0,13.1-0.6,15.1-5.5h4.8
					c1.3,13.7-6.6,20.5-23.8,20.5C391.7,119.9,385.6,110.8,385.6,96.7"/>
				<path fill="#414042" d="M468.3,104.2l0.6,14.6c-4,1.2-6.8,1.1-8.4-0.5c-1.7-1.7-2.7-3.8-3-6.1c-0.5,5.5-4.4,9.1-11.3,6.3v-14.8
					c5,2.3,9.2,0.8,9.2-5.5V65.1c0-6.3-4.6-8.8-9.2-5.5V46.4c5.4-2.1,9.5-0.1,11.3,6.3c1.6-6.8,6.2-9.1,11.5-6.1v12.6
					c-5.2-2.9-9.1-1.3-9.1,5.5V78c0.1,3.3,0.7,3.5,2.8,2.9c1.5-0.5,3.1-1.3,5.9-1.7c3.7-3.3,12.9-12.3,16.5-16.1
					c2.7-3.2,0.4-4.4-1.9-4.4c-0.9,0-1.7,0.1-2.6,0.5l0.1-12.4c7-2.9,11-0.4,12.3,6.5c0.6-10.1,10.1-8.1,10.9-6L503.2,58
					c-2-1.1-6.3-1.1-9.8,2.3l-5.5,5.5c-5.9,5.6-11.5,11.3-13.1,13.2c10.4-0.6,21.8,5.6,21.5,17.7c-0.4,7.4,4.1,9.5,9,7.2l0.6,15
					c-1.5,0.6-3.2,0.9-5.5,1c-10.7,0.6-12.1-6.7-10.7-14.5c0.5-3.1,1.5-5.9,1.6-9.9c0.4-9.8-9.6-14.2-20.9-12.6
					c-4.3,0.6-7.9,1.6-10.7,3.2v12.3C459.8,105,464.4,105.2,468.3,104.2"/>
			</g>
			<path fill="#414042" d="M435,141.2h-2.3c-0.3-2-1.9-3.3-4.4-3.1c-2.7,0.2-4.8,1.8-4.8,7.2l-0.1,11.8c0,4.9,2.1,5.5,5.2,3.7v7.9
				c-3.4,1.2-5.1,0.3-6.3-3.1c-0.6,3-3.5,4.5-6.3,2.9l-0.1-7.1c2.7,1.8,5.3,1,5.3-3.3l0.1-12.8c0-5.4-1.3-6.7-4.8-6.9
				c-2.6-0.2-4.4,0.6-4.7,2.6h-2.2v-7.5c5-2.9,11.2-1.9,13,2.5c1.2-2.1,3-3.3,5.2-3.8c2.4-0.5,5.3,0,7.3,1.6L435,141.2z"/>
			<path fill="#414042" d="M499.2,165.5c-0.6,3.4-2.4,4.9-5.5,2.9l-0.1-7.1c2.5,1.5,4.4,0.2,4.4-4.6v-11.3c0-4.6-2.2-6.7-8.5-6.7
				c-6.8,0-10.5,1.5-10.5,6.9l0.1,10.9c0,4.9,1.8,5.9,4.6,4.5v7.4c-2.9,1.5-5,0.2-5.7-3.2c-0.5,3.4-2.6,4.5-5.7,3v-7.4
				c2.4,1.4,4.6,0.7,4.6-4.5V143c0-3.6-2.8-4.4-4.6-3l-0.3-6.7c3.1-1.3,5.5-0.2,6.3,3.2c0.5-1.6,3.4-4.3,10.3-4.3
				c7.6,0.2,11.4,2.6,11.8,11.4v13.7c0,2.6,0.5,4.2,1.4,4.7c0.9,0.5,1.9,0.4,2.8-0.4l0.4,6.7C502.1,169.8,499.9,168.5,499.2,165.5"
				/>
			<path fill="#414042" d="M453.1,132.2c-7.8,0-13.2,2.6-13.2,11.5v13.5c0,8.3,3.6,12,13.6,12c8.6,0,12.2-3.5,12.2-11.8v-14.6
				C465.7,134.3,461,132.2,453.1,132.2z M463.3,155.4c0.1,4.6-2.8,6.3-8.9,6.3H452c-6.1,0-9.9-1.5-9.9-6.5v-10
				c0-5.4,3.7-6.4,9.8-6.4h2.1c5.5,0,9.4,0.5,9.4,6.5V155.4z"/>
		</g>
	</g>
</g>
</svg>
