<?xml version="1.0" encoding="utf-8"?>
<!-- Generator: Adobe Illustrator 17.1.0, SVG Export Plug-In . SVG Version: 6.00 Build 0)  -->
<!DOCTYPE svg PUBLIC "-//W3C//DTD SVG 1.1//EN" "http://www.w3.org/Graphics/SVG/1.1/DTD/svg11.dtd" [
	<!ENTITY ns_flows "http://ns.adobe.com/Flows/1.0/">
	<!ENTITY ns_extend "http://ns.adobe.com/Extensibility/1.0/">
	<!ENTITY ns_ai "http://ns.adobe.com/AdobeIllustrator/10.0/">
	<!ENTITY ns_graphs "http://ns.adobe.com/Graphs/1.0/">
]>
<svg version="1.1" id="Layer_1" xmlns:x="&ns_extend;" xmlns:i="&ns_ai;" xmlns:graph="&ns_graphs;"
	 xmlns="http://www.w3.org/2000/svg" xmlns:xlink="http://www.w3.org/1999/xlink" xmlns:a="http://ns.adobe.com/AdobeSVGViewerExtensions/3.0/"
	 x="0px" y="0px" viewBox="0 0 600 200" enable-background="new 0 0 600 200" xml:space="preserve">
<g>
	<path fill="#FFFFFF" d="M501.7,50.6c7.5,20.5,15,40.8,22.4,61.1c0.1,0,0.3-0.1,0.4-0.1c-0.1-0.6-0.2-1.2-0.3-1.8
		c-2.6-11.9-5.3-23.8-7.8-35.7c-0.5-2.3-0.3-4.7-0.4-7.1c0-0.4,0.7-1.1,1.1-1.1c5.2-0.1,10.3,0,15.5-0.1c1,0,1.1,0.7,1.1,1.4
		c0,1.5,0,3.1,0,5c0.9-0.8,1.4-1.3,2-1.8c5.9-5.4,12.8-7.3,20.7-6.7c8.4,0.7,15.2,4.2,20.3,10.9c3.3,4.3,5.4,9.3,6.5,14.6
		c2.3,11.2,0.6,21.6-6.8,30.6c-5.6,6.9-13,10.4-21.9,10.6c-6.1,0.2-11.7-1.1-16.6-4.8c-0.9-0.7-1.7-1.5-3-2.5c0,1.1,0,1.7,0,2.4
		c0,7.2,0,14.3,0,21.5c0,2.3,0,2.3-2.2,2.3c-4.8,0-9.7,0-14.5,0c-2.2,0-2.2,0-2.2-2.1c0-8.1,0-16.3,0-24.4c0-0.7,0-1.4,0-2.4
		c-18.8,6.9-37.3,13.7-56.2,20.6c-7.9-21.5-15.7-42.9-23.6-64.2c-0.1,0-0.2,0.1-0.3,0.1c1,4.9,1.9,9.7,2.9,14.6
		c1.6,8,3.2,15.9,4.7,23.9c0.2,0.9-0.1,2.1-0.6,2.9c-5.7,7.7-13.3,12-23,12.3c-7.3,0.3-13.8-1.6-19.1-6.8c-0.1-0.1-0.3-0.1-0.8-0.3
		c0,0.8,0,1.5,0,2.2c0,7.2,0,14.4,0,21.7c0,2.1,0,2.1-2.2,2.1c-4.8,0-9.7,0-14.5,0c-1.5,0-2-0.5-2-2c0-26.5,0-53,0-79.5
		c0-1.4,0.3-2.1,1.9-2.1c4.7,0.1,9.4,0,14.1,0c0.4,0,0.9,0.1,1.7,0.2c0,1.9,0,3.8,0,5.6c0.2,0,0.3,0.1,0.5,0.1
		c0.4-0.4,0.9-0.7,1.3-1.1c5.7-5.4,12.5-7.4,20.2-6.9c6.2,0.4,11.8,2.4,16.7,6.4c0.1,0.1,0.3,0.2,0.4,0.4c1.7,2.5,3.7,2.2,6.2,1.2
		c4-1.7,8.1-3.1,12.2-4.5c1.4-0.5,2.2-1.3,2.8-2.6c1.4-3.6,3-7.1,4.5-10.7c0.3-0.6,0.5-1.2,0.9-1.9c0.7,0.3,1.4,0.5,2,0.7
		c3.9,1.7,7.8,3.3,11.7,5c1.3,0.6,2.4,0.6,3.7,0.1c5.8-2.2,11.6-4.3,17.4-6.4C500,51.2,500.7,51,501.7,50.6z M470.3,117
		c0.7-0.2,1-0.3,1.4-0.4c9.1-3.4,18.3-6.7,27.4-10.1c2.1-0.8,2.1-0.8,1.3-2.9c-3.3-9-6.6-17.9-9.9-26.8c-0.7-1.9-0.7-1.9-2.7-1.1
		c-8.9,3.3-17.9,6.6-26.8,9.9c-2,0.8-2,0.8-1.3,2.7c2.6,7,5.2,14,7.8,21C468.3,111.8,469.3,114.4,470.3,117z M414.8,113
		c8.7,0,15.6-7,15.7-15.8c0.1-8.8-6.8-15.9-15.5-15.9c-8.3,0-15.6,6.1-15.7,16.1C399.1,106,406.2,113,414.8,113z M534.1,97.3
		c0,8.7,6.8,15.7,15.4,15.7c8.7,0.1,15.6-6.9,15.6-15.7c0-9.1-6.7-16-15.5-16C540.8,81.2,534.2,88.1,534.1,97.3z M474.7,60.4
		c0-0.2,0-0.3,0-0.5c-2.7-1.2-5.5-2.3-8.4-3.6c-1.1,2.8-2.2,5.4-3.2,7.9c0.1,0.1,0.3,0.2,0.4,0.3C467.3,63.2,471,61.8,474.7,60.4z"
		/>
	<path fill="#212121" d="M117.7,72c0-1.9,0-3.7,0-5.7c6.3,0,12.5,0,18.9,0c0,20.9,0,41.8,0,62.8c-6.2,0-12.4,0-18.8,0
		c0-1.9,0-3.8,0-5.7c-3.3,4-7.4,6.3-12.3,7.3c-14.8,3.1-31.2-3.8-36.4-21.9c-3.2-11.3-2.1-22.1,4.7-32c7.1-10.2,20.7-15.1,32.6-12
		c4.4,1.2,8.1,3.5,11,7.2C117.4,72.1,117.5,72.1,117.7,72z M102,113.8c9.2,0,15.7-6.7,15.8-16.2c0-9-6.9-15.9-15.9-15.9
		c-8.8,0-15.5,7-15.5,16.1C86.3,104.8,91.5,114,102,113.8z"/>
	<path fill="#212121" d="M306,72.1c0-1.9,0-3.8,0-5.8c6.3,0,12.4,0,18.6,0c0,21,0,41.9,0,62.9c-6.2,0-12.3,0-18.6,0c0-2,0-3.8,0-6.1
		c-1.3,1.4-2.2,2.4-3.2,3.3c-3.9,3.4-8.7,4.8-13.7,5.1c-8.8,0.5-16.7-1.9-23.3-8c-5.1-4.8-8.1-10.8-9.5-17.6
		c-1.9-10.1-0.7-19.6,5.1-28.3c7.5-11.1,22.1-16.2,34.4-12.1c3.9,1.3,7.1,3.5,9.7,6.8C305.7,72.2,305.9,72.1,306,72.1z M290.2,113.8
		c9.1,0,15.7-6.8,15.8-16.2c0.1-8.9-6.9-16-15.9-15.9c-10,0.1-15.5,7.7-15.6,16.2C274.5,106.2,280.7,114,290.2,113.8z"/>
	<path fill="#212121" d="M142.5,66.3c5.9,0,11.5,0,17.5,0c0,2,0,4,0,6.3c1.3-1.5,2.2-2.6,3.3-3.6c3.2-3,7.1-4.6,11.4-4.7
		c3.2-0.1,6.5-0.1,9.6,0.6c9.1,1.9,14,8.1,15.8,17c0.5,2.7,0.8,5.5,0.8,8.3c0.1,12.3,0,24.5,0,36.8c0,0.8,0,1.5,0,2.4
		c-6.4,0-12.5,0-19,0c0-0.7,0-1.4,0-2.1c0-10.8,0-21.7,0-32.5c0-1.9-0.2-3.9-0.6-5.7c-1.3-5.7-5.1-7.2-9.8-7
		c-6.5,0.4-9.9,3.9-10,10.6c-0.2,8.9-0.1,17.8-0.1,26.7c0,3.3,0,6.6,0,10c-6.3,0-12.5,0-18.8,0C142.5,108.2,142.5,87.3,142.5,66.3z"
		/>
	<path fill="#212121" d="M66.5,90.6c-0.7,0-1.4,0-2.1,0c-4.8,0-9.5-0.1-14.3,0c-1.7,0-2.7-0.4-3.6-2c-4.7-8.5-17-8.9-22.7-3.1
		c-4,4.1-5.2,9.1-4.5,14.6c0.7,5.4,3.2,9.7,8.2,12.1c7,3.4,15.1,1.1,19.3-5.5c0.7-1.1,1.4-1.6,2.8-1.5c5.2,0.1,10.3,0,15.5,0
		c0.6,0,1.1,0,1.7,0c-1.1,14.3-17.9,26.8-34.8,26.1C13.9,130.5-0.9,115.7,0,96c0.8-18.2,15.3-31.9,33.2-32
		C52.8,64,64.9,78.6,66.5,90.6z"/>
	<path fill="#212121" d="M377,83.9c-6.2,0-12.2,0-18.2,0c-1.2-3.9-3.7-5.4-7.7-4.5c-1.8,0.4-3.2,1.4-3.6,3.3
		c-0.4,1.9,0.7,3.1,2.1,3.8c2.6,1.3,5.3,2.3,8,3.3c3.5,1.3,7.2,2.2,10.6,3.6c5.1,2.2,9.1,5.6,10.4,11.4c2.2,10-2.2,19.5-11.8,23.8
		c-10.5,4.7-21,4.3-30.7-2.3c-4.8-3.3-7.3-8.2-8.2-13.9c-0.1-0.5,0-1,0-1.6c0.4-0.1,0.8-0.2,1.2-0.2c5.4,0,10.7,0,16.1,0
		c0.9,0,1.4,0.3,1.7,1.2c1.2,4.9,8,5.9,11.7,3c2.4-1.9,2.4-5-0.2-6.7c-1.8-1.2-3.9-2-5.9-2.8c-4.1-1.6-8.4-3-12.5-4.7
		c-4.1-1.7-7.7-4.2-9.7-8.2c-3.3-6.6-2-13,2.1-18.8c4.1-5.8,10.2-8.5,17.1-9.3c5-0.6,9.9-0.1,14.6,1.8c7.3,2.9,11.5,8.3,12.9,15.9
		c0,0.3,0.1,0.5,0.1,0.8C377.1,83.1,377,83.4,377,83.9z"/>
	<path fill="#212121" d="M262.2,66.2c-7.6,21.2-15.2,42.1-22.7,63.1c-5.8,0-11.5,0-17.1,0c-1.2,0-1.3-0.8-1.6-1.5
		c-2.4-6.7-4.8-13.4-7.2-20.2c-4.7-13-9.3-26-14-39c-0.3-0.7-0.5-1.4-0.8-2.3c6.6,0,13,0,19.6,0c4,12.9,8,25.7,12,38.6
		c0.1,0,0.2,0,0.3,0c2.1-6.7,4.2-13.5,6.3-20.2c1.8-5.7,3.5-11.3,5.2-17c0.2-0.7,0.2-1.5,1.4-1.5C249.6,66.2,255.7,66.2,262.2,66.2z
		"/>
	<path fill="#FFFFFF" d="M598.1,69.2c-0.4,1.2-0.8,2.4-1.3,3.6c-0.2,0.4-0.7,1-1,1c-0.4-0.1-1-0.5-1.2-0.9c-0.5-0.9-0.8-2-1.2-3
		c-0.2,0-0.3,0-0.5,0c0,0.9,0.1,1.9,0,2.8c-0.1,0.4-0.6,0.8-0.9,1.2c-0.3-0.4-0.8-0.8-0.8-1.3c-0.1-1.9-0.1-3.9,0-5.8
		c0-0.7-0.1-1.5,1-1.6c0.9-0.1,1.7,0,2,1c0.5,1.3,0.9,2.6,1.4,3.9c0.1,0,0.3,0,0.4,0c0.4-1.2,0.9-2.4,1.2-3.6c0.3-1.2,1-1.5,2.1-1.4
		c1.2,0.1,1.2,1,1.2,1.8c0,1.9,0,3.7,0,5.6c0,0.4-0.5,0.8-0.8,1.2c-0.3-0.4-0.9-0.8-1-1.3c-0.1-1.1,0-2.2,0-3.3
		C598.3,69.2,598.2,69.2,598.1,69.2z"/>
	<path fill="#FFFFFF" d="M590.3,66.2c-0.4,0.2-0.9,0.6-1.3,0.6c-1.1,0-1.4,0.7-1.4,1.6c0,1.3,0.1,2.7-0.1,4c0,0.5-0.6,0.8-1,1.3
		c-0.3-0.4-0.8-0.8-0.8-1.2c-0.1-1.3-0.1-2.6,0-3.8c0-1.1-0.2-1.9-1.5-1.9c-0.4,0-0.7-0.5-1.1-0.8c0.4-0.3,0.8-0.9,1.2-0.9
		c1.6-0.1,3.2-0.1,4.8,0c0.4,0,0.8,0.4,1.2,0.5C590.2,65.9,590.3,66.1,590.3,66.2z"/>
</g>
</svg>
