<?xml version="1.0" encoding="utf-8"?>
<!-- Generator: Adobe Illustrator 17.1.0, SVG Export Plug-In . SVG Version: 6.00 Build 0)  -->
<!DOCTYPE svg PUBLIC "-//W3C//DTD SVG 1.1//EN" "http://www.w3.org/Graphics/SVG/1.1/DTD/svg11.dtd" [
	<!ENTITY ns_flows "http://ns.adobe.com/Flows/1.0/">
	<!ENTITY ns_extend "http://ns.adobe.com/Extensibility/1.0/">
	<!ENTITY ns_ai "http://ns.adobe.com/AdobeIllustrator/10.0/">
	<!ENTITY ns_graphs "http://ns.adobe.com/Graphs/1.0/">
]>
<svg version="1.1" id="Layer_1" xmlns:x="&ns_extend;" xmlns:i="&ns_ai;" xmlns:graph="&ns_graphs;"
	 xmlns="http://www.w3.org/2000/svg" xmlns:xlink="http://www.w3.org/1999/xlink" xmlns:a="http://ns.adobe.com/AdobeSVGViewerExtensions/3.0/"
	 x="0px" y="0px" viewBox="0 0 600 200" enable-background="new 0 0 600 200" xml:space="preserve">
<g>
	<path fill="#414042" d="M485.3,158.5c-0.3-1.6-0.7-3.1-1-4.7c-0.5,0-1.1-0.1-1.5,0.1c-22.5,14.6-48.9,4.4-55.8-21.6
		c-2.9-11.1-2.8-22.4,0.6-33.5c7.4-24.2,32.6-33.7,54.2-20.5c0.6,0.4,1.4,0.6,2.8,1.2c0-13.3,0-26,0-39.3c7.3,0,13.9,0,21,0
		c0,39.5,0,78.6,0,118.4C498.8,158.5,492.1,158.5,485.3,158.5z M487.3,116.3c0-5-1.3-11.4-4.2-16c-3.9-6-8.5-9.2-15.6-9.4
		c-6.8-0.2-12.4,3-15.6,9c-5.7,10.9-5.8,22.2,0.1,33.1c3.2,6,8.8,9.1,15.6,8.9c7.2-0.2,12.7-2.7,15.5-9.3
		C486,128,487.3,121.4,487.3,116.3z"/>
	<path fill="#414042" d="M360.9,123.6c1.3,9.4,5.3,15.1,13.3,17.4c11.9,3.5,20.3-1.9,27-12c5.6,2.1,10.9,4,16.2,5.9
		c-3.6,13.7-16.6,23.8-31.5,25.2c-21.5,2-36.3-6.2-44.1-24.3c-8-18.5-3.5-42.3,10.9-54.5c12.4-10.4,27-11.5,41.7-6.4
		c14.8,5.2,22,17.3,24.3,32.3c0.8,5.1,0.1,10.3,0.1,16.2C399.4,123.6,380.6,123.6,360.9,123.6z M395.9,106
		c-2.2-10.4-8.5-15.5-17.5-15.1c-8.6,0.4-14.9,6.3-16,15.1C373.4,106,384.4,106,395.9,106z"/>
	<path fill="#414042" d="M254.3,106.2c0.5-8.9-1-11.7-6.9-14c-8.3-3.2-14.9-0.9-22.4,8.3c-5.4-1.3-11.1-2.6-16.8-3.9
		c2.3-12.8,12.1-22.1,24.9-23.5c5.7-0.6,11.6-0.6,17.3,0.2c14.5,2.1,24.7,12,25.5,27c1,19.1,0.2,38.4,0.2,58.3c-5.6,0-10.9,0-16.9,0
		c-0.8-2.3-1.7-4.9-2.9-8.2c-1.6,1.2-3.2,2.3-4.7,3.5c-8.3,6.5-17.8,7.9-27.7,6.1c-9.5-1.8-16.3-7.6-18.6-17.3
		c-2.4-10.3-0.9-20,7.8-27.3c7.8-6.7,17.3-8.7,27.2-9C245,106.1,249.7,106.2,254.3,106.2z M254.6,124.2c-6.8,0-13.1-0.6-19.3,0.2
		c-6,0.8-9.2,6.2-7.8,11.6c1.1,4.6,5.5,6.8,11.3,5.8C248.3,140.1,253.4,134.7,254.6,124.2z"/>
	<path fill="#414042" d="M312.8,92.3c0,14-0.2,26.6,0.1,39.2c0.2,7.8,4.8,11.3,12.6,10.4c1.8-0.2,3.5-0.7,6.2-1.2
		c1.7,5.3,3.3,10.5,4.8,15.5c-16.5,11.8-42.2,0.9-44.6-19c-1.3-11.4-0.9-23.1-1.1-34.6c-0.1-3.1,0-6.2,0-9.5
		c-4-0.5-7.1-0.8-10.7-1.3c0-5.6,0-11,0-17.1c3.1-0.5,6.3-1.1,10.4-1.8c0-6.5,0-13,0-19.8c7.2-4.5,14-8.8,22.3-14.1
		c0,7.1,0,12.5,0,17.9c0,5.2,0,10.4,0,16.7c12.5,0,24.1,0,37.1,0c-5.9,6.8-10.6,12.3-16,18.7C327.7,92.3,320.7,92.3,312.8,92.3z"/>
	<path fill="#414042" d="M137.7,98.9c-7.7-2.9-13.8-6.3-20.4-7.5c-17.6-3.3-29.6,8.1-28.7,26.2c1,19.5,16.2,29.3,35.7,22.4
		c5.4-1.9,10.2-5.2,16-8.3c2,4.8,4.2,9.7,6.2,14.4c-12.6,16.8-47.4,20.3-65.9,2.3c-17.6-17.1-17.6-46.8-0.1-63.9
		c18.7-18.4,53.4-14,63.9,0.9C142.2,90,139.8,94.8,137.7,98.9z"/>
	<path fill="#414042" d="M172,158.7c-7.5,0-13.9,0-21.1,0c0-28,0-55.7,0-84.3c6.7,0,13.5,0,20.7,0c0.2,3.5,0.4,6.5,0.7,11
		c9.6-11.2,20.4-15.7,34.9-10.9c-1.2,6.3-2.4,12.3-3.4,17.2c-6.7,0.8-12.7,0.4-17.7,2.4c-7.7,3-11.3,10.2-12.4,18
		c-1.2,8.3-1.4,16.7-1.7,25.1C171.8,144,172,150.8,172,158.7z"/>
	<path fill="#414042" d="M512.1,138c7.1,0,13.5,0,20.4,0c0,6.8,0,13.3,0,20.3c-6.7,0-13.3,0-20.4,0
		C512.1,151.7,512.1,145.3,512.1,138z"/>
</g>
</svg>
