<?xml version="1.0" encoding="utf-8"?>
<!-- Generator: Adobe Illustrator 17.1.0, SVG Export Plug-In . SVG Version: 6.00 Build 0)  -->
<!DOCTYPE svg PUBLIC "-//W3C//DTD SVG 1.1//EN" "http://www.w3.org/Graphics/SVG/1.1/DTD/svg11.dtd" [
	<!ENTITY ns_flows "http://ns.adobe.com/Flows/1.0/">
	<!ENTITY ns_extend "http://ns.adobe.com/Extensibility/1.0/">
	<!ENTITY ns_ai "http://ns.adobe.com/AdobeIllustrator/10.0/">
	<!ENTITY ns_graphs "http://ns.adobe.com/Graphs/1.0/">
]>
<svg version="1.1" id="Layer_1" xmlns:x="&ns_extend;" xmlns:i="&ns_ai;" xmlns:graph="&ns_graphs;"
	 xmlns="http://www.w3.org/2000/svg" xmlns:xlink="http://www.w3.org/1999/xlink" xmlns:a="http://ns.adobe.com/AdobeSVGViewerExtensions/3.0/"
	 x="0px" y="0px" viewBox="240 0 120 120" enable-background="new 240 0 120 120" xml:space="preserve">
<metadata><?xpacket begin="﻿" id="W5M0MpCehiHzreSzNTczkc9d"?>
<x:xmpmeta xmlns:x="adobe:ns:meta/" x:xmptk="Adobe XMP Core 5.5-c014 79.151739, 2013/04/03-12:12:15        ">
   <rdf:RDF xmlns:rdf="http://www.w3.org/1999/02/22-rdf-syntax-ns#">
      <rdf:Description rdf:about=""
            xmlns:dc="http://purl.org/dc/elements/1.1/"
            xmlns:xmp="http://ns.adobe.com/xap/1.0/"
            xmlns:xmpGImg="http://ns.adobe.com/xap/1.0/g/img/"
            xmlns:xmpMM="http://ns.adobe.com/xap/1.0/mm/"
            xmlns:stRef="http://ns.adobe.com/xap/1.0/sType/ResourceRef#"
            xmlns:stEvt="http://ns.adobe.com/xap/1.0/sType/ResourceEvent#"
            xmlns:illustrator="http://ns.adobe.com/illustrator/1.0/"
            xmlns:xmpTPg="http://ns.adobe.com/xap/1.0/t/pg/"
            xmlns:stDim="http://ns.adobe.com/xap/1.0/sType/Dimensions#"
            xmlns:xmpG="http://ns.adobe.com/xap/1.0/g/"
            xmlns:pdf="http://ns.adobe.com/pdf/1.3/">
         <dc:format>image/svg+xml</dc:format>
         <dc:title>
            <rdf:Alt>
               <rdf:li xml:lang="x-default">Print</rdf:li>
            </rdf:Alt>
         </dc:title>
         <xmp:MetadataDate>2014-04-07T16:12:41-04:00</xmp:MetadataDate>
         <xmp:ModifyDate>2014-04-07T16:12:41-04:00</xmp:ModifyDate>
         <xmp:CreateDate>2014-04-07T16:12:41-04:00</xmp:CreateDate>
         <xmp:CreatorTool>Adobe Illustrator CC (Macintosh)</xmp:CreatorTool>
         <xmp:Thumbnails>
            <rdf:Alt>
               <rdf:li rdf:parseType="Resource">
                  <xmpGImg:width>256</xmpGImg:width>
                  <xmpGImg:height>256</xmpGImg:height>
                  <xmpGImg:format>JPEG</xmpGImg:format>
                  <xmpGImg:image>/9j/4AAQSkZJRgABAgEASABIAAD/7QAsUGhvdG9zaG9wIDMuMAA4QklNA+0AAAAAABAASAAAAAEA&#xA;AQBIAAAAAQAB/+4ADkFkb2JlAGTAAAAAAf/bAIQABgQEBAUEBgUFBgkGBQYJCwgGBggLDAoKCwoK&#xA;DBAMDAwMDAwQDA4PEA8ODBMTFBQTExwbGxscHx8fHx8fHx8fHwEHBwcNDA0YEBAYGhURFRofHx8f&#xA;Hx8fHx8fHx8fHx8fHx8fHx8fHx8fHx8fHx8fHx8fHx8fHx8fHx8fHx8fHx8f/8AAEQgBAAEAAwER&#xA;AAIRAQMRAf/EAaIAAAAHAQEBAQEAAAAAAAAAAAQFAwIGAQAHCAkKCwEAAgIDAQEBAQEAAAAAAAAA&#xA;AQACAwQFBgcICQoLEAACAQMDAgQCBgcDBAIGAnMBAgMRBAAFIRIxQVEGE2EicYEUMpGhBxWxQiPB&#xA;UtHhMxZi8CRygvElQzRTkqKyY3PCNUQnk6OzNhdUZHTD0uIIJoMJChgZhJRFRqS0VtNVKBry4/PE&#xA;1OT0ZXWFlaW1xdXl9WZ2hpamtsbW5vY3R1dnd4eXp7fH1+f3OEhYaHiImKi4yNjo+Ck5SVlpeYmZ&#xA;qbnJ2en5KjpKWmp6ipqqusra6voRAAICAQIDBQUEBQYECAMDbQEAAhEDBCESMUEFURNhIgZxgZEy&#xA;obHwFMHR4SNCFVJicvEzJDRDghaSUyWiY7LCB3PSNeJEgxdUkwgJChgZJjZFGidkdFU38qOzwygp&#xA;0+PzhJSktMTU5PRldYWVpbXF1eX1RlZmdoaWprbG1ub2R1dnd4eXp7fH1+f3OEhYaHiImKi4yNjo&#xA;+DlJWWl5iZmpucnZ6fkqOkpaanqKmqq6ytrq+v/aAAwDAQACEQMRAD8A9U4q7FXYq7FXYq7FXYq7&#xA;FXYq7FXYq7FXYq7FXYqpXX+8s3+o36jko8wwyfSfc+bs658oREOo6hCaw3U0Z8UkZf1HIHHE8wG2&#xA;OfJHlIj4pna+dvNdtT09Unan+/W9X/k4HyqWkxHnEOXj7V1MOU5fHf77T2x/NvzDCQLqGC6TueJj&#xA;f71PH/hcxZ9mYzyJDscXtJnj9QjL7Px8mTaZ+bWgXFFvYZbJz1anqxj6V+L/AIXMPJ2ZkH0kF2+D&#xA;2kwS+sGH2j9f2Mu0/VtN1GL1bG5juE7+mwJHzHUfTmBPFKBqQp3mHU48ouEhL3IrINzsVdirsVdi&#xA;rsVdirsVdirsVdirsVdirsVdirsVdirsVdirsVdirsVdirsVdiqldf7yzf6jfqOSjzDDJ9J9z5uz&#xA;rnyh2KuxV2KuxVUguLi3lWa3leGVfsyRsVYfIihwSiCKLKE5RNxNHyZloX5qa3ZFYtRUahAKDkaJ&#xA;KB/rAUb6R9Oa/N2bCW8fSXf6T2izY9snrj9r0jQfNuh64n+hTj16Va2k+GUf7Hv81rmozaWeP6ht&#xA;3vVaPtLDqB6Dv3HmnGY7nuxV2KuxV2KuxV2KuxV2KuxV2KuxV2KuxV2KuxV2KuxV2KuxV2KuxV2K&#xA;tOgdGRvssCD8jthBQRYphz/lR5VY1H1hPYSD+KnM8dp5fJ0R9nNMf53z/YhJ/wAntFYfuL25jPi/&#xA;pv8AqVMsHas+oDRP2Yw/wykPkf0BKbz8ndRQE2eoRTeCyo0X4qZMvh2rHrFwsvsxkH0TB94r9bHN&#xA;R8hea7AFpLB5ox+3BSUfOi1b7xmXj1uKXX5uqz9j6nHzhY8t/wBqQOjoxV1KsuxUihB+WZQLrSCN&#xA;i1ih2Kro5JIpFkjYpIhDI6kggjoQRiRfNMZEGxzZ/wCVvzTurbha64DcQbBbxR+9X/XH7Y9+vzzV&#xA;ans0HeGx7npuz/aGUajm9Q/ndfj3/f73p9ne2l7bJc2kqzwSCqSIag5ppwMTR2L1+LLHJESibiVb&#xA;ItjsVdirsVdirsVdirsVdirsVdirsVdirsVdirsVdirsVdirsVdirsVdirsVdirsVQGqaDo2qJxv&#xA;7SOfagdhRx8nFGH0HLceacPpNONqNHizD1xB+/582C65+USENLotzxPX6tcbj5LIB+sfTmzw9qdJ&#xA;j4h5zV+zQ54ZfA/refanpGp6XcfV7+3e3l7BxswHdWGzD5ZtMeWMxcTbzGo02TDLhmDEoPLGh2Kp&#xA;x5b806poF16to/KFj+/tW/u3H8D4EZRqNNHKKPPvc7Q9oZNNK4nbqOh/He9o8t+Z9N1+z+sWjcZU&#xA;oJ7dvtxsfHxB7HOd1GnliNF77Q6/HqYcUefUdQm2UOc7FXYq7FXYq7FXYq7FXYq7FXYq7FXYq7FX&#xA;Yq7FXYq7FXYq7FXYq7FXYq7FXYq7FXYqhtQ02w1G2a2voEuIG6o4r9IPUH3GThklA3E0WrNghljw&#xA;zHEHmHmv8rrqzD3ei8rm2FS9qd5UH+T/ADj8fnm503aIltPY97x/aPs/KHqw+qPd1H6/v97AiCCQ&#xA;RQjYg5tHmmsVRelarfaVfR3tlIYp4+h7Ed1YdwchkxxnHhlyb9PqJ4ZicDRD23yj5usvMNlzWkV7&#xA;EB9Ztq9D/MvipznNVpTil5dH0Hs3tKGqhY2mOY/HRPsxXZOxV2KuxV2KuxV2KuxV2KuxV2KuxV2K&#xA;uxV2KuxV2KuxV2KuxV2KuxV2KuxV2KuxV2KuxViHnL8v7PWle8sgtvqgFS3RJT4PTv8A5X35n6TX&#xA;HHsd4/c6PtTsWGe5w9OT7D7/ANbx+9srqyupLW7iaG4iPGSNuoOb+ExIWOTwuXFLHIxkKkFDJNaM&#xA;0nVb7Sr+K9spDHNGfoYd1Ydwcry4ozjwnk36bUzwzE4GiHunlnzHZ69piXlv8Mg+G4grVo37j5eB&#xA;zmtRgOKVF9G0GuhqcfHHn1HcU2yhzXYq7FXYq7FXYq7FXYq7FXYq7FXYq7FXYq7FXYq7FXYq7FXY&#xA;q7FXYq7FXYq7FXYq7FXYqx3zj5Os/MFmWUCLUYgfq9xTr/kP4qfwzL0mrOI/0XVdqdlw1MO7IOR/&#xA;QfL7niV7ZXVldS2l1GYriFuMkbdQc6OExIWOT59lxSxyMZCpBQyTWnPlTzJc6BqqXcdWgeiXUP8A&#xA;PHX9Y6jMfU6cZY116Of2drpabIJD6eo7w94s7u3vLWK6tnEkEyh43HcHOZlExNHmH0jFkjOIlE2C&#xA;q5Fm7FXYq7FXYq7FXYq7FXYq7FXYq7FXYq7FXYq7FXYq7FXYq7FXYq7FXYq7FXYq7FXYq7FWIfmB&#xA;5NXWrM3tmgGqW6/CB1lQb8D7/wAv3Zn6HV+GaP0n7HR9tdl+PDjgP3kftHd+p4yQQSCKEbEHOheB&#xA;axV6H+Vfmgw3B0K6f9zMS9kx/Zk6snybqPf55qu0tNY4x05vUezvaHDLwZcj9Pv7vj9/vep5pHsn&#xA;Yq7FXYq7FXYq7FXYq7FXYq7FXYq7FXYq7FXYq7FXYq7FXYq7FXYq7FXYq7FXYq7FXYq7FXk/5o+V&#xA;BZ3X6atEpbXLUukA2SU/tfJ/1/PN52dqeIcB5jk8V7QdncEvGj9Mufkf2/f72A5tHml8M0sMqTRM&#xA;UljYPG42IZTUEfI4CARRZRkYkEcw998ra7HreiW98tBKRwuEH7Mq7MPp6j2OcvqcPhzMX0vs/WDU&#xA;YRPr196bZQ5rsVdirsVdirsVdirsVdirsVdirsVdirsVdirsVdirsVdirsVdirsVdirsVdirsVdi&#xA;rsVQ2pafbajYT2NyvKC4Qo4+fQj3B3GTxzMJCQ5hqz4Y5YGEuUnz9q+mXGl6ncWFx/e27lCegYdV&#xA;YezDfOpxZBOIkOr5jqdPLDkMJc4lB5Y0M6/KjXPqmsSaZK1Ib4Vjr0EyCo/4Jaj7s1vaeHihxDnH&#xA;7no/ZzV8GU4zyn94/H3PXM0L27sVdirsVdirsVdirsVdirsVdirsVdirsVdirsVdirsVdirsVdir&#xA;sVdirsVdirsVdirsVdirzb83dDBS21qJd1/0e5p4GpjY/iPuzcdl5ucD7w8n7S6TaOYe4/oeZZuH&#xA;kVW0uprS6huoTxmgdZIz4MhqP1ZGURIEHqzx5DCQkOYNvonTb6K/sLe9h/u7iNZF9uQrT6M5TJAx&#xA;kYno+pYMwyQExykLRGQbXYq7FXYq7FXYq7FXYq7FXYq7FXYq7FXYq7FXYq7FXYq7FXYq7FXYq7FX&#xA;Yq7FXYq7FXYqgNe0tNU0a7sGp+/jKoT2cbofoYA5bhycExLucbWacZsUod4+3p9r55dGR2RhxZSQ&#xA;wPUEdc6sF8vIo0WsUPYvyo1P6z5da0Y1ksZSoH/Fcnxr/wANyzQdp46yX3vdezmo48HAecD9h3/W&#xA;zTNc9A7FXYq7FXYq7FXYq7FXYq7FXYq7FXYq7FXYq7FXYq7FXYq7FXYq7FXYq7FXYq7FXYq7FXYq&#xA;8J8+6cLDzXfxqKRzP66fKUcjT/ZEjOm0WTixD5PnHbGDw9TMdDv8/wBrH8ynWM6/KK/9HXbmzJol&#xA;1BUDxeI1H/Cs2a3tSFwB7i9H7NZuHMYfzo/aPwXrmaF7d2KuxV2KuxV2KuxV2KuxV2KuxV2KuxV2&#xA;KuxV2KuxV2KuxV2KuxV2KuxV2KuxV2KuxV2KuxV5Z+cVmE1HT7wD++ieJj/xiYMP+TmbvsqfpkHj&#xA;fafFWSE+8EfL+155m1eXT3yNdm1826ZJWnOb0j/z1Bj/AONsxtZHixS9zsuyMnBqoHzr57Pec5h9&#xA;IdirsVdirsVdirsVdirsVdirsVdirsVdirsVdirsVdirsVdirsVdirsVdirsVdirsVdirsVYF+cM&#xA;AbRbKfvHc8B/s42P/GmbTso+sjyea9p4fuYy7pfeD+p5Nm8eKRWlTGDU7OcGhinjcH/VcHIZBcSP&#xA;Ju08+HJE90h976Mzkn1R2KuxV2KuxV2KuxV2KuxV2KuxV2KuxV2KuxV2KuxV2KuxV2KuxV2KuxV2&#xA;KuxV2KuxV2KuxVhv5roW8q1H7FxGT9zD+ObDsw/vfg6H2jF6b/OH6XjedA8G2CQQQaEdDir6Vzj3&#xA;1p2KuxV2KuxV2KuxV2KuxV2KuxV2KuxV2KuxV2KuxV2KuxV2KuxV2KuxV2KuxV2KuxV2KuxVhv5r&#xA;uV8q0H7dxGD9zH+GbDswfvfg6H2jNab/ADh+l43nQPBuxV9LZx7607FXYq7FXYq7FXYq7FXYq7FX&#xA;Yq7FXYq7FXYq7FXYq7FXYq7FXYq7FXYq7FXYq7FXYq7FXYqwL84JwuiWUHeS55jxokbD/jfNp2UP&#xA;WT5PNe00/wBzGPfL7gf1vJs3jxSI0+EzX9tCOskqIP8AZMBkchqJPk24I8U4jvIfR2ci+quxV2Ku&#xA;xV2KuxV2KuxV2KuxV2KuxV2KuxV2KuxV2KuxV2KuxV2KuxV2KuxV2KuxV2KuxV2KvLPzivA+oafZ&#xA;g/3MTykf8ZW4j/k3m77Kh6ZHzeN9p8t5IQ7gT8/7HnmbV5dOvJdr9a816XFStJ1kI9ov3h/4jmPq&#xA;5VikfJ2HZWPj1MB/Sv5bvfM5d9KdirsVdirsVdirsVdirsVdirsVdirsVdirsVdirsVdirsVdirs&#xA;VdirsVdirsVdirsVdirsVeFef9RF95rvnU1jhYW6f88hxP8Aw1c6bRY+HEPm+c9s5/E1Mj0G3y/a&#xA;x7Mp1bN/ylsTN5jluiPhtIGIP+XIQo/4Xlmu7TnWOu8vQ+zeHizmX82P37frev5oHuXYq7FXYq7F&#xA;XYq7FXYq7FXYq7FXYq7FXYq7FXYq7FXYq7FXYq7FXYq7FXYq7FXYq7FXYqgdd1NNL0e71B6f6PGW&#xA;UHu/RF+liBluHHxzEe9xtXqBhxSmf4R/Z9r55d3kdnc8nYlmY9STuTnVgU+XkkmytxQ9d/KTTPq+&#xA;hT3zCj3stEPjHF8I/wCHLZoe08lzEe4PcezeDhwmf88/YP22znNa9E7FXYq7FXYq7FXYq7FXYq7F&#xA;XYq7FXYq7FXYq7FXYq7FXYq7FXYq7FXYq7FXYq7FXYq7FXm/5u64FittGib4nP1i5p/KKiNfpNT9&#xA;2bfsvDuZn3PKe0uroRwj3n9DzHNy8gvghlnnjgiXlLKwSNR1LMaAffgJAFllCBkQBzL6I0fTo9N0&#xA;u1sI/s28apUdyB8TfSd85TLk45GXe+o6bAMWOMB/CEXlbe7FXYq7FXYq7FXYq7FXYq7FXYq7FXYq&#xA;7FXYq7FXYq7FXYq7FXYq7FXYq7FXYq7FXYqoX99b2FlNeXLcIIELufYdh7ntkoQMiAOZas2aOOBn&#xA;LkHz7rWq3Gq6pc6hP/eXDluNa8V6Ko/1VAGdVixiEREdHzLVaiWbJKcucigsscdmn5W6Eb7XTfyr&#xA;W308cwT0MrbIPo3bNf2lm4YcI5yd/wCz2k8TNxn6Yff0/W9izn3u3Yq7FXYq7FXYq7FXYq7FXYq7&#xA;FXYq7FXYq7FXYq7FXYq7FXYq7FXYq7FXYq7FXYq7FXYq8s/NTzSJ5hodo9YoSGvWXoZB9mP/AGPU&#xA;+/yzd9m6ahxnryeN9oe0OI+DE7D6vf3fD7/c88zavLtojO6ogLMxAVRuST0AxJSASaD3vyfoC6Jo&#xA;UFmwH1hv3t0R3lfqK/5Iov0ZzGqz+JMnp0fSezNH+XwiH8XM+/8AGydZjOwdirsVdirsVdirsVdi&#xA;rsVdirsVdirsVdirsVdirsVdirsVdirsVdirsVdirsVdirsVS7zFLq0WjXT6TEJb8IfSWu/uVHdg&#xA;NwMuwCBmOP6XE10sscUjiFzrZ8+ymUyuZeXqlj6nKvLlXete9c6kVWz5lK7N81mFizz8rvK5vL46&#xA;xcp/otoaW4I2ebx+Sfr+WaztHUcMeAcz9z0ns/2f4k/FkPTHl5n9n3vWs0T2zsVdirsVdirsVdir&#xA;sVdirsVdirsVdirsVdirsVdirsVdirsVdirsVdirsVdirsVdirsVdirDPO/5fwawr3+nhYdUAqy9&#xA;Emp2bwbwb7/EbDR644/TL6fudB2t2KM9zx7ZP91+3z+bzPRfLOpanrY0oRtDKjH60XBHpKp+IsP1&#xA;Zuc2ojCHH8nktJoMmbN4VUevk9307T7XTrGGytU4W8ChUHf3J9ydznM5JmcjI8y+j4MMcUBCP0hE&#xA;ZBtdirsVdirsVdirsVdirsVdirsVdirsVdirsVdirsVdirsVdirsVdirsVdirsVdirsVdirsVdiq&#xA;xbeBZnnWNRNIAskgADMFrxBPU0qaYeI1TEQiCTW5X4GTsVdirsVdirsVdirsVdirsVdirsVdirsV&#xA;dirsVdirsVdirsVdirsVdirsVdirsVdirsVdirsVdirsVdirsVdirsVdirsVdirsVdirsVdirsVd&#xA;irsVdirsVdirsVdirsVdirsVdirsVdirsVdirsVdirsVdirsVdirsVdirsVdirsVdirsVdirsVdi&#xA;rsVdirsVdirsVdirsVdirsVdirsVdirsVdirsVdirsVdirsVdirsVdirsVdirsVdirsVdirsVdir&#xA;sVdirsVdirsVdirsVdirsVdirsVdirsVdirsVdirsVdirsVdirsVdirsVdirsVdirsVdirsVdirs&#xA;VdirsVdirsVdirsVdirsVdirsVdirsVdirsVdirsVdirsVdirsVdirsVdirsVdirsVdir//Z</xmpGImg:image>
               </rdf:li>
            </rdf:Alt>
         </xmp:Thumbnails>
         <xmpMM:InstanceID>xmp.iid:85d890ce-1fac-4bd7-a28a-19ed8d60e47c</xmpMM:InstanceID>
         <xmpMM:DocumentID>xmp.did:85d890ce-1fac-4bd7-a28a-19ed8d60e47c</xmpMM:DocumentID>
         <xmpMM:OriginalDocumentID>uuid:5D20892493BFDB11914A8590D31508C8</xmpMM:OriginalDocumentID>
         <xmpMM:RenditionClass>proof:pdf</xmpMM:RenditionClass>
         <xmpMM:DerivedFrom rdf:parseType="Resource">
            <stRef:instanceID>uuid:d1c078a0-2746-42b2-b0d1-25aedff8fb1e</stRef:instanceID>
            <stRef:documentID>xmp.did:1b6690ed-28a8-c141-9479-b6a9cf6be651</stRef:documentID>
            <stRef:originalDocumentID>uuid:5D20892493BFDB11914A8590D31508C8</stRef:originalDocumentID>
            <stRef:renditionClass>proof:pdf</stRef:renditionClass>
         </xmpMM:DerivedFrom>
         <xmpMM:History>
            <rdf:Seq>
               <rdf:li rdf:parseType="Resource">
                  <stEvt:action>saved</stEvt:action>
                  <stEvt:instanceID>xmp.iid:85d890ce-1fac-4bd7-a28a-19ed8d60e47c</stEvt:instanceID>
                  <stEvt:when>2014-04-07T16:12:41-04:00</stEvt:when>
                  <stEvt:softwareAgent>Adobe Illustrator CC (Macintosh)</stEvt:softwareAgent>
                  <stEvt:changed>/</stEvt:changed>
               </rdf:li>
            </rdf:Seq>
         </xmpMM:History>
         <illustrator:StartupProfile>Print</illustrator:StartupProfile>
         <xmpTPg:HasVisibleOverprint>False</xmpTPg:HasVisibleOverprint>
         <xmpTPg:HasVisibleTransparency>False</xmpTPg:HasVisibleTransparency>
         <xmpTPg:NPages>1</xmpTPg:NPages>
         <xmpTPg:MaxPageSize rdf:parseType="Resource">
            <stDim:w>120.000000</stDim:w>
            <stDim:h>120.000000</stDim:h>
            <stDim:unit>Points</stDim:unit>
         </xmpTPg:MaxPageSize>
         <xmpTPg:PlateNames>
            <rdf:Seq>
               <rdf:li>Cyan</rdf:li>
               <rdf:li>Magenta</rdf:li>
               <rdf:li>Yellow</rdf:li>
            </rdf:Seq>
         </xmpTPg:PlateNames>
         <xmpTPg:SwatchGroups>
            <rdf:Seq>
               <rdf:li rdf:parseType="Resource">
                  <xmpG:groupName>Default Swatch Group</xmpG:groupName>
                  <xmpG:groupType>0</xmpG:groupType>
               </rdf:li>
            </rdf:Seq>
         </xmpTPg:SwatchGroups>
         <pdf:Producer>Adobe PDF library 10.01</pdf:Producer>
      </rdf:Description>
   </rdf:RDF>
</x:xmpmeta>
                                                                                                    
                                                                                                    
                                                                                                    
                                                                                                    
                                                                                                    
                                                                                                    
                                                                                                    
                                                                                                    
                                                                                                    
                                                                                                    
                                                                                                    
                                                                                                    
                                                                                                    
                                                                                                    
                                                                                                    
                                                                                                    
                                                                                                    
                                                                                                    
                                                                                                    
                                                                                                    
                           
<?xpacket end="w"?>
	</metadata>
<g>
	<g enable-background="new    ">
		<path fill="#FFFFFF" d="M291,46.4c0.7,0,1.2-0.2,1.7-0.3c0.5-0.2,1-0.5,1.4-1c0.3-0.5,0.5-1,0.5-1.7c0-1-0.3-1.9-1-2.5
			c-0.7-0.5-1.5-0.8-2.5-0.8c-1.4,0-2.2,0.5-2.9,1.4c-0.7,0.8-1,1.9-1,3.2h-4.9c0-1.4,0.3-2.5,0.7-3.6c0.3-1,1-2,1.7-2.7
			c0.7-0.8,1.7-1.4,2.7-1.9c1-0.3,2.2-0.7,3.6-0.7c1,0,2,0.2,3,0.5c1,0.3,1.9,0.7,2.7,1.4c0.8,0.7,1.5,1.4,2,2.2
			c0.5,0.8,0.7,1.9,0.7,3s-0.3,2.4-0.8,3.2c-0.5,1-1.5,1.5-2.7,1.9l0,0c1.4,0.3,2.5,1,3.2,2c0.8,1,1.2,2.2,1.2,3.7
			c0,1.4-0.3,2.5-0.8,3.6c-0.5,1-1.2,1.9-2,2.5c-0.8,0.7-1.9,1.2-3,1.5c-1.2,0.3-2.4,0.5-3.6,0.5c-1.4,0-2.7-0.2-3.9-0.7
			c-1.2-0.3-2.2-1-3-1.9c-0.8-0.8-1.5-1.7-1.9-2.9c-0.5-1.2-0.7-2.4-0.7-3.9h4.9c0,0.7,0.2,1.4,0.3,1.9c0.2,0.7,0.5,1.2,0.8,1.5
			c0.3,0.5,0.8,0.8,1.4,1c0.5,0.3,1.2,0.3,1.9,0.3c1.2,0,2.2-0.3,2.9-1c0.8-0.7,1.2-1.7,1.2-2.9c0-1-0.2-1.7-0.5-2.2
			c-0.3-0.5-0.8-0.8-1.4-1c-0.5-0.2-1.2-0.3-1.9-0.3s-1.4,0-2,0v-3.4C289.8,46.6,290.3,46.6,291,46.4z"/>
		<path fill="#FFFFFF" d="M302.5,42.7c0.5-1.7,1.2-3,2-4.1c0.8-1,1.9-1.7,2.9-2.2c1.2-0.5,2.4-0.7,3.6-0.7c1.4,0,2.5,0.2,3.6,0.7
			c1.2,0.5,2,1.2,2.9,2.2c0.8,1,1.5,2.4,2,4.1c0.5,1.7,0.7,3.7,0.7,6.3c0,2.5-0.2,4.6-0.7,6.3c-0.5,1.7-1.2,3-2,4.1
			c-0.8,1-1.9,1.7-2.9,2.2c-1.2,0.5-2.4,0.7-3.6,0.7s-2.4-0.2-3.6-0.7c-1.2-0.5-2-1.2-2.9-2.2c-0.8-1-1.5-2.4-2-4.1
			c-0.5-1.7-0.7-3.7-0.7-6.3C301.8,46.4,302,44.2,302.5,42.7z M307.1,51.3c0,1,0.2,2,0.5,2.9c0.2,1,0.7,1.7,1.2,2.4
			c0.5,0.7,1.4,1,2.4,1c1,0,1.9-0.3,2.4-1c0.5-0.7,1-1.5,1.2-2.4c0.2-1,0.3-1.9,0.5-2.9c0-1,0-1.9,0-2.5c0-0.5,0-1,0-1.5
			c0-0.7,0-1.2-0.2-1.9c-0.2-0.7-0.2-1.4-0.3-1.9c-0.2-0.7-0.3-1.2-0.7-1.7c-0.3-0.5-0.7-0.8-1.2-1.2s-1-0.5-1.7-0.5
			c-0.7,0-1.4,0.2-1.7,0.5c-0.5,0.3-0.8,0.7-1.2,1.2s-0.5,1-0.7,1.7c-0.2,0.7-0.3,1.4-0.3,1.9s-0.2,1.4-0.2,1.9c0,0.7,0,1.2,0,1.5
			C306.9,49.5,306.9,50.3,307.1,51.3z"/>
	</g>
	<g enable-background="new    ">
		<path fill="#FFFFFF" d="M283.2,71v2.2l0,0c0.3-0.8,1-1.4,1.7-1.9c0.7-0.5,1.5-0.7,2.5-0.7c0.8,0,1.7,0.2,2.4,0.7
			c0.7,0.3,1.2,1,1.4,1.9c0.3-0.8,1-1.5,1.7-1.9c0.7-0.3,1.5-0.7,2.4-0.7c2.9,0,4.2,1.5,4.2,4.6v8.8H298v-8.8c0-1-0.2-1.9-0.7-2.4
			c-0.5-0.5-1.2-0.8-2.4-0.8c-0.7,0-1.2,0.2-1.7,0.3c-0.5,0.3-0.8,0.7-1,1c-0.3,0.5-0.5,1-0.5,1.5c0,0.5-0.2,1.2-0.2,1.7v7.3H290
			v-8.7c0-0.5,0-0.8-0.2-1.2c-0.2-0.3-0.2-0.7-0.5-1c-0.3-0.3-0.5-0.5-0.8-0.7c-0.3-0.2-0.8-0.2-1.4-0.2c-0.7,0-1.2,0.2-1.7,0.3
			c-0.5,0.2-0.8,0.5-1.2,1c-0.3,0.5-0.5,0.8-0.7,1.5c-0.2,0.5-0.2,1.2-0.2,1.9v7.3h-1.5V71.2h1.4L283.2,71L283.2,71z"/>
		<path fill="#FFFFFF" d="M304.2,66.1v2.5h-1.5v-2.5H304.2z M304.2,71v13.1h-1.5V71H304.2z"/>
	</g>
	<g>
		<g>
			<path fill="#FFFFFF" d="M300,111.3c-28.3,0-51.4-23.1-51.4-51.4S271.7,8.8,300,8.8V0.1c-33,0-60,26.8-60,60s26.9,59.8,60,59.8
				c19,0,35.8-8.7,46.8-22.4l-6.5-5.8C330.7,103.7,316.3,111.3,300,111.3"/>
		</g>
		<g>
			<path fill="#04B8DB" d="M300,0L300,0v8.7l0,0c28.3,0,51.4,23.1,51.4,51.4c0,12.2-4.2,23.2-11.2,32.2l6.5,5.8
				c8.3-10.3,13.4-23.6,13.4-37.8C359.8,26.8,333,0,300,0"/>
		</g>
	</g>
	<g>
		<path fill="#FFFFFF" d="M310.1,83.9h-1.5V71.3h1.5V73c1.2-1.2,2.3-2.1,4.1-2.1c1.5,0,3,0.5,3.9,1.8c0.6,0.9,0.6,1.9,0.6,2.9v8.3
			h-1.5v-8.3c0-2.3-0.9-3.4-3.3-3.4c-1.8,0-3.1,1.2-3.5,2.5c-0.3,0.8-0.3,1.5-0.3,2.4V83.9L310.1,83.9z"/>
	</g>
</g>
</svg>
