<?xml version="1.0" encoding="utf-8"?>
<!-- Generator: Adobe Illustrator 17.1.0, SVG Export Plug-In . SVG Version: 6.00 Build 0)  -->
<!DOCTYPE svg PUBLIC "-//W3C//DTD SVG 1.1//EN" "http://www.w3.org/Graphics/SVG/1.1/DTD/svg11.dtd" [
	<!ENTITY ns_flows "http://ns.adobe.com/Flows/1.0/">
	<!ENTITY ns_extend "http://ns.adobe.com/Extensibility/1.0/">
	<!ENTITY ns_ai "http://ns.adobe.com/AdobeIllustrator/10.0/">
	<!ENTITY ns_graphs "http://ns.adobe.com/Graphs/1.0/">
]>
<svg version="1.1" id="Layer_1" xmlns:x="&ns_extend;" xmlns:i="&ns_ai;" xmlns:graph="&ns_graphs;"
	 xmlns="http://www.w3.org/2000/svg" xmlns:xlink="http://www.w3.org/1999/xlink" xmlns:a="http://ns.adobe.com/AdobeSVGViewerExtensions/3.0/"
	 x="0px" y="0px" viewBox="0 0 200 200" enable-background="new 0 0 200 200" xml:space="preserve">
<g>
	<g>
		<path fill="#9D9FA1" d="M100,185.5c-47.2,0-85.6-38.3-85.6-85.6c0-47.2,38.3-85.5,85.6-85.5c47.2,0,85.5,38.3,85.5,85.5
			C185.5,147.2,147.2,185.5,100,185.5 M100,0C44.8,0,0,44.8,0,100c0,55.2,44.8,100,100,100c55.2,0,100-44.8,100-100
			C200,44.8,155.2,0,100,0"/>
	</g>
	<g>
		<path fill="#FFFFFF" d="M80.9,118.5c-2.8,0-5.2-0.5-7.4-1.5c-2.2-1-4-2.3-5.6-3.9c-1.6-1.7-2.7-3.6-3.5-5.9
			c-0.8-2.3-1.2-4.8-1.2-7.4c0-2.6,0.4-5.1,1.2-7.3c0.8-2.3,1.9-4.2,3.4-5.9c1.5-1.6,3.3-3,5.5-3.9c2.2-1,4.6-1.5,7.3-1.5
			c2.2,0,4.3,0.3,6.1,1c1.9,0.7,3.6,1.6,5.2,2.7c1.6,1.1,3.1,2.4,4.5,3.8c1.4,1.4,2.7,3,4.1,4.6c1.3-1.5,2.6-3.1,4-4.6
			c1.4-1.5,2.9-2.8,4.5-3.9c1.6-1.1,3.3-2,5.2-2.7c1.9-0.7,3.9-1,6-1c2.7,0,5.1,0.5,7.3,1.4c2.2,0.9,4,2.2,5.5,3.9
			c1.5,1.7,2.6,3.6,3.4,5.8c0.8,2.2,1.2,4.7,1.2,7.3c0,2.6-0.4,5.1-1.2,7.4c-0.8,2.3-2,4.3-3.4,6c-1.5,1.7-3.3,3.1-5.5,4
			c-2.2,1-4.6,1.5-7.3,1.5c-2.1,0-4-0.3-5.9-1c-1.8-0.6-3.5-1.5-5.1-2.5c-1.6-1-3.1-2.3-4.5-3.6c-1.4-1.4-2.8-2.8-4-4.3
			c-1.4,1.5-2.8,2.9-4.1,4.3c-1.3,1.4-2.8,2.6-4.3,3.6c-1.5,1-3.2,1.9-5,2.5C85.2,118.2,83.2,118.5,80.9,118.5z M80.8,108.3
			c1.3,0,2.6-0.3,3.8-0.8c1.3-0.5,2.5-1.1,3.6-1.9c1.1-0.8,2.2-1.6,3.2-2.6c1-1,1.9-1.9,2.7-2.9c-0.8-0.9-1.8-1.8-2.8-2.9
			c-1.1-1-2.2-2-3.4-2.9c-1.2-0.9-2.4-1.6-3.7-2.2c-1.3-0.6-2.6-0.9-3.8-0.9c-2.4,0-4.2,0.9-5.6,2.7c-1.4,1.8-2.1,3.8-2.1,6
			c0,2.4,0.7,4.4,2.1,6C76.4,107.5,78.3,108.3,80.8,108.3z M120.1,108.3c2.5,0,4.4-0.8,5.8-2.4c1.3-1.6,2-3.6,2-6
			c0-2.4-0.7-4.4-2.2-6.1c-1.4-1.7-3.4-2.5-5.9-2.5c-1.4,0-2.7,0.3-3.9,0.9c-1.2,0.6-2.4,1.3-3.5,2.2s-2.2,1.8-3.2,2.9
			c-1,1-1.9,2-2.7,2.9c0.9,1,1.8,2,2.8,3c1,1,2.1,1.9,3.2,2.6s2.3,1.4,3.6,1.9C117.3,108,118.7,108.3,120.1,108.3z"/>
	</g>
</g>
</svg>
