<?xml version="1.0" encoding="utf-8"?>
<!-- Generator: Adobe Illustrator 17.1.0, SVG Export Plug-In . SVG Version: 6.00 Build 0)  -->
<!DOCTYPE svg PUBLIC "-//W3C//DTD SVG 1.1//EN" "http://www.w3.org/Graphics/SVG/1.1/DTD/svg11.dtd" [
	<!ENTITY ns_flows "http://ns.adobe.com/Flows/1.0/">
	<!ENTITY ns_extend "http://ns.adobe.com/Extensibility/1.0/">
	<!ENTITY ns_ai "http://ns.adobe.com/AdobeIllustrator/10.0/">
	<!ENTITY ns_graphs "http://ns.adobe.com/Graphs/1.0/">
]>
<svg version="1.1" id="Layer_1" xmlns:x="&ns_extend;" xmlns:i="&ns_ai;" xmlns:graph="&ns_graphs;"
	 xmlns="http://www.w3.org/2000/svg" xmlns:xlink="http://www.w3.org/1999/xlink" xmlns:a="http://ns.adobe.com/AdobeSVGViewerExtensions/3.0/"
	 x="0px" y="0px" viewBox="0 0 200 200" enable-background="new 0 0 200 200" xml:space="preserve">
<g>
	<g>
		<g>
			<path fill="#00B8DB" d="M100,185.6c-47.3,0-85.6-38.3-85.6-85.6c0-47.2,38.3-85.5,85.6-85.5c47.2,0,85.5,38.3,85.5,85.5
				C185.5,147.2,147.2,185.6,100,185.6 M100,0C44.8,0,0,44.8,0,100c0,55.2,44.8,100,100,100c55.2,0,100-44.8,100-100
				C200,44.8,155.2,0,100,0"/>
		</g>
	</g>
	<g>
		<path fill="#FFFFFF" d="M64.9,102.6V75.3H54.3v-6.4c1.5,0,2.9-0.1,4.3-0.3c1.4-0.3,2.6-0.7,3.7-1.4c1.1-0.7,2-1.5,2.8-2.6
			c0.8-1.1,1.3-2.4,1.5-4h6.8v42.1H64.9z"/>
		<path fill="#FFFFFF" d="M86.4,70c0.6-2.1,1.6-3.9,2.9-5.4c1.3-1.5,2.9-2.7,4.8-3.6c1.9-0.9,4.2-1.3,6.7-1.3c1.9,0,3.8,0.3,5.5,0.9
			c1.7,0.6,3.3,1.5,4.6,2.6c1.3,1.1,2.4,2.5,3.2,4.1c0.8,1.6,1.2,3.5,1.2,5.5c0,2.1-0.3,3.9-1,5.5c-0.7,1.5-1.6,2.9-2.7,4.1
			c-1.1,1.2-2.4,2.3-3.8,3.2c-1.4,1-2.9,1.9-4.3,2.9s-2.8,2-4.2,3c-1.4,1.1-2.6,2.3-3.6,3.8h19.9v7.3H84.6c0-2.4,0.3-4.6,1.1-6.4
			c0.7-1.8,1.7-3.4,2.9-4.8c1.2-1.4,2.6-2.7,4.2-3.9c1.6-1.2,3.3-2.4,5.1-3.7c0.9-0.6,1.9-1.3,2.9-2c1-0.7,2-1.4,2.9-2.2
			c0.9-0.8,1.6-1.7,2.2-2.7c0.6-1,0.9-2.1,0.9-3.4c0-2-0.6-3.6-1.8-4.8c-1.2-1.1-2.7-1.7-4.5-1.7c-1.2,0-2.3,0.3-3.2,0.9
			c-0.9,0.6-1.6,1.3-2.1,2.3c-0.5,0.9-0.9,2-1.1,3.1c-0.2,1.1-0.3,2.3-0.3,3.4h-8.2C85.4,74.3,85.7,72,86.4,70z"/>
		<path fill="#FFFFFF" d="M119.2,71c0.8-2.8,1.9-5,3.3-6.7c1.4-1.7,3-2.9,4.9-3.6c1.9-0.7,3.8-1.1,5.9-1.1c2.1,0,4.1,0.4,6,1.1
			c1.9,0.7,3.5,1.9,4.9,3.6c1.4,1.7,2.5,3.9,3.4,6.7c0.8,2.8,1.2,6.2,1.2,10.3c0,4.2-0.4,7.7-1.2,10.5c-0.8,2.8-1.9,5.1-3.4,6.8
			c-1.4,1.7-3.1,2.9-4.9,3.6s-3.9,1.1-6,1.1c-2.1,0-4.1-0.4-5.9-1.1s-3.5-1.9-4.9-3.6c-1.4-1.7-2.5-3.9-3.3-6.8
			c-0.8-2.8-1.2-6.3-1.2-10.5C118,77.3,118.4,73.8,119.2,71z M126.6,85.7c0.1,1.7,0.3,3.3,0.8,4.9c0.4,1.6,1.1,2.9,2,4.1
			c0.9,1.1,2.2,1.7,4,1.7c1.8,0,3.1-0.6,4.1-1.7c0.9-1.1,1.6-2.5,2-4.1c0.4-1.6,0.7-3.2,0.8-4.9c0.1-1.7,0.1-3.2,0.1-4.4
			c0-0.7,0-1.6,0-2.6c0-1-0.1-2.1-0.2-3.2c-0.1-1.1-0.3-2.2-0.6-3.2c-0.3-1.1-0.7-2-1.2-2.9c-0.5-0.8-1.2-1.5-2-2
			c-0.8-0.5-1.8-0.8-2.9-0.8c-1.2,0-2.1,0.3-2.9,0.8c-0.8,0.5-1.4,1.2-1.9,2c-0.5,0.8-0.9,1.8-1.2,2.9c-0.3,1.1-0.5,2.1-0.6,3.2
			c-0.1,1.1-0.2,2.1-0.2,3.2c0,1,0,1.9,0,2.6C126.5,82.6,126.5,84,126.6,85.7z"/>
	</g>
	<g>
		<path fill="#FFFFFF" d="M73.9,118.4v3.7h0.1c0.7-1.3,1.6-2.4,2.7-3.1c1.1-0.8,2.6-1.1,4.3-1.1c1.4,0,2.7,0.4,3.9,1.1
			c1.2,0.7,1.9,1.8,2.3,3.2c0.6-1.4,1.6-2.5,2.9-3.2s2.6-1.1,4-1.1c4.8,0,7.2,2.5,7.2,7.6V140h-2.6v-14.6c0-1.8-0.4-3.2-1.1-4.1
			c-0.8-0.9-2.1-1.4-4-1.4c-1.1,0-2.1,0.2-2.9,0.7c-0.8,0.4-1.4,1-1.8,1.7c-0.4,0.7-0.8,1.6-0.9,2.5c-0.2,0.9-0.3,1.9-0.3,2.9V140
			h-2.6v-14.7c0-0.7-0.1-1.4-0.2-2.1c-0.2-0.7-0.4-1.2-0.8-1.7c-0.3-0.5-0.8-0.9-1.4-1.2c-0.6-0.3-1.3-0.4-2.1-0.4
			c-1.1,0-2.1,0.2-2.9,0.6c-0.8,0.4-1.5,1-2,1.7c-0.5,0.7-0.9,1.6-1.2,2.5c-0.3,1-0.4,2-0.4,3.2V140h-2.6v-21.7H73.9z"/>
		<path fill="#FFFFFF" d="M109.1,110.1v4.2h-2.6v-4.2H109.1z M109.1,118.4V140h-2.6v-21.7H109.1z"/>
	</g>
	<g>
		<path fill="#FFFFFF" d="M118.5,118.4v3.7h0.1c0.5-1.3,1.4-2.4,2.7-3.2c1.3-0.8,2.7-1.2,4.2-1.2c1.5,0,2.8,0.2,3.8,0.6
			c1,0.4,1.8,0.9,2.5,1.7c0.6,0.7,1.1,1.6,1.3,2.6c0.3,1,0.4,2.2,0.4,3.5V140h-2.6v-13.5c0-0.9-0.1-1.8-0.3-2.6
			c-0.2-0.8-0.5-1.5-0.9-2.1c-0.4-0.6-1-1-1.7-1.4c-0.7-0.3-1.6-0.5-2.7-0.5s-2,0.2-2.8,0.6c-0.8,0.4-1.5,0.9-2.1,1.6
			s-1,1.4-1.3,2.3c-0.3,0.9-0.5,1.9-0.5,3V140h-2.6v-21.7H118.5z"/>
	</g>
</g>
</svg>
