<?xml version="1.0" encoding="utf-8"?>
<!-- Generator: Adobe Illustrator 17.1.0, SVG Export Plug-In . SVG Version: 6.00 Build 0)  -->
<!DOCTYPE svg PUBLIC "-//W3C//DTD SVG 1.1//EN" "http://www.w3.org/Graphics/SVG/1.1/DTD/svg11.dtd" [
	<!ENTITY ns_flows "http://ns.adobe.com/Flows/1.0/">
	<!ENTITY ns_extend "http://ns.adobe.com/Extensibility/1.0/">
	<!ENTITY ns_ai "http://ns.adobe.com/AdobeIllustrator/10.0/">
	<!ENTITY ns_graphs "http://ns.adobe.com/Graphs/1.0/">
]>
<svg version="1.1" id="Layer_1" xmlns:x="&ns_extend;" xmlns:i="&ns_ai;" xmlns:graph="&ns_graphs;"
	 xmlns="http://www.w3.org/2000/svg" xmlns:xlink="http://www.w3.org/1999/xlink" xmlns:a="http://ns.adobe.com/AdobeSVGViewerExtensions/3.0/"
	 x="0px" y="0px" viewBox="240 0 120 120" enable-background="new 240 0 120 120" xml:space="preserve">
<metadata><?xpacket begin="﻿" id="W5M0MpCehiHzreSzNTczkc9d"?>
<x:xmpmeta xmlns:x="adobe:ns:meta/" x:xmptk="Adobe XMP Core 5.5-c014 79.151739, 2013/04/03-12:12:15        ">
   <rdf:RDF xmlns:rdf="http://www.w3.org/1999/02/22-rdf-syntax-ns#">
      <rdf:Description rdf:about=""
            xmlns:dc="http://purl.org/dc/elements/1.1/"
            xmlns:xmp="http://ns.adobe.com/xap/1.0/"
            xmlns:xmpGImg="http://ns.adobe.com/xap/1.0/g/img/"
            xmlns:xmpMM="http://ns.adobe.com/xap/1.0/mm/"
            xmlns:stRef="http://ns.adobe.com/xap/1.0/sType/ResourceRef#"
            xmlns:stEvt="http://ns.adobe.com/xap/1.0/sType/ResourceEvent#"
            xmlns:illustrator="http://ns.adobe.com/illustrator/1.0/"
            xmlns:xmpTPg="http://ns.adobe.com/xap/1.0/t/pg/"
            xmlns:stDim="http://ns.adobe.com/xap/1.0/sType/Dimensions#"
            xmlns:xmpG="http://ns.adobe.com/xap/1.0/g/"
            xmlns:pdf="http://ns.adobe.com/pdf/1.3/">
         <dc:format>image/svg+xml</dc:format>
         <dc:title>
            <rdf:Alt>
               <rdf:li xml:lang="x-default">Print</rdf:li>
            </rdf:Alt>
         </dc:title>
         <xmp:MetadataDate>2014-04-07T16:13:50-04:00</xmp:MetadataDate>
         <xmp:ModifyDate>2014-04-07T16:13:50-04:00</xmp:ModifyDate>
         <xmp:CreateDate>2014-04-07T16:13:50-04:00</xmp:CreateDate>
         <xmp:CreatorTool>Adobe Illustrator CC (Macintosh)</xmp:CreatorTool>
         <xmp:Thumbnails>
            <rdf:Alt>
               <rdf:li rdf:parseType="Resource">
                  <xmpGImg:width>256</xmpGImg:width>
                  <xmpGImg:height>256</xmpGImg:height>
                  <xmpGImg:format>JPEG</xmpGImg:format>
                  <xmpGImg:image>/9j/4AAQSkZJRgABAgEASABIAAD/7QAsUGhvdG9zaG9wIDMuMAA4QklNA+0AAAAAABAASAAAAAEA&#xA;AQBIAAAAAQAB/+4ADkFkb2JlAGTAAAAAAf/bAIQABgQEBAUEBgUFBgkGBQYJCwgGBggLDAoKCwoK&#xA;DBAMDAwMDAwQDA4PEA8ODBMTFBQTExwbGxscHx8fHx8fHx8fHwEHBwcNDA0YEBAYGhURFRofHx8f&#xA;Hx8fHx8fHx8fHx8fHx8fHx8fHx8fHx8fHx8fHx8fHx8fHx8fHx8fHx8fHx8f/8AAEQgBAAEAAwER&#xA;AAIRAQMRAf/EAaIAAAAHAQEBAQEAAAAAAAAAAAQFAwIGAQAHCAkKCwEAAgIDAQEBAQEAAAAAAAAA&#xA;AQACAwQFBgcICQoLEAACAQMDAgQCBgcDBAIGAnMBAgMRBAAFIRIxQVEGE2EicYEUMpGhBxWxQiPB&#xA;UtHhMxZi8CRygvElQzRTkqKyY3PCNUQnk6OzNhdUZHTD0uIIJoMJChgZhJRFRqS0VtNVKBry4/PE&#xA;1OT0ZXWFlaW1xdXl9WZ2hpamtsbW5vY3R1dnd4eXp7fH1+f3OEhYaHiImKi4yNjo+Ck5SVlpeYmZ&#xA;qbnJ2en5KjpKWmp6ipqqusra6voRAAICAQIDBQUEBQYECAMDbQEAAhEDBCESMUEFURNhIgZxgZEy&#xA;obHwFMHR4SNCFVJicvEzJDRDghaSUyWiY7LCB3PSNeJEgxdUkwgJChgZJjZFGidkdFU38qOzwygp&#xA;0+PzhJSktMTU5PRldYWVpbXF1eX1RlZmdoaWprbG1ub2R1dnd4eXp7fH1+f3OEhYaHiImKi4yNjo&#xA;+DlJWWl5iZmpucnZ6fkqOkpaanqKmqq6ytrq+v/aAAwDAQACEQMRAD8A9U4q7FXYq7FXYq7FXYq7&#xA;FXYq7FUJqOr6XpsfqX91Hbr1HqMAT/qr1P0ZZjxSn9Itoz6nHiFzkIsR1P8ANvQrclbGCW9YdG/u&#xA;oz9LVb/hczsfZkz9RAdJn9pMMdoAz+wfr+xjN9+bXmKYkWsUFonYhTI/3seP/C5mw7MxjnZdRm9p&#xA;M8vpEY/b+Pkkd151813JPqapOK/76b0v+TfHMmOkxDlEOuydq6mfOcvht9yWTajqExrNdTSHxeRm&#xA;/WctGOI5AOJLPklzkT8UPk2p2KoiHUdQhNYbqaM+KSMv6jkDjieYDbHPkjykR8UztfO3mu2p6eqT&#xA;tT/frer/AMnA+VS0mI84hy8fauphynL47/faeWP5teYoSBdRQXadyVMb/ep4/wDC5jT7MxnlYdjh&#xA;9pM8fqEZfZ+PkyfTPza0G4ot9DLZOerf3sY+lQG/4XMLJ2ZMfSQXb4PaTDL6wYfaP1/Yy3T9W0zU&#xA;o/UsLqO5QdfTYEj/AFh1H05g5MUoGpCnd4NTjyi4SEvci8rb3Yq7FXYq7FXYq7FXYq7FXYq7FXYq&#xA;7FXYq7FXYq7FXYqkuv8AnDQtDUi8n5XFKraxfFKfo6L/ALIjMjBpZ5OQ273X6ztPDp/rPq7hz/Hv&#xA;eca5+aeu3xaOwA0+3OwK/FKR7uRt/sR9ObfD2bCO8vUXlNX7Q5sm0PRH7fn+ph08888rSzyNLK27&#xA;SOxZj8yd82AiAKDopzMjcjZU8LF2KuxV2KuxV2KuxV2KuxV2KqkFxPbyrNbyPDKm6yRsVYfIihwS&#xA;iCKLKE5RNxNFmWhfmprdkVi1FRqFv3ZvgmA9mGx/2Q+nNfm7NhLePpP2O+0ntDmx7ZPXH7Xo+geb&#xA;tD1xB9TnAuKVa1kosop1+H9r5rXNRn0s8fMbd71ej7Sw6geg+ruPP8e5Ocx3PdirsVdirsVdirsV&#xA;dirsVdirsVdirsVdiqhfX9nYWr3V5MsFvGKtI5oPkPE+wyUIGRoCy1Zs0McTKZqIeXeaPzSvbsvb&#xA;aLytLbcNcn++b/V/kH4/LN1puzRHee57ujx/aHtDOfpw+mPf1/Z97A3d3dndizsasxNSSe5JzaAU&#xA;82SSbK3FDsVbVWZgqgsx2AG5JxSBae6d5G81X4DQ6fJHGf8Adk1IhTx+OhP0DMbJrMUeZdjg7I1O&#xA;TlAgee33sis/ye1V6G7v4IAe0atKR9/p5iT7Vj0BLtMXsxlP1TiPdv8AqTaD8ndKWnr388njwVE/&#xA;WHyg9qy6AOdD2YxfxTkfkP1otPyk8sKKGW6c+JkSv4IMrPaeXybh7N6fvn8x+pz/AJSeWGFBLdIf&#xA;ESJX8UOI7Ty+Sn2b0/fP5j9SEn/J3SWr9Xv54/D1FR/1BMsj2rLqA0z9mMX8M5D5H9SU3n5Paqm9&#xA;nfwz+0itEfw9TL4dqxPMEODl9mMo+icT79v1sd1HyL5qsKmXT5JIx+3BSUU8aJUj6RmVj1mKXIur&#xA;z9kanHzgSPLf7kiZWVirAqw2IOxBzKdcRTWKHYqujkeN1eNijqaqymhBHcEYkWkEg2GfeVvzTu7Y&#xA;pa63W5t9gLtR+9X/AFx+2Px+eavU9mg7w2Pc9L2f7Qyh6c3qj39fj3/f73p9lfWd9bJdWkyz28gq&#xA;kiGoP9vtmlnAxNEUXsMWaOSIlA3Eq+RbHYq7FXYq7FXYq7FXYq7FXYq7FUm8zeatN8v2nq3Lc7hw&#xA;fq9qp+NyP1L4nMjT6aWU0OXe4Gv7Rx6aNy+roO94x5h8zapr13697J+7Wvo267Rxj2Hj4k750ODT&#xA;xxCg8Drdfk1MuKZ26DoEpy9wnYqjNM0jUtUuPq9hbvcS9wo2UeLMdlHzyvJljAXI036fTZM0uGAM&#xA;i9A0P8ohRZdaud+v1a3/AONpCP1D6c1ebtTpAfEvTaT2a65pfAfr/HvZ1pXl7RdKQLYWccBGxkAr&#xA;Ifm7VY/fmsyZ5z+o29Hp9Fhwj0RA+/580wypynYq7FXYq7FXYq7FXYql+qeX9F1VSt/Zxzk7eoRS&#xA;QfJ1ow+/LceecPpNOLqNFhzD1xB+/wCfNguuflEpDS6Lc0PX6tcdPksgH6x9ObPD2p0mPiHndX7N&#xA;dcMvgf1/j3vP9T0jU9LuPQv7d7eTsGGze6sNmHyObTHljMXE28xqNNkwy4ZgxKDyxodiqb+XfNGq&#xA;6DdetZyViYj1rZt43HuOx8CMoz6eOUUXO0PaGTTSuB26joXtHlvzRpmv2frWjcZk/v7Zj8aH+I8D&#xA;nPajTSxGi99oO0MepjcefUdQm+Y7nOxV2KuxV2KuxV2KuxV2Ksd84+cbPy9Z0FJdQlB+r29fo5vT&#xA;oo/H9WXpdKcp/our7T7TjpY98zyH6T5PFNS1K91K8kvL2UzXEpqzn8AB2A7DOix4xAUOT5/nzzyz&#xA;M5m5FDZNpbVSxCqKk7ADqTikBn3lX8rbq7CXetFra3NCtou0rD/L/kHt1+WavU9oiO0Nz3vS9nez&#xA;0p1LN6Y93X4933+56dp+m2GnWy21jAlvAvREFKnxJ6k+5zTTySmbkbL1+HBDFHhgOEInINrsVdir&#xA;sVdirsVdirsVdirsVdirsVQ9/p1jqFs1tewJcQN1RxX6R3B9xk4ZJQNxNFqzYIZY8MwJB5j5q/K2&#xA;5tQ93oha5txu1o28qj/IP7Y9uvzzc6btES2nse95DtH2elD1YfVHu6/Dv+/3sAZWVirAhgaEHYgj&#xA;No80RTWKEVpmqX2mXkd5ZSmGePow6Ed1YdwfDIZMcZipcm7T6ieGYnA0Q9t8o+brLzDZclpFfRAf&#xA;WbavT/KXxU/hnOarSnEf6L6F2b2lDVQsbTHMfjon+YrsnYq7FXYq7FXYq7FUm81eZrTy/ppupqPO&#xA;9VtbetC7/wDNI7nMjTac5ZUOXVwO0dfHTY+I8+g73hmpale6ley3t5IZbiU1Zj+AA7AdhnS48YgK&#xA;HJ86z555Zmczcihcm0q9jY3d9dR2tpE01xKaJGoqT/QDucjOYiLPJsxYZZJCMRci9i8neQLLRES7&#xA;uwtzqhFedKpF7R17/wCV+rNBq9dLJsNovd9l9jQ044perJ9g9362W5gO7dirsVdirsVdirsVdirs&#xA;VdirsVdirsVdirsVdirE/OPkCx1tGurXjbaoN/UpRJPaQDv/AJWZ2l1ssex3i6TtTsaGoHFH05Pv&#xA;9/63jt/YXlhdyWl5E0NxEaPG3Uf1B8c6CExIWOTwubDPHIxmKkEPkmpF6Xqd7pd9Fe2cnpzxGqns&#xA;R3Vh3B75DJjE48J5N2n1E8MxOBoh7p5X8yWev6Yt3B8Eq/Dcwd438PkeoOczqNOcUqL6N2froanH&#xA;xDn1HcU3yhznYq7FXYq7FVC/vraws5ry6cR28Cl5HPgP4ntkoQMiAOZa82aOOBnI1EPBvM3mG617&#xA;VZL2aqx/Zt4a7JGOg+fc50+nwDFGg+ba/Wy1OQzPLoO4JTl7hIiwsLu/vIrO0jMtxM3GNB3P8AO+&#xA;RnMRFnk24cMskxCIuRe2eTvJ1n5es6mkuoSgfWLin08Er0Ufj+rnNVqjlP8ARfQezOzI6WPfM8z+&#xA;geTIsxHaOxV2KuxV2KuxV2KuxV2KuxV2KuxV2KuxV2KuxV2KuxVIPN3lCx8wWZDARX8Y/wBHugNx&#xA;/kN4qfwzK0uqliP9HudZ2l2ZDUw7pjkf0e54hqGn3mn3ktneRGK4iPF0b9Y8QexzpITEhY5PnubD&#xA;LFIwmKkEPkmpOPK3mO60DVUvIqtC3w3MFdnjPUfMdQco1OAZY0fg53Z+ulpsgmOXUd4e8WV5b3tp&#xA;Fd2ziSCdQ8bjuDnMTgYkg8w+kYssckRKJsFWyLY7FXYq7FXlH5p+aDdXg0W1f/R7U8roj9qX+X5J&#xA;+v5ZvOzdNwjjPM8ni/aHtDjn4Mfpjz9/7PvYBm0eZbVWdgiAszGiqNySegAxJSBewe1eQvJyaHYi&#xA;5ulB1S5X96evpqdxGP8Ajb3+Wc7rdX4kqH0h7/sfssaeHFL+8lz8vL9bK8wXdOxV2KuxV2KuxV2K&#xA;uxV2KuxV2KuxV2KuxV2KuxV2KuxV2KuxVivnzydHrtj9YtlC6pbqTC3T1F6mNj/xH3+eZ2i1fhSo&#xA;/SXS9sdljUQ4o/3keXn5fqeKOjo7I6lXUkMpFCCOoIzogXgCCDRaxQ9B/KvzQbe6Oh3T/uLglrRi&#xA;fsy90+T9vf55qu0tNY4xzHN6f2e7Q4ZeDLlL6ff3fH7/AHvVc0j2bsVdiqTeb9fTQ9DnvK/6Q37q&#xA;1XxlYHj/AMD9o/LMjS4PEmB06uB2nrBp8Jn/ABch7/xu8EkkeR2kdizuSzMdySdyTnUAU+akkmyt&#xA;xQ9D/K3yoLif9O3aVhhYrZKRs0g6yf7Dt7/LNV2lqaHAOvN6j2e7O4j40uQ+n39/w+/3PU80j2Ts&#xA;VdirsVdirsVdirsVdirsVdirsVdirsVdirsVdirsVdirsVdirsVeW/mn5UEMv6dtEpFKQt6ijo5+&#xA;zJ/suh9/nm67N1NjgPweO9oezuE+NEbH6vf3/H7/AHvO82zyy6KSSKRJY2KSIQyONiGBqCMBF7Jj&#xA;Ig2OYe+eU9eTXNDgvdhP/d3KjtKv2vv+0PnnMarD4czHo+ldm6wajCJ9eR96cZjue7FXj/5qa6b3&#xA;XF0+Nq2+nji3gZnoWP0Ci/fm/wCzcPDDiPOTwvtDq/EzeGPph9/VhObF59H6HpM+r6rbafDs070Z&#xA;uvFBuzfQu+V5soxxMj0cnSaaWfLHGOr6BsbK3srOG0tl4QQII419lFN/fOVnMyJJ5l9NxYo44CMe&#xA;QVsi2OxV2KuxV2KuxV2KuxV2KuxV2KuxV2KuxV2KuxV2KuxV2KuxV2KuxVRvbO3vbSa0uE5wToUk&#xA;U9wwpkoTMSCOYa8uKOSJjLkXz9r2kT6Pq1xp827QtRH/AJkO6t9IzqcOUZICQfMtZppYMpxnp93R&#xA;AZa4zN/yq136nrT6bK1INQFEr0EyAlf+CFR92a3tLDxQ4hzj9z0Ps7q/DzeGeU/vH4+56/mhe5Qm&#xA;rahFp2mXV9L9i2jaSniQNl+k7ZPFAzkIjq0anOMWOUz/AAi3zxcTy3E8lxM3OWZ2kkY92Y1J+851&#xA;kYgCg+XTmZSMjzKnhYvUvyj0IR2k+syr8c5MFsT2RT8ZHzbb6M0vamayIDo9j7NaSonMeZ2Hu6/j&#xA;yeiZqXqXYq7FXYq7FXYq7FXYq7FXYq7FXYq7FXYq7FXYq7FXYq7FXYq7FXYq7FXYq88/NzQhLZwa&#xA;zEvx25ENwR/vtz8BPyc0+nNr2XmomB6vL+0ukuAyjnHY+7p9v3vLM3bxqpbXEttcRXELcZoXWSNv&#xA;BlNQfvwSiCKLOEzCQkOY3fRGlX8WoabbX0X2LmNZAOtCwqR9B2zk8kDCRiej6jp8wy44zH8QtiP5&#xA;tan9X0CGyU0e9lHIeMcXxH/huOZ/ZmO8hl3B0ftJn4cAh/PP2D9tPIc3zw6+CGSeaOGJeUsrBEUd&#xA;2Y0AwE0LLKETIgDmX0RpOnRabplrYRfYto1jr4kDdvpO+cplyGcjI9X1HTYBixxgP4Qi8rb3Yq7F&#xA;XYq7FXYq7FXYq7FXYq7FXYq7FXYq7FXYq7FXYq7FXYq7FXYq7FXYqhdW0+LUdNubGX7FxG0dfAkb&#xA;H6Dvk8UzCQkOjTqcIy45QP8AEKfO08MkE0kMq8ZYmKOp7MpoRnWA2LD5bOJiSDzCzCxev/lNqZud&#xA;Alsmar2MpCjwjl+Jf+G5Zoe08dZOLve59m9RxYDA/wAB+w/ttjH5t3xm8ww2oPwWsC1H+XISx/4X&#xA;jmZ2ZCsZPeXT+0mXiziP82P3/gMHzZPPMn/LjTvrvmy1LCsdqGuX/wBhsv8Aw7LmHr8nDiPns7fs&#xA;PB4mpj3R9Xy/bT2/ObfQ3Yq7FXYq7FXYq7FXYq7FXYq7FXYq7FXYq7FXYq7FXYq7FXYq7FXYq7FX&#xA;Yq7FXYq8Q/MjThZebLoqKR3QW5T/AGYox/4NWzpNBk4sQ8tnz3t3B4epl3S9Xz5/bbGMzHTs4/KS&#xA;+MPmCa0J+C6gNB4vGQw/4Xlmt7TheMHuL0Xs3m4c5j/Oj934KRedro3PmzVJDvxnaL/kVSP/AI0z&#xA;J0caxR9zre1cnHqZn+lXy2/QkmZLr3pP5OWdZNSvD2EcKH51Zv1Lmo7Vn9Ies9l8W85+4fj7Hpua&#xA;Z652KuxV2KuxV2KuxV2KuxV2KuxV2KuxV2KuxV2KuxV2KuxV2KuxV2KuxV2KuxV2KvM/zjswH028&#xA;A3Ikhc/Liy/rbNz2VL6g8j7UYt4T94/H2vNc27yaeeSLr6t5s0uT+acRf8jQY/8AjfMbWRvFL3Ox&#xA;7JycGpgf6VfPb9KWalKZtRupT1kmkc/7JicuxiogeTh55cWSR7yUNk2p7B+UkHp+WZZKbzXTtX2V&#xA;EX9YOaDtOV5Pg917NwrTk98j9wZtmuegdirsVdirsVdirsVdirsVdirsVdirsVdirsVdirsVdirs&#xA;VdirsVdirsVdirsVdirCfzbg9TyzFJTeG6Rq+zI6/rIzY9mSrJ8Hn/aSF6cHukPuLx/N+8KidNlM&#xA;Oo2sw6xzRuP9iwOQyC4keTbglw5InuIQ2TanYq9r/LAAeT7YgUJklJ+fqEZzvaP96fg+gdgD/BY+&#xA;8/eyvMF3TsVdirsVdirsVdirsVdirsVdirsVdirsVdirsVdirsVdirsVdirsVdirsVdirsVYp+Z4&#xA;B8n3JIqRJER8/UAzO7O/vR8XS9vj/BZe8fe8Uzonz92KuxV2KvbPyxI/wfa+zy1/5GHOd7R/vj8H&#xA;0HsD/FY+8/eyrMF3LsVdirsVdirsVdirsVdirsVdirsVdirsVdirsVdirsVdirsVdirsVdirsVdi&#xA;rsVYr+ZxH+D7r3eKn/IwZndnf3w+Lpu3/wDFZe8fe8Tzonz52KojUITDf3MJ6xyuh/2LEZHGbiD5&#xA;NuePDOQ7iUPkmp7F+U04k8sPH3huZFI9iqt/xtmg7TFZfg937NzvTkd0j+hmma537sVdirsVdirs&#xA;VdirsVdirsVdirsVdirsVdirsVdirsVdirsVdirsVdirsVdirsVYX+bM4j8sRx13muY1p7BWb/jX&#xA;Nj2YLy/B0HtJOtOB3yH6Xjub94REafCZr+2hHWSVEH+yYDI5DUSfJtwR4pxHeQmXnS1+q+a9UipS&#xA;s7SAe0v7wf8AEsp0krxRPk5fauPg1Mx/Sv57pLmQ696Z+Tl4OOpWZO4McyD58lb9S5p+1YfSXrvZ&#xA;fLtOHuP4+x6VmnesdirsVdirsVdirsVdirsVdirsVdirsVdirsVdirsVdirsVdirsVdirsVdirsV&#xA;dirzX847wcdNsgd6yTOPuVf+Ns3HZUPqLyftRl+iHvP4+15nm4eRTryXa/WvNelxUrSdZCPaL94f&#xA;+I5j6uVYpHydh2Vj49TAf0r+W6efmzY+h5jjugPhu4FYn/LjJQ/8KFzG7MneOu4uw9pMPDqBL+dH&#xA;7tv1MJzYvPsr/LLUfqfmuCNjRLtHgb5kc1/4ZAMwe0MfFiPlu7rsDPwakDpIEfp/Q9rznX0B2Kux&#xA;V2KuxV2KuxV2KuxV2KuxV2KuxV2KuxV2KuxV2KuxV2KuxV2KuxV2KuxV2KvFPzM1EXnmudFNUtES&#xA;3U+4+Jv+GcjOj7Px8OIee75/29n49SR/NAH4+JYpma6Vm/5S2Jm8xy3RHw2kDEH/AC5CFH/C8s13&#xA;ac6x13l6H2bw8Wcy/mx+/b9bJfzb0z19DgvlFWspaMfBJqKf+GC5h9l5KmY9/wCh23tJg4sIn/MP&#xA;2H9tPI83rxCraXMtrdQ3URpLA6yIf8pCGH6sjKIkCD1Z48hhISHMG30Vp97FfWNveQmsVxGsid9m&#xA;FafRnJzgYyIPR9Sw5RkgJjlIWr5FtdirsVdirsVdirsVdirsVdirsVdirsVdirsVdirsVdirsVdi&#xA;rsVdirsVdiqH1G+hsLC4vZv7q3jaR/cKK0HucnjgZSAHVqz5RjgZnlEW+drq5lurqa5lNZZ3aSQ+&#xA;LOSx/E51kYiIAHR8tyZDORkeZNqWFg9d/KTTPQ0Ke+YUe9lop8Y4vhH/AAxbND2nkuYj3B7j2bwc&#xA;OEz/AJ5+wfttlusadHqWlXVhJstzG0YY9mI+FvoO+YOLJwSEu53eqwDLjlA/xB88TwywTSQSqUli&#xA;YpIh6hlNCPvzqwQRYfLpxMSQeYWYWL1r8ptcFzpculSt++sjzhB7xOa/8K9fvGaLtPDUuMdXtvZz&#xA;V8eM4jzhy9x/azzNY9I7FXYq7FXYq7FXYq7FXYq7FXYq7FXYq7FXYq7FXYq7FXYq7FXYq7FXYq7F&#xA;WA/m1rgt9Mh0mJv3t4fUnA6iJDt/wT/qObTszDcjM9HmvaTV8OMYhzlufcP1n7nk+bx4pfBDLPPH&#xA;BEvKWVgkajqWY0A+/ASALLKEDIgDmX0Ro+nR6bpdrYR/Zt41So7kD4m+k75ymXJxyMu99R02AYsc&#xA;YD+EIvK2947+aWhGx136/GtLfUBzJHQSrs4+nZvpOdB2dm4ocJ5xeE9odJ4ebjH0z+/r+thebB0C&#xA;aeWdcl0TWre/SpRDxnQftRtsw/iPfKdRhGSBi5mg1Z0+UTHx9z3+CeG4gjnhYPDKoeNx0KsKgj6M&#xA;5aQINF9MhMSAkNwV+Bk7FXYq7FXYq7FXYq7FXYq7FXYq7FXYq7FXYq7FXYq7FXYq7FXYq7FVO4uI&#xA;ba3kuJ3CQwqXkc9AqipOGMSTQYzmIRMjsA8A8ya3LrWs3GoSVCyNSFD+zGuyL93X3zqdPhGOAi+Z&#xA;a7VnUZTM9eXu6JZlziM0/K3Qzfa6b+Ra2+njmCehlbZB9G7fQM13aWbhhwjnJ3/s9pPEzcZ+mH39&#xA;P1vYs0D3bsVSTzjoC65oU9oB/pKfvbU9KSoDQf7IVX6cydLn8OYPTq6/tPR/mMJj/FzHv/GzwV0Z&#xA;HZHBVlJDKdiCOoOdOC+bEEGi1ih6d+VfmoMn6Bu3+JavYsT1HVo/o+0PpzTdpab/ACg+L1/s92jY&#xA;8CX+b+r9L0jNQ9W7FXYq7FXYq7FXYq7FXYq7FXYq7FXYq7FXYq7FXYq7FXYq7FXYq7FXmv5qeahT&#xA;9A2j77PfMPvWP/jY/R75uOzdN/lD8HkvaLtH/IR/zv1fpeZ5uHklyI7uqIpZ2ICqNySdgBiTSQCT&#xA;Qe9eT9AXQ9CgsyB9Yb97dMO8r9R/sRRfozl9Vn8SZPTo+k9maP8AL4RD+Lmff+Nk6zHdg7FXYq8m&#xA;/NLyubO+/TNsn+jXbUuQP2Jv5vk/6/nm97O1PFHgPMfc8V7Q9n8E/Gj9Mufkf2/ewLNm80vgnmgm&#xA;jnhcxzRMHjddiGU1BGAgEUWUJmJBGxD3LyX5sg8waaGYhL+ABbqEePZ1/wAlvwzm9Xpjil/RPJ9E&#xA;7K7RGpx/0xzH6WQ5iO0dirsVdirsVdirsVdirsVdirsVdirsVdirsVdirsVdirsVdirHPO3m2HQN&#xA;OPplX1GcEW0R3p2MjD+VfxOZej0pyy/ojm6rtbtIabHt/eHkP0vD5ppZpXmlYvLIxd3bclmNSTnS&#xA;AACg+eSkZEk8yswsWfflb5XN3enWrlP9GtGpbAjZ5v5vkn6/lmr7S1PDHgHM8/c9L7Pdn8c/Gl9M&#xA;eXv/AGfe9YzRvauxV2KuxVD6hYWuoWU1ldJzt51KSL7HuPcdRk4TMZAjmGrNhjlgYS3iXg3mXy/d&#xA;6FqkllP8Sfat5qUEkZOzfPxHjnTafOMseIPm+v0UtPkMJfA94SrL3CRuj6vfaRfx31k/CaPsd1ZT&#xA;1Vh3ByvLijkjwycjTameCYnA7h7n5a8y2Gv2AurU8ZFoLi3J+KNvA+IPY985rUaeWKVF9F0GvhqY&#xA;cUefUdybZQ5rsVdirsVdirsVdirsVdirsVdirsVdirsVdirsVdirsVSbzR5osPL9gbi4POd6i2tg&#xA;aM7D9SjucyNNppZZUOTgdodoQ00OKX1dB3vDtW1a91a/lvrx+c0p/wBiq9lUdlGdJixRhHhHJ871&#xA;OpnmmZzO5QeWNCa+WfL13ruqR2UFVj+1cTUqI4x1Pz7D3yjUZxijxFzdBopanIIDl1PcHvOn2Frp&#xA;9lDZWqenbwKEjX2Hc+56nOZnMyJJ5l9Iw4Y4oCEdohEZBtdirsVdirsVSXzX5YtPMGmm2lolxHVr&#xA;Wem6P7/5J7jMjTag4pWOXV1/aOgjqcfCdpDke54ZqOnXmnXstleRmO4hPF1P4EHuD2zpceQTFjk+&#xA;dZ8EsUzCYqQQ2Takbo+sX+kXyXtjJ6cybEdVZT1Vh3ByvLijkjwycjTaqeCYnA0XtHlTznpvmCAK&#xA;pEF+grNaMd9v2kP7S/qzntTpJYj3x73vuzu1MepjttPqP1MhzEdo7FXYq7FXYq7FXYq7FXYq7FXY&#xA;q7FXYq7FXYq7FWOebfOuneX4THUT6i4rFaqelejSfyr+JzL0ukllPdHvdV2l2rj0wrnPoP1vGNW1&#xA;e/1a9e8vpTLM/T+VV7Ko7AZ0OLFGEai8DqdTPNMzmbKDyxoROm6deajexWVnGZLiY8UUfiSewHfI&#xA;ZMghGzybsGCeWYhAXIvc/Knli08v6attFR7h6NdXFN3f/mkdhnNanUHLKzy6PovZ2gjpsfCPqPM9&#xA;6dZjue7FXYq7FXYq7FXYqx3zj5Os/MNnUUi1CIH6vcU+ng9Oqn8P15el1RxH+i6vtPsyOqj3THI/&#xA;oPk8U1HTb3TrySzvYjDcRmjI34EHuD450WPJGYscnz/PgnimYTFSCGybSqQTzW8yTQO0U0Z5JIhI&#xA;YEdwRgMQRRZQmYmwaIel+VfzUjcJaa98D7Kt8g+E/wDGRR0+Y+7NPqezesPk9b2d7Qg1HP8A6b9b&#xA;0SGeGeJJoJFlicckkQhlIPcEbZqSCDRephMSFg2CvwMnYq7FXYq7FXYq7FXYq7FXYq7FXYqpz3EF&#xA;vC008ixQoKvI5CqB7k4YxJNBjOcYi5Gg8681fmooD2mg7t0a+cbD/jGp/W33Zt9N2b1yfJ5XtH2h&#xA;5xwf6b9TzWaaaeV5pnaSWQlnkclmYnqST1zbgACg8nKRkbJslZhYonTtNvdRvI7OyiM1xIaKi/iS&#xA;ewHjkMmSMBZ5N2DBPLMQgLkXtfk7ydZ+XrOppLqEoH1i4p9PBK9FH4/q53Vao5T/AEX0DszsyOlj&#xA;3zPM/oHkyLMR2jsVdirsVdirsVdirsVdiqS+Z/Kmm+YLT0rleFwgP1e6UfGh/iviMyNPqZYjY5dz&#xA;ga/s7HqY1LaXQ9zxjzD5Z1TQrv0L2P8AdsT6Nwu8cgHgfH2O+dDg1EcouLwOt0GTTSqY26HoUqy9&#xA;wnYqmuh+Z9a0WTlYXBSMmrwN8UTfNT+sb5Rm08Mn1BzdJ2hm059B27unyejaH+bGk3QWLVYzYzdD&#xA;KtXiJ+j4l+4/PNTm7MnHeO4eq0ntHintlHAe/mP1s1tL2zvIRNaTx3ER6PGwYfeM10oGJoinf48s&#xA;MguJEh5K2RbHYq7FXYq7FXYq7FXYqoXl9ZWUJmu547eIftyMFH45KEDI0BbXlzQxi5ERHmwrXPzY&#xA;0q2DRaVEb2bp6r1SIff8TfcPnmxw9mSO8tnn9X7R44bYhxnv5D9Zec655m1rW5ed/cF0BqkC/DGv&#xA;yUfrO+bfDp4Yx6Q8rq9fl1BuZ+HRK8ucN2Kpr5e8s6prt36FlH+7Uj1rhto4wfE+PsN8oz6iOIXJ&#xA;zdFoMmplUBt1PQPZ/LHlTTfL9p6VsvO4cD6xdMPjc/wXwGc9qNTLKbPLue+0HZ2PTRqO8up706zH&#xA;c92KuxV2KuxV2KuxV2KuxV2KuxVQvrCzv7Z7W8hWe3k2aNxUfP2PuMlCZibBotebDDJExmLiXl3m&#xA;j8rb20L3Oilrq26m1b++X/V/nH4/PN1pu0hLaex7+jx3aHs9OHqw+qPd1/b97A3R0dkdSrqaMpFC&#xA;COxBzaA282QQaK3FDsVV7S+vLOUTWk8lvKP24mKH7wRkZQEhRFtmPLPGbiTE+TJ9O/NDzTaALNJH&#xA;eINqTp8VP9ZOB++uYWTs7FLls7jB7QamHMiXvH6qZFZ/nHbEAXmmuh7tDIHr/sWCfrzFn2UeknaY&#xA;vaeP8cD8D/Ym0H5q+VJfttPB/wAZI6/8QL5RLs3KO4ubD2i0x58Q+H6rRQ/MnyWQCdQoT2MM+33J&#xA;lf8AJ+b+b9obv5d0n8//AGMv1OP5k+SwCRqFSOwhn3+9Mf5PzfzftC/y7pP5/wDsZfqQs/5q+VIv&#xA;sNPP/wAY46f8TKZZHs3Ke4NM/aLTDlxH4frpKLz847cAiy013PZppAtP9iob9eXw7KPWThZfaeP8&#xA;ED8Sx3UfzQ81XYKxSx2aHakCfFT/AFn5n7qZl4+zsUee7qs/tBqZ8iIjyH67Yxd3t5eSma7nkuJT&#xA;+3KxdvvYnMyMBEUBTqMmWczciZHzUck1uxVciO7qiKWdjRVAqST2AGJNJAJNBnnlf8rb27KXOtFr&#xA;S22Ith/fOP8AK/kH4/LNXqe0ox2hue/o9J2f7PTn6s3pj3df2fe9QsNPstPtUtbKFYLeP7MaCg+Z&#xA;8T7nNNOZkbJsvYYcMMUeGAqIRGQbXYq7FXYq7FXYq7FXYq7FXYq7FXYq7FXYqkuv+UNC1xSbyDjc&#xA;Uot1F8Mo+no3+yBzIwaqePkdu51+s7Mw6j6x6u8c/wAe95xrn5Wa5Y8pbAjUIBvxX4JQP9Qmh/2J&#xA;+jNvh7ShLaXpLyur9ns2PeHrj9vyYdPBPBK0U8bRSrs0bqVYfMHfNgJAiw6GcDE1IUVPCxdirsVd&#xA;irsVdirsVdirsVdiqpBBPPKsUEbSytssaKWY/IDfAZACyyhAyNRFlmGh/lZrt9xlvyNPtzvR/ilI&#xA;9kB2/wBkfozX5u0oR2j6i73Sez2bJvP0R+35frekaB5P0LQ1Bs4OVxSjXUvxyn5Hov8AsQM1GfVT&#xA;yczt3PV6PszDp/oHq7zz/HuTrMd2DsVdirsVdirsVdirsVdirsVdirsVdirsVdirsVdirsVQmoaR&#xA;pmox+nfWsVyvQeooJH+qeo+jLIZZQ+k00Z9NjyipxEvexLU/yl0G4LNYzS2Tnov97GPoajf8Nmdj&#xA;7TmPqALpM/s3hl9BMPtH6/tYxfflL5ihJNrLBdp2AYxv9zDj/wANmbDtPGedh1Gb2bzx+kxl9n4+&#xA;aR3XknzXbV9TS52p/vpfV/5Nl8yY6vEeUg67J2VqYc4S+G/3Wlk2nahCaTWs0Z8HjZf1jLRkieRD&#xA;iSwZI84kfBD5NqdiqIh07UJjSG1mkPgkbN+oZA5IjmQ2xwZJcok/BM7XyV5ruSPT0ucV/wB+r6X/&#xA;ACc45VLV4hzkHLx9lamfKEvjt96eWP5S+YpiDdSwWidwWMj/AHKOP/DZjT7TxjlZdjh9m88vqMY/&#xA;b+PmybTfyk0G3Ia+nlvWHVf7qM/QtW/4bMLJ2nM/SAHb4PZvDH6yZ/YP1/ay7TtI0vTY/TsLWO3X&#xA;ofTUAn/WbqfpzByZZT+o27vBpseIVCIii8rb3Yq7FXYq7FXYq7FXYq7FXYq//9k=</xmpGImg:image>
               </rdf:li>
            </rdf:Alt>
         </xmp:Thumbnails>
         <xmpMM:InstanceID>xmp.iid:8edccc8e-c809-4250-b940-b57347fbd38c</xmpMM:InstanceID>
         <xmpMM:DocumentID>xmp.did:8edccc8e-c809-4250-b940-b57347fbd38c</xmpMM:DocumentID>
         <xmpMM:OriginalDocumentID>uuid:5D20892493BFDB11914A8590D31508C8</xmpMM:OriginalDocumentID>
         <xmpMM:RenditionClass>proof:pdf</xmpMM:RenditionClass>
         <xmpMM:DerivedFrom rdf:parseType="Resource">
            <stRef:instanceID>uuid:d1c078a0-2746-42b2-b0d1-25aedff8fb1e</stRef:instanceID>
            <stRef:documentID>xmp.did:1b6690ed-28a8-c141-9479-b6a9cf6be651</stRef:documentID>
            <stRef:originalDocumentID>uuid:5D20892493BFDB11914A8590D31508C8</stRef:originalDocumentID>
            <stRef:renditionClass>proof:pdf</stRef:renditionClass>
         </xmpMM:DerivedFrom>
         <xmpMM:History>
            <rdf:Seq>
               <rdf:li rdf:parseType="Resource">
                  <stEvt:action>saved</stEvt:action>
                  <stEvt:instanceID>xmp.iid:8edccc8e-c809-4250-b940-b57347fbd38c</stEvt:instanceID>
                  <stEvt:when>2014-04-07T16:13:50-04:00</stEvt:when>
                  <stEvt:softwareAgent>Adobe Illustrator CC (Macintosh)</stEvt:softwareAgent>
                  <stEvt:changed>/</stEvt:changed>
               </rdf:li>
            </rdf:Seq>
         </xmpMM:History>
         <illustrator:StartupProfile>Print</illustrator:StartupProfile>
         <xmpTPg:HasVisibleOverprint>False</xmpTPg:HasVisibleOverprint>
         <xmpTPg:HasVisibleTransparency>False</xmpTPg:HasVisibleTransparency>
         <xmpTPg:NPages>1</xmpTPg:NPages>
         <xmpTPg:MaxPageSize rdf:parseType="Resource">
            <stDim:w>120.000000</stDim:w>
            <stDim:h>120.000000</stDim:h>
            <stDim:unit>Points</stDim:unit>
         </xmpTPg:MaxPageSize>
         <xmpTPg:PlateNames>
            <rdf:Seq>
               <rdf:li>Cyan</rdf:li>
               <rdf:li>Magenta</rdf:li>
               <rdf:li>Yellow</rdf:li>
            </rdf:Seq>
         </xmpTPg:PlateNames>
         <xmpTPg:SwatchGroups>
            <rdf:Seq>
               <rdf:li rdf:parseType="Resource">
                  <xmpG:groupName>Default Swatch Group</xmpG:groupName>
                  <xmpG:groupType>0</xmpG:groupType>
               </rdf:li>
            </rdf:Seq>
         </xmpTPg:SwatchGroups>
         <pdf:Producer>Adobe PDF library 10.01</pdf:Producer>
      </rdf:Description>
   </rdf:RDF>
</x:xmpmeta>
                                                                                                    
                                                                                                    
                                                                                                    
                                                                                                    
                                                                                                    
                                                                                                    
                                                                                                    
                                                                                                    
                                                                                                    
                                                                                                    
                                                                                                    
                                                                                                    
                                                                                                    
                                                                                                    
                                                                                                    
                                                                                                    
                                                                                                    
                                                                                                    
                                                                                                    
                                                                                                    
                           
<?xpacket end="w"?>
	</metadata>
<g>
	<g>
		<g>
			<path fill="#04B8DB" d="M300,111.7c-28.4,0-51.6-23-51.6-51.5c0-28.4,23-51.5,51.6-51.5s51.6,23,51.6,51.5
				C351.6,88.5,328.4,111.7,300,111.7 M300,0c-33.4,0-60,27-60,60.1c0,33.3,27,59.9,60,59.9c33.4,0,60-27,60-59.9S333.4,0,300,0"/>
		</g>
	</g>
	<g enable-background="new    ">
		<path fill="#FFFFFF" d="M278.8,61.7V45.3h-6.4v-3.8c0.9,0,1.7,0,2.6-0.2c0.9-0.2,1.6-0.5,2.3-0.9c0.7-0.3,1.2-0.9,1.7-1.6
			c0.5-0.7,0.7-1.4,0.9-2.4h4.2v25.3L278.8,61.7L278.8,61.7L278.8,61.7z"/>
		<path fill="#FFFFFF" d="M291.8,42c0.3-1.2,1-2.4,1.7-3.3c0.7-0.9,1.7-1.7,2.9-2.3c1.2-0.5,2.6-0.9,4-0.9c1.2,0,2.3,0.2,3.3,0.5
			s1.9,0.9,2.8,1.6c0.9,0.7,1.4,1.6,1.9,2.6c0.5,1,0.7,2.1,0.7,3.3s-0.2,2.4-0.7,3.3c-0.3,0.9-1,1.7-1.6,2.4
			c-0.7,0.7-1.4,1.4-2.3,1.9s-1.7,1.2-2.6,1.7c-0.9,0.5-1.7,1.2-2.6,1.9c-0.9,0.7-1.6,1.4-2.3,2.3h12v4.5h-18.4
			c0-1.6,0.2-2.8,0.7-3.8c0.3-1,1-2.1,1.7-2.9c0.7-0.9,1.6-1.7,2.6-2.4c1-0.7,2.1-1.4,3.1-2.3c0.5-0.3,1.2-0.9,1.7-1.2
			c0.7-0.3,1.2-0.9,1.7-1.4c0.5-0.5,1-1,1.4-1.6c0.3-0.7,0.5-1.2,0.5-2.1c0-1.2-0.3-2.3-1-2.9c-0.7-0.7-1.6-1-2.8-1
			c-0.7,0-1.4,0.2-1.9,0.5c-0.5,0.3-0.9,0.9-1.2,1.4c-0.3,0.5-0.5,1.2-0.7,1.9c-0.2,0.7-0.2,1.4-0.2,2.1h-5
			C291.3,44.6,291.4,43.4,291.8,42z"/>
		<path fill="#FFFFFF" d="M311.5,42.7c0.5-1.7,1.2-3.1,2.1-4c0.9-1,1.9-1.7,2.9-2.3c1.2-0.5,2.3-0.7,3.6-0.7c1.2,0,2.4,0.2,3.6,0.7
			c1.2,0.5,2.1,1.2,2.9,2.3c0.9,1,1.6,2.4,2.1,4c0.5,1.7,0.7,3.8,0.7,6.1c0,2.6-0.2,4.7-0.7,6.3c-0.5,1.7-1.2,3.1-2.1,4.2
			c-0.9,1-1.9,1.7-2.9,2.3c-1.2,0.5-2.3,0.7-3.6,0.7c-1.2,0-2.4-0.2-3.6-0.7c-1.2-0.5-2.1-1.2-2.9-2.3c-0.9-1-1.6-2.4-2.1-4.2
			c-0.5-1.7-0.7-3.8-0.7-6.3C310.8,46.5,311,44.5,311.5,42.7z M316,51.6c0,1,0.2,2.1,0.5,2.9c0.2,1,0.7,1.7,1.2,2.4
			c0.5,0.7,1.4,1,2.4,1s1.9-0.3,2.4-1c0.5-0.7,1-1.6,1.2-2.4c0.2-1,0.3-1.9,0.5-2.9c0-1,0-1.9,0-2.6c0-0.5,0-1,0-1.6
			c0-0.5,0-1.2-0.2-1.9c0-0.7-0.2-1.4-0.3-1.9c-0.2-0.7-0.3-1.2-0.7-1.7c-0.3-0.5-0.7-0.9-1.2-1.2c-0.5-0.3-1-0.5-1.7-0.5
			c-0.7,0-1.2,0.2-1.7,0.5c-0.5,0.3-0.9,0.7-1.2,1.2c-0.3,0.5-0.5,1-0.7,1.7c-0.2,0.7-0.3,1.2-0.3,1.9c0,0.7-0.2,1.2-0.2,1.9
			c0,0.7,0,1.2,0,1.6C316,49.7,316,50.7,316,51.6z"/>
	</g>
	<g enable-background="new    ">
		<path fill="#FFFFFF" d="M284.3,71.3v2.3l0,0c0.3-0.9,1-1.4,1.7-1.9s1.6-0.7,2.6-0.7c0.9,0,1.7,0.2,2.4,0.7c0.7,0.3,1.2,1,1.4,1.9
			c0.3-0.9,1-1.6,1.7-1.9s1.6-0.7,2.4-0.7c2.9,0,4.3,1.6,4.3,4.7v8.7h-1.6v-8.8c0-1-0.2-1.9-0.7-2.4c-0.5-0.5-1.2-0.9-2.4-0.9
			c-0.7,0-1.2,0.2-1.7,0.3c-0.5,0.3-0.9,0.7-1,1c-0.3,0.5-0.5,0.9-0.5,1.6c-0.2,0.5-0.2,1.2-0.2,1.7v7.3h-1.6v-8.6
			c0-0.5,0-0.9-0.2-1.2c-0.2-0.3-0.3-0.9-0.5-1.2s-0.5-0.5-0.9-0.7c-0.3-0.2-0.9-0.2-1.2-0.2c-0.7,0-1.2,0.2-1.7,0.3
			c-0.5,0.2-0.9,0.5-1.2,1c-0.3,0.5-0.5,0.9-0.7,1.6c-0.2,0.5-0.2,1.2-0.2,1.9v7.2h-1.4v-13H284.3z"/>
		<path fill="#FFFFFF" d="M305.5,66.2v2.6H304v-2.6H305.5z M305.5,71.3v13.1H304V71.3H305.5z"/>
	</g>
	<g enable-background="new    ">
		<path fill="#FFFFFF" d="M311.2,71.3v2.3l0,0c0.3-0.9,0.9-1.4,1.6-1.9s1.6-0.7,2.6-0.7c0.9,0,1.7,0.2,2.3,0.3c0.7,0.2,1,0.5,1.6,1
			c0.3,0.3,0.7,1,0.9,1.6c0.2,0.7,0.2,1.4,0.2,2.1v8.4h-1.6v-8c0-0.5,0-1-0.2-1.6s-0.3-0.9-0.5-1.2c-0.2-0.3-0.5-0.7-1-0.9
			c-0.3-0.2-1-0.3-1.6-0.3c-0.5,0-1.2,0.2-1.7,0.3c-0.5,0.2-0.9,0.5-1.2,0.9c-0.3,0.3-0.7,0.9-0.9,1.4c-0.2,0.5-0.3,1.2-0.3,1.7v7.5
			h-1.6V71.1h1.6v0.2H311.2z"/>
	</g>
</g>
</svg>
