<svg xmlns="http://www.w3.org/2000/svg" viewBox="0 0 792 1224" enable-background="new 0 0 792 1224"><path fill="#00B8E6" d="M762.7 384.8c-27.1 11.9-55.9 20.1-86.3 23.7 31-18.7 55-48.1 66.2-83.3-29 17.3-61.2 29.7-95.6 36.5-27.5-29.3-66.6-47.6-109.9-47.6-97.2 0-168.6 90.6-146.5 184.8-125-6.2-235.8-66.2-310.1-157.2-39.3 67.6-20.5 156.1 46.6 200.8-24.7-.7-47.9-7.5-68.2-18.9-1.6 69.8 48.2 134.9 120.7 149.3-21.2 5.7-44.3 7.1-68 2.5 19.2 59.8 74.8 103.2 140.6 104.5-63.2 49.5-142.9 71.7-222.7 62.3 66.6 42.7 145.6 67.6 230.7 67.6 279.3 0 437.2-236 427.7-447.5 29-20.8 54.6-47.3 74.8-77.5z"/></svg>