<?xml version="1.0" encoding="utf-8"?>
<!-- Generator: Adobe Illustrator 17.1.0, SVG Export Plug-In . SVG Version: 6.00 Build 0)  -->
<!DOCTYPE svg PUBLIC "-//W3C//DTD SVG 1.1//EN" "http://www.w3.org/Graphics/SVG/1.1/DTD/svg11.dtd">
<svg version="1.1" id="Layer_1" xmlns="http://www.w3.org/2000/svg" xmlns:xlink="http://www.w3.org/1999/xlink" x="0px" y="0px"
	 viewBox="0 0 792 1224" enable-background="new 0 0 792 1224" xml:space="preserve">
<path id="twitter-icon" fill="#00B8E6" d="M762.7,384.8c-27.1,11.9-55.9,20.1-86.3,23.7c31-18.7,55-48.1,66.2-83.3
	c-29,17.3-61.2,29.7-95.6,36.5c-27.5-29.3-66.6-47.6-109.9-47.6c-97.2,0-168.6,90.6-146.5,184.8c-125-6.2-235.8-66.2-310.1-157.2
	C41.2,409.3,60,497.8,127.1,542.5c-24.7-0.7-47.9-7.5-68.2-18.9c-1.6,69.8,48.2,134.9,120.7,149.3c-21.2,5.7-44.3,7.1-68,2.5
	c19.2,59.8,74.8,103.2,140.6,104.5c-63.2,49.5-142.9,71.7-222.7,62.3c66.6,42.7,145.6,67.6,230.7,67.6
	c279.3,0,437.2-236,427.7-447.5C716.9,441.5,742.5,415,762.7,384.8z"/>
</svg>
